  0
SECTION
  2
HEADER
  9
$ACADVER
  1
AC1009
  9
$DWGCODEPAGE
  3
undefined
  9
$INSBASE
 10
0.0
 20
0.0
 30
0.0
  9
$EXTMIN
 10
1.000000000000000E+20
 20
1.000000000000000E+20
 30
1.000000000000000E+20
  9
$EXTMAX
 10
-1.000000000000000E+20
 20
-1.000000000000000E+20
 30
-1.000000000000000E+20
  9
$LIMMIN
 10
0.0
 20
0.0
  9
$LIMMAX
 10
12.0
 20
9.0
  9
$ORTHOMODE
 70
     0
  9
$REGENMODE
 70
     1
  9
$FILLMODE
 70
     1
  9
$QTEXTMODE
 70
     0
  9
$MIRRTEXT
 70
     1
  9
$DRAGMODE
 70
     2
  9
$LTSCALE
 40
1.0
  9
$OSMODE
 70
    37
  9
$ATTMODE
 70
     1
  9
$TEXTSIZE
 40
0.2
  9
$TRACEWID
 40
0.05
  9
$TEXTSTYLE
  7
STANDARD
  9
$CLAYER
  8
0
  9
$CELTYPE
  6
BYLAYER
  9
$CECOLOR
 62
   256
  9
$DIMSCALE
 40
1.0
  9
$DIMASZ
 40
0.18
  9
$DIMEXO
 40
0.0625
  9
$DIMDLI
 40
0.38
  9
$DIMRND
 40
0.0
  9
$DIMDLE
 40
0.0
  9
$DIMEXE
 40
0.18
  9
$DIMTP
 40
0.0
  9
$DIMTM
 40
0.0
  9
$DIMTXT
 40
0.18
  9
$DIMCEN
 40
0.09
  9
$DIMTSZ
 40
0.0
  9
$DIMTOL
 70
     0
  9
$DIMLIM
 70
     0
  9
$DIMTIH
 70
     1
  9
$DIMTOH
 70
     1
  9
$DIMSE1
 70
     0
  9
$DIMSE2
 70
     0
  9
$DIMTAD
 70
     0
  9
$DIMZIN
 70
     0
  9
$DIMBLK
  1

  9
$DIMASO
 70
     1
  9
$DIMSHO
 70
     1
  9
$DIMPOST
  1

  9
$DIMAPOST
  1

  9
$DIMALT
 70
     0
  9
$DIMALTD
 70
     2
  9
$DIMALTF
 40
25.4
  9
$DIMLFAC
 40
1.0
  9
$DIMTOFL
 70
     0
  9
$DIMTVP
 40
0.0
  9
$DIMTIX
 70
     0
  9
$DIMSOXD
 70
     0
  9
$DIMSAH
 70
     0
  9
$DIMBLK1
  1

  9
$DIMBLK2
  1

  9
$DIMSTYLE
  2
STANDARD
  9
$DIMCLRD
 70
     0
  9
$DIMCLRE
 70
     0
  9
$DIMCLRT
 70
     0
  9
$DIMTFAC
 40
1.0
  9
$DIMGAP
 40
0.09
  9
$LUNITS
 70
     2
  9
$LUPREC
 70
     4
  9
$SKETCHINC
 40
0.1
  9
$FILLETRAD
 40
0.5
  9
$AUNITS
 70
     0
  9
$AUPREC
 70
     0
  9
$MENU
  1
.
  9
$ELEVATION
 40
0.0
  9
$PELEVATION
 40
0.0
  9
$THICKNESS
 40
0.0
  9
$LIMCHECK
 70
     0
  9
$CHAMFERA
 40
0.0
  9
$CHAMFERB
 40
0.0
  9
$SKPOLY
 70
     0
  9
$TDCREATE
 40
2457175.844027778
  9
$TDUPDATE
 40
2457175.844027778
  9
$TDINDWG
 40
0.0000000116
  9
$TDUSRTIMER
 40
0.0000000116
  9
$USRTIMER
 70
     1
  9
$ANGBASE
 50
0.0
  9
$ANGDIR
 70
     0
  9
$PDMODE
 70
     0
  9
$PDSIZE
 40
0.0
  9
$PLINEWID
 40
0.0
  9
$COORDS
 70
     1
  9
$SPLFRAME
 70
     0
  9
$SPLINETYPE
 70
     6
  9
$SPLINESEGS
 70
     8
  9
$ATTDIA
 70
     0
  9
$ATTREQ
 70
     1
  9
$HANDLING
 70
     1
  9
$HANDSEED
  5
100000A5
  9
$SURFTAB1
 70
     6
  9
$SURFTAB2
 70
     6
  9
$SURFTYPE
 70
     6
  9
$SURFU
 70
     6
  9
$SURFV
 70
     6
  9
$UCSNAME
  2

  9
$UCSORG
 10
0.0
 20
0.0
 30
0.0
  9
$UCSXDIR
 10
1.0
 20
0.0
 30
0.0
  9
$UCSYDIR
 10
0.0
 20
1.0
 30
0.0
  9
$PUCSNAME
  2

  9
$PUCSORG
 10
0.0
 20
0.0
 30
0.0
  9
$PUCSXDIR
 10
1.0
 20
0.0
 30
0.0
  9
$PUCSYDIR
 10
0.0
 20
1.0
 30
0.0
  9
$USERI1
 70
     0
  9
$USERI2
 70
     0
  9
$USERI3
 70
     0
  9
$USERI4
 70
     0
  9
$USERI5
 70
     0
  9
$USERR1
 40
0.0
  9
$USERR2
 40
0.0
  9
$USERR3
 40
0.0
  9
$USERR4
 40
0.0
  9
$USERR5
 40
0.0
  9
$WORLDVIEW
 70
     1
  9
$SHADEDGE
 70
     3
  9
$SHADEDIF
 70
    70
  9
$TILEMODE
 70
     1
  9
$MAXACTVP
 70
    64
  9
$PLIMCHECK
 70
     0
  9
$PEXTMIN
 10
1.000000000000000E+20
 20
1.000000000000000E+20
 30
1.000000000000000E+20
  9
$PEXTMAX
 10
-1.000000000000000E+20
 20
-1.000000000000000E+20
 30
-1.000000000000000E+20
  9
$PLIMMIN
 10
0.0
 20
0.0
  9
$PLIMMAX
 10
12.0
 20
9.0
  9
$UNITMODE
 70
     0
  9
$VISRETAIN
 70
     1
  9
$PLINEGEN
 70
     0
  9
$PSLTSCALE
 70
     1
  0
ENDSEC
  0
SECTION
  2
TABLES
  0
TABLE
  2
VPORT
 70
     1
  0
VPORT
  2
*ACTIVE
 70
     0
 10
0.0
 20
0.0
 11
1.0
 21
1.0
 12
10.42990654205607
 22
4.5
 13
0.0
 23
0.0
 14
0.5
 24
0.5
 15
0.5
 25
0.5
 16
0.0
 26
0.0
 36
1.0
 17
0.0
 27
0.0
 37
0.0
 40
9.0
 41
1.972972972850329
 42
50.0
 43
0.0
 44
0.0
 50
0.0
 51
0.0
 71
     0
 72
   100
 73
     1
 74
     3
 75
     0
 76
     0
 77
     0
 78
     0
  0
ENDTAB
  0
TABLE
  2
LTYPE
 70
     5
  0
LTYPE
  2
CONTINUOUS
 70
     0
  3
Solid line
 72
    65
 73
     0
 40
0.0
  0
LTYPE
  2
HIDDEN
 70
     0
  3
Hidden line ____ ____ ____ ____ 
 72
    83
 73
     2
 40
0.125
 49
0.25
 49
-0.125
  0
LTYPE
  2
PHANTOM
 70
     0
  3
Phantom line ______  __  __  ______  __  __
 72
    83
 73
     6
 40
0.5
 49
0.625
 49
-0.125
 49
0.125
 49
-0.125
 49
0.125
 49
-0.125
  0
LTYPE
  2
CENTER
 70
     0
  3
Center line ____ _ ____ _ ____ _
 72
    83
 73
     4
 40
0.5
 49
0.625
 49
-0.125
 49
0.125
 49
-0.125
  0
LTYPE
  2
DASHED
 70
     0
  3
Dashed line __ __ __ __
 72
    83
 73
     2
 40
0.25
 49
0.5
 49
-0.25
  0
ENDTAB
  0
TABLE
  2
LAYER
 70
     5
  0
LAYER
  2
0
 70
     0
 62
     7
  6
CONTINUOUS
  0
LAYER
  2
HIDDEN
 70
     0
 62
    -7
  6
HIDDEN
  0
LAYER
  2
VISIBLE
 70
     0
 62
     7
  6
CONTINUOUS
  0
LAYER
  2
TANGENT_LINES
 70
     0
 62
     7
  6
CONTINUOUS
  0
LAYER
  2
INVISIBLE_LINES
 70
     0
 62
    -7
  6
CONTINUOUS
  0
ENDTAB
  0
TABLE
  2
STYLE
 70
     2
  0
STYLE
  2
STANDARD
 70
     0
 40
0.0
 41
1.0
 50
0.0
 71
     0
 42
0.2
  3
txt
  4

  0
STYLE
  2
ODATTFSTYLE
 70
     0
 40
0.0
 41
1.0
 50
0.0
 71
     0
 42
0.2
  3
Verdana.ttf
  4

  0
ENDTAB
  0
TABLE
  2
VIEW
 70
     0
  0
ENDTAB
  0
TABLE
  2
UCS
 70
     0
  0
ENDTAB
  0
TABLE
  2
APPID
 70
     1
  0
APPID
  2
ACAD
 70
     0
  0
ENDTAB
  0
TABLE
  2
DIMSTYLE
 70
     1
  0
DIMSTYLE
  2
STANDARD
 70
     0
  3

  4

  5

  6

  7

 40
1.0
 41
0.18
 42
0.0625
 43
0.38
 44
0.18
 45
0.0
 46
0.0
 47
0.0
 48
0.0
140
0.18
141
0.09
142
0.0
143
25.4
144
1.0
145
0.0
146
1.0
147
0.09
 71
     0
 72
     0
 73
     1
 74
     1
 75
     0
 76
     0
 77
     0
 78
     0
170
     0
171
     2
172
     0
173
     0
174
     0
175
     0
176
     0
177
     0
178
     0
  0
ENDTAB
  0
ENDSEC
  0
SECTION
  2
BLOCKS
  0
BLOCK
  8
0
  2
$MODEL_SPACE
 70
     0
 10
0.0
 20
0.0
 30
0.0
  3
$MODEL_SPACE
  1

  0
ENDBLK
  5
21
  8
0
  0
BLOCK
 67
     1
  8
0
  2
$PAPER_SPACE
 70
     0
 10
0.0
 20
0.0
 30
0.0
  3
$PAPER_SPACE
  1

  0
ENDBLK
  5
1D
 67
     1
  8
0
  0
ENDSEC
  0
SECTION
  2
ENTITIES
  0
LINE
  5
F54AB
  8
VISIBLE
 10
-1.25
 20
0.3679999999999999
 30
0.0
 11
-1.75
 21
0.3679999999999999
 31
0.0
  0
LINE
  5
F54AC
  8
VISIBLE
 10
-1.75
 20
0.2499999999999998
 30
0.0
 11
-1.75
 21
-1.75
 31
0.0
  0
LINE
  5
F54AD
  8
VISIBLE
 10
1.250000000000001
 20
-1.868
 30
0.0
 11
1.250000000000001
 21
-1.75
 31
0.0
  0
LINE
  5
F54AE
  8
VISIBLE
 10
-1.75
 20
-1.868
 30
0.0
 11
-1.75
 21
-1.75
 31
0.0
  0
LINE
  5
F54AF
  8
VISIBLE
 10
1.868
 20
-0.2499999999999999
 30
0.0
 11
1.75
 21
-0.2499999999999999
 31
0.0
  0
LINE
  5
F54B0
  8
VISIBLE
 10
0.2500000000000009
 20
0.3680000000000003
 30
0.0
 11
0.2500000000000009
 21
0.2500000000000001
 31
0.0
  0
LINE
  5
F54B1
  8
VISIBLE
 10
0.7500000000000013
 20
-1.868
 30
0.0
 11
0.7500000000000013
 21
-1.75
 31
0.0
  0
LINE
  5
F54B2
  8
VISIBLE
 10
-1.25
 20
0.2499999999999999
 30
0.0
 11
-1.75
 21
0.2499999999999998
 31
0.0
  0
LINE
  5
F54B3
  8
VISIBLE
 10
1.75
 20
1.75
 30
0.0
 11
-1.75
 21
1.75
 31
0.0
  0
LINE
  5
F54B4
  8
VISIBLE
 10
1.75
 20
1.25
 30
0.0
 11
1.75
 21
0.7500000000000002
 31
0.0
  0
LINE
  5
F54B5
  8
VISIBLE
 10
1.250000000000001
 20
-1.75
 30
0.0
 11
0.7500000000000013
 21
-1.75
 31
0.0
  0
LINE
  5
F54B6
  8
VISIBLE
 10
-1.75
 20
1.486
 30
0.0
 11
-1.25
 21
1.486
 31
0.0
  0
LINE
  5
F54B7
  8
VISIBLE
 10
-1.75
 20
1.75
 30
0.0
 11
-1.75
 21
1.486
 31
0.0
  0
LINE
  5
F54B8
  8
VISIBLE
 10
-1.25
 20
1.368
 30
0.0
 11
-1.75
 21
1.368
 31
0.0
  0
LINE
  5
F54B9
  8
VISIBLE
 10
-1.25
 20
1.486
 30
0.0
 11
-1.25
 21
1.368
 31
0.0
  0
LINE
  5
F54BA
  8
VISIBLE
 10
-0.2499999999999994
 20
1.486
 30
0.0
 11
-0.2499999999999993
 21
1.368
 31
0.0
  0
LINE
  5
F54BB
  8
VISIBLE
 10
-0.7499999999999996
 20
1.486
 30
0.0
 11
-0.2499999999999994
 21
1.486
 31
0.0
  0
LINE
  5
F54BC
  8
VISIBLE
 10
-0.7499999999999996
 20
1.368
 30
0.0
 11
-0.7499999999999997
 21
1.486
 31
0.0
  0
LINE
  5
F54BD
  8
VISIBLE
 10
1.868
 20
-0.7499999999999999
 30
0.0
 11
1.75
 21
-0.7499999999999999
 31
0.0
  0
LINE
  5
F54BE
  8
VISIBLE
 10
1.75
 20
0.2500000000000001
 30
0.0
 11
1.75
 21
-0.2499999999999999
 31
0.0
  0
LINE
  5
F54BF
  8
VISIBLE
 10
-0.2499999999999994
 20
1.368
 30
0.0
 11
-0.7499999999999996
 21
1.368
 31
0.0
  0
LINE
  5
F54C0
  8
VISIBLE
 10
0.7500000000000008
 20
1.368
 30
0.0
 11
0.2500000000000006
 21
1.368
 31
0.0
  0
LINE
  5
F54C1
  8
VISIBLE
 10
0.2500000000000008
 20
0.2500000000000001
 30
0.0
 11
0.7500000000000009
 21
0.2500000000000002
 31
0.0
  0
LINE
  5
F54C2
  8
VISIBLE
 10
0.2500000000000006
 20
1.486
 30
0.0
 11
0.7500000000000008
 21
1.486
 31
0.0
  0
LINE
  5
F54C3
  8
VISIBLE
 10
1.250000000000001
 20
-1.868
 30
0.0
 11
1.750000000000002
 21
-1.868
 31
0.0
  0
LINE
  5
F54C4
  8
VISIBLE
 10
-1.25
 20
0.2499999999999999
 30
0.0
 11
-1.25
 21
0.3679999999999999
 31
0.0
  0
LINE
  5
F54C5
  8
VISIBLE
 10
0.750000000000001
 20
1.486
 30
0.0
 11
0.750000000000001
 21
1.368
 31
0.0
  0
LINE
  5
F54C6
  8
VISIBLE
 10
0.7500000000000009
 20
0.3680000000000003
 30
0.0
 11
0.2500000000000008
 21
0.3680000000000003
 31
0.0
  0
LINE
  5
F54C7
  8
VISIBLE
 10
0.2500000000000009
 20
1.368
 30
0.0
 11
0.2500000000000009
 21
1.486
 31
0.0
  0
LINE
  5
F54C8
  8
VISIBLE
 10
1.75
 20
-0.7499999999999999
 30
0.0
 11
1.75
 21
-1.25
 31
0.0
  0
LINE
  5
F54C9
  8
VISIBLE
 10
1.868
 20
-0.7499999999999999
 30
0.0
 11
1.868
 21
-0.2499999999999999
 31
0.0
  0
LINE
  5
F54CA
  8
VISIBLE
 10
0.7500000000000011
 20
0.2500000000000001
 30
0.0
 11
0.7500000000000011
 21
0.3680000000000003
 31
0.0
  0
LINE
  5
F54CB
  8
VISIBLE
 10
-0.7499999999999992
 20
0.3680000000000002
 30
0.0
 11
-0.7499999999999992
 21
0.25
 31
0.0
  0
LINE
  5
F54CC
  8
VISIBLE
 10
1.868
 20
-1.75
 30
0.0
 11
1.75
 21
-1.75
 31
0.0
  0
LINE
  5
F54CD
  8
VISIBLE
 10
-0.7499999999999988
 20
-1.75
 30
0.0
 11
-1.249999999999999
 21
-1.75
 31
0.0
  0
LINE
  5
F54CE
  8
VISIBLE
 10
1.868
 20
1.75
 30
0.0
 11
1.868
 21
1.25
 31
0.0
  0
LINE
  5
F54CF
  8
VISIBLE
 10
0.7500000000000013
 20
-1.868
 30
0.0
 11
0.2500000000000013
 21
-1.868
 31
0.0
  0
LINE
  5
F54D0
  8
VISIBLE
 10
-0.2499999999999992
 20
0.3680000000000002
 30
0.0
 11
-0.7499999999999993
 21
0.3680000000000002
 31
0.0
  0
LINE
  5
F54D1
  8
VISIBLE
 10
1.868
 20
-1.25
 30
0.0
 11
1.75
 21
-1.25
 31
0.0
  0
LINE
  5
F54D2
  8
VISIBLE
 10
0.2500000000000013
 20
-1.75
 30
0.0
 11
-0.2499999999999988
 21
-1.75
 31
0.0
  0
LINE
  5
F54D3
  8
VISIBLE
 10
1.868
 20
0.7500000000000002
 30
0.0
 11
1.75
 21
0.7500000000000002
 31
0.0
  0
LINE
  5
F54D4
  8
VISIBLE
 10
-0.7499999999999988
 20
-1.868
 30
0.0
 11
-0.7499999999999988
 21
-1.75
 31
0.0
  0
LINE
  5
F54D5
  8
VISIBLE
 10
1.75
 20
1.75
 30
0.0
 11
1.868
 21
1.75
 31
0.0
  0
LINE
  5
F54D6
  8
VISIBLE
 10
0.2500000000000013
 20
-1.868
 30
0.0
 11
0.2500000000000013
 21
-1.75
 31
0.0
  0
LINE
  5
F54D7
  8
VISIBLE
 10
-0.2499999999999993
 20
0.25
 30
0.0
 11
-0.2499999999999993
 21
0.3680000000000002
 31
0.0
  0
LINE
  5
F54D8
  8
VISIBLE
 10
1.750000000000001
 20
-1.868
 30
0.0
 11
1.75
 21
-1.75
 31
0.0
  0
LINE
  5
F54D9
  8
VISIBLE
 10
-1.75
 20
1.368
 30
0.0
 11
-1.75
 21
0.3679999999999999
 31
0.0
  0
LINE
  5
F54DA
  8
VISIBLE
 10
-0.7499999999999988
 20
-1.868
 30
0.0
 11
-0.2499999999999988
 21
-1.868
 31
0.0
  0
LINE
  5
F54DB
  8
VISIBLE
 10
1.868
 20
0.2500000000000001
 30
0.0
 11
1.75
 21
0.2500000000000001
 31
0.0
  0
LINE
  5
F54DC
  8
VISIBLE
 10
-0.7499999999999992
 20
0.2499999999999999
 30
0.0
 11
-0.2499999999999992
 21
0.2500000000000001
 31
0.0
  0
LINE
  5
F54DD
  8
VISIBLE
 10
-1.75
 20
-1.868
 30
0.0
 11
-1.249999999999999
 21
-1.868
 31
0.0
  0
LINE
  5
F54DE
  8
VISIBLE
 10
1.868
 20
-1.75
 30
0.0
 11
1.868
 21
-1.25
 31
0.0
  0
LINE
  5
F54DF
  8
VISIBLE
 10
1.868
 20
0.7500000000000002
 30
0.0
 11
1.868
 21
0.2500000000000001
 31
0.0
  0
LINE
  5
F54E0
  8
VISIBLE
 10
-1.249999999999999
 20
-1.868
 30
0.0
 11
-1.249999999999999
 21
-1.75
 31
0.0
  0
LINE
  5
F54E1
  8
VISIBLE
 10
-0.2499999999999988
 20
-1.868
 30
0.0
 11
-0.2499999999999988
 21
-1.75
 31
0.0
  0
LINE
  5
F54E2
  8
VISIBLE
 10
1.868
 20
1.25
 30
0.0
 11
1.75
 21
1.25
 31
0.0
  0
ENDSEC
  0
EOF
