G75*
G70*
%OFA0B0*%
%FSLAX24Y24*%
%IPPOS*%
%LPD*%
%AMOC8*
5,1,8,0,0,1.08239X$1,22.5*
%
%ADD10C,0.0100*%
%ADD11C,0.0040*%
%ADD12C,0.0520*%
%ADD13R,0.0787X0.0591*%
%ADD14R,0.0787X0.1496*%
%ADD15R,0.0433X0.0433*%
%ADD16R,0.0433X0.0394*%
%ADD17R,0.0394X0.0433*%
%ADD18R,0.0886X0.0886*%
%ADD19R,0.0740X0.0740*%
%ADD20C,0.0740*%
%ADD21C,0.0515*%
%ADD22C,0.1122*%
%ADD23C,0.0160*%
%ADD24C,0.0396*%
%ADD25R,0.0396X0.0396*%
D10*
X002681Y002681D02*
X022181Y002681D01*
X022181Y022181D01*
X002681Y022181D01*
X002681Y002681D01*
D11*
X010581Y021465D02*
X010735Y021772D01*
X010428Y021772D02*
X010581Y021465D01*
D12*
X010921Y017181D02*
X011441Y017181D01*
X011441Y016181D02*
X010921Y016181D01*
X010921Y015181D02*
X011441Y015181D01*
X011441Y014181D02*
X010921Y014181D01*
X010921Y013181D02*
X011441Y013181D01*
X011441Y012181D02*
X010921Y012181D01*
X010921Y011181D02*
X011441Y011181D01*
X011441Y010181D02*
X010921Y010181D01*
X010921Y009181D02*
X011441Y009181D01*
X011441Y008181D02*
X010921Y008181D01*
X010921Y007181D02*
X011441Y007181D01*
X011441Y006181D02*
X010921Y006181D01*
X010921Y005181D02*
X011441Y005181D01*
X011441Y004181D02*
X010921Y004181D01*
X013921Y004181D02*
X014441Y004181D01*
X014441Y005181D02*
X013921Y005181D01*
X013921Y006181D02*
X014441Y006181D01*
X014441Y007181D02*
X013921Y007181D01*
X013921Y008181D02*
X014441Y008181D01*
X014441Y009181D02*
X013921Y009181D01*
X013921Y010181D02*
X014441Y010181D01*
X014441Y011181D02*
X013921Y011181D01*
X013921Y012181D02*
X014441Y012181D01*
X014441Y013181D02*
X013921Y013181D01*
X013921Y014181D02*
X014441Y014181D01*
X014441Y015181D02*
X013921Y015181D01*
X013921Y016181D02*
X014441Y016181D01*
X014441Y017181D02*
X013921Y017181D01*
D13*
X018921Y019275D03*
X018921Y020181D03*
X018921Y021086D03*
D14*
X016441Y020181D03*
D15*
X016346Y017181D03*
X017016Y017181D03*
X020346Y017181D03*
X021016Y017181D03*
X021016Y015681D03*
X020346Y015681D03*
X020346Y014181D03*
X021016Y014181D03*
X021016Y018681D03*
X020346Y018681D03*
X020346Y021681D03*
X021016Y021681D03*
X009016Y005181D03*
X008346Y005181D03*
D16*
X016346Y009181D03*
X017016Y009181D03*
X020346Y020181D03*
X021016Y020181D03*
D17*
X019016Y017181D03*
X018346Y017181D03*
X018346Y015681D03*
X019016Y015681D03*
X017016Y015681D03*
X016346Y015681D03*
X020346Y012681D03*
X021016Y012681D03*
X009016Y017181D03*
X008346Y017181D03*
D18*
X008960Y013181D03*
X006401Y013181D03*
X016401Y013181D03*
X018960Y013181D03*
D19*
X021681Y011681D03*
X021681Y006681D03*
X010681Y020181D03*
X003181Y016681D03*
X003181Y011681D03*
X003181Y006681D03*
D20*
X003181Y005681D03*
X003181Y004681D03*
X003181Y003681D03*
X003181Y008681D03*
X003181Y009681D03*
X003181Y010681D03*
X003181Y013681D03*
X003181Y014681D03*
X003181Y015681D03*
X008681Y009681D03*
X008681Y008681D03*
X008681Y007681D03*
X011681Y020181D03*
X012681Y020181D03*
X013681Y020181D03*
X014681Y020181D03*
X021681Y010681D03*
X021681Y009681D03*
X021681Y008681D03*
X021681Y005681D03*
X021681Y004681D03*
X021681Y003681D03*
D21*
X005781Y018981D03*
X005781Y019681D03*
X005781Y020351D03*
X005161Y020041D03*
X005161Y019351D03*
D22*
X003681Y018244D03*
X003681Y021118D03*
D23*
X004224Y021651D02*
X009935Y021651D01*
X009936Y021637D01*
X010024Y021461D01*
X009125Y021461D01*
X009022Y021418D01*
X008944Y021340D01*
X008735Y021131D01*
X006295Y021131D01*
X006192Y021088D01*
X006114Y021010D01*
X005992Y020888D01*
X005888Y020802D01*
X005872Y020808D01*
X005690Y020808D01*
X005522Y020739D01*
X005393Y020610D01*
X005333Y020465D01*
X005252Y020498D01*
X005070Y020498D01*
X004902Y020429D01*
X004773Y020300D01*
X004703Y020132D01*
X004703Y019950D01*
X004773Y019782D01*
X004859Y019696D01*
X004773Y019610D01*
X004703Y019442D01*
X004703Y019260D01*
X004773Y019092D01*
X004902Y018963D01*
X005070Y018893D01*
X005252Y018893D01*
X005346Y018932D01*
X005354Y018878D01*
X005376Y018813D01*
X005407Y018752D01*
X005447Y018696D01*
X005496Y018647D01*
X005552Y018607D01*
X005613Y018576D01*
X005678Y018554D01*
X005746Y018543D01*
X005781Y018543D01*
X005815Y018543D01*
X005883Y018554D01*
X005949Y018576D01*
X006010Y018607D01*
X006066Y018647D01*
X006115Y018696D01*
X006155Y018752D01*
X006186Y018813D01*
X006208Y018878D01*
X006218Y018946D01*
X006218Y018981D01*
X006218Y019015D01*
X006208Y019083D01*
X006186Y019149D01*
X006155Y019210D01*
X006115Y019266D01*
X006066Y019315D01*
X006063Y019316D01*
X006169Y019422D01*
X006238Y019590D01*
X006238Y019772D01*
X006169Y019940D01*
X006093Y020016D01*
X006169Y020092D01*
X006238Y020260D01*
X006238Y020365D01*
X006327Y020438D01*
X006340Y020444D01*
X006369Y020474D01*
X006402Y020500D01*
X006409Y020513D01*
X006467Y020571D01*
X008795Y020571D01*
X008907Y020571D01*
X009010Y020614D01*
X009297Y020901D01*
X015398Y020901D01*
X015455Y020843D01*
X015602Y020783D01*
X015760Y020783D01*
X015847Y020819D01*
X015847Y020243D01*
X014065Y018461D01*
X013297Y018461D01*
X012032Y019726D01*
X012164Y019858D01*
X012193Y019927D01*
X012211Y019893D01*
X012261Y019823D01*
X012323Y019761D01*
X012393Y019711D01*
X012470Y019671D01*
X012552Y019644D01*
X012638Y019631D01*
X012661Y019631D01*
X012661Y020161D01*
X012701Y020161D01*
X012701Y019631D01*
X012724Y019631D01*
X012810Y019644D01*
X012892Y019671D01*
X012969Y019711D01*
X013039Y019761D01*
X013100Y019823D01*
X013151Y019893D01*
X013169Y019927D01*
X013198Y019858D01*
X013330Y019726D01*
X013183Y019579D01*
X013102Y019579D01*
X012955Y019518D01*
X012843Y019406D01*
X012783Y019260D01*
X012783Y019102D01*
X012843Y018955D01*
X012955Y018843D01*
X013102Y018783D01*
X013260Y018783D01*
X013406Y018843D01*
X013518Y018955D01*
X013579Y019102D01*
X013579Y019183D01*
X013918Y019522D01*
X013961Y019625D01*
X013961Y019680D01*
X014004Y019698D01*
X014164Y019858D01*
X014181Y019899D01*
X014198Y019858D01*
X014330Y019726D01*
X014183Y019579D01*
X014102Y019579D01*
X013955Y019518D01*
X013843Y019406D01*
X013783Y019260D01*
X013783Y019102D01*
X013843Y018955D01*
X013955Y018843D01*
X014102Y018783D01*
X014260Y018783D01*
X014406Y018843D01*
X014518Y018955D01*
X014579Y019102D01*
X014579Y019183D01*
X014918Y019522D01*
X014961Y019625D01*
X014961Y019680D01*
X015004Y019698D01*
X015164Y019858D01*
X015251Y020068D01*
X015251Y020294D01*
X015164Y020504D01*
X015004Y020664D01*
X014794Y020751D01*
X014568Y020751D01*
X014358Y020664D01*
X014198Y020504D01*
X014181Y020463D01*
X014164Y020504D01*
X014004Y020664D01*
X013794Y020751D01*
X013568Y020751D01*
X013358Y020664D01*
X013198Y020504D01*
X013169Y020434D01*
X013151Y020469D01*
X013100Y020539D01*
X013039Y020600D01*
X012969Y020651D01*
X012892Y020691D01*
X012810Y020717D01*
X012724Y020731D01*
X012701Y020731D01*
X012701Y020201D01*
X012661Y020201D01*
X012661Y020731D01*
X012638Y020731D01*
X012552Y020717D01*
X012470Y020691D01*
X012393Y020651D01*
X012323Y020600D01*
X012261Y020539D01*
X012211Y020469D01*
X012193Y020434D01*
X012164Y020504D01*
X012004Y020664D01*
X011794Y020751D01*
X011568Y020751D01*
X011358Y020664D01*
X011251Y020557D01*
X011251Y020634D01*
X011134Y020751D01*
X010228Y020751D01*
X010111Y020634D01*
X010111Y019728D01*
X010228Y019611D01*
X011134Y019611D01*
X011251Y019728D01*
X011251Y019805D01*
X011330Y019726D01*
X010065Y018461D01*
X009402Y018461D01*
X009291Y018461D01*
X009188Y018418D01*
X008367Y017597D01*
X008067Y017597D01*
X007949Y017480D01*
X007949Y016882D01*
X008067Y016764D01*
X008626Y016764D01*
X008681Y016819D01*
X008736Y016764D01*
X009295Y016764D01*
X009412Y016882D01*
X009412Y016901D01*
X010505Y016901D01*
X010065Y016461D01*
X003797Y016461D01*
X003751Y016507D01*
X003751Y017134D01*
X003634Y017251D01*
X003211Y017251D01*
X003211Y017638D01*
X003250Y017599D01*
X003530Y017483D01*
X003832Y017483D01*
X004112Y017599D01*
X004326Y017813D01*
X004442Y018093D01*
X004442Y018395D01*
X004326Y018675D01*
X004112Y018889D01*
X003832Y019005D01*
X003530Y019005D01*
X003250Y018889D01*
X003211Y018850D01*
X003211Y020512D01*
X003250Y020473D01*
X003530Y020357D01*
X003832Y020357D01*
X004112Y020473D01*
X004326Y020687D01*
X004442Y020967D01*
X004442Y021269D01*
X004326Y021549D01*
X004224Y021651D01*
X004327Y021548D02*
X009981Y021548D01*
X009181Y021181D02*
X015681Y021181D01*
X018827Y021181D01*
X018921Y021086D01*
X019752Y021086D01*
X020346Y021681D01*
X020326Y021264D02*
X020646Y021264D01*
X020697Y021316D01*
X020730Y021297D01*
X020775Y021284D01*
X020987Y021284D01*
X020987Y021651D01*
X021044Y021651D01*
X021044Y021284D01*
X021256Y021284D01*
X021302Y021297D01*
X021343Y021320D01*
X021376Y021354D01*
X021400Y021395D01*
X021412Y021441D01*
X021412Y021651D01*
X021651Y021651D01*
X021651Y015107D01*
X021418Y015340D01*
X021386Y015371D01*
X021400Y015395D01*
X021412Y015441D01*
X021412Y015653D01*
X021044Y015653D01*
X021044Y015709D01*
X021412Y015709D01*
X021412Y015921D01*
X021400Y015967D01*
X021376Y016008D01*
X021343Y016041D01*
X021302Y016065D01*
X021256Y016077D01*
X021044Y016077D01*
X021044Y015709D01*
X020987Y015709D01*
X020987Y016077D01*
X020775Y016077D01*
X020730Y016065D01*
X020697Y016046D01*
X020646Y016097D01*
X020047Y016097D01*
X019930Y015980D01*
X019930Y015961D01*
X019412Y015961D01*
X019412Y015980D01*
X019295Y016097D01*
X018736Y016097D01*
X018681Y016042D01*
X018626Y016097D01*
X018067Y016097D01*
X017949Y015980D01*
X017949Y015382D01*
X017968Y015363D01*
X017944Y015340D01*
X017944Y015339D01*
X017565Y014961D01*
X015521Y014961D01*
X015579Y015102D01*
X015579Y015183D01*
X015797Y015401D01*
X015949Y015401D01*
X015949Y015382D01*
X016067Y015264D01*
X016626Y015264D01*
X016681Y015319D01*
X016736Y015264D01*
X017295Y015264D01*
X017412Y015382D01*
X017412Y015516D01*
X017418Y015522D01*
X017418Y015522D01*
X017839Y015944D01*
X017840Y015944D01*
X017918Y016022D01*
X017961Y016125D01*
X017961Y016870D01*
X018067Y016764D01*
X018626Y016764D01*
X018681Y016819D01*
X018736Y016764D01*
X019295Y016764D01*
X019412Y016882D01*
X019412Y016901D01*
X019930Y016901D01*
X019930Y016882D01*
X020047Y016764D01*
X020646Y016764D01*
X020697Y016816D01*
X020730Y016797D01*
X020775Y016784D01*
X020987Y016784D01*
X020987Y017152D01*
X021044Y017152D01*
X021044Y016784D01*
X021256Y016784D01*
X021302Y016797D01*
X021343Y016820D01*
X021376Y016854D01*
X021400Y016895D01*
X021412Y016941D01*
X021412Y017153D01*
X021044Y017153D01*
X021044Y017209D01*
X021412Y017209D01*
X021412Y017421D01*
X021400Y017467D01*
X021376Y017508D01*
X021343Y017541D01*
X021302Y017565D01*
X021256Y017577D01*
X021044Y017577D01*
X021044Y017209D01*
X020987Y017209D01*
X020987Y017577D01*
X020775Y017577D01*
X020730Y017565D01*
X020697Y017546D01*
X020646Y017597D01*
X020047Y017597D01*
X019930Y017480D01*
X019930Y017461D01*
X019412Y017461D01*
X019412Y017480D01*
X019295Y017597D01*
X018736Y017597D01*
X018681Y017542D01*
X018626Y017597D01*
X018626Y017730D01*
X018918Y018022D01*
X018961Y018125D01*
X018961Y018237D01*
X018961Y018780D01*
X019398Y018780D01*
X019515Y018897D01*
X019515Y018995D01*
X019636Y018995D01*
X019930Y018702D01*
X019930Y018382D01*
X020047Y018264D01*
X020646Y018264D01*
X020697Y018316D01*
X020730Y018297D01*
X020775Y018284D01*
X020987Y018284D01*
X020987Y018652D01*
X021044Y018652D01*
X021044Y018284D01*
X021256Y018284D01*
X021302Y018297D01*
X021343Y018320D01*
X021376Y018354D01*
X021400Y018395D01*
X021412Y018441D01*
X021412Y018653D01*
X021044Y018653D01*
X021044Y018709D01*
X021412Y018709D01*
X021412Y018921D01*
X021400Y018967D01*
X021376Y019008D01*
X021343Y019041D01*
X021302Y019065D01*
X021256Y019077D01*
X021044Y019077D01*
X021044Y018709D01*
X020987Y018709D01*
X020987Y019077D01*
X020775Y019077D01*
X020730Y019065D01*
X020697Y019046D01*
X020646Y019097D01*
X020626Y019097D01*
X020626Y019784D01*
X020646Y019784D01*
X020697Y019835D01*
X020730Y019816D01*
X020775Y019804D01*
X020997Y019804D01*
X020997Y020162D01*
X021034Y020162D01*
X021034Y019804D01*
X021256Y019804D01*
X021302Y019816D01*
X021343Y019840D01*
X021376Y019874D01*
X021400Y019915D01*
X021412Y019960D01*
X021412Y020162D01*
X021034Y020162D01*
X021034Y020199D01*
X021412Y020199D01*
X021412Y020401D01*
X021400Y020447D01*
X021376Y020488D01*
X021343Y020522D01*
X021302Y020545D01*
X021256Y020558D01*
X021034Y020558D01*
X021034Y020200D01*
X020997Y020200D01*
X020997Y020558D01*
X020775Y020558D01*
X020730Y020545D01*
X020697Y020527D01*
X020646Y020578D01*
X020047Y020578D01*
X019930Y020461D01*
X019930Y019901D01*
X020047Y019784D01*
X020066Y019784D01*
X020066Y019357D01*
X019910Y019513D01*
X019807Y019555D01*
X019696Y019555D01*
X019515Y019555D01*
X019515Y019654D01*
X019440Y019728D01*
X019515Y019803D01*
X019515Y020559D01*
X019440Y020634D01*
X019515Y020708D01*
X019515Y020806D01*
X019807Y020806D01*
X019910Y020849D01*
X019989Y020928D01*
X020326Y021264D01*
X020292Y021231D02*
X021651Y021231D01*
X021681Y021181D02*
X021681Y020846D01*
X021016Y020181D01*
X020997Y020121D02*
X021034Y020121D01*
X021034Y020279D02*
X020997Y020279D01*
X020997Y020438D02*
X021034Y020438D01*
X021402Y020438D02*
X021651Y020438D01*
X021651Y020596D02*
X019477Y020596D01*
X019515Y020438D02*
X019930Y020438D01*
X019930Y020279D02*
X019515Y020279D01*
X019515Y020121D02*
X019930Y020121D01*
X019930Y019962D02*
X019515Y019962D01*
X019515Y019804D02*
X020027Y019804D01*
X020066Y019645D02*
X019515Y019645D01*
X019752Y019275D02*
X018921Y019275D01*
X018681Y019035D01*
X018681Y018181D01*
X018346Y017846D01*
X018346Y017181D01*
X018040Y016791D02*
X017961Y016791D01*
X017961Y016633D02*
X021651Y016633D01*
X021651Y016791D02*
X021281Y016791D01*
X021412Y016950D02*
X021651Y016950D01*
X021651Y017108D02*
X021412Y017108D01*
X021412Y017267D02*
X021651Y017267D01*
X021651Y017425D02*
X021411Y017425D01*
X021651Y017584D02*
X020659Y017584D01*
X020987Y017425D02*
X021044Y017425D01*
X021044Y017267D02*
X020987Y017267D01*
X020987Y017108D02*
X021044Y017108D01*
X021044Y016950D02*
X020987Y016950D01*
X020987Y016791D02*
X021044Y016791D01*
X020750Y016791D02*
X020673Y016791D01*
X020346Y017181D02*
X019016Y017181D01*
X019322Y016791D02*
X020020Y016791D01*
X020033Y017584D02*
X019309Y017584D01*
X018722Y017584D02*
X018639Y017584D01*
X018639Y017743D02*
X021651Y017743D01*
X021651Y017901D02*
X018797Y017901D01*
X018934Y018060D02*
X021651Y018060D01*
X021651Y018218D02*
X018961Y018218D01*
X018961Y018377D02*
X019935Y018377D01*
X019930Y018535D02*
X018961Y018535D01*
X018961Y018694D02*
X019930Y018694D01*
X019779Y018852D02*
X019470Y018852D01*
X019752Y019275D02*
X020346Y018681D01*
X020346Y020181D01*
X020665Y019804D02*
X021651Y019804D01*
X021651Y019962D02*
X021412Y019962D01*
X021412Y020121D02*
X021651Y020121D01*
X021651Y020279D02*
X021412Y020279D01*
X021034Y019962D02*
X020997Y019962D01*
X020626Y019645D02*
X021651Y019645D01*
X021651Y019487D02*
X020626Y019487D01*
X020626Y019328D02*
X021651Y019328D01*
X021651Y019169D02*
X020626Y019169D01*
X020987Y019011D02*
X021044Y019011D01*
X021044Y018852D02*
X020987Y018852D01*
X021044Y018694D02*
X021651Y018694D01*
X021651Y018852D02*
X021412Y018852D01*
X021373Y019011D02*
X021651Y019011D01*
X021651Y018535D02*
X021412Y018535D01*
X021389Y018377D02*
X021651Y018377D01*
X021044Y018377D02*
X020987Y018377D01*
X020987Y018535D02*
X021044Y018535D01*
X020066Y019487D02*
X019937Y019487D01*
X019515Y020755D02*
X021651Y020755D01*
X021651Y020913D02*
X019975Y020913D01*
X020133Y021072D02*
X021651Y021072D01*
X021651Y021389D02*
X021396Y021389D01*
X021412Y021548D02*
X021651Y021548D01*
X021681Y021681D02*
X021016Y021681D01*
X021181Y021516D01*
X021044Y021548D02*
X020987Y021548D01*
X020987Y021389D02*
X021044Y021389D01*
X017681Y018181D02*
X016681Y018681D01*
X016681Y019941D01*
X016441Y020181D01*
X016181Y020181D01*
X014181Y018181D01*
X013181Y018181D01*
X011681Y019681D01*
X010181Y018181D01*
X009346Y018181D01*
X008346Y017181D01*
X008040Y016791D02*
X003751Y016791D01*
X003751Y016633D02*
X010237Y016633D01*
X010395Y016791D02*
X009322Y016791D01*
X009181Y017181D02*
X009681Y017681D01*
X010181Y017681D01*
X010410Y018014D02*
X010418Y018022D01*
X011681Y019285D01*
X013022Y017944D01*
X013125Y017901D01*
X010521Y017901D01*
X010518Y017906D02*
X010410Y018014D01*
X010456Y018060D02*
X012906Y018060D01*
X012748Y018218D02*
X010614Y018218D01*
X010773Y018377D02*
X012589Y018377D01*
X012431Y018535D02*
X010931Y018535D01*
X011090Y018694D02*
X012272Y018694D01*
X012114Y018852D02*
X011248Y018852D01*
X011407Y019011D02*
X011955Y019011D01*
X011796Y019169D02*
X011565Y019169D01*
X011681Y019681D02*
X011681Y020181D01*
X012072Y020596D02*
X012319Y020596D01*
X012195Y020438D02*
X012191Y020438D01*
X012661Y020438D02*
X012701Y020438D01*
X012701Y020596D02*
X012661Y020596D01*
X012661Y020279D02*
X012701Y020279D01*
X012701Y020121D02*
X012661Y020121D01*
X012661Y019962D02*
X012701Y019962D01*
X012701Y019804D02*
X012661Y019804D01*
X012661Y019645D02*
X012701Y019645D01*
X012812Y019645D02*
X013249Y019645D01*
X013252Y019804D02*
X013081Y019804D01*
X012924Y019487D02*
X012271Y019487D01*
X012113Y019645D02*
X012550Y019645D01*
X012280Y019804D02*
X012110Y019804D01*
X012430Y019328D02*
X012811Y019328D01*
X012783Y019169D02*
X012588Y019169D01*
X012747Y019011D02*
X012820Y019011D01*
X012905Y018852D02*
X012946Y018852D01*
X013064Y018694D02*
X014298Y018694D01*
X014415Y018852D02*
X014456Y018852D01*
X014541Y019011D02*
X014615Y019011D01*
X014579Y019169D02*
X014774Y019169D01*
X014724Y019328D02*
X014932Y019328D01*
X014882Y019487D02*
X015091Y019487D01*
X014961Y019645D02*
X015249Y019645D01*
X015110Y019804D02*
X015408Y019804D01*
X015566Y019962D02*
X015207Y019962D01*
X015251Y020121D02*
X015725Y020121D01*
X015847Y020279D02*
X015251Y020279D01*
X015191Y020438D02*
X015847Y020438D01*
X015847Y020596D02*
X015072Y020596D01*
X014681Y020181D02*
X014681Y019681D01*
X014181Y019181D01*
X013924Y019487D02*
X013882Y019487D01*
X013811Y019328D02*
X013724Y019328D01*
X013783Y019169D02*
X013579Y019169D01*
X013541Y019011D02*
X013820Y019011D01*
X013946Y018852D02*
X013415Y018852D01*
X013223Y018535D02*
X014139Y018535D01*
X014181Y018181D02*
X014181Y017181D01*
X016346Y017181D01*
X015930Y016901D02*
X015930Y016882D01*
X016047Y016764D01*
X016646Y016764D01*
X016697Y016816D01*
X016730Y016797D01*
X016775Y016784D01*
X016987Y016784D01*
X016987Y017152D01*
X017044Y017152D01*
X017044Y016784D01*
X017256Y016784D01*
X017302Y016797D01*
X017343Y016820D01*
X017376Y016854D01*
X017400Y016895D01*
X017401Y016899D01*
X017401Y016297D01*
X017202Y016097D01*
X017141Y016097D01*
X017071Y016126D01*
X016960Y016126D01*
X016890Y016097D01*
X016736Y016097D01*
X016681Y016042D01*
X016626Y016097D01*
X016067Y016097D01*
X015949Y015980D01*
X015949Y015961D01*
X015737Y015961D01*
X015625Y015961D01*
X015522Y015918D01*
X015183Y015579D01*
X015102Y015579D01*
X014955Y015518D01*
X014845Y015408D01*
X014831Y015441D01*
X014701Y015571D01*
X014532Y015641D01*
X013829Y015641D01*
X013660Y015571D01*
X013531Y015441D01*
X013461Y015272D01*
X013461Y015089D01*
X013531Y014920D01*
X013660Y014791D01*
X013829Y014721D01*
X014245Y014721D01*
X014325Y014641D01*
X013829Y014641D01*
X013660Y014571D01*
X013531Y014441D01*
X013461Y014272D01*
X013461Y014089D01*
X013531Y013920D01*
X013660Y013791D01*
X013829Y013721D01*
X014532Y013721D01*
X014701Y013791D01*
X014811Y013901D01*
X019398Y013901D01*
X019455Y013843D01*
X019602Y013783D01*
X019760Y013783D01*
X019906Y013843D01*
X019937Y013874D01*
X020047Y013764D01*
X020066Y013764D01*
X020066Y013295D01*
X020109Y013192D01*
X020188Y013113D01*
X020203Y013097D01*
X020067Y013097D01*
X019949Y012980D01*
X019949Y012845D01*
X019944Y012840D01*
X019683Y012579D01*
X019602Y012579D01*
X019455Y012518D01*
X019343Y012406D01*
X019283Y012260D01*
X019283Y012102D01*
X019343Y011955D01*
X019455Y011843D01*
X019602Y011783D01*
X019760Y011783D01*
X019906Y011843D01*
X020018Y011955D01*
X020079Y012102D01*
X020079Y012183D01*
X020160Y012264D01*
X020626Y012264D01*
X020681Y012319D01*
X020736Y012264D01*
X021295Y012264D01*
X021401Y012370D01*
X021401Y012251D01*
X021228Y012251D01*
X021111Y012134D01*
X021111Y011228D01*
X021228Y011111D01*
X021305Y011111D01*
X021198Y011004D01*
X021180Y010961D01*
X020964Y010961D01*
X020906Y011018D01*
X020760Y011079D01*
X020602Y011079D01*
X020455Y011018D01*
X020343Y010906D01*
X020283Y010760D01*
X020283Y010602D01*
X020343Y010455D01*
X020455Y010343D01*
X020602Y010283D01*
X020760Y010283D01*
X020906Y010343D01*
X020964Y010401D01*
X021180Y010401D01*
X021198Y010358D01*
X021358Y010198D01*
X021399Y010181D01*
X021358Y010164D01*
X021198Y010004D01*
X021180Y009961D01*
X020774Y009961D01*
X019079Y011232D01*
X019079Y011462D01*
X018962Y011579D01*
X018400Y011579D01*
X018283Y011462D01*
X018283Y011461D01*
X016297Y011461D01*
X014833Y012925D01*
X014901Y013089D01*
X014901Y013272D01*
X014831Y013441D01*
X014701Y013571D01*
X014532Y013641D01*
X013829Y013641D01*
X013660Y013571D01*
X013531Y013441D01*
X013461Y013272D01*
X013461Y013089D01*
X013531Y012920D01*
X013660Y012791D01*
X013829Y012721D01*
X014245Y012721D01*
X014325Y012641D01*
X013829Y012641D01*
X013660Y012571D01*
X013531Y012441D01*
X013461Y012272D01*
X013461Y012089D01*
X013531Y011920D01*
X013660Y011791D01*
X013829Y011721D01*
X014245Y011721D01*
X014325Y011641D01*
X013829Y011641D01*
X013660Y011571D01*
X013550Y011461D01*
X012964Y011461D01*
X012906Y011518D01*
X012760Y011579D01*
X012602Y011579D01*
X012455Y011518D01*
X012343Y011406D01*
X012283Y011260D01*
X012283Y011102D01*
X012343Y010955D01*
X012455Y010843D01*
X012602Y010783D01*
X012760Y010783D01*
X012906Y010843D01*
X012964Y010901D01*
X013550Y010901D01*
X013660Y010791D01*
X013829Y010721D01*
X014532Y010721D01*
X014701Y010791D01*
X014831Y010920D01*
X014894Y011072D01*
X015444Y010522D01*
X015522Y010444D01*
X015625Y010401D01*
X016398Y010401D01*
X016455Y010343D01*
X016602Y010283D01*
X016760Y010283D01*
X016906Y010343D01*
X017018Y010455D01*
X017079Y010602D01*
X017079Y010760D01*
X017021Y010901D01*
X018283Y010901D01*
X018283Y010900D01*
X018400Y010783D01*
X018745Y010783D01*
X020497Y009469D01*
X020522Y009444D01*
X020541Y009436D01*
X020557Y009424D01*
X020592Y009415D01*
X020625Y009401D01*
X020646Y009401D01*
X020665Y009396D01*
X020701Y009401D01*
X021180Y009401D01*
X021198Y009358D01*
X021358Y009198D01*
X021399Y009181D01*
X021358Y009164D01*
X021198Y009004D01*
X021111Y008794D01*
X021111Y008568D01*
X021129Y008525D01*
X020065Y007461D01*
X014811Y007461D01*
X014701Y007571D01*
X014532Y007641D01*
X013829Y007641D01*
X013660Y007571D01*
X013531Y007441D01*
X013461Y007272D01*
X013461Y007089D01*
X013531Y006920D01*
X013660Y006791D01*
X013829Y006721D01*
X014532Y006721D01*
X014701Y006791D01*
X014811Y006901D01*
X020237Y006901D01*
X020340Y006944D01*
X020418Y007022D01*
X021525Y008129D01*
X021568Y008111D01*
X021651Y008111D01*
X021651Y007251D01*
X021228Y007251D01*
X021111Y007134D01*
X021111Y006955D01*
X021022Y006918D01*
X020565Y006461D01*
X014811Y006461D01*
X014701Y006571D01*
X014532Y006641D01*
X013829Y006641D01*
X013660Y006571D01*
X013531Y006441D01*
X013461Y006272D01*
X013461Y006089D01*
X013531Y005920D01*
X013660Y005791D01*
X013829Y005721D01*
X014325Y005721D01*
X014245Y005641D01*
X013829Y005641D01*
X013660Y005571D01*
X013531Y005441D01*
X013461Y005272D01*
X013461Y005089D01*
X013531Y004920D01*
X013660Y004791D01*
X013829Y004721D01*
X014532Y004721D01*
X014701Y004791D01*
X014811Y004901D01*
X016005Y004901D01*
X015565Y004461D01*
X014811Y004461D01*
X014701Y004571D01*
X014532Y004641D01*
X013829Y004641D01*
X013660Y004571D01*
X013531Y004441D01*
X013461Y004272D01*
X013461Y004089D01*
X013531Y003920D01*
X013660Y003791D01*
X013829Y003721D01*
X014532Y003721D01*
X014701Y003791D01*
X016296Y003791D01*
X016283Y003760D02*
X016283Y003679D01*
X016065Y003461D01*
X009797Y003461D01*
X009296Y003962D01*
X009296Y004764D01*
X009315Y004764D01*
X009432Y004882D01*
X009432Y004901D01*
X010550Y004901D01*
X010660Y004791D01*
X010829Y004721D01*
X011532Y004721D01*
X011701Y004791D01*
X011831Y004920D01*
X011901Y005089D01*
X011901Y005272D01*
X011831Y005441D01*
X011701Y005571D01*
X011532Y005641D01*
X010829Y005641D01*
X010660Y005571D01*
X010550Y005461D01*
X009432Y005461D01*
X009432Y005480D01*
X009315Y005597D01*
X008716Y005597D01*
X008665Y005546D01*
X008632Y005565D01*
X008587Y005577D01*
X008375Y005577D01*
X008375Y005209D01*
X008318Y005209D01*
X008318Y005153D01*
X007950Y005153D01*
X007950Y004941D01*
X007962Y004895D01*
X007986Y004854D01*
X008019Y004820D01*
X008060Y004797D01*
X008106Y004784D01*
X008318Y004784D01*
X008318Y005152D01*
X008375Y005152D01*
X008375Y004784D01*
X008587Y004784D01*
X008632Y004797D01*
X008665Y004816D01*
X008716Y004764D01*
X008736Y004764D01*
X008736Y003791D01*
X008279Y003791D01*
X008260Y003783D02*
X008406Y003843D01*
X008518Y003955D01*
X008579Y004102D01*
X008579Y004260D01*
X008518Y004406D01*
X008406Y004518D01*
X008260Y004579D01*
X008102Y004579D01*
X007955Y004518D01*
X007898Y004461D01*
X007797Y004461D01*
X006357Y005901D01*
X010550Y005901D01*
X010660Y005791D01*
X010829Y005721D01*
X011532Y005721D01*
X011701Y005791D01*
X011831Y005920D01*
X011901Y006089D01*
X011901Y006272D01*
X011831Y006441D01*
X011701Y006571D01*
X011532Y006641D01*
X011037Y006641D01*
X011117Y006721D01*
X011532Y006721D01*
X011701Y006791D01*
X011831Y006920D01*
X011901Y007089D01*
X011901Y007272D01*
X011831Y007441D01*
X011701Y007571D01*
X011532Y007641D01*
X010829Y007641D01*
X010660Y007571D01*
X010531Y007441D01*
X010461Y007272D01*
X010461Y007089D01*
X010514Y006961D01*
X005797Y006961D01*
X003918Y008839D01*
X003918Y008840D01*
X003840Y008918D01*
X003737Y008961D01*
X003682Y008961D01*
X003664Y009004D01*
X003504Y009164D01*
X003463Y009181D01*
X003504Y009198D01*
X003664Y009358D01*
X003682Y009401D01*
X004150Y009401D01*
X004174Y009396D01*
X004205Y009401D01*
X004237Y009401D01*
X004259Y009410D01*
X004284Y009415D01*
X004311Y009432D01*
X004340Y009444D01*
X004357Y009461D01*
X005262Y010035D01*
X008229Y010035D01*
X008198Y010004D01*
X008111Y009794D01*
X008111Y009568D01*
X008198Y009358D01*
X008358Y009198D01*
X008427Y009169D01*
X008393Y009151D01*
X008323Y009100D01*
X008261Y009039D01*
X008211Y008969D01*
X008171Y008892D01*
X008144Y008810D01*
X008131Y008724D01*
X008131Y008681D01*
X008681Y008681D01*
X009231Y008681D01*
X009231Y008724D01*
X009217Y008810D01*
X009191Y008892D01*
X009186Y008901D01*
X010550Y008901D01*
X010660Y008791D01*
X010829Y008721D01*
X011532Y008721D01*
X011701Y008791D01*
X011831Y008920D01*
X011901Y009089D01*
X011901Y009272D01*
X011831Y009441D01*
X011701Y009571D01*
X011532Y009641D01*
X010829Y009641D01*
X010660Y009571D01*
X010550Y009461D01*
X009297Y009461D01*
X009233Y009525D01*
X009251Y009568D01*
X009251Y009794D01*
X009164Y010004D01*
X009133Y010035D01*
X010171Y010035D01*
X010216Y010032D01*
X010226Y010035D01*
X010237Y010035D01*
X010279Y010052D01*
X010322Y010067D01*
X010330Y010074D01*
X010340Y010078D01*
X010372Y010110D01*
X010481Y010205D01*
X010481Y010181D01*
X011181Y010181D01*
X011181Y010181D01*
X011181Y010621D01*
X011476Y010621D01*
X011544Y010610D01*
X011610Y010589D01*
X011672Y010557D01*
X011728Y010517D01*
X011777Y010468D01*
X011817Y010412D01*
X011849Y010350D01*
X011870Y010284D01*
X011881Y010216D01*
X011881Y010181D01*
X011181Y010181D01*
X011181Y010181D01*
X011181Y010621D01*
X010962Y010621D01*
X011077Y010721D01*
X011532Y010721D01*
X011701Y010791D01*
X011831Y010920D01*
X011901Y011089D01*
X011901Y011272D01*
X011831Y011441D01*
X011701Y011571D01*
X011532Y011641D01*
X011037Y011641D01*
X011117Y011721D01*
X011532Y011721D01*
X011701Y011791D01*
X011831Y011920D01*
X011901Y012089D01*
X011901Y012272D01*
X011831Y012441D01*
X011701Y012571D01*
X011532Y012641D01*
X011037Y012641D01*
X011117Y012721D01*
X011532Y012721D01*
X011701Y012791D01*
X011831Y012920D01*
X011901Y013089D01*
X011901Y013272D01*
X011831Y013441D01*
X011701Y013571D01*
X011532Y013641D01*
X010829Y013641D01*
X010660Y013571D01*
X010531Y013441D01*
X010461Y013272D01*
X010461Y013089D01*
X010529Y012925D01*
X009444Y011840D01*
X009065Y011461D01*
X004297Y011461D01*
X003840Y011918D01*
X003751Y011955D01*
X003751Y012134D01*
X003634Y012251D01*
X003211Y012251D01*
X003211Y013111D01*
X003294Y013111D01*
X003504Y013198D01*
X003664Y013358D01*
X003751Y013568D01*
X003751Y013794D01*
X003733Y013837D01*
X003797Y013901D01*
X010550Y013901D01*
X010660Y013791D01*
X010829Y013721D01*
X011532Y013721D01*
X011701Y013791D01*
X011831Y013920D01*
X011901Y014089D01*
X011901Y014272D01*
X011831Y014441D01*
X011701Y014571D01*
X011532Y014641D01*
X011037Y014641D01*
X011117Y014721D01*
X011532Y014721D01*
X011701Y014791D01*
X011831Y014920D01*
X011901Y015089D01*
X011901Y015272D01*
X011831Y015441D01*
X011701Y015571D01*
X011532Y015641D01*
X011037Y015641D01*
X011117Y015721D01*
X011532Y015721D01*
X011701Y015791D01*
X011831Y015920D01*
X011901Y016089D01*
X011901Y016272D01*
X011831Y016441D01*
X011701Y016571D01*
X011532Y016641D01*
X011037Y016641D01*
X011117Y016721D01*
X011532Y016721D01*
X011701Y016791D01*
X011831Y016920D01*
X011901Y017089D01*
X011901Y017272D01*
X011831Y017441D01*
X011701Y017571D01*
X011532Y017641D01*
X010829Y017641D01*
X010660Y017571D01*
X010550Y017461D01*
X010521Y017461D01*
X010579Y017602D01*
X010579Y017760D01*
X010518Y017906D01*
X010579Y017743D02*
X013901Y017743D01*
X013901Y017641D02*
X013829Y017641D01*
X013660Y017571D01*
X013531Y017441D01*
X013461Y017272D01*
X013461Y017089D01*
X013531Y016920D01*
X013660Y016791D01*
X011702Y016791D01*
X011843Y016950D02*
X013519Y016950D01*
X013461Y017108D02*
X011901Y017108D01*
X011901Y017267D02*
X013461Y017267D01*
X013524Y017425D02*
X011838Y017425D01*
X011670Y017584D02*
X013692Y017584D01*
X013901Y017641D02*
X013901Y017901D01*
X013237Y017901D01*
X013125Y017901D01*
X013660Y016791D02*
X013829Y016721D01*
X014532Y016721D01*
X014701Y016791D01*
X014811Y016901D01*
X015930Y016901D01*
X016020Y016791D02*
X014702Y016791D01*
X014610Y016589D02*
X014544Y016610D01*
X014476Y016621D01*
X014181Y016621D01*
X014181Y016181D01*
X012681Y016181D01*
X012181Y016681D01*
X011798Y016474D02*
X013592Y016474D01*
X013585Y016468D02*
X013634Y016517D01*
X013690Y016557D01*
X013752Y016589D01*
X013818Y016610D01*
X013886Y016621D01*
X014181Y016621D01*
X014181Y016181D01*
X014181Y016181D01*
X014881Y016181D01*
X014881Y016216D01*
X014870Y016284D01*
X014849Y016350D01*
X014817Y016412D01*
X014777Y016468D01*
X014728Y016517D01*
X014672Y016557D01*
X014610Y016589D01*
X014770Y016474D02*
X017401Y016474D01*
X017401Y016316D02*
X014860Y016316D01*
X014881Y016181D02*
X014181Y016181D01*
X014181Y016181D01*
X014181Y015741D01*
X014476Y015741D01*
X014544Y015752D01*
X014610Y015773D01*
X014672Y015805D01*
X014728Y015845D01*
X014777Y015894D01*
X014817Y015950D01*
X014849Y016012D01*
X014870Y016078D01*
X014881Y016146D01*
X014881Y016181D01*
X014881Y016157D02*
X017261Y016157D01*
X017016Y015846D02*
X017016Y015681D01*
X017181Y015681D01*
X017681Y016181D01*
X017681Y018181D01*
X017401Y018008D02*
X017401Y017463D01*
X017400Y017467D01*
X017376Y017508D01*
X017343Y017541D01*
X017302Y017565D01*
X017256Y017577D01*
X017044Y017577D01*
X017044Y017209D01*
X016987Y017209D01*
X016987Y017577D01*
X016775Y017577D01*
X016730Y017565D01*
X016697Y017546D01*
X016646Y017597D01*
X016047Y017597D01*
X015930Y017480D01*
X015930Y017461D01*
X014811Y017461D01*
X014701Y017571D01*
X014532Y017641D01*
X014461Y017641D01*
X014461Y018065D01*
X015847Y019451D01*
X015847Y019350D01*
X015964Y019233D01*
X016401Y019233D01*
X016401Y018964D01*
X016343Y018906D01*
X016283Y018760D01*
X016283Y018602D01*
X016343Y018455D01*
X016455Y018343D01*
X016602Y018283D01*
X016760Y018283D01*
X016810Y018303D01*
X017401Y018008D01*
X017401Y017901D02*
X014461Y017901D01*
X014461Y017743D02*
X017401Y017743D01*
X017401Y017584D02*
X016659Y017584D01*
X016987Y017425D02*
X017044Y017425D01*
X017044Y017267D02*
X016987Y017267D01*
X016987Y017108D02*
X017044Y017108D01*
X017044Y016950D02*
X016987Y016950D01*
X016987Y016791D02*
X017044Y016791D01*
X017281Y016791D02*
X017401Y016791D01*
X017401Y016633D02*
X011552Y016633D01*
X011883Y016316D02*
X013502Y016316D01*
X013492Y016284D02*
X013481Y016216D01*
X013481Y016181D01*
X014181Y016181D01*
X014181Y016181D01*
X014181Y016181D01*
X014181Y015741D01*
X013886Y015741D01*
X013818Y015752D01*
X013752Y015773D01*
X013690Y015805D01*
X013634Y015845D01*
X013585Y015894D01*
X013545Y015950D01*
X013513Y016012D01*
X013492Y016078D01*
X013481Y016146D01*
X013481Y016181D01*
X014181Y016181D01*
X014181Y016157D02*
X014181Y016157D01*
X014181Y015999D02*
X014181Y015999D01*
X014181Y015840D02*
X014181Y015840D01*
X014181Y016316D02*
X014181Y016316D01*
X014181Y016474D02*
X014181Y016474D01*
X014842Y015999D02*
X015968Y015999D01*
X015681Y015681D02*
X015181Y015181D01*
X015556Y015047D02*
X017651Y015047D01*
X017810Y015206D02*
X015602Y015206D01*
X015760Y015364D02*
X015967Y015364D01*
X015681Y015681D02*
X016346Y015681D01*
X015444Y015840D02*
X014720Y015840D01*
X014749Y015523D02*
X014966Y015523D01*
X015286Y015681D02*
X011077Y015681D01*
X010681Y015681D02*
X011181Y016181D01*
X010681Y015681D02*
X003181Y015681D01*
X003681Y016181D02*
X010181Y016181D01*
X011181Y017181D01*
X009016Y017181D01*
X009181Y017181D01*
X008709Y016791D02*
X008653Y016791D01*
X007949Y016950D02*
X003751Y016950D01*
X003751Y017108D02*
X007949Y017108D01*
X007949Y017267D02*
X003211Y017267D01*
X003211Y017425D02*
X007949Y017425D01*
X008053Y017584D02*
X004076Y017584D01*
X004256Y017743D02*
X008512Y017743D01*
X008671Y017901D02*
X004363Y017901D01*
X004428Y018060D02*
X008829Y018060D01*
X008988Y018218D02*
X004442Y018218D01*
X004442Y018377D02*
X009146Y018377D01*
X010139Y018535D02*
X004384Y018535D01*
X004307Y018694D02*
X005449Y018694D01*
X005363Y018852D02*
X004149Y018852D01*
X004703Y019328D02*
X003211Y019328D01*
X003211Y019169D02*
X004741Y019169D01*
X004854Y019011D02*
X003211Y019011D01*
X003211Y018852D02*
X003213Y018852D01*
X003211Y019487D02*
X004722Y019487D01*
X004808Y019645D02*
X003211Y019645D01*
X003211Y019804D02*
X004764Y019804D01*
X004703Y019962D02*
X003211Y019962D01*
X003211Y020121D02*
X004703Y020121D01*
X004764Y020279D02*
X003211Y020279D01*
X003211Y020438D02*
X003334Y020438D01*
X004028Y020438D02*
X004924Y020438D01*
X005387Y020596D02*
X004236Y020596D01*
X004354Y020755D02*
X005561Y020755D01*
X005781Y020351D02*
X006181Y020681D01*
X006351Y020851D01*
X008851Y020851D01*
X009181Y021181D01*
X008993Y021389D02*
X004392Y021389D01*
X004442Y021231D02*
X008835Y021231D01*
X009151Y020755D02*
X015847Y020755D01*
X015869Y019328D02*
X015724Y019328D01*
X015565Y019169D02*
X016401Y019169D01*
X016401Y019011D02*
X015407Y019011D01*
X015248Y018852D02*
X016321Y018852D01*
X016283Y018694D02*
X015090Y018694D01*
X014931Y018535D02*
X016310Y018535D01*
X016422Y018377D02*
X014773Y018377D01*
X014614Y018218D02*
X016980Y018218D01*
X017297Y018060D02*
X014461Y018060D01*
X014670Y017584D02*
X016033Y017584D01*
X016673Y016791D02*
X016750Y016791D01*
X017736Y015840D02*
X017949Y015840D01*
X017949Y015681D02*
X017577Y015681D01*
X017419Y015523D02*
X017949Y015523D01*
X017967Y015364D02*
X017395Y015364D01*
X017681Y014681D02*
X018181Y015181D01*
X021181Y015181D01*
X021681Y014681D01*
X021681Y011681D01*
X021278Y011084D02*
X019277Y011084D01*
X019079Y011242D02*
X021111Y011242D01*
X021111Y011401D02*
X019079Y011401D01*
X018982Y011559D02*
X021111Y011559D01*
X021111Y011718D02*
X016040Y011718D01*
X016198Y011559D02*
X018380Y011559D01*
X018681Y011181D02*
X016181Y011181D01*
X014181Y013181D01*
X014297Y012669D02*
X011065Y012669D01*
X011181Y012181D02*
X009681Y010681D01*
X003181Y010681D01*
X003181Y011681D02*
X003681Y011681D01*
X004181Y011181D01*
X009181Y011181D01*
X009681Y011681D01*
X011181Y013181D01*
X011582Y013620D02*
X013780Y013620D01*
X013689Y013779D02*
X011672Y013779D01*
X011838Y013938D02*
X013524Y013938D01*
X013461Y014096D02*
X011901Y014096D01*
X011901Y014255D02*
X013461Y014255D01*
X013519Y014413D02*
X011843Y014413D01*
X011700Y014572D02*
X013662Y014572D01*
X013807Y014730D02*
X011555Y014730D01*
X011799Y014889D02*
X013563Y014889D01*
X013478Y015047D02*
X011883Y015047D01*
X011901Y015206D02*
X013461Y015206D01*
X013499Y015364D02*
X011863Y015364D01*
X011749Y015523D02*
X013612Y015523D01*
X013642Y015840D02*
X011751Y015840D01*
X011863Y015999D02*
X013520Y015999D01*
X013481Y016157D02*
X011901Y016157D01*
X011181Y015181D02*
X010681Y014681D01*
X003181Y014681D01*
X003681Y014181D02*
X011181Y014181D01*
X010689Y013779D02*
X009531Y013779D01*
X009486Y013824D02*
X008435Y013824D01*
X008318Y013707D01*
X008318Y012655D01*
X008435Y012538D01*
X009486Y012538D01*
X009603Y012655D01*
X009603Y013707D01*
X009486Y013824D01*
X009603Y013620D02*
X010780Y013620D01*
X010551Y013462D02*
X009603Y013462D01*
X009603Y013303D02*
X010474Y013303D01*
X010461Y013145D02*
X009603Y013145D01*
X009603Y012986D02*
X010504Y012986D01*
X010432Y012828D02*
X009603Y012828D01*
X009603Y012669D02*
X010273Y012669D01*
X010115Y012511D02*
X003211Y012511D01*
X003211Y012669D02*
X005791Y012669D01*
X005814Y012627D01*
X005848Y012594D01*
X005889Y012570D01*
X005935Y012558D01*
X006334Y012558D01*
X006334Y013113D01*
X006469Y013113D01*
X006469Y012558D01*
X006868Y012558D01*
X006914Y012570D01*
X006955Y012594D01*
X006988Y012627D01*
X007012Y012669D01*
X008318Y012669D01*
X008318Y012828D02*
X007024Y012828D01*
X007024Y012714D02*
X007024Y013113D01*
X006469Y013113D01*
X006469Y013249D01*
X006334Y013249D01*
X006334Y013804D01*
X005935Y013804D01*
X005889Y013792D01*
X005848Y013768D01*
X005814Y013734D01*
X005791Y013693D01*
X005779Y013648D01*
X005779Y013249D01*
X006334Y013249D01*
X006334Y013113D01*
X005779Y013113D01*
X005779Y012714D01*
X005791Y012669D01*
X005779Y012828D02*
X003211Y012828D01*
X003211Y012986D02*
X005779Y012986D01*
X005779Y013303D02*
X003609Y013303D01*
X003707Y013462D02*
X005779Y013462D01*
X005779Y013620D02*
X003751Y013620D01*
X003751Y013779D02*
X005867Y013779D01*
X006334Y013779D02*
X006469Y013779D01*
X006469Y013804D02*
X006868Y013804D01*
X006914Y013792D01*
X006955Y013768D01*
X006988Y013734D01*
X007012Y013693D01*
X007024Y013648D01*
X007024Y013249D01*
X006469Y013249D01*
X006469Y013804D01*
X006469Y013620D02*
X006334Y013620D01*
X006334Y013462D02*
X006469Y013462D01*
X006469Y013303D02*
X006334Y013303D01*
X006334Y013145D02*
X003376Y013145D01*
X003181Y013681D02*
X003681Y014181D01*
X003211Y012352D02*
X009956Y012352D01*
X009798Y012194D02*
X003691Y012194D01*
X003751Y012035D02*
X009639Y012035D01*
X009481Y011876D02*
X003881Y011876D01*
X004040Y011718D02*
X009322Y011718D01*
X009163Y011559D02*
X004198Y011559D01*
X005181Y010315D02*
X010181Y010315D01*
X011181Y011181D01*
X011181Y010608D02*
X011181Y010608D01*
X011181Y010450D02*
X011181Y010450D01*
X011181Y010291D02*
X011181Y010291D01*
X011181Y010181D02*
X011181Y010181D01*
X011881Y010181D01*
X011881Y010146D01*
X011870Y010078D01*
X011849Y010012D01*
X011817Y009950D01*
X011777Y009894D01*
X011728Y009845D01*
X011672Y009805D01*
X011610Y009773D01*
X011544Y009752D01*
X011476Y009741D01*
X011181Y009741D01*
X011181Y010181D01*
X011181Y010181D01*
X011181Y009741D01*
X010886Y009741D01*
X010818Y009752D01*
X010752Y009773D01*
X010690Y009805D01*
X010634Y009845D01*
X010585Y009894D01*
X010545Y009950D01*
X010513Y010012D01*
X010492Y010078D01*
X010481Y010146D01*
X010481Y010181D01*
X011181Y010181D01*
X011181Y010132D02*
X011181Y010132D01*
X011181Y009974D02*
X011181Y009974D01*
X011181Y009815D02*
X011181Y009815D01*
X010675Y009815D02*
X009242Y009815D01*
X009251Y009657D02*
X020246Y009657D01*
X020035Y009815D02*
X014726Y009815D01*
X014701Y009791D02*
X014831Y009920D01*
X014901Y010089D01*
X014901Y010272D01*
X014831Y010441D01*
X014701Y010571D01*
X014532Y010641D01*
X013829Y010641D01*
X013660Y010571D01*
X013550Y010461D01*
X013537Y010461D01*
X013480Y010518D01*
X013333Y010579D01*
X013175Y010579D01*
X013029Y010518D01*
X012917Y010406D01*
X012856Y010260D01*
X012856Y010102D01*
X012917Y009955D01*
X013029Y009843D01*
X013175Y009783D01*
X013333Y009783D01*
X013480Y009843D01*
X013537Y009901D01*
X013550Y009901D01*
X013660Y009791D01*
X013829Y009721D01*
X014532Y009721D01*
X014701Y009791D01*
X014701Y009571D02*
X014532Y009641D01*
X013829Y009641D01*
X013660Y009571D01*
X013531Y009441D01*
X013461Y009272D01*
X013461Y009089D01*
X013531Y008920D01*
X013660Y008791D01*
X013829Y008721D01*
X014532Y008721D01*
X014701Y008791D01*
X014811Y008901D01*
X015930Y008901D01*
X016047Y008784D01*
X016646Y008784D01*
X016697Y008835D01*
X016730Y008816D01*
X016775Y008804D01*
X016997Y008804D01*
X016997Y009162D01*
X017034Y009162D01*
X017034Y008804D01*
X017256Y008804D01*
X017302Y008816D01*
X017343Y008840D01*
X017376Y008874D01*
X017400Y008915D01*
X017412Y008960D01*
X017412Y009162D01*
X017034Y009162D01*
X017034Y009199D01*
X017412Y009199D01*
X017412Y009401D01*
X017400Y009447D01*
X017376Y009488D01*
X017343Y009522D01*
X017302Y009545D01*
X017256Y009558D01*
X017034Y009558D01*
X017034Y009200D01*
X016997Y009200D01*
X016997Y009558D01*
X016775Y009558D01*
X016730Y009545D01*
X016697Y009527D01*
X016646Y009578D01*
X016047Y009578D01*
X015930Y009461D01*
X014811Y009461D01*
X014701Y009571D01*
X014774Y009498D02*
X015967Y009498D01*
X016346Y009181D02*
X014181Y009181D01*
X014181Y008621D02*
X013886Y008621D01*
X013818Y008610D01*
X013752Y008589D01*
X013690Y008557D01*
X013634Y008517D01*
X013585Y008468D01*
X013545Y008412D01*
X013513Y008350D01*
X013492Y008284D01*
X013481Y008216D01*
X013481Y008181D01*
X014181Y008181D01*
X014181Y008181D01*
X014181Y008621D01*
X014476Y008621D01*
X014544Y008610D01*
X014610Y008589D01*
X014672Y008557D01*
X014728Y008517D01*
X014777Y008468D01*
X014817Y008412D01*
X014849Y008350D01*
X014870Y008284D01*
X014881Y008216D01*
X014881Y008181D01*
X014181Y008181D01*
X014181Y008181D01*
X014181Y008621D01*
X014181Y008547D02*
X014181Y008547D01*
X014181Y008389D02*
X014181Y008389D01*
X014181Y008230D02*
X014181Y008230D01*
X014181Y008181D02*
X014181Y008181D01*
X014881Y008181D01*
X014881Y008146D01*
X014870Y008078D01*
X014849Y008012D01*
X014817Y007950D01*
X014777Y007894D01*
X014728Y007845D01*
X014672Y007805D01*
X014610Y007773D01*
X014544Y007752D01*
X014476Y007741D01*
X014181Y007741D01*
X014181Y008181D01*
X014181Y008181D01*
X014181Y007741D01*
X013886Y007741D01*
X013818Y007752D01*
X013752Y007773D01*
X013690Y007805D01*
X013634Y007845D01*
X013585Y007894D01*
X013545Y007950D01*
X013513Y008012D01*
X013492Y008078D01*
X013481Y008146D01*
X013481Y008181D01*
X014181Y008181D01*
X014181Y008071D02*
X014181Y008071D01*
X014181Y007913D02*
X014181Y007913D01*
X014181Y007754D02*
X014181Y007754D01*
X014552Y007754D02*
X020358Y007754D01*
X020200Y007596D02*
X014641Y007596D01*
X014181Y007181D02*
X020181Y007181D01*
X021681Y008681D01*
X021140Y008864D02*
X017367Y008864D01*
X017412Y009023D02*
X021217Y009023D01*
X021398Y009181D02*
X017034Y009181D01*
X017016Y009181D02*
X020181Y009181D01*
X020458Y009498D02*
X017366Y009498D01*
X017412Y009340D02*
X021216Y009340D01*
X021681Y009681D02*
X020681Y009681D01*
X018681Y011181D01*
X018767Y010767D02*
X017076Y010767D01*
X017079Y010608D02*
X018978Y010608D01*
X019189Y010450D02*
X017013Y010450D01*
X016780Y010291D02*
X019401Y010291D01*
X019612Y010132D02*
X014901Y010132D01*
X014893Y010291D02*
X016582Y010291D01*
X016681Y010681D02*
X015681Y010681D01*
X014181Y012181D01*
X014248Y011718D02*
X011114Y011718D01*
X011713Y011559D02*
X012554Y011559D01*
X012808Y011559D02*
X013649Y011559D01*
X013575Y011876D02*
X011787Y011876D01*
X011878Y012035D02*
X013483Y012035D01*
X013461Y012194D02*
X011901Y012194D01*
X011868Y012352D02*
X013494Y012352D01*
X013600Y012511D02*
X011762Y012511D01*
X011738Y012828D02*
X013624Y012828D01*
X013504Y012986D02*
X011858Y012986D01*
X011901Y013145D02*
X013461Y013145D01*
X013474Y013303D02*
X011888Y013303D01*
X011810Y013462D02*
X013551Y013462D01*
X014181Y014181D02*
X019681Y014181D01*
X019398Y014461D02*
X017857Y014461D01*
X018297Y014901D01*
X021065Y014901D01*
X021401Y014565D01*
X021401Y014463D01*
X021400Y014467D01*
X021376Y014508D01*
X021343Y014541D01*
X021302Y014565D01*
X021256Y014577D01*
X021044Y014577D01*
X021044Y014209D01*
X020987Y014209D01*
X020987Y014577D01*
X020775Y014577D01*
X020730Y014565D01*
X020697Y014546D01*
X020646Y014597D01*
X020047Y014597D01*
X019937Y014488D01*
X019906Y014518D01*
X019760Y014579D01*
X019602Y014579D01*
X019455Y014518D01*
X019398Y014461D01*
X019584Y014572D02*
X017968Y014572D01*
X018126Y014730D02*
X021236Y014730D01*
X021277Y014572D02*
X021394Y014572D01*
X021044Y014572D02*
X020987Y014572D01*
X020987Y014413D02*
X021044Y014413D01*
X021044Y014255D02*
X020987Y014255D01*
X021016Y014181D02*
X021016Y013535D01*
X021017Y013534D01*
X021044Y013784D02*
X021256Y013784D01*
X021302Y013797D01*
X021343Y013820D01*
X021376Y013854D01*
X021400Y013895D01*
X021401Y013899D01*
X021401Y012992D01*
X021295Y013097D01*
X020995Y013097D01*
X020626Y013466D01*
X020626Y013764D01*
X020646Y013764D01*
X020697Y013816D01*
X020730Y013797D01*
X020775Y013784D01*
X020987Y013784D01*
X020987Y014152D01*
X021044Y014152D01*
X021044Y013784D01*
X021044Y013938D02*
X020987Y013938D01*
X020987Y014096D02*
X021044Y014096D01*
X021401Y013779D02*
X020660Y013779D01*
X020626Y013620D02*
X021401Y013620D01*
X021401Y013462D02*
X020631Y013462D01*
X020789Y013303D02*
X021401Y013303D01*
X021401Y013145D02*
X020948Y013145D01*
X021016Y012681D02*
X020346Y013350D01*
X020346Y014181D01*
X020021Y014572D02*
X019778Y014572D01*
X019486Y013824D02*
X018435Y013824D01*
X018318Y013707D01*
X018318Y012655D01*
X018435Y012538D01*
X019486Y012538D01*
X019603Y012655D01*
X019603Y013707D01*
X019486Y013824D01*
X019531Y013779D02*
X020032Y013779D01*
X020066Y013620D02*
X019603Y013620D01*
X019603Y013462D02*
X020066Y013462D01*
X020066Y013303D02*
X019603Y013303D01*
X019603Y013145D02*
X020156Y013145D01*
X019955Y012986D02*
X019603Y012986D01*
X019603Y012828D02*
X019932Y012828D01*
X019773Y012669D02*
X019603Y012669D01*
X019448Y012511D02*
X015247Y012511D01*
X015089Y012669D02*
X015791Y012669D01*
X015814Y012627D01*
X015848Y012594D01*
X015889Y012570D01*
X015935Y012558D01*
X016334Y012558D01*
X016334Y013113D01*
X016469Y013113D01*
X016469Y012558D01*
X016868Y012558D01*
X016914Y012570D01*
X016955Y012594D01*
X016988Y012627D01*
X017012Y012669D01*
X018318Y012669D01*
X018318Y012828D02*
X017024Y012828D01*
X017024Y012714D02*
X017024Y013113D01*
X016469Y013113D01*
X016469Y013249D01*
X016334Y013249D01*
X016334Y013804D01*
X015935Y013804D01*
X015889Y013792D01*
X015848Y013768D01*
X015814Y013734D01*
X015791Y013693D01*
X015779Y013648D01*
X015779Y013249D01*
X016334Y013249D01*
X016334Y013113D01*
X015779Y013113D01*
X015779Y012714D01*
X015791Y012669D01*
X015779Y012828D02*
X014930Y012828D01*
X014858Y012986D02*
X015779Y012986D01*
X015779Y013303D02*
X014888Y013303D01*
X014901Y013145D02*
X016334Y013145D01*
X016469Y013145D02*
X018318Y013145D01*
X018318Y013303D02*
X017024Y013303D01*
X017024Y013249D02*
X017024Y013648D01*
X017012Y013693D01*
X016988Y013734D01*
X016955Y013768D01*
X016914Y013792D01*
X016868Y013804D01*
X016469Y013804D01*
X016469Y013249D01*
X017024Y013249D01*
X017024Y013462D02*
X018318Y013462D01*
X018318Y013620D02*
X017024Y013620D01*
X016936Y013779D02*
X018390Y013779D01*
X018318Y012986D02*
X017024Y012986D01*
X017024Y012714D02*
X017012Y012669D01*
X016469Y012669D02*
X016334Y012669D01*
X016334Y012828D02*
X016469Y012828D01*
X016469Y012986D02*
X016334Y012986D01*
X016334Y013303D02*
X016469Y013303D01*
X016469Y013462D02*
X016334Y013462D01*
X016334Y013620D02*
X016469Y013620D01*
X016469Y013779D02*
X016334Y013779D01*
X015867Y013779D02*
X014672Y013779D01*
X014582Y013620D02*
X015779Y013620D01*
X015779Y013462D02*
X014810Y013462D01*
X014681Y014681D02*
X017681Y014681D01*
X018285Y014889D02*
X021077Y014889D01*
X020754Y014572D02*
X020671Y014572D01*
X021393Y015364D02*
X021651Y015364D01*
X021651Y015206D02*
X021552Y015206D01*
X021651Y015523D02*
X021412Y015523D01*
X021651Y015681D02*
X021044Y015681D01*
X021044Y015840D02*
X020987Y015840D01*
X020987Y015999D02*
X021044Y015999D01*
X021382Y015999D02*
X021651Y015999D01*
X021651Y016157D02*
X017961Y016157D01*
X017968Y015999D02*
X017895Y015999D01*
X017961Y016316D02*
X021651Y016316D01*
X021651Y016474D02*
X017961Y016474D01*
X018653Y016791D02*
X018709Y016791D01*
X019394Y015999D02*
X019948Y015999D01*
X020346Y015681D02*
X019016Y015681D01*
X018346Y015681D02*
X018346Y015346D01*
X018181Y015181D01*
X020181Y012681D02*
X020346Y012681D01*
X020181Y012681D02*
X019681Y012181D01*
X020051Y012035D02*
X021111Y012035D01*
X021111Y011876D02*
X019939Y011876D01*
X020089Y012194D02*
X021171Y012194D01*
X021383Y012352D02*
X021401Y012352D01*
X020362Y010925D02*
X019489Y010925D01*
X019700Y010767D02*
X020286Y010767D01*
X020283Y010608D02*
X019911Y010608D01*
X020123Y010450D02*
X020349Y010450D01*
X020334Y010291D02*
X020582Y010291D01*
X020546Y010132D02*
X021326Y010132D01*
X021265Y010291D02*
X020780Y010291D01*
X020681Y010681D02*
X021681Y010681D01*
X021185Y009974D02*
X020757Y009974D01*
X019824Y009974D02*
X014853Y009974D01*
X014823Y010450D02*
X015516Y010450D01*
X015358Y010608D02*
X014612Y010608D01*
X014643Y010767D02*
X015199Y010767D01*
X015041Y010925D02*
X014833Y010925D01*
X014181Y011181D02*
X012681Y011181D01*
X012374Y010925D02*
X011833Y010925D01*
X011899Y011084D02*
X012290Y011084D01*
X012283Y011242D02*
X011901Y011242D01*
X011848Y011401D02*
X012341Y011401D01*
X011643Y010767D02*
X013719Y010767D01*
X013750Y010608D02*
X011550Y010608D01*
X011790Y010450D02*
X012960Y010450D01*
X012869Y010291D02*
X011868Y010291D01*
X011879Y010132D02*
X012856Y010132D01*
X012909Y009974D02*
X011829Y009974D01*
X011686Y009815D02*
X013096Y009815D01*
X013412Y009815D02*
X013636Y009815D01*
X013254Y010181D02*
X014181Y010181D01*
X013588Y009498D02*
X011774Y009498D01*
X011873Y009340D02*
X013489Y009340D01*
X013461Y009181D02*
X011901Y009181D01*
X011873Y009023D02*
X013489Y009023D01*
X013587Y008864D02*
X011775Y008864D01*
X011701Y008571D02*
X011532Y008641D01*
X010829Y008641D01*
X010660Y008571D01*
X010550Y008461D01*
X009186Y008461D01*
X009191Y008470D01*
X009217Y008552D01*
X009231Y008638D01*
X009231Y008681D01*
X008681Y008681D01*
X008681Y008681D01*
X008681Y008681D01*
X008131Y008681D01*
X008131Y008638D01*
X008144Y008552D01*
X008171Y008470D01*
X008211Y008393D01*
X008261Y008323D01*
X008323Y008261D01*
X008393Y008211D01*
X008427Y008193D01*
X008358Y008164D01*
X008198Y008004D01*
X008111Y007794D01*
X008111Y007568D01*
X008198Y007358D01*
X008358Y007198D01*
X008568Y007111D01*
X008794Y007111D01*
X009004Y007198D01*
X009164Y007358D01*
X009251Y007568D01*
X009251Y007794D01*
X009233Y007837D01*
X009297Y007901D01*
X010550Y007901D01*
X010660Y007791D01*
X010829Y007721D01*
X011532Y007721D01*
X011701Y007791D01*
X011831Y007920D01*
X011901Y008089D01*
X011901Y008272D01*
X011831Y008441D01*
X011701Y008571D01*
X011725Y008547D02*
X013676Y008547D01*
X013533Y008389D02*
X011853Y008389D01*
X011901Y008230D02*
X013483Y008230D01*
X013494Y008071D02*
X011893Y008071D01*
X011823Y007913D02*
X013572Y007913D01*
X013810Y007754D02*
X011613Y007754D01*
X011641Y007596D02*
X013721Y007596D01*
X013529Y007437D02*
X011833Y007437D01*
X011898Y007279D02*
X013464Y007279D01*
X013461Y007120D02*
X011901Y007120D01*
X011848Y006962D02*
X013514Y006962D01*
X013648Y006803D02*
X011714Y006803D01*
X011786Y006486D02*
X013575Y006486D01*
X013484Y006327D02*
X011878Y006327D01*
X011901Y006169D02*
X013461Y006169D01*
X013494Y006010D02*
X011868Y006010D01*
X011762Y005852D02*
X013600Y005852D01*
X013624Y005535D02*
X011738Y005535D01*
X011858Y005376D02*
X013504Y005376D01*
X013461Y005218D02*
X011901Y005218D01*
X011888Y005059D02*
X013474Y005059D01*
X013551Y004901D02*
X011811Y004901D01*
X011583Y004742D02*
X013779Y004742D01*
X013691Y004583D02*
X011671Y004583D01*
X011701Y004571D02*
X011532Y004641D01*
X010829Y004641D01*
X010660Y004571D01*
X010531Y004441D01*
X010461Y004272D01*
X010461Y004089D01*
X010531Y003920D01*
X010660Y003791D01*
X010829Y003721D01*
X011532Y003721D01*
X011701Y003791D01*
X013661Y003791D01*
X013519Y003949D02*
X011843Y003949D01*
X011831Y003920D02*
X011901Y004089D01*
X011901Y004272D01*
X011831Y004441D01*
X011701Y004571D01*
X011838Y004425D02*
X013524Y004425D01*
X013461Y004266D02*
X011901Y004266D01*
X011901Y004108D02*
X013461Y004108D01*
X014181Y004181D02*
X015681Y004181D01*
X016181Y004681D01*
X020181Y004681D01*
X021181Y003681D01*
X021681Y003681D01*
X021302Y004108D02*
X021150Y004108D01*
X021226Y004032D02*
X021358Y004164D01*
X021427Y004193D01*
X021393Y004211D01*
X021323Y004261D01*
X021261Y004323D01*
X021211Y004393D01*
X021171Y004470D01*
X021144Y004552D01*
X021131Y004638D01*
X021131Y004661D01*
X021651Y004661D01*
X021651Y004701D01*
X021131Y004701D01*
X021131Y004724D01*
X021144Y004810D01*
X021171Y004892D01*
X021211Y004969D01*
X021261Y005039D01*
X021323Y005100D01*
X021393Y005151D01*
X021427Y005169D01*
X021358Y005198D01*
X021198Y005358D01*
X021180Y005401D01*
X020297Y005401D01*
X019918Y005022D01*
X019857Y004961D01*
X020237Y004961D01*
X020340Y004918D01*
X020418Y004840D01*
X021226Y004032D01*
X021318Y004266D02*
X020991Y004266D01*
X020833Y004425D02*
X021194Y004425D01*
X021139Y004583D02*
X020674Y004583D01*
X020516Y004742D02*
X021134Y004742D01*
X021181Y004681D02*
X020681Y005181D01*
X020357Y004901D02*
X021176Y004901D01*
X021281Y005059D02*
X019955Y005059D01*
X020114Y005218D02*
X021338Y005218D01*
X021190Y005376D02*
X020272Y005376D01*
X020181Y005681D02*
X019681Y005181D01*
X014181Y005181D01*
X014681Y005681D01*
X019181Y005681D01*
X020181Y005681D02*
X021681Y005681D01*
X021681Y006681D02*
X021181Y006681D01*
X020681Y006181D01*
X014181Y006181D01*
X014297Y005693D02*
X006565Y005693D01*
X006723Y005535D02*
X008012Y005535D01*
X008019Y005541D02*
X007986Y005508D01*
X007962Y005467D01*
X007950Y005421D01*
X007950Y005209D01*
X008318Y005209D01*
X008318Y005577D01*
X008106Y005577D01*
X008060Y005565D01*
X008019Y005541D01*
X007950Y005376D02*
X006882Y005376D01*
X007040Y005218D02*
X007950Y005218D01*
X007950Y005059D02*
X007199Y005059D01*
X007357Y004901D02*
X007961Y004901D01*
X008318Y004901D02*
X008375Y004901D01*
X008375Y005059D02*
X008318Y005059D01*
X008318Y005218D02*
X008375Y005218D01*
X008375Y005376D02*
X008318Y005376D01*
X008318Y005535D02*
X008375Y005535D01*
X009016Y005181D02*
X009016Y003846D01*
X009681Y003181D01*
X003681Y003181D01*
X003181Y003681D01*
X003560Y004108D02*
X007358Y004108D01*
X007444Y004022D02*
X007522Y003944D01*
X007625Y003901D01*
X007898Y003901D01*
X007955Y003843D01*
X008102Y003783D01*
X008260Y003783D01*
X008083Y003791D02*
X003751Y003791D01*
X003751Y003794D02*
X003664Y004004D01*
X003504Y004164D01*
X003434Y004193D01*
X003469Y004211D01*
X003539Y004261D01*
X003600Y004323D01*
X003651Y004393D01*
X003691Y004470D01*
X003717Y004552D01*
X003731Y004638D01*
X003731Y004661D01*
X003211Y004661D01*
X003211Y004701D01*
X003731Y004701D01*
X003731Y004724D01*
X003717Y004810D01*
X003691Y004892D01*
X003651Y004969D01*
X003600Y005039D01*
X003539Y005100D01*
X003469Y005151D01*
X003434Y005169D01*
X003504Y005198D01*
X003664Y005358D01*
X003682Y005401D01*
X006065Y005401D01*
X007444Y004022D01*
X007517Y003949D02*
X003687Y003949D01*
X003751Y003794D02*
X003751Y003568D01*
X003733Y003525D01*
X003797Y003461D01*
X009005Y003461D01*
X008857Y003609D01*
X008778Y003688D01*
X008736Y003791D01*
X008736Y003949D02*
X008512Y003949D01*
X008579Y004108D02*
X008736Y004108D01*
X008736Y004266D02*
X008576Y004266D01*
X008500Y004425D02*
X008736Y004425D01*
X008736Y004583D02*
X007674Y004583D01*
X007516Y004742D02*
X008736Y004742D01*
X009016Y005181D02*
X011181Y005181D01*
X010779Y004742D02*
X009296Y004742D01*
X009296Y004583D02*
X010691Y004583D01*
X010524Y004425D02*
X009296Y004425D01*
X009296Y004266D02*
X010461Y004266D01*
X010461Y004108D02*
X009296Y004108D01*
X009309Y003949D02*
X010519Y003949D01*
X010661Y003791D02*
X009467Y003791D01*
X009626Y003632D02*
X016236Y003632D01*
X016283Y003760D02*
X016343Y003906D01*
X016455Y004018D01*
X016602Y004079D01*
X016760Y004079D01*
X016906Y004018D01*
X017018Y003906D01*
X017079Y003760D01*
X017079Y003602D01*
X017018Y003455D01*
X016906Y003343D01*
X016760Y003283D01*
X016679Y003283D01*
X016607Y003211D01*
X021345Y003211D01*
X021198Y003358D01*
X021180Y003401D01*
X021125Y003401D01*
X021022Y003444D01*
X020065Y004401D01*
X016297Y004401D01*
X015918Y004022D01*
X015840Y003944D01*
X015737Y003901D01*
X014811Y003901D01*
X014701Y003791D01*
X014671Y004583D02*
X015688Y004583D01*
X015846Y004742D02*
X014583Y004742D01*
X014811Y004901D02*
X016005Y004901D01*
X016162Y004266D02*
X020200Y004266D01*
X020358Y004108D02*
X016004Y004108D01*
X015845Y003949D02*
X016386Y003949D01*
X016681Y003681D02*
X016181Y003181D01*
X009681Y003181D01*
X009784Y003474D02*
X016078Y003474D01*
X016838Y003315D02*
X021241Y003315D01*
X020992Y003474D02*
X017026Y003474D01*
X017079Y003632D02*
X020834Y003632D01*
X020675Y003791D02*
X017066Y003791D01*
X016976Y003949D02*
X020517Y003949D01*
X021181Y004681D02*
X021681Y004681D01*
X020590Y006486D02*
X014786Y006486D01*
X014714Y006803D02*
X020907Y006803D01*
X020749Y006645D02*
X011040Y006645D01*
X010681Y006681D02*
X011181Y007181D01*
X010721Y007596D02*
X009251Y007596D01*
X009251Y007754D02*
X010749Y007754D01*
X010529Y007437D02*
X009197Y007437D01*
X009085Y007279D02*
X010464Y007279D01*
X010461Y007120D02*
X008817Y007120D01*
X008545Y007120D02*
X005638Y007120D01*
X005796Y006962D02*
X010514Y006962D01*
X010681Y006681D02*
X005681Y006681D01*
X003681Y008681D01*
X003181Y008681D01*
X003464Y009181D02*
X008398Y009181D01*
X008249Y009023D02*
X003645Y009023D01*
X003894Y008864D02*
X008162Y008864D01*
X008131Y008706D02*
X004052Y008706D01*
X004211Y008547D02*
X008146Y008547D01*
X008214Y008389D02*
X004369Y008389D01*
X004528Y008230D02*
X008366Y008230D01*
X008265Y008071D02*
X004686Y008071D01*
X004845Y007913D02*
X008160Y007913D01*
X008111Y007754D02*
X005003Y007754D01*
X005162Y007596D02*
X008111Y007596D01*
X008165Y007437D02*
X005321Y007437D01*
X005479Y007279D02*
X008277Y007279D01*
X008681Y007681D02*
X009181Y008181D01*
X011181Y008181D01*
X010637Y008547D02*
X009216Y008547D01*
X009231Y008706D02*
X021111Y008706D01*
X021119Y008547D02*
X014686Y008547D01*
X014829Y008389D02*
X020993Y008389D01*
X020834Y008230D02*
X014879Y008230D01*
X014868Y008071D02*
X020676Y008071D01*
X020517Y007913D02*
X014790Y007913D01*
X014775Y008864D02*
X015967Y008864D01*
X016997Y008864D02*
X017034Y008864D01*
X017034Y009023D02*
X016997Y009023D01*
X016997Y009340D02*
X017034Y009340D01*
X017034Y009498D02*
X016997Y009498D01*
X015881Y011876D02*
X019422Y011876D01*
X019310Y012035D02*
X015723Y012035D01*
X015564Y012194D02*
X019283Y012194D01*
X019321Y012352D02*
X015406Y012352D01*
X014681Y014681D02*
X014181Y015181D01*
X013492Y016284D02*
X013513Y016350D01*
X013545Y016412D01*
X013585Y016468D01*
X013181Y019181D02*
X013681Y019681D01*
X013681Y020181D01*
X014072Y020596D02*
X014290Y020596D01*
X014252Y019804D02*
X014110Y019804D01*
X014249Y019645D02*
X013961Y019645D01*
X013170Y020438D02*
X013167Y020438D01*
X013043Y020596D02*
X013290Y020596D01*
X011290Y020596D02*
X011251Y020596D01*
X011251Y019804D02*
X011252Y019804D01*
X011249Y019645D02*
X011168Y019645D01*
X011091Y019487D02*
X006196Y019487D01*
X006238Y019645D02*
X010194Y019645D01*
X010111Y019804D02*
X006225Y019804D01*
X006147Y019962D02*
X010111Y019962D01*
X010111Y020121D02*
X006181Y020121D01*
X006238Y020279D02*
X010111Y020279D01*
X010111Y020438D02*
X006326Y020438D01*
X006018Y020913D02*
X004420Y020913D01*
X004442Y021072D02*
X006176Y021072D01*
X006075Y019328D02*
X010932Y019328D01*
X010774Y019169D02*
X006176Y019169D01*
X006218Y019011D02*
X010615Y019011D01*
X010456Y018852D02*
X006199Y018852D01*
X006218Y018981D02*
X005781Y018981D01*
X006218Y018981D01*
X006112Y018694D02*
X010298Y018694D01*
X010572Y017584D02*
X010692Y017584D01*
X010078Y016474D02*
X003784Y016474D01*
X003681Y016181D02*
X003181Y016681D01*
X003211Y017584D02*
X003285Y017584D01*
X005781Y018543D02*
X005781Y018981D01*
X005781Y018981D01*
X005781Y018543D01*
X005781Y018694D02*
X005781Y018694D01*
X005781Y018852D02*
X005781Y018852D01*
X005781Y018981D02*
X005781Y018981D01*
X008968Y020596D02*
X010111Y020596D01*
X008390Y013779D02*
X006936Y013779D01*
X007024Y013620D02*
X008318Y013620D01*
X008318Y013462D02*
X007024Y013462D01*
X007024Y013303D02*
X008318Y013303D01*
X008318Y013145D02*
X006469Y013145D01*
X006469Y012986D02*
X006334Y012986D01*
X006334Y012828D02*
X006469Y012828D01*
X006469Y012669D02*
X006334Y012669D01*
X007012Y012669D02*
X007024Y012714D01*
X007024Y012986D02*
X008318Y012986D01*
X010398Y010132D02*
X010483Y010132D01*
X010533Y009974D02*
X009177Y009974D01*
X009259Y009498D02*
X010588Y009498D01*
X010587Y008864D02*
X009200Y008864D01*
X009181Y009181D02*
X011181Y009181D01*
X009181Y009181D02*
X008681Y009681D01*
X008216Y009340D02*
X003646Y009340D01*
X003181Y009681D02*
X004181Y009681D01*
X005181Y010315D01*
X005166Y009974D02*
X008185Y009974D01*
X008120Y009815D02*
X004916Y009815D01*
X004666Y009657D02*
X008111Y009657D01*
X008140Y009498D02*
X004416Y009498D01*
X004681Y006681D02*
X003181Y006681D01*
X003181Y005681D02*
X006181Y005681D01*
X007681Y004181D01*
X008181Y004181D01*
X008834Y003632D02*
X003751Y003632D01*
X003784Y003474D02*
X008992Y003474D01*
X009432Y004901D02*
X010551Y004901D01*
X010624Y005535D02*
X009378Y005535D01*
X010600Y005852D02*
X006406Y005852D01*
X006090Y005376D02*
X003672Y005376D01*
X003524Y005218D02*
X006248Y005218D01*
X006407Y005059D02*
X003581Y005059D01*
X003686Y004901D02*
X006565Y004901D01*
X006724Y004742D02*
X003728Y004742D01*
X003722Y004583D02*
X006882Y004583D01*
X007041Y004425D02*
X003668Y004425D01*
X003544Y004266D02*
X007200Y004266D01*
X005181Y006181D02*
X011181Y006181D01*
X011831Y003920D02*
X011701Y003791D01*
X005181Y006181D02*
X004681Y006681D01*
X020358Y006962D02*
X021111Y006962D01*
X021111Y007120D02*
X020516Y007120D01*
X020675Y007279D02*
X021651Y007279D01*
X021651Y007437D02*
X020833Y007437D01*
X020992Y007596D02*
X021651Y007596D01*
X021651Y007754D02*
X021150Y007754D01*
X021309Y007913D02*
X021651Y007913D01*
X021651Y008071D02*
X021467Y008071D01*
X021412Y015840D02*
X021651Y015840D01*
D24*
X019681Y014181D03*
X021017Y013534D03*
X019681Y012181D03*
X020681Y010681D03*
X020181Y009181D03*
X016681Y010681D03*
X013254Y010181D03*
X012681Y011181D03*
X015181Y015181D03*
X012181Y016681D03*
X010181Y017681D03*
X013181Y019181D03*
X014181Y019181D03*
X015681Y021181D03*
X016681Y018681D03*
X021681Y021181D03*
X019181Y005681D03*
X020681Y005181D03*
X016681Y003681D03*
X008181Y004181D03*
D25*
X018681Y011181D03*
M02*
