G75*
G70*
%OFA0B0*%
%FSLAX24Y24*%
%IPPOS*%
%LPD*%
%AMOC8*
5,1,8,0,0,1.08239X$1,22.5*
%
%ADD10C,0.0100*%
%ADD11C,0.0040*%
%ADD12R,0.0787X0.0591*%
%ADD13R,0.0787X0.1496*%
%ADD14R,0.0433X0.0433*%
%ADD15R,0.0433X0.0394*%
%ADD16R,0.0394X0.0433*%
D10*
X002681Y002681D02*
X022181Y002681D01*
X022181Y022181D01*
X002681Y022181D01*
X002681Y002681D01*
D11*
X010581Y021465D02*
X010735Y021772D01*
X010428Y021772D02*
X010581Y021465D01*
D12*
X018921Y021086D03*
X018921Y020181D03*
X018921Y019275D03*
D13*
X016441Y020181D03*
D14*
X016346Y017181D03*
X017016Y017181D03*
X020346Y017181D03*
X021016Y017181D03*
X021016Y015681D03*
X020346Y015681D03*
X020346Y014181D03*
X021016Y014181D03*
X021016Y018681D03*
X020346Y018681D03*
X020346Y021681D03*
X021016Y021681D03*
X009016Y005181D03*
X008346Y005181D03*
D15*
X016346Y009181D03*
X017016Y009181D03*
X020346Y020181D03*
X021016Y020181D03*
D16*
X019016Y017181D03*
X018346Y017181D03*
X018346Y015681D03*
X019016Y015681D03*
X017016Y015681D03*
X016346Y015681D03*
X020346Y012681D03*
X021016Y012681D03*
X009016Y017181D03*
X008346Y017181D03*
M02*
