G75*
G70*
%OFA0B0*%
%FSLAX24Y24*%
%IPPOS*%
%LPD*%
%AMOC8*
5,1,8,0,0,1.08239X$1,22.5*
%
%ADD10C,0.0070*%
%ADD11C,0.0040*%
%ADD12C,0.0030*%
%ADD13C,0.0100*%
%ADD14C,0.0060*%
%ADD15C,0.0050*%
%ADD16C,0.0080*%
%ADD17R,0.0157X0.0236*%
%ADD18C,0.0010*%
D10*
X004655Y008397D02*
X004918Y008660D01*
X004918Y009187D01*
X005183Y008924D02*
X005315Y008924D01*
X005315Y008397D01*
X005183Y008397D02*
X005447Y008397D01*
X005711Y008397D02*
X005711Y008924D01*
X006106Y008924D01*
X006238Y008792D01*
X006238Y008397D01*
X006503Y008528D02*
X006503Y008792D01*
X006635Y008924D01*
X007030Y008924D01*
X007295Y008792D02*
X007426Y008924D01*
X007690Y008924D01*
X007822Y008792D01*
X007822Y008660D01*
X007295Y008660D01*
X007295Y008528D02*
X007295Y008792D01*
X007295Y008528D02*
X007426Y008397D01*
X007690Y008397D01*
X007030Y008397D02*
X006635Y008397D01*
X006503Y008528D01*
X005315Y009187D02*
X005315Y009319D01*
X004391Y009187D02*
X004391Y008660D01*
X004655Y008397D01*
D11*
X006630Y011464D02*
X006630Y011925D01*
X006860Y011925D01*
X006936Y011848D01*
X006936Y011695D01*
X006860Y011618D01*
X006630Y011618D01*
X006783Y011618D02*
X006936Y011464D01*
X007090Y011464D02*
X007090Y011925D01*
X007397Y011925D01*
X007550Y011848D02*
X007550Y011771D01*
X007627Y011695D01*
X007780Y011695D01*
X007857Y011618D01*
X007857Y011541D01*
X007780Y011464D01*
X007627Y011464D01*
X007550Y011541D01*
X007397Y011464D02*
X007090Y011464D01*
X007090Y011695D02*
X007243Y011695D01*
X007550Y011848D02*
X007627Y011925D01*
X007780Y011925D01*
X007857Y011848D01*
X008011Y011925D02*
X008011Y011464D01*
X008318Y011464D01*
X008164Y011695D02*
X008011Y011695D01*
X008011Y011925D02*
X008318Y011925D01*
X008471Y011925D02*
X008778Y011925D01*
X008624Y011925D02*
X008624Y011464D01*
X006463Y004690D02*
X006540Y004613D01*
X006540Y004536D01*
X006463Y004459D01*
X006540Y004383D01*
X006540Y004306D01*
X006463Y004229D01*
X006309Y004229D01*
X006233Y004306D01*
X006079Y004306D02*
X006003Y004229D01*
X005849Y004229D01*
X005772Y004306D01*
X005619Y004459D02*
X005312Y004459D01*
X005542Y004690D01*
X005542Y004229D01*
X005926Y004459D02*
X006003Y004459D01*
X006079Y004383D01*
X006079Y004306D01*
X006003Y004459D02*
X006079Y004536D01*
X006079Y004613D01*
X006003Y004690D01*
X005849Y004690D01*
X005772Y004613D01*
X006233Y004613D02*
X006309Y004690D01*
X006463Y004690D01*
X006463Y004459D02*
X006386Y004459D01*
X004698Y004229D02*
X004391Y004229D01*
X004391Y004690D01*
X004698Y004690D01*
X004545Y004459D02*
X004391Y004459D01*
X004238Y004229D02*
X004238Y004690D01*
X004084Y004536D01*
X003931Y004690D01*
X003931Y004229D01*
X015709Y009619D02*
X016016Y009619D01*
X015862Y009772D02*
X015862Y009465D01*
X016947Y011508D02*
X016870Y011584D01*
X016870Y011968D01*
X017177Y011968D02*
X017177Y011584D01*
X017100Y011508D01*
X016947Y011508D01*
X017330Y011584D02*
X017407Y011508D01*
X017560Y011508D01*
X017637Y011584D01*
X017637Y011661D01*
X017560Y011738D01*
X017407Y011738D01*
X017330Y011814D01*
X017330Y011891D01*
X017407Y011968D01*
X017560Y011968D01*
X017637Y011891D01*
X017791Y011968D02*
X017791Y011508D01*
X018097Y011508D01*
X018251Y011508D02*
X018251Y011968D01*
X018481Y011968D01*
X018558Y011891D01*
X018558Y011738D01*
X018481Y011661D01*
X018251Y011661D01*
X018404Y011661D02*
X018558Y011508D01*
X018097Y011968D02*
X017791Y011968D01*
X017791Y011738D02*
X017944Y011738D01*
X021097Y013778D02*
X021404Y013778D01*
X021420Y015671D02*
X021727Y015671D01*
X021720Y017183D02*
X021413Y017183D01*
X019750Y020011D02*
X019750Y020317D01*
X019903Y020164D02*
X019596Y020164D01*
X013973Y021906D02*
X013666Y021906D01*
X013819Y021906D02*
X013819Y021445D01*
X013512Y021445D02*
X013359Y021445D01*
X013436Y021445D02*
X013436Y021906D01*
X013512Y021906D02*
X013359Y021906D01*
X013206Y021906D02*
X012899Y021599D01*
X012975Y021676D02*
X013206Y021445D01*
X012899Y021445D02*
X012899Y021906D01*
X012745Y021829D02*
X012668Y021906D01*
X012515Y021906D01*
X012438Y021829D01*
X012438Y021522D01*
X012515Y021445D01*
X012668Y021445D01*
X012745Y021522D01*
X012285Y021445D02*
X012131Y021445D01*
X012208Y021445D02*
X012208Y021906D01*
X012131Y021906D02*
X012285Y021906D01*
X011978Y021829D02*
X011978Y021676D01*
X011901Y021599D01*
X011671Y021599D01*
X011671Y021445D02*
X011671Y021906D01*
X011901Y021906D01*
X011978Y021829D01*
X010735Y021772D02*
X010581Y021465D01*
X010428Y021772D01*
D12*
X007673Y017349D02*
X007426Y017102D01*
X007488Y017164D02*
X007673Y016979D01*
X007426Y016979D02*
X007426Y017349D01*
X007305Y017287D02*
X007058Y017041D01*
X007120Y016979D01*
X007243Y016979D01*
X007305Y017041D01*
X007305Y017287D01*
X007243Y017349D01*
X007120Y017349D01*
X007058Y017287D01*
X007058Y017041D01*
X006937Y016979D02*
X006690Y016979D01*
X006813Y016979D02*
X006813Y017349D01*
X006690Y017226D01*
X016065Y017634D02*
X016127Y017634D01*
X016127Y017696D01*
X016065Y017696D01*
X016065Y017634D01*
X016249Y017634D02*
X016496Y017634D01*
X016373Y017634D02*
X016373Y018005D01*
X016249Y017881D01*
X016618Y017881D02*
X016618Y017696D01*
X016679Y017634D01*
X016865Y017634D01*
X016865Y017881D01*
X016986Y017820D02*
X017109Y017820D01*
X016986Y017634D02*
X016986Y018005D01*
X017233Y018005D01*
X018604Y017862D02*
X018665Y017924D01*
X018789Y017924D01*
X018850Y017862D01*
X018850Y017800D01*
X018789Y017738D01*
X018850Y017677D01*
X018850Y017615D01*
X018789Y017553D01*
X018665Y017553D01*
X018604Y017615D01*
X018727Y017738D02*
X018789Y017738D01*
X018972Y017615D02*
X019034Y017553D01*
X019157Y017553D01*
X019219Y017615D01*
X019219Y017677D01*
X019157Y017738D01*
X019095Y017738D01*
X019157Y017738D02*
X019219Y017800D01*
X019219Y017862D01*
X019157Y017924D01*
X019034Y017924D01*
X018972Y017862D01*
X019340Y017862D02*
X019340Y017615D01*
X019587Y017862D01*
X019587Y017615D01*
X019525Y017553D01*
X019402Y017553D01*
X019340Y017615D01*
X019340Y017862D02*
X019402Y017924D01*
X019525Y017924D01*
X019587Y017862D01*
X020055Y017734D02*
X020302Y017734D01*
X020423Y017734D02*
X020423Y018104D01*
X020670Y018104D01*
X020791Y018104D02*
X020977Y018104D01*
X021038Y018042D01*
X021038Y017796D01*
X020977Y017734D01*
X020791Y017734D01*
X020791Y018104D01*
X020547Y017919D02*
X020423Y017919D01*
X020423Y017734D02*
X020670Y017734D01*
X021160Y017734D02*
X021407Y017734D01*
X021283Y017734D02*
X021283Y018104D01*
X021160Y017981D01*
X021077Y019046D02*
X020830Y019046D01*
X020708Y019046D02*
X020646Y019046D01*
X020646Y019107D01*
X020708Y019107D01*
X020708Y019046D01*
X020954Y019046D02*
X020954Y019416D01*
X020830Y019293D01*
X020894Y019475D02*
X020832Y019537D01*
X021079Y019783D01*
X021079Y019537D01*
X021018Y019475D01*
X020894Y019475D01*
X020832Y019537D02*
X020832Y019783D01*
X020894Y019845D01*
X021018Y019845D01*
X021079Y019783D01*
X021201Y019722D02*
X021201Y019537D01*
X021262Y019475D01*
X021448Y019475D01*
X021448Y019722D01*
X021569Y019660D02*
X021692Y019660D01*
X021569Y019475D02*
X021569Y019845D01*
X021816Y019845D01*
X021814Y019416D02*
X021567Y019416D01*
X021567Y019046D01*
X021446Y019046D02*
X021446Y019293D01*
X021567Y019231D02*
X021690Y019231D01*
X021446Y019046D02*
X021260Y019046D01*
X021199Y019107D01*
X021199Y019293D01*
X020711Y019475D02*
X020464Y019475D01*
X020588Y019475D02*
X020588Y019845D01*
X020464Y019722D01*
X020500Y020923D02*
X020253Y020923D01*
X020131Y020923D02*
X020069Y020923D01*
X020069Y020984D01*
X020131Y020984D01*
X020131Y020923D01*
X020376Y020923D02*
X020376Y021293D01*
X020253Y021170D01*
X020621Y021170D02*
X020621Y020984D01*
X020683Y020923D01*
X020868Y020923D01*
X020868Y021170D01*
X020990Y021108D02*
X021113Y021108D01*
X020990Y020923D02*
X020990Y021293D01*
X021236Y021293D01*
X020055Y018104D02*
X020055Y017734D01*
X020033Y016605D02*
X020033Y016234D01*
X020280Y016234D01*
X020401Y016234D02*
X020401Y016605D01*
X020648Y016605D01*
X020769Y016605D02*
X020955Y016605D01*
X021016Y016543D01*
X021016Y016296D01*
X020955Y016234D01*
X020769Y016234D01*
X020769Y016605D01*
X020524Y016420D02*
X020401Y016420D01*
X020401Y016234D02*
X020648Y016234D01*
X021138Y016234D02*
X021385Y016481D01*
X021385Y016543D01*
X021323Y016605D01*
X021199Y016605D01*
X021138Y016543D01*
X021138Y016234D02*
X021385Y016234D01*
X021258Y014935D02*
X021320Y014873D01*
X021320Y014811D01*
X021258Y014750D01*
X021320Y014688D01*
X021320Y014626D01*
X021258Y014564D01*
X021134Y014564D01*
X021073Y014626D01*
X020951Y014626D02*
X020951Y014873D01*
X020890Y014935D01*
X020704Y014935D01*
X020704Y014564D01*
X020890Y014564D01*
X020951Y014626D01*
X021196Y014750D02*
X021258Y014750D01*
X021258Y014935D02*
X021134Y014935D01*
X021073Y014873D01*
X020583Y014935D02*
X020336Y014935D01*
X020336Y014564D01*
X020583Y014564D01*
X020459Y014750D02*
X020336Y014750D01*
X020215Y014564D02*
X019968Y014564D01*
X019968Y014935D01*
X019502Y016072D02*
X019378Y016072D01*
X019317Y016134D01*
X019564Y016381D01*
X019564Y016134D01*
X019502Y016072D01*
X019317Y016134D02*
X019317Y016381D01*
X019378Y016443D01*
X019502Y016443D01*
X019564Y016381D01*
X019195Y016381D02*
X019195Y016319D01*
X019134Y016257D01*
X019195Y016196D01*
X019195Y016134D01*
X019134Y016072D01*
X019010Y016072D01*
X018948Y016134D01*
X018827Y016134D02*
X018765Y016072D01*
X018642Y016072D01*
X018580Y016134D01*
X018704Y016257D02*
X018765Y016257D01*
X018827Y016196D01*
X018827Y016134D01*
X018765Y016257D02*
X018827Y016319D01*
X018827Y016381D01*
X018765Y016443D01*
X018642Y016443D01*
X018580Y016381D01*
X018948Y016381D02*
X019010Y016443D01*
X019134Y016443D01*
X019195Y016381D01*
X019134Y016257D02*
X019072Y016257D01*
X017179Y016118D02*
X016994Y016303D01*
X016933Y016242D02*
X017179Y016488D01*
X016933Y016488D02*
X016933Y016118D01*
X016811Y016180D02*
X016811Y016427D01*
X016564Y016180D01*
X016626Y016118D01*
X016749Y016118D01*
X016811Y016180D01*
X016564Y016180D02*
X016564Y016427D01*
X016626Y016488D01*
X016749Y016488D01*
X016811Y016427D01*
X016443Y016118D02*
X016196Y016118D01*
X016319Y016118D02*
X016319Y016488D01*
X016196Y016365D01*
X020285Y012227D02*
X020409Y012227D01*
X020470Y012166D01*
X020470Y012104D01*
X020409Y012042D01*
X020470Y011980D01*
X020470Y011919D01*
X020409Y011857D01*
X020285Y011857D01*
X020224Y011919D01*
X020347Y012042D02*
X020409Y012042D01*
X020592Y011919D02*
X020654Y011857D01*
X020777Y011857D01*
X020839Y011919D01*
X020839Y011980D01*
X020777Y012042D01*
X020715Y012042D01*
X020777Y012042D02*
X020839Y012104D01*
X020839Y012166D01*
X020777Y012227D01*
X020654Y012227D01*
X020592Y012166D01*
X020285Y012227D02*
X020224Y012166D01*
X020960Y012166D02*
X020960Y011919D01*
X021207Y012166D01*
X021207Y011919D01*
X021145Y011857D01*
X021022Y011857D01*
X020960Y011919D01*
X020960Y012166D02*
X021022Y012227D01*
X021145Y012227D01*
X021207Y012166D01*
X017412Y008571D02*
X017165Y008571D01*
X017165Y008201D01*
X017043Y008201D02*
X017043Y008448D01*
X017165Y008386D02*
X017288Y008386D01*
X017043Y008201D02*
X016858Y008201D01*
X016797Y008263D01*
X016797Y008448D01*
X016675Y008509D02*
X016428Y008263D01*
X016490Y008201D01*
X016613Y008201D01*
X016675Y008263D01*
X016675Y008509D01*
X016613Y008571D01*
X016490Y008571D01*
X016428Y008509D01*
X016428Y008263D01*
X016307Y008201D02*
X016060Y008201D01*
X016183Y008201D02*
X016183Y008571D01*
X016060Y008448D01*
X008574Y003716D02*
X008451Y003716D01*
X008512Y003777D02*
X008512Y003531D01*
X008574Y003469D01*
X008329Y003469D02*
X008329Y003716D01*
X008082Y003716D02*
X008082Y003531D01*
X008144Y003469D01*
X008329Y003469D01*
X007961Y003531D02*
X007961Y003654D01*
X007899Y003716D01*
X007776Y003716D01*
X007714Y003654D01*
X007714Y003531D01*
X007776Y003469D01*
X007899Y003469D01*
X007961Y003531D01*
X007592Y003469D02*
X007407Y003592D01*
X007592Y003716D01*
X007407Y003839D02*
X007407Y003469D01*
X007286Y003469D02*
X007101Y003469D01*
X007039Y003531D01*
X007101Y003592D01*
X007286Y003592D01*
X007286Y003654D02*
X007286Y003469D01*
X007286Y003654D02*
X007224Y003716D01*
X007101Y003716D01*
X006917Y003654D02*
X006917Y003592D01*
X006671Y003592D01*
X006671Y003531D02*
X006671Y003654D01*
X006732Y003716D01*
X006856Y003716D01*
X006917Y003654D01*
X006856Y003469D02*
X006732Y003469D01*
X006671Y003531D01*
X006549Y003716D02*
X006487Y003716D01*
X006364Y003592D01*
X006242Y003592D02*
X006242Y003531D01*
X006181Y003469D01*
X005995Y003469D01*
X005995Y003839D01*
X006181Y003839D01*
X006242Y003777D01*
X006242Y003716D01*
X006181Y003654D01*
X005995Y003654D01*
X006181Y003654D02*
X006242Y003592D01*
X006364Y003469D02*
X006364Y003716D01*
X005506Y003716D02*
X005506Y003777D01*
X005444Y003839D01*
X005320Y003839D01*
X005259Y003777D01*
X005137Y003777D02*
X005076Y003839D01*
X004952Y003839D01*
X004890Y003777D01*
X004769Y003777D02*
X004707Y003839D01*
X004584Y003839D01*
X004522Y003777D01*
X004522Y003531D01*
X004584Y003469D01*
X004707Y003469D01*
X004769Y003531D01*
X004890Y003531D02*
X004952Y003469D01*
X005076Y003469D01*
X005137Y003531D01*
X005137Y003592D01*
X005076Y003654D01*
X005014Y003654D01*
X005076Y003654D02*
X005137Y003716D01*
X005137Y003777D01*
X005259Y003469D02*
X005506Y003716D01*
X005506Y003469D02*
X005259Y003469D01*
X004400Y003469D02*
X004277Y003469D01*
X004338Y003469D02*
X004338Y003839D01*
X004277Y003839D02*
X004400Y003839D01*
X004155Y003777D02*
X004155Y003654D01*
X004094Y003592D01*
X003908Y003592D01*
X003908Y003469D02*
X003908Y003839D01*
X004094Y003839D01*
X004155Y003777D01*
X006844Y005409D02*
X006906Y005409D01*
X006906Y005470D01*
X006844Y005470D01*
X006844Y005409D01*
X007028Y005409D02*
X007275Y005409D01*
X007152Y005409D02*
X007152Y005779D01*
X007028Y005655D01*
X007397Y005655D02*
X007397Y005470D01*
X007458Y005409D01*
X007644Y005409D01*
X007644Y005655D01*
X007765Y005594D02*
X007888Y005594D01*
X007765Y005409D02*
X007765Y005779D01*
X008012Y005779D01*
D13*
X002681Y002681D02*
X022181Y002681D01*
X022181Y022181D01*
X002681Y022181D01*
X002681Y002681D01*
D14*
X010681Y003681D02*
X011681Y003681D01*
X011531Y003681D01*
X011531Y017681D01*
X011681Y017681D01*
X010681Y017681D01*
X010681Y003681D01*
X011681Y003681D02*
X013681Y003681D01*
X014681Y003681D01*
X014681Y017681D01*
X013681Y017681D01*
X013081Y017681D01*
X013079Y017642D01*
X013073Y017603D01*
X013064Y017565D01*
X013051Y017528D01*
X013034Y017492D01*
X013014Y017459D01*
X012990Y017427D01*
X012964Y017398D01*
X012935Y017372D01*
X012903Y017348D01*
X012870Y017328D01*
X012834Y017311D01*
X012797Y017298D01*
X012759Y017289D01*
X012720Y017283D01*
X012681Y017281D01*
X012642Y017283D01*
X012603Y017289D01*
X012565Y017298D01*
X012528Y017311D01*
X012492Y017328D01*
X012459Y017348D01*
X012427Y017372D01*
X012398Y017398D01*
X012372Y017427D01*
X012348Y017459D01*
X012328Y017492D01*
X012311Y017528D01*
X012298Y017565D01*
X012289Y017603D01*
X012283Y017642D01*
X012281Y017681D01*
X011681Y017681D01*
X013681Y017681D02*
X013831Y017681D01*
X013831Y003681D01*
X013681Y003681D01*
D15*
X012906Y007304D02*
X012456Y007304D01*
X012456Y007529D01*
X012531Y007604D01*
X012681Y007604D01*
X012756Y007529D01*
X012756Y007304D01*
X012906Y007764D02*
X012906Y007914D01*
X012906Y007839D02*
X012456Y007839D01*
X012456Y007764D02*
X012456Y007914D01*
X012531Y008071D02*
X012831Y008071D01*
X012906Y008146D01*
X012906Y008296D01*
X012831Y008371D01*
X012831Y008531D02*
X012906Y008606D01*
X012906Y008756D01*
X012831Y008831D01*
X012756Y008831D01*
X012681Y008756D01*
X012681Y008681D01*
X012681Y008756D02*
X012606Y008831D01*
X012531Y008831D01*
X012456Y008756D01*
X012456Y008606D01*
X012531Y008531D01*
X012531Y008371D02*
X012456Y008296D01*
X012456Y008146D01*
X012531Y008071D01*
X012531Y008991D02*
X012456Y009067D01*
X012456Y009217D01*
X012531Y009292D01*
X012606Y009292D01*
X012906Y008991D01*
X012906Y009292D01*
X012906Y009452D02*
X012456Y009452D01*
X012606Y009602D01*
X012456Y009752D01*
X012906Y009752D01*
X012906Y009912D02*
X012456Y010212D01*
X012531Y010373D02*
X012456Y010448D01*
X012456Y010598D01*
X012531Y010673D01*
X012606Y010673D01*
X012906Y010373D01*
X012906Y010673D01*
X012831Y010833D02*
X012906Y010908D01*
X012906Y011058D01*
X012831Y011133D01*
X012681Y011133D01*
X012606Y011058D01*
X012606Y010983D01*
X012681Y010833D01*
X012456Y010833D01*
X012456Y011133D01*
X012531Y011293D02*
X012456Y011368D01*
X012456Y011518D01*
X012531Y011594D01*
X012831Y011293D01*
X012906Y011368D01*
X012906Y011518D01*
X012831Y011594D01*
X012531Y011594D01*
X012456Y011754D02*
X012456Y012054D01*
X012606Y012214D02*
X012456Y012364D01*
X012906Y012364D01*
X012906Y012214D02*
X012906Y012514D01*
X012906Y012674D02*
X012606Y012975D01*
X012531Y012975D01*
X012456Y012899D01*
X012456Y012749D01*
X012531Y012674D01*
X012906Y012674D02*
X012906Y012975D01*
X012831Y013135D02*
X012756Y013135D01*
X012681Y013210D01*
X012681Y013360D01*
X012756Y013435D01*
X012831Y013435D01*
X012906Y013360D01*
X012906Y013210D01*
X012831Y013135D01*
X012681Y013210D02*
X012606Y013135D01*
X012531Y013135D01*
X012456Y013210D01*
X012456Y013360D01*
X012531Y013435D01*
X012606Y013435D01*
X012681Y013360D01*
X012681Y013595D02*
X012681Y013820D01*
X012756Y013895D01*
X012831Y013895D01*
X012906Y013820D01*
X012906Y013595D01*
X012456Y013595D01*
X012456Y013820D01*
X012531Y013895D01*
X012606Y013895D01*
X012681Y013820D01*
X012681Y011904D02*
X012681Y011754D01*
X012906Y011754D02*
X012456Y011754D01*
X012531Y011293D02*
X012831Y011293D01*
X012906Y010212D02*
X012456Y009912D01*
X008862Y012492D02*
X008862Y012590D01*
X008862Y012492D02*
X006500Y012492D01*
X006500Y012590D01*
X006500Y013771D02*
X006500Y013870D01*
X008862Y013870D01*
X008862Y013771D01*
X016500Y013870D02*
X016500Y013771D01*
X016500Y013870D02*
X018862Y013870D01*
X018862Y013771D01*
X018862Y012590D02*
X018862Y012492D01*
X016500Y012492D01*
X016500Y012590D01*
D16*
X007981Y009581D02*
X007949Y009222D01*
X007933Y008861D01*
X007933Y008501D01*
X007949Y008140D01*
X007981Y007781D01*
X007991Y007729D01*
X008005Y007678D01*
X008023Y007628D01*
X008044Y007580D01*
X008069Y007533D01*
X008097Y007489D01*
X008129Y007446D01*
X008163Y007406D01*
X008201Y007369D01*
X008241Y007335D01*
X008283Y007303D01*
X008328Y007275D01*
X008375Y007251D01*
X008423Y007230D01*
X008473Y007212D01*
X008524Y007199D01*
X008576Y007189D01*
X008628Y007183D01*
X008681Y007181D01*
X008734Y007183D01*
X008786Y007189D01*
X008838Y007199D01*
X008889Y007212D01*
X008939Y007230D01*
X008987Y007251D01*
X009034Y007275D01*
X009079Y007303D01*
X009121Y007335D01*
X009161Y007369D01*
X009199Y007406D01*
X009233Y007446D01*
X009265Y007489D01*
X009293Y007533D01*
X009318Y007580D01*
X009339Y007628D01*
X009357Y007678D01*
X009371Y007729D01*
X009381Y007781D01*
X009381Y009581D02*
X009371Y009633D01*
X009357Y009684D01*
X009339Y009734D01*
X009318Y009782D01*
X009293Y009829D01*
X009265Y009873D01*
X009233Y009916D01*
X009199Y009956D01*
X009161Y009993D01*
X009121Y010027D01*
X009079Y010059D01*
X009034Y010087D01*
X008987Y010111D01*
X008939Y010132D01*
X008889Y010150D01*
X008838Y010163D01*
X008786Y010173D01*
X008734Y010179D01*
X008681Y010181D01*
X008628Y010179D01*
X008576Y010173D01*
X008524Y010163D01*
X008473Y010150D01*
X008423Y010132D01*
X008375Y010111D01*
X008328Y010087D01*
X008283Y010059D01*
X008241Y010027D01*
X008201Y009993D01*
X008163Y009956D01*
X008129Y009916D01*
X008097Y009873D01*
X008069Y009829D01*
X008044Y009782D01*
X008023Y009734D01*
X008005Y009684D01*
X007991Y009633D01*
X007981Y009581D01*
X003681Y009431D02*
X003431Y009181D01*
X003681Y008931D01*
X003681Y008431D01*
X003431Y008181D01*
X002931Y008181D01*
X002681Y008431D01*
X002681Y008931D01*
X002931Y009181D01*
X002681Y009431D01*
X002681Y009931D01*
X002931Y010181D01*
X002681Y010431D01*
X002681Y010931D01*
X002931Y011181D01*
X002681Y011431D01*
X002681Y011931D01*
X002931Y012181D01*
X003431Y012181D01*
X003681Y011931D01*
X003681Y011431D01*
X003431Y011181D01*
X003681Y010931D01*
X003681Y010431D01*
X003431Y010181D01*
X003681Y009931D01*
X003681Y009431D01*
X003431Y007181D02*
X002931Y007181D01*
X002681Y006931D01*
X002681Y006431D01*
X002931Y006181D01*
X002681Y005931D01*
X002681Y005431D01*
X002931Y005181D01*
X002681Y004931D01*
X002681Y004431D01*
X002931Y004181D01*
X002681Y003931D01*
X002681Y003431D01*
X002931Y003181D01*
X003431Y003181D01*
X003681Y003431D01*
X003681Y003931D01*
X003431Y004181D01*
X003681Y004431D01*
X003681Y004931D01*
X003431Y005181D01*
X003681Y005431D01*
X003681Y005931D01*
X003431Y006181D01*
X003681Y006431D01*
X003681Y006931D01*
X003431Y007181D01*
X009381Y007781D02*
X009413Y008140D01*
X009429Y008501D01*
X009429Y008861D01*
X009413Y009222D01*
X009381Y009581D01*
X003681Y013431D02*
X003431Y013181D01*
X002931Y013181D01*
X002681Y013431D01*
X002681Y013931D01*
X002931Y014181D01*
X002681Y014431D01*
X002681Y014931D01*
X002931Y015181D01*
X002681Y015431D01*
X002681Y015931D01*
X002931Y016181D01*
X002681Y016431D01*
X002681Y016931D01*
X002931Y017181D01*
X003431Y017181D01*
X003681Y016931D01*
X003681Y016431D01*
X003431Y016181D01*
X003681Y015931D01*
X003681Y015431D01*
X003431Y015181D01*
X003681Y014931D01*
X003681Y014431D01*
X003431Y014181D01*
X003681Y013931D01*
X003681Y013431D01*
X010181Y019931D02*
X010431Y019681D01*
X010931Y019681D01*
X011181Y019931D01*
X011431Y019681D01*
X011931Y019681D01*
X012181Y019931D01*
X012431Y019681D01*
X012931Y019681D01*
X013181Y019931D01*
X013431Y019681D01*
X013931Y019681D01*
X014181Y019931D01*
X014431Y019681D01*
X014931Y019681D01*
X015181Y019931D01*
X015181Y020431D01*
X014931Y020681D01*
X014431Y020681D01*
X014181Y020431D01*
X013931Y020681D01*
X013431Y020681D01*
X013181Y020431D01*
X012931Y020681D01*
X012431Y020681D01*
X012181Y020431D01*
X011931Y020681D01*
X011431Y020681D01*
X011181Y020431D01*
X010931Y020681D01*
X010431Y020681D01*
X010181Y020431D01*
X010181Y019931D01*
X016981Y018891D02*
X016981Y021471D01*
X018381Y021471D01*
X018381Y018891D01*
X016981Y018891D01*
X021431Y012181D02*
X021181Y011931D01*
X021181Y011431D01*
X021431Y011181D01*
X021181Y010931D01*
X021181Y010431D01*
X021431Y010181D01*
X021181Y009931D01*
X021181Y009431D01*
X021431Y009181D01*
X021181Y008931D01*
X021181Y008431D01*
X021431Y008181D01*
X021931Y008181D01*
X022181Y008431D01*
X022181Y008931D01*
X021931Y009181D01*
X022181Y009431D01*
X022181Y009931D01*
X021931Y010181D01*
X022181Y010431D01*
X022181Y010931D01*
X021931Y011181D01*
X022181Y011431D01*
X022181Y011931D01*
X021931Y012181D01*
X021431Y012181D01*
X021431Y007181D02*
X021181Y006931D01*
X021181Y006431D01*
X021431Y006181D01*
X021181Y005931D01*
X021181Y005431D01*
X021431Y005181D01*
X021181Y004931D01*
X021181Y004431D01*
X021431Y004181D01*
X021181Y003931D01*
X021181Y003431D01*
X021431Y003181D01*
X021931Y003181D01*
X022181Y003431D01*
X022181Y003931D01*
X021931Y004181D01*
X022181Y004431D01*
X022181Y004931D01*
X021931Y005181D01*
X022181Y005431D01*
X022181Y005931D01*
X021931Y006181D01*
X022181Y006431D01*
X022181Y006931D01*
X021931Y007181D01*
X021431Y007181D01*
D17*
X016681Y017181D03*
X020681Y018681D03*
X020681Y021681D03*
X008681Y005181D03*
D18*
X020631Y014061D02*
X020741Y014181D01*
X020631Y014301D01*
X020631Y014061D01*
X020631Y014069D02*
X020638Y014069D01*
X020631Y014078D02*
X020646Y014078D01*
X020654Y014086D02*
X020631Y014086D01*
X020631Y014095D02*
X020662Y014095D01*
X020670Y014103D02*
X020631Y014103D01*
X020631Y014112D02*
X020678Y014112D01*
X020685Y014120D02*
X020631Y014120D01*
X020631Y014129D02*
X020693Y014129D01*
X020701Y014138D02*
X020631Y014138D01*
X020631Y014146D02*
X020709Y014146D01*
X020717Y014155D02*
X020631Y014155D01*
X020631Y014163D02*
X020725Y014163D01*
X020732Y014172D02*
X020631Y014172D01*
X020631Y014180D02*
X020740Y014180D01*
X020734Y014189D02*
X020631Y014189D01*
X020631Y014197D02*
X020726Y014197D01*
X020718Y014206D02*
X020631Y014206D01*
X020631Y014214D02*
X020710Y014214D01*
X020702Y014223D02*
X020631Y014223D01*
X020631Y014231D02*
X020695Y014231D01*
X020687Y014240D02*
X020631Y014240D01*
X020631Y014249D02*
X020679Y014249D01*
X020671Y014257D02*
X020631Y014257D01*
X020631Y014266D02*
X020663Y014266D01*
X020655Y014274D02*
X020631Y014274D01*
X020631Y014283D02*
X020648Y014283D01*
X020640Y014291D02*
X020631Y014291D01*
X020631Y014300D02*
X020632Y014300D01*
X020631Y015561D02*
X020741Y015681D01*
X020631Y015801D01*
X020631Y015561D01*
X020631Y015564D02*
X020634Y015564D01*
X020631Y015573D02*
X020642Y015573D01*
X020650Y015581D02*
X020631Y015581D01*
X020631Y015590D02*
X020657Y015590D01*
X020665Y015598D02*
X020631Y015598D01*
X020631Y015607D02*
X020673Y015607D01*
X020681Y015616D02*
X020631Y015616D01*
X020631Y015624D02*
X020689Y015624D01*
X020697Y015633D02*
X020631Y015633D01*
X020631Y015641D02*
X020704Y015641D01*
X020712Y015650D02*
X020631Y015650D01*
X020631Y015658D02*
X020720Y015658D01*
X020728Y015667D02*
X020631Y015667D01*
X020631Y015675D02*
X020736Y015675D01*
X020738Y015684D02*
X020631Y015684D01*
X020631Y015692D02*
X020730Y015692D01*
X020723Y015701D02*
X020631Y015701D01*
X020631Y015709D02*
X020715Y015709D01*
X020707Y015718D02*
X020631Y015718D01*
X020631Y015727D02*
X020699Y015727D01*
X020691Y015735D02*
X020631Y015735D01*
X020631Y015744D02*
X020683Y015744D01*
X020676Y015752D02*
X020631Y015752D01*
X020631Y015761D02*
X020668Y015761D01*
X020660Y015769D02*
X020631Y015769D01*
X020631Y015778D02*
X020652Y015778D01*
X020644Y015786D02*
X020631Y015786D01*
X020631Y015795D02*
X020636Y015795D01*
X020631Y017061D02*
X020741Y017181D01*
X020631Y017301D01*
X020631Y017061D01*
X020631Y017068D02*
X020637Y017068D01*
X020631Y017076D02*
X020645Y017076D01*
X020653Y017085D02*
X020631Y017085D01*
X020631Y017094D02*
X020661Y017094D01*
X020669Y017102D02*
X020631Y017102D01*
X020631Y017111D02*
X020676Y017111D01*
X020684Y017119D02*
X020631Y017119D01*
X020631Y017128D02*
X020692Y017128D01*
X020700Y017136D02*
X020631Y017136D01*
X020631Y017145D02*
X020708Y017145D01*
X020716Y017153D02*
X020631Y017153D01*
X020631Y017162D02*
X020723Y017162D01*
X020731Y017170D02*
X020631Y017170D01*
X020631Y017179D02*
X020739Y017179D01*
X020735Y017187D02*
X020631Y017187D01*
X020631Y017196D02*
X020727Y017196D01*
X020719Y017205D02*
X020631Y017205D01*
X020631Y017213D02*
X020711Y017213D01*
X020704Y017222D02*
X020631Y017222D01*
X020631Y017230D02*
X020696Y017230D01*
X020688Y017239D02*
X020631Y017239D01*
X020631Y017247D02*
X020680Y017247D01*
X020672Y017256D02*
X020631Y017256D01*
X020631Y017264D02*
X020664Y017264D01*
X020657Y017273D02*
X020631Y017273D01*
X020631Y017281D02*
X020649Y017281D01*
X020641Y017290D02*
X020631Y017290D01*
X020631Y017299D02*
X020633Y017299D01*
M02*
