%
M48
M72
T01C0.0236
T02C0.0315
T03C0.0320
T04C0.0400
T05C0.0591
T06C0.0748
%
T01
X8181Y4181
X13254Y10181
X12681Y11181
X16681Y10681
X18681Y11181
X19681Y12181
X21017Y13534
X19681Y14181
X20681Y10681
X20181Y9181
X19181Y5681
X20681Y5181
X16681Y3681
X15181Y15181
X12181Y16681
X10181Y17681
X13181Y19181
X14181Y19181
X15681Y21181
X16681Y18681
X21681Y21181
T02
X8681Y7681
X8681Y8681
X8681Y9681
X5781Y18981
X5781Y19681
X5781Y20351
X5161Y20041
X5161Y19351
T03
X11181Y4181
X11181Y5181
X11181Y6181
X11181Y7181
X11181Y8181
X11181Y9181
X11181Y10181
X11181Y11181
X11181Y12181
X11181Y13181
X11181Y14181
X11181Y15181
X11181Y16181
X11181Y17181
X14181Y17181
X14181Y16181
X14181Y15181
X14181Y14181
X14181Y13181
X14181Y12181
X14181Y11181
X14181Y10181
X14181Y9181
X14181Y8181
X14181Y7181
X14181Y6181
X14181Y5181
X14181Y4181
T04
X3181Y3681
X3181Y4681
X3181Y5681
X3181Y6681
X3181Y8681
X3181Y9681
X3181Y10681
X3181Y11681
X3181Y13681
X3181Y14681
X3181Y15681
X3181Y16681
X10681Y20181
X11681Y20181
X12681Y20181
X13681Y20181
X14681Y20181
X21681Y11681
X21681Y10681
X21681Y9681
X21681Y8681
X21681Y6681
X21681Y5681
X21681Y4681
X21681Y3681
T05
X6401Y13181
X8960Y13181
X16401Y13181
X18960Y13181
T06
X3681Y18244
X3681Y21118
M30
