  0
SECTION
  2
HEADER
  9
$ACADVER
  1
AC1009
  9
$DWGCODEPAGE
  3
undefined
  9
$INSBASE
 10
0.0
 20
0.0
 30
0.0
  9
$EXTMIN
 10
1.000000000000000E+20
 20
1.000000000000000E+20
 30
1.000000000000000E+20
  9
$EXTMAX
 10
-1.000000000000000E+20
 20
-1.000000000000000E+20
 30
-1.000000000000000E+20
  9
$LIMMIN
 10
0.0
 20
0.0
  9
$LIMMAX
 10
12.0
 20
9.0
  9
$ORTHOMODE
 70
     0
  9
$REGENMODE
 70
     1
  9
$FILLMODE
 70
     1
  9
$QTEXTMODE
 70
     0
  9
$MIRRTEXT
 70
     1
  9
$DRAGMODE
 70
     2
  9
$LTSCALE
 40
1.0
  9
$OSMODE
 70
    37
  9
$ATTMODE
 70
     1
  9
$TEXTSIZE
 40
0.2
  9
$TRACEWID
 40
0.05
  9
$TEXTSTYLE
  7
STANDARD
  9
$CLAYER
  8
0
  9
$CELTYPE
  6
BYLAYER
  9
$CECOLOR
 62
   256
  9
$DIMSCALE
 40
1.0
  9
$DIMASZ
 40
0.18
  9
$DIMEXO
 40
0.0625
  9
$DIMDLI
 40
0.38
  9
$DIMRND
 40
0.0
  9
$DIMDLE
 40
0.0
  9
$DIMEXE
 40
0.18
  9
$DIMTP
 40
0.0
  9
$DIMTM
 40
0.0
  9
$DIMTXT
 40
0.18
  9
$DIMCEN
 40
0.09
  9
$DIMTSZ
 40
0.0
  9
$DIMTOL
 70
     0
  9
$DIMLIM
 70
     0
  9
$DIMTIH
 70
     1
  9
$DIMTOH
 70
     1
  9
$DIMSE1
 70
     0
  9
$DIMSE2
 70
     0
  9
$DIMTAD
 70
     0
  9
$DIMZIN
 70
     0
  9
$DIMBLK
  1

  9
$DIMASO
 70
     1
  9
$DIMSHO
 70
     1
  9
$DIMPOST
  1

  9
$DIMAPOST
  1

  9
$DIMALT
 70
     0
  9
$DIMALTD
 70
     2
  9
$DIMALTF
 40
25.4
  9
$DIMLFAC
 40
1.0
  9
$DIMTOFL
 70
     0
  9
$DIMTVP
 40
0.0
  9
$DIMTIX
 70
     0
  9
$DIMSOXD
 70
     0
  9
$DIMSAH
 70
     0
  9
$DIMBLK1
  1

  9
$DIMBLK2
  1

  9
$DIMSTYLE
  2
STANDARD
  9
$DIMCLRD
 70
     0
  9
$DIMCLRE
 70
     0
  9
$DIMCLRT
 70
     0
  9
$DIMTFAC
 40
1.0
  9
$DIMGAP
 40
0.09
  9
$LUNITS
 70
     2
  9
$LUPREC
 70
     4
  9
$SKETCHINC
 40
0.1
  9
$FILLETRAD
 40
0.5
  9
$AUNITS
 70
     0
  9
$AUPREC
 70
     0
  9
$MENU
  1
.
  9
$ELEVATION
 40
0.0
  9
$PELEVATION
 40
0.0
  9
$THICKNESS
 40
0.0
  9
$LIMCHECK
 70
     0
  9
$CHAMFERA
 40
0.0
  9
$CHAMFERB
 40
0.0
  9
$SKPOLY
 70
     0
  9
$TDCREATE
 40
2457171.011412037
  9
$TDUPDATE
 40
2457171.011412037
  9
$TDINDWG
 40
0.0000000116
  9
$TDUSRTIMER
 40
0.0000000116
  9
$USRTIMER
 70
     1
  9
$ANGBASE
 50
0.0
  9
$ANGDIR
 70
     0
  9
$PDMODE
 70
     0
  9
$PDSIZE
 40
0.0
  9
$PLINEWID
 40
0.0
  9
$COORDS
 70
     1
  9
$SPLFRAME
 70
     0
  9
$SPLINETYPE
 70
     6
  9
$SPLINESEGS
 70
     8
  9
$ATTDIA
 70
     0
  9
$ATTREQ
 70
     1
  9
$HANDLING
 70
     1
  9
$HANDSEED
  5
10000791
  9
$SURFTAB1
 70
     6
  9
$SURFTAB2
 70
     6
  9
$SURFTYPE
 70
     6
  9
$SURFU
 70
     6
  9
$SURFV
 70
     6
  9
$UCSNAME
  2

  9
$UCSORG
 10
0.0
 20
0.0
 30
0.0
  9
$UCSXDIR
 10
1.0
 20
0.0
 30
0.0
  9
$UCSYDIR
 10
0.0
 20
1.0
 30
0.0
  9
$PUCSNAME
  2

  9
$PUCSORG
 10
0.0
 20
0.0
 30
0.0
  9
$PUCSXDIR
 10
1.0
 20
0.0
 30
0.0
  9
$PUCSYDIR
 10
0.0
 20
1.0
 30
0.0
  9
$USERI1
 70
     0
  9
$USERI2
 70
     0
  9
$USERI3
 70
     0
  9
$USERI4
 70
     0
  9
$USERI5
 70
     0
  9
$USERR1
 40
0.0
  9
$USERR2
 40
0.0
  9
$USERR3
 40
0.0
  9
$USERR4
 40
0.0
  9
$USERR5
 40
0.0
  9
$WORLDVIEW
 70
     1
  9
$SHADEDGE
 70
     3
  9
$SHADEDIF
 70
    70
  9
$TILEMODE
 70
     1
  9
$MAXACTVP
 70
    64
  9
$PLIMCHECK
 70
     0
  9
$PEXTMIN
 10
1.000000000000000E+20
 20
1.000000000000000E+20
 30
1.000000000000000E+20
  9
$PEXTMAX
 10
-1.000000000000000E+20
 20
-1.000000000000000E+20
 30
-1.000000000000000E+20
  9
$PLIMMIN
 10
0.0
 20
0.0
  9
$PLIMMAX
 10
12.0
 20
9.0
  9
$UNITMODE
 70
     0
  9
$VISRETAIN
 70
     1
  9
$PLINEGEN
 70
     0
  9
$PSLTSCALE
 70
     1
  0
ENDSEC
  0
SECTION
  2
TABLES
  0
TABLE
  2
VPORT
 70
     1
  0
VPORT
  2
*ACTIVE
 70
     0
 10
0.0
 20
0.0
 11
1.0
 21
1.0
 12
10.42990654205607
 22
4.5
 13
0.0
 23
0.0
 14
0.5
 24
0.5
 15
0.5
 25
0.5
 16
0.0
 26
0.0
 36
1.0
 17
0.0
 27
0.0
 37
0.0
 40
9.0
 41
1.972972972850329
 42
50.0
 43
0.0
 44
0.0
 50
0.0
 51
0.0
 71
     0
 72
   100
 73
     1
 74
     3
 75
     0
 76
     0
 77
     0
 78
     0
  0
ENDTAB
  0
TABLE
  2
LTYPE
 70
     5
  0
LTYPE
  2
CONTINUOUS
 70
     0
  3
Solid line
 72
    65
 73
     0
 40
0.0
  0
LTYPE
  2
HIDDEN
 70
     0
  3
Hidden line ____ ____ ____ ____ 
 72
    83
 73
     2
 40
0.125
 49
0.25
 49
-0.125
  0
LTYPE
  2
PHANTOM
 70
     0
  3
Phantom line ______  __  __  ______  __  __
 72
    83
 73
     6
 40
0.5
 49
0.625
 49
-0.125
 49
0.125
 49
-0.125
 49
0.125
 49
-0.125
  0
LTYPE
  2
CENTER
 70
     0
  3
Center line ____ _ ____ _ ____ _
 72
    83
 73
     4
 40
0.5
 49
0.625
 49
-0.125
 49
0.125
 49
-0.125
  0
LTYPE
  2
DASHED
 70
     0
  3
Dashed line __ __ __ __
 72
    83
 73
     2
 40
0.25
 49
0.5
 49
-0.25
  0
ENDTAB
  0
TABLE
  2
LAYER
 70
     5
  0
LAYER
  2
0
 70
     0
 62
     7
  6
CONTINUOUS
  0
LAYER
  2
HIDDEN
 70
     0
 62
    -7
  6
HIDDEN
  0
LAYER
  2
VISIBLE
 70
     0
 62
     7
  6
CONTINUOUS
  0
LAYER
  2
TANGENT_LINES
 70
     0
 62
     7
  6
CONTINUOUS
  0
LAYER
  2
INVISIBLE_LINES
 70
     0
 62
    -7
  6
CONTINUOUS
  0
ENDTAB
  0
TABLE
  2
STYLE
 70
     2
  0
STYLE
  2
STANDARD
 70
     0
 40
0.0
 41
1.0
 50
0.0
 71
     0
 42
0.2
  3
txt
  4

  0
STYLE
  2
ODATTFSTYLE
 70
     0
 40
0.0
 41
1.0
 50
0.0
 71
     0
 42
0.2
  3
Verdana.ttf
  4

  0
ENDTAB
  0
TABLE
  2
VIEW
 70
     0
  0
ENDTAB
  0
TABLE
  2
UCS
 70
     0
  0
ENDTAB
  0
TABLE
  2
APPID
 70
     1
  0
APPID
  2
ACAD
 70
     0
  0
ENDTAB
  0
TABLE
  2
DIMSTYLE
 70
     1
  0
DIMSTYLE
  2
STANDARD
 70
     0
  3

  4

  5

  6

  7

 40
1.0
 41
0.18
 42
0.0625
 43
0.38
 44
0.18
 45
0.0
 46
0.0
 47
0.0
 48
0.0
140
0.18
141
0.09
142
0.0
143
25.4
144
1.0
145
0.0
146
1.0
147
0.09
 71
     0
 72
     0
 73
     1
 74
     1
 75
     0
 76
     0
 77
     0
 78
     0
170
     0
171
     2
172
     0
173
     0
174
     0
175
     0
176
     0
177
     0
178
     0
  0
ENDTAB
  0
ENDSEC
  0
SECTION
  2
BLOCKS
  0
BLOCK
  8
0
  2
$MODEL_SPACE
 70
     0
 10
0.0
 20
0.0
 30
0.0
  3
$MODEL_SPACE
  1

  0
ENDBLK
  5
21
  8
0
  0
BLOCK
 67
     1
  8
0
  2
$PAPER_SPACE
 70
     0
 10
0.0
 20
0.0
 30
0.0
  3
$PAPER_SPACE
  1

  0
ENDBLK
  5
1D
 67
     1
  8
0
  0
ENDSEC
  0
SECTION
  2
ENTITIES
  0
LINE
  5
F478C
  8
VISIBLE
 10
-0.5750000000000002
 20
-0.1625
 30
0.0
 11
-0.4500000000000002
 21
-0.1625
 31
0.0
  0
LINE
  5
F478D
  8
VISIBLE
 10
2.350000000000001
 20
-1.0
 30
0.0
 11
2.200000000000001
 21
-1.0
 31
0.0
  0
LINE
  5
F478E
  8
VISIBLE
 10
0.7500000000000004
 20
-1.0
 30
0.0
 11
0.6000000000000002
 21
-1.0
 31
0.0
  0
POLYLINE
  5
F478F
  8
VISIBLE
 10
0.0
 20
0.0
 30
0.0
 66
     1
 70
     8
  0
VERTEX
  5
10000030
  8
VISIBLE
 10
0.5500000000000004
 20
-1.0
 30
0.0
 70
    32
  0
VERTEX
  5
10000031
  8
VISIBLE
 10
0.5531250000000003
 20
-0.8367919921875
 30
0.0
 70
    32
  0
VERTEX
  5
10000032
  8
VISIBLE
 10
0.5562500000000001
 20
-0.6787109374999998
 30
0.0
 70
    32
  0
VERTEX
  5
10000033
  8
VISIBLE
 10
0.5593749999999998
 20
-0.5308837890624999
 30
0.0
 70
    32
  0
VERTEX
  5
10000034
  8
VISIBLE
 10
0.5624999999999996
 20
-0.3984374999999998
 30
0.0
 70
    32
  0
VERTEX
  5
10000035
  8
VISIBLE
 10
0.5648437499999992
 20
-0.3122806549072264
 30
0.0
 70
    32
  0
VERTEX
  5
10000036
  8
VISIBLE
 10
0.5671874999999991
 20
-0.2398223876953124
 30
0.0
 70
    32
  0
VERTEX
  5
10000037
  8
VISIBLE
 10
0.5695312499999987
 20
-0.1832256317138671
 30
0.0
 70
    32
  0
VERTEX
  5
10000038
  8
VISIBLE
 10
0.5718749999999987
 20
-0.1446533203124999
 30
0.0
 70
    32
  0
VERTEX
  5
10000039
  8
VISIBLE
 10
0.5742187499999987
 20
-0.1262683868408202
 30
0.0
 70
    32
  0
VERTEX
  5
1000003A
  8
VISIBLE
 10
0.5746093749999986
 20
-0.1253187656402587
 30
0.0
 70
    32
  0
VERTEX
  5
1000003B
  8
VISIBLE
 10
0.5748046874999987
 20
-0.1250799000263213
 30
0.0
 70
    32
  0
VERTEX
  5
1000003C
  8
VISIBLE
 10
0.5749999999999986
 20
-0.1249999999999999
 30
0.0
 70
    32
  0
VERTEX
  5
1000003D
  8
VISIBLE
 10
0.5751953124999986
 20
-0.1250799000263213
 30
0.0
 70
    32
  0
VERTEX
  5
1000003E
  8
VISIBLE
 10
0.5753906249999987
 20
-0.1253187656402587
 30
0.0
 70
    32
  0
VERTEX
  5
1000003F
  8
VISIBLE
 10
0.5757812499999987
 20
-0.1262683868408202
 30
0.0
 70
    32
  0
VERTEX
  5
10000040
  8
VISIBLE
 10
0.5781249999999987
 20
-0.1446533203124999
 30
0.0
 70
    32
  0
VERTEX
  5
10000041
  8
VISIBLE
 10
0.5804687499999989
 20
-0.1832256317138671
 30
0.0
 70
    32
  0
VERTEX
  5
10000042
  8
VISIBLE
 10
0.582812499999999
 20
-0.2398223876953124
 30
0.0
 70
    32
  0
VERTEX
  5
10000043
  8
VISIBLE
 10
0.5851562499999992
 20
-0.3122806549072264
 30
0.0
 70
    32
  0
VERTEX
  5
10000044
  8
VISIBLE
 10
0.5874999999999994
 20
-0.3984374999999998
 30
0.0
 70
    32
  0
VERTEX
  5
10000045
  8
VISIBLE
 10
0.5906249999999996
 20
-0.5308837890625
 30
0.0
 70
    32
  0
VERTEX
  5
10000046
  8
VISIBLE
 10
0.5937499999999999
 20
-0.6787109374999998
 30
0.0
 70
    32
  0
VERTEX
  5
10000047
  8
VISIBLE
 10
0.5968750000000002
 20
-0.8367919921875
 30
0.0
 70
    32
  0
VERTEX
  5
10000048
  8
VISIBLE
 10
0.6000000000000002
 20
-1.0
 30
0.0
 70
    32
  0
SEQEND
  5
10000757
  8
VISIBLE
  0
POLYLINE
  5
F4790
  8
VISIBLE
 10
0.0
 20
0.0
 30
0.0
 66
     1
 70
     8
  0
VERTEX
  5
1000004B
  8
VISIBLE
 10
1.6
 20
-1.0
 30
0.0
 70
    32
  0
VERTEX
  5
1000004C
  8
VISIBLE
 10
1.596875000000001
 20
-0.8367919921875
 30
0.0
 70
    32
  0
VERTEX
  5
1000004D
  8
VISIBLE
 10
1.593750000000001
 20
-0.6787109374999998
 30
0.0
 70
    32
  0
VERTEX
  5
1000004E
  8
VISIBLE
 10
1.590625000000001
 20
-0.5308837890624999
 30
0.0
 70
    32
  0
VERTEX
  5
1000004F
  8
VISIBLE
 10
1.587500000000001
 20
-0.3984374999999998
 30
0.0
 70
    32
  0
VERTEX
  5
10000050
  8
VISIBLE
 10
1.585156250000002
 20
-0.3122806549072264
 30
0.0
 70
    32
  0
VERTEX
  5
10000051
  8
VISIBLE
 10
1.582812500000002
 20
-0.2398223876953124
 30
0.0
 70
    32
  0
VERTEX
  5
10000052
  8
VISIBLE
 10
1.580468750000002
 20
-0.1832256317138671
 30
0.0
 70
    32
  0
VERTEX
  5
10000053
  8
VISIBLE
 10
1.578125000000002
 20
-0.1446533203124999
 30
0.0
 70
    32
  0
VERTEX
  5
10000054
  8
VISIBLE
 10
1.575781250000002
 20
-0.1262683868408202
 30
0.0
 70
    32
  0
VERTEX
  5
10000055
  8
VISIBLE
 10
1.575390625000002
 20
-0.1253187656402587
 30
0.0
 70
    32
  0
VERTEX
  5
10000056
  8
VISIBLE
 10
1.575195312500002
 20
-0.1250799000263213
 30
0.0
 70
    32
  0
VERTEX
  5
10000057
  8
VISIBLE
 10
1.575000000000002
 20
-0.1249999999999999
 30
0.0
 70
    32
  0
VERTEX
  5
10000058
  8
VISIBLE
 10
1.574804687500002
 20
-0.1250799000263213
 30
0.0
 70
    32
  0
VERTEX
  5
10000059
  8
VISIBLE
 10
1.574609375000002
 20
-0.1253187656402587
 30
0.0
 70
    32
  0
VERTEX
  5
1000005A
  8
VISIBLE
 10
1.574218750000002
 20
-0.1262683868408202
 30
0.0
 70
    32
  0
VERTEX
  5
1000005B
  8
VISIBLE
 10
1.571875000000002
 20
-0.1446533203124999
 30
0.0
 70
    32
  0
VERTEX
  5
1000005C
  8
VISIBLE
 10
1.569531250000002
 20
-0.1832256317138671
 30
0.0
 70
    32
  0
VERTEX
  5
1000005D
  8
VISIBLE
 10
1.567187500000002
 20
-0.2398223876953124
 30
0.0
 70
    32
  0
VERTEX
  5
1000005E
  8
VISIBLE
 10
1.564843750000002
 20
-0.3122806549072264
 30
0.0
 70
    32
  0
VERTEX
  5
1000005F
  8
VISIBLE
 10
1.562500000000001
 20
-0.3984374999999998
 30
0.0
 70
    32
  0
VERTEX
  5
10000060
  8
VISIBLE
 10
1.559375000000001
 20
-0.5308837890625
 30
0.0
 70
    32
  0
VERTEX
  5
10000061
  8
VISIBLE
 10
1.556250000000001
 20
-0.6787109374999998
 30
0.0
 70
    32
  0
VERTEX
  5
10000062
  8
VISIBLE
 10
1.553125000000001
 20
-0.8367919921875
 30
0.0
 70
    32
  0
VERTEX
  5
10000063
  8
VISIBLE
 10
1.550000000000001
 20
-1.0
 30
0.0
 70
    32
  0
SEQEND
  5
10000758
  8
VISIBLE
  0
POLYLINE
  5
F4791
  8
VISIBLE
 10
0.0
 20
0.0
 30
0.0
 66
     1
 70
     8
  0
VERTEX
  5
10000066
  8
VISIBLE
 10
2.600000000000001
 20
1.0
 30
0.0
 70
    32
  0
VERTEX
  5
10000067
  8
VISIBLE
 10
2.596875000000001
 20
0.8367919921875001
 30
0.0
 70
    32
  0
VERTEX
  5
10000068
  8
VISIBLE
 10
2.593750000000001
 20
0.6787109375
 30
0.0
 70
    32
  0
VERTEX
  5
10000069
  8
VISIBLE
 10
2.590625000000001
 20
0.5308837890624998
 30
0.0
 70
    32
  0
VERTEX
  5
1000006A
  8
VISIBLE
 10
2.587500000000001
 20
0.3984374999999998
 30
0.0
 70
    32
  0
VERTEX
  5
1000006B
  8
VISIBLE
 10
2.585156250000001
 20
0.3122806549072262
 30
0.0
 70
    32
  0
VERTEX
  5
1000006C
  8
VISIBLE
 10
2.582812500000001
 20
0.2398223876953121
 30
0.0
 70
    32
  0
VERTEX
  5
1000006D
  8
VISIBLE
 10
2.580468750000001
 20
0.1832256317138668
 30
0.0
 70
    32
  0
VERTEX
  5
1000006E
  8
VISIBLE
 10
2.578125000000002
 20
0.1446533203124996
 30
0.0
 70
    32
  0
VERTEX
  5
1000006F
  8
VISIBLE
 10
2.575781250000001
 20
0.1262683868408198
 30
0.0
 70
    32
  0
VERTEX
  5
10000070
  8
VISIBLE
 10
2.575390625000001
 20
0.1253187656402583
 30
0.0
 70
    32
  0
VERTEX
  5
10000071
  8
VISIBLE
 10
2.5751953125
 20
0.1250799000263209
 30
0.0
 70
    32
  0
VERTEX
  5
10000072
  8
VISIBLE
 10
2.575000000000001
 20
0.1249999999999995
 30
0.0
 70
    32
  0
VERTEX
  5
10000073
  8
VISIBLE
 10
2.5748046875
 20
0.1250799000263209
 30
0.0
 70
    32
  0
VERTEX
  5
10000074
  8
VISIBLE
 10
2.574609375
 20
0.1253187656402583
 30
0.0
 70
    32
  0
VERTEX
  5
10000075
  8
VISIBLE
 10
2.574218750000001
 20
0.1262683868408198
 30
0.0
 70
    32
  0
VERTEX
  5
10000076
  8
VISIBLE
 10
2.571875
 20
0.1446533203124996
 30
0.0
 70
    32
  0
VERTEX
  5
10000077
  8
VISIBLE
 10
2.56953125
 20
0.1832256317138668
 30
0.0
 70
    32
  0
VERTEX
  5
10000078
  8
VISIBLE
 10
2.567187500000001
 20
0.2398223876953121
 30
0.0
 70
    32
  0
VERTEX
  5
10000079
  8
VISIBLE
 10
2.564843750000001
 20
0.3122806549072263
 30
0.0
 70
    32
  0
VERTEX
  5
1000007A
  8
VISIBLE
 10
2.562500000000001
 20
0.3984374999999998
 30
0.0
 70
    32
  0
VERTEX
  5
1000007B
  8
VISIBLE
 10
2.559375
 20
0.5308837890624998
 30
0.0
 70
    32
  0
VERTEX
  5
1000007C
  8
VISIBLE
 10
2.556250000000001
 20
0.6787109375
 30
0.0
 70
    32
  0
VERTEX
  5
1000007D
  8
VISIBLE
 10
2.553125000000001
 20
0.8367919921875001
 30
0.0
 70
    32
  0
VERTEX
  5
1000007E
  8
VISIBLE
 10
2.550000000000001
 20
1.0
 30
0.0
 70
    32
  0
SEQEND
  5
10000759
  8
VISIBLE
  0
LINE
  5
F4792
  8
VISIBLE
 10
-0.4500000000000002
 20
0.0750000000000001
 30
0.0
 11
-0.3500000000000001
 21
0.0750000000000002
 31
0.0
  0
LINE
  5
F4793
  8
VISIBLE
 10
2.550000000000001
 20
-1.0
 30
0.0
 11
2.400000000000001
 21
-1.0
 31
0.0
  0
POLYLINE
  5
F4794
  8
VISIBLE
 10
0.0
 20
0.0
 30
0.0
 66
     1
 70
     8
  0
VERTEX
  5
10000085
  8
VISIBLE
 10
0.4999999999999968
 20
0.0
 30
0.0
 70
    32
  0
VERTEX
  5
10000086
  8
VISIBLE
 10
0.4994384765624968
 20
0.1632080078125001
 30
0.0
 70
    32
  0
VERTEX
  5
10000087
  8
VISIBLE
 10
0.4978515624999967
 20
0.3212890625000002
 30
0.0
 70
    32
  0
VERTEX
  5
10000088
  8
VISIBLE
 10
0.4953857421874966
 20
0.4691162109375001
 30
0.0
 70
    32
  0
VERTEX
  5
10000089
  8
VISIBLE
 10
0.4921874999999966
 20
0.6015625000000001
 30
0.0
 70
    32
  0
VERTEX
  5
1000008A
  8
VISIBLE
 10
0.4893962860107386
 20
0.6877193450927735
 30
0.0
 70
    32
  0
VERTEX
  5
1000008B
  8
VISIBLE
 10
0.4863372802734339
 20
0.7601776123046876
 30
0.0
 70
    32
  0
VERTEX
  5
1000008C
  8
VISIBLE
 10
0.4830722808837854
 20
0.816774368286133
 30
0.0
 70
    32
  0
VERTEX
  5
1000008D
  8
VISIBLE
 10
0.4796630859374965
 20
0.8553466796875002
 30
0.0
 70
    32
  0
VERTEX
  5
1000008E
  8
VISIBLE
 10
0.4773406982421838
 20
0.8699798583984374
 30
0.0
 70
    32
  0
VERTEX
  5
1000008F
  8
VISIBLE
 10
0.4761714935302698
 20
0.8737316131591797
 30
0.0
 70
    32
  0
VERTEX
  5
10000090
  8
VISIBLE
 10
0.4755858898162805
 20
0.8746812343597412
 30
0.0
 70
    32
  0
VERTEX
  5
10000091
  8
VISIBLE
 10
0.4749999999999964
 20
0.8750000000000001
 30
0.0
 70
    32
  0
VERTEX
  5
10000092
  8
VISIBLE
 10
0.4744141101837122
 20
0.8746812343597412
 30
0.0
 70
    32
  0
VERTEX
  5
10000093
  8
VISIBLE
 10
0.473828506469723
 20
0.8737316131591797
 30
0.0
 70
    32
  0
VERTEX
  5
10000094
  8
VISIBLE
 10
0.4726593017578089
 20
0.8699798583984374
 30
0.0
 70
    32
  0
VERTEX
  5
10000095
  8
VISIBLE
 10
0.4703369140624964
 20
0.8553466796875002
 30
0.0
 70
    32
  0
VERTEX
  5
10000096
  8
VISIBLE
 10
0.4669277191162075
 20
0.816774368286133
 30
0.0
 70
    32
  0
VERTEX
  5
10000097
  8
VISIBLE
 10
0.463662719726559
 20
0.7601776123046876
 30
0.0
 70
    32
  0
VERTEX
  5
10000098
  8
VISIBLE
 10
0.4606037139892545
 20
0.6877193450927734
 30
0.0
 70
    32
  0
VERTEX
  5
10000099
  8
VISIBLE
 10
0.4578124999999968
 20
0.6015625
 30
0.0
 70
    32
  0
VERTEX
  5
1000009A
  8
VISIBLE
 10
0.4546142578124969
 20
0.4691162109374999
 30
0.0
 70
    32
  0
VERTEX
  5
1000009B
  8
VISIBLE
 10
0.452148437499997
 20
0.3212890624999999
 30
0.0
 70
    32
  0
VERTEX
  5
1000009C
  8
VISIBLE
 10
0.450561523437497
 20
0.1632080078124999
 30
0.0
 70
    32
  0
VERTEX
  5
1000009D
  8
VISIBLE
 10
0.4499999999999971
 20
-0.0000000000000001
 30
0.0
 70
    32
  0
VERTEX
  5
1000009E
  8
VISIBLE
 10
0.450561523437497
 20
-0.1632080078125002
 30
0.0
 70
    32
  0
VERTEX
  5
1000009F
  8
VISIBLE
 10
0.452148437499997
 20
-0.3212890625000003
 30
0.0
 70
    32
  0
VERTEX
  5
100000A0
  8
VISIBLE
 10
0.454614257812497
 20
-0.4691162109375002
 30
0.0
 70
    32
  0
VERTEX
  5
100000A1
  8
VISIBLE
 10
0.4578124999999968
 20
-0.6015625000000002
 30
0.0
 70
    32
  0
VERTEX
  5
100000A2
  8
VISIBLE
 10
0.4606037139892545
 20
-0.6877193450927737
 30
0.0
 70
    32
  0
VERTEX
  5
100000A3
  8
VISIBLE
 10
0.4636627197265591
 20
-0.7601776123046878
 30
0.0
 70
    32
  0
VERTEX
  5
100000A4
  8
VISIBLE
 10
0.4669277191162075
 20
-0.816774368286133
 30
0.0
 70
    32
  0
VERTEX
  5
100000A5
  8
VISIBLE
 10
0.4703369140624964
 20
-0.8553466796875003
 30
0.0
 70
    32
  0
VERTEX
  5
100000A6
  8
VISIBLE
 10
0.472659301757809
 20
-0.8699798583984377
 30
0.0
 70
    32
  0
VERTEX
  5
100000A7
  8
VISIBLE
 10
0.473828506469723
 20
-0.8737316131591799
 30
0.0
 70
    32
  0
VERTEX
  5
100000A8
  8
VISIBLE
 10
0.4744141101837122
 20
-0.8746812343597413
 30
0.0
 70
    32
  0
VERTEX
  5
100000A9
  8
VISIBLE
 10
0.4749999999999964
 20
-0.8750000000000002
 30
0.0
 70
    32
  0
VERTEX
  5
100000AA
  8
VISIBLE
 10
0.4755858898162805
 20
-0.8746812343597413
 30
0.0
 70
    32
  0
VERTEX
  5
100000AB
  8
VISIBLE
 10
0.4761714935302698
 20
-0.8737316131591799
 30
0.0
 70
    32
  0
VERTEX
  5
100000AC
  8
VISIBLE
 10
0.4773406982421839
 20
-0.8699798583984377
 30
0.0
 70
    32
  0
VERTEX
  5
100000AD
  8
VISIBLE
 10
0.4796630859374965
 20
-0.8553466796875003
 30
0.0
 70
    32
  0
VERTEX
  5
100000AE
  8
VISIBLE
 10
0.4830722808837855
 20
-0.816774368286133
 30
0.0
 70
    32
  0
VERTEX
  5
100000AF
  8
VISIBLE
 10
0.4863372802734339
 20
-0.7601776123046876
 30
0.0
 70
    32
  0
VERTEX
  5
100000B0
  8
VISIBLE
 10
0.4893962860107386
 20
-0.6877193450927735
 30
0.0
 70
    32
  0
VERTEX
  5
100000B1
  8
VISIBLE
 10
0.4921874999999966
 20
-0.6015625000000001
 30
0.0
 70
    32
  0
VERTEX
  5
100000B2
  8
VISIBLE
 10
0.4953857421874966
 20
-0.4691162109375001
 30
0.0
 70
    32
  0
VERTEX
  5
100000B3
  8
VISIBLE
 10
0.4978515624999967
 20
-0.3212890625000002
 30
0.0
 70
    32
  0
VERTEX
  5
100000B4
  8
VISIBLE
 10
0.4994384765624967
 20
-0.1632080078125001
 30
0.0
 70
    32
  0
VERTEX
  5
100000B5
  8
VISIBLE
 10
0.4999999999999968
 20
0.0
 30
0.0
 70
    32
  0
SEQEND
  5
1000075A
  8
VISIBLE
  0
LINE
  5
F4795
  8
VISIBLE
 10
0.9499999999999988
 20
1.0
 30
0.0
 11
0.8000000000000018
 21
1.0
 31
0.0
  0
LINE
  5
F4796
  8
VISIBLE
 10
2.750000000000001
 20
-1.0
 30
0.0
 11
2.600000000000001
 21
-1.0
 31
0.0
  0
POLYLINE
  5
F4797
  8
VISIBLE
 10
0.0
 20
0.0
 30
0.0
 66
     1
 70
     8
  0
VERTEX
  5
100000BC
  8
VISIBLE
 10
2.550000000000001
 20
-1.0
 30
0.0
 70
    32
  0
VERTEX
  5
100000BD
  8
VISIBLE
 10
2.553125000000001
 20
-0.8367919921875
 30
0.0
 70
    32
  0
VERTEX
  5
100000BE
  8
VISIBLE
 10
2.556250000000001
 20
-0.6787109374999997
 30
0.0
 70
    32
  0
VERTEX
  5
100000BF
  8
VISIBLE
 10
2.559375
 20
-0.5308837890624999
 30
0.0
 70
    32
  0
VERTEX
  5
100000C0
  8
VISIBLE
 10
2.562500000000001
 20
-0.3984374999999998
 30
0.0
 70
    32
  0
VERTEX
  5
100000C1
  8
VISIBLE
 10
2.564843750000001
 20
-0.3122806549072264
 30
0.0
 70
    32
  0
VERTEX
  5
100000C2
  8
VISIBLE
 10
2.567187500000001
 20
-0.2398223876953123
 30
0.0
 70
    32
  0
VERTEX
  5
100000C3
  8
VISIBLE
 10
2.56953125
 20
-0.1832256317138671
 30
0.0
 70
    32
  0
VERTEX
  5
100000C4
  8
VISIBLE
 10
2.571875
 20
-0.1446533203124999
 30
0.0
 70
    32
  0
VERTEX
  5
100000C5
  8
VISIBLE
 10
2.574218750000001
 20
-0.1262683868408202
 30
0.0
 70
    32
  0
VERTEX
  5
100000C6
  8
VISIBLE
 10
2.574609375
 20
-0.1253187656402587
 30
0.0
 70
    32
  0
VERTEX
  5
100000C7
  8
VISIBLE
 10
2.5748046875
 20
-0.1250799000263213
 30
0.0
 70
    32
  0
VERTEX
  5
100000C8
  8
VISIBLE
 10
2.575000000000001
 20
-0.1249999999999999
 30
0.0
 70
    32
  0
VERTEX
  5
100000C9
  8
VISIBLE
 10
2.5751953125
 20
-0.1250799000263213
 30
0.0
 70
    32
  0
VERTEX
  5
100000CA
  8
VISIBLE
 10
2.575390625
 20
-0.1253187656402587
 30
0.0
 70
    32
  0
VERTEX
  5
100000CB
  8
VISIBLE
 10
2.57578125
 20
-0.1262683868408202
 30
0.0
 70
    32
  0
VERTEX
  5
100000CC
  8
VISIBLE
 10
2.578125
 20
-0.1446533203124999
 30
0.0
 70
    32
  0
VERTEX
  5
100000CD
  8
VISIBLE
 10
2.580468750000001
 20
-0.183225631713867
 30
0.0
 70
    32
  0
VERTEX
  5
100000CE
  8
VISIBLE
 10
2.5828125
 20
-0.2398223876953123
 30
0.0
 70
    32
  0
VERTEX
  5
100000CF
  8
VISIBLE
 10
2.585156250000001
 20
-0.3122806549072264
 30
0.0
 70
    32
  0
VERTEX
  5
100000D0
  8
VISIBLE
 10
2.587500000000001
 20
-0.3984374999999998
 30
0.0
 70
    32
  0
VERTEX
  5
100000D1
  8
VISIBLE
 10
2.590625000000001
 20
-0.5308837890624999
 30
0.0
 70
    32
  0
VERTEX
  5
100000D2
  8
VISIBLE
 10
2.593750000000001
 20
-0.6787109374999998
 30
0.0
 70
    32
  0
VERTEX
  5
100000D3
  8
VISIBLE
 10
2.596875000000001
 20
-0.8367919921875
 30
0.0
 70
    32
  0
VERTEX
  5
100000D4
  8
VISIBLE
 10
2.600000000000001
 20
-1.0
 30
0.0
 70
    32
  0
SEQEND
  5
1000075B
  8
VISIBLE
  0
POLYLINE
  5
F4798
  8
VISIBLE
 10
0.0
 20
0.0
 30
0.0
 66
     1
 70
     8
  0
VERTEX
  5
100000D7
  8
VISIBLE
 10
0.2500000000000036
 20
-0.0000000000000001
 30
0.0
 70
    32
  0
VERTEX
  5
100000D8
  8
VISIBLE
 10
0.2505615234375037
 20
0.1632080078125
 30
0.0
 70
    32
  0
VERTEX
  5
100000D9
  8
VISIBLE
 10
0.2521484375000037
 20
0.3212890625
 30
0.0
 70
    32
  0
VERTEX
  5
100000DA
  8
VISIBLE
 10
0.2546142578125038
 20
0.4691162109375
 30
0.0
 70
    32
  0
VERTEX
  5
100000DB
  8
VISIBLE
 10
0.2578125000000038
 20
0.6015625000000001
 30
0.0
 70
    32
  0
VERTEX
  5
100000DC
  8
VISIBLE
 10
0.2606037139892617
 20
0.6877193450927735
 30
0.0
 70
    32
  0
VERTEX
  5
100000DD
  8
VISIBLE
 10
0.2636627197265664
 20
0.7601776123046876
 30
0.0
 70
    32
  0
VERTEX
  5
100000DE
  8
VISIBLE
 10
0.2669277191162149
 20
0.816774368286133
 30
0.0
 70
    32
  0
VERTEX
  5
100000DF
  8
VISIBLE
 10
0.2703369140625039
 20
0.8553466796875002
 30
0.0
 70
    32
  0
VERTEX
  5
100000E0
  8
VISIBLE
 10
0.2726593017578165
 20
0.8699798583984374
 30
0.0
 70
    32
  0
VERTEX
  5
100000E1
  8
VISIBLE
 10
0.2738285064697306
 20
0.8737316131591797
 30
0.0
 70
    32
  0
VERTEX
  5
100000E2
  8
VISIBLE
 10
0.2744141101837198
 20
0.8746812343597412
 30
0.0
 70
    32
  0
VERTEX
  5
100000E3
  8
VISIBLE
 10
0.275000000000004
 20
0.8750000000000001
 30
0.0
 70
    32
  0
VERTEX
  5
100000E4
  8
VISIBLE
 10
0.2755858898162882
 20
0.8746812343597412
 30
0.0
 70
    32
  0
VERTEX
  5
100000E5
  8
VISIBLE
 10
0.2761714935302774
 20
0.8737316131591797
 30
0.0
 70
    32
  0
VERTEX
  5
100000E6
  8
VISIBLE
 10
0.2773406982421915
 20
0.8699798583984374
 30
0.0
 70
    32
  0
VERTEX
  5
100000E7
  8
VISIBLE
 10
0.2796630859375039
 20
0.8553466796875002
 30
0.0
 70
    32
  0
VERTEX
  5
100000E8
  8
VISIBLE
 10
0.2830722808837929
 20
0.816774368286133
 30
0.0
 70
    32
  0
VERTEX
  5
100000E9
  8
VISIBLE
 10
0.2863372802734414
 20
0.7601776123046876
 30
0.0
 70
    32
  0
VERTEX
  5
100000EA
  8
VISIBLE
 10
0.2893962860107459
 20
0.6877193450927734
 30
0.0
 70
    32
  0
VERTEX
  5
100000EB
  8
VISIBLE
 10
0.2921875000000037
 20
0.6015625
 30
0.0
 70
    32
  0
VERTEX
  5
100000EC
  8
VISIBLE
 10
0.2953857421875036
 20
0.4691162109374999
 30
0.0
 70
    32
  0
VERTEX
  5
100000ED
  8
VISIBLE
 10
0.2978515625000034
 20
0.3212890624999999
 30
0.0
 70
    32
  0
VERTEX
  5
100000EE
  8
VISIBLE
 10
0.2994384765625034
 20
0.1632080078124999
 30
0.0
 70
    32
  0
VERTEX
  5
100000EF
  8
VISIBLE
 10
0.3000000000000034
 20
-0.0000000000000001
 30
0.0
 70
    32
  0
VERTEX
  5
100000F0
  8
VISIBLE
 10
0.2994384765625034
 20
-0.1632080078125002
 30
0.0
 70
    32
  0
VERTEX
  5
100000F1
  8
VISIBLE
 10
0.2978515625000035
 20
-0.3212890625000003
 30
0.0
 70
    32
  0
VERTEX
  5
100000F2
  8
VISIBLE
 10
0.2953857421875036
 20
-0.4691162109375002
 30
0.0
 70
    32
  0
VERTEX
  5
100000F3
  8
VISIBLE
 10
0.2921875000000037
 20
-0.6015625000000002
 30
0.0
 70
    32
  0
VERTEX
  5
100000F4
  8
VISIBLE
 10
0.2893962860107459
 20
-0.6877193450927737
 30
0.0
 70
    32
  0
VERTEX
  5
100000F5
  8
VISIBLE
 10
0.2863372802734414
 20
-0.7601776123046878
 30
0.0
 70
    32
  0
VERTEX
  5
100000F6
  8
VISIBLE
 10
0.2830722808837929
 20
-0.816774368286133
 30
0.0
 70
    32
  0
VERTEX
  5
100000F7
  8
VISIBLE
 10
0.279663085937504
 20
-0.8553466796875003
 30
0.0
 70
    32
  0
VERTEX
  5
100000F8
  8
VISIBLE
 10
0.2773406982421915
 20
-0.8699798583984377
 30
0.0
 70
    32
  0
VERTEX
  5
100000F9
  8
VISIBLE
 10
0.2761714935302775
 20
-0.8737316131591799
 30
0.0
 70
    32
  0
VERTEX
  5
100000FA
  8
VISIBLE
 10
0.2755858898162882
 20
-0.8746812343597413
 30
0.0
 70
    32
  0
VERTEX
  5
100000FB
  8
VISIBLE
 10
0.275000000000004
 20
-0.8750000000000002
 30
0.0
 70
    32
  0
VERTEX
  5
100000FC
  8
VISIBLE
 10
0.2744141101837199
 20
-0.8746812343597413
 30
0.0
 70
    32
  0
VERTEX
  5
100000FD
  8
VISIBLE
 10
0.2738285064697306
 20
-0.8737316131591799
 30
0.0
 70
    32
  0
VERTEX
  5
100000FE
  8
VISIBLE
 10
0.2726593017578165
 20
-0.8699798583984377
 30
0.0
 70
    32
  0
VERTEX
  5
100000FF
  8
VISIBLE
 10
0.270336914062504
 20
-0.8553466796875003
 30
0.0
 70
    32
  0
VERTEX
  5
10000100
  8
VISIBLE
 10
0.2669277191162149
 20
-0.816774368286133
 30
0.0
 70
    32
  0
VERTEX
  5
10000101
  8
VISIBLE
 10
0.2636627197265665
 20
-0.7601776123046876
 30
0.0
 70
    32
  0
VERTEX
  5
10000102
  8
VISIBLE
 10
0.2606037139892617
 20
-0.6877193450927735
 30
0.0
 70
    32
  0
VERTEX
  5
10000103
  8
VISIBLE
 10
0.2578125000000038
 20
-0.6015625000000001
 30
0.0
 70
    32
  0
VERTEX
  5
10000104
  8
VISIBLE
 10
0.2546142578125038
 20
-0.4691162109375002
 30
0.0
 70
    32
  0
VERTEX
  5
10000105
  8
VISIBLE
 10
0.2521484375000037
 20
-0.3212890625000002
 30
0.0
 70
    32
  0
VERTEX
  5
10000106
  8
VISIBLE
 10
0.2505615234375037
 20
-0.1632080078125001
 30
0.0
 70
    32
  0
VERTEX
  5
10000107
  8
VISIBLE
 10
0.2500000000000036
 20
0.0
 30
0.0
 70
    32
  0
SEQEND
  5
1000075C
  8
VISIBLE
  0
POLYLINE
  5
F4799
  8
VISIBLE
 10
0.0
 20
0.0
 30
0.0
 66
     1
 70
     8
  0
VERTEX
  5
1000010A
  8
VISIBLE
 10
1.450000000000004
 20
0.0
 30
0.0
 70
    32
  0
VERTEX
  5
1000010B
  8
VISIBLE
 10
1.450561523437504
 20
0.1632080078125001
 30
0.0
 70
    32
  0
VERTEX
  5
1000010C
  8
VISIBLE
 10
1.452148437500004
 20
0.3212890625000002
 30
0.0
 70
    32
  0
VERTEX
  5
1000010D
  8
VISIBLE
 10
1.454614257812504
 20
0.4691162109375001
 30
0.0
 70
    32
  0
VERTEX
  5
1000010E
  8
VISIBLE
 10
1.457812500000004
 20
0.6015625000000001
 30
0.0
 70
    32
  0
VERTEX
  5
1000010F
  8
VISIBLE
 10
1.460603713989262
 20
0.6877193450927735
 30
0.0
 70
    32
  0
VERTEX
  5
10000110
  8
VISIBLE
 10
1.463662719726567
 20
0.7601776123046876
 30
0.0
 70
    32
  0
VERTEX
  5
10000111
  8
VISIBLE
 10
1.466927719116215
 20
0.816774368286133
 30
0.0
 70
    32
  0
VERTEX
  5
10000112
  8
VISIBLE
 10
1.470336914062504
 20
0.8553466796875002
 30
0.0
 70
    32
  0
VERTEX
  5
10000113
  8
VISIBLE
 10
1.472659301757816
 20
0.8699798583984374
 30
0.0
 70
    32
  0
VERTEX
  5
10000114
  8
VISIBLE
 10
1.473828506469731
 20
0.8737316131591797
 30
0.0
 70
    32
  0
VERTEX
  5
10000115
  8
VISIBLE
 10
1.47441411018372
 20
0.8746812343597412
 30
0.0
 70
    32
  0
VERTEX
  5
10000116
  8
VISIBLE
 10
1.475000000000004
 20
0.8750000000000001
 30
0.0
 70
    32
  0
VERTEX
  5
10000117
  8
VISIBLE
 10
1.475585889816288
 20
0.8746812343597412
 30
0.0
 70
    32
  0
VERTEX
  5
10000118
  8
VISIBLE
 10
1.476171493530278
 20
0.8737316131591797
 30
0.0
 70
    32
  0
VERTEX
  5
10000119
  8
VISIBLE
 10
1.477340698242192
 20
0.8699798583984374
 30
0.0
 70
    32
  0
VERTEX
  5
1000011A
  8
VISIBLE
 10
1.479663085937504
 20
0.8553466796875002
 30
0.0
 70
    32
  0
VERTEX
  5
1000011B
  8
VISIBLE
 10
1.483072280883793
 20
0.816774368286133
 30
0.0
 70
    32
  0
VERTEX
  5
1000011C
  8
VISIBLE
 10
1.486337280273441
 20
0.7601776123046876
 30
0.0
 70
    32
  0
VERTEX
  5
1000011D
  8
VISIBLE
 10
1.489396286010746
 20
0.6877193450927734
 30
0.0
 70
    32
  0
VERTEX
  5
1000011E
  8
VISIBLE
 10
1.492187500000004
 20
0.6015625
 30
0.0
 70
    32
  0
VERTEX
  5
1000011F
  8
VISIBLE
 10
1.495385742187504
 20
0.4691162109374999
 30
0.0
 70
    32
  0
VERTEX
  5
10000120
  8
VISIBLE
 10
1.497851562500004
 20
0.3212890625
 30
0.0
 70
    32
  0
VERTEX
  5
10000121
  8
VISIBLE
 10
1.499438476562504
 20
0.1632080078124999
 30
0.0
 70
    32
  0
VERTEX
  5
10000122
  8
VISIBLE
 10
1.500000000000004
 20
-0.0000000000000001
 30
0.0
 70
    32
  0
VERTEX
  5
10000123
  8
VISIBLE
 10
1.499438476562504
 20
-0.1632080078125002
 30
0.0
 70
    32
  0
VERTEX
  5
10000124
  8
VISIBLE
 10
1.497851562500004
 20
-0.3212890625000002
 30
0.0
 70
    32
  0
VERTEX
  5
10000125
  8
VISIBLE
 10
1.495385742187504
 20
-0.4691162109375002
 30
0.0
 70
    32
  0
VERTEX
  5
10000126
  8
VISIBLE
 10
1.492187500000004
 20
-0.6015625000000002
 30
0.0
 70
    32
  0
VERTEX
  5
10000127
  8
VISIBLE
 10
1.489396286010746
 20
-0.6877193450927737
 30
0.0
 70
    32
  0
VERTEX
  5
10000128
  8
VISIBLE
 10
1.486337280273441
 20
-0.7601776123046878
 30
0.0
 70
    32
  0
VERTEX
  5
10000129
  8
VISIBLE
 10
1.483072280883793
 20
-0.816774368286133
 30
0.0
 70
    32
  0
VERTEX
  5
1000012A
  8
VISIBLE
 10
1.479663085937504
 20
-0.8553466796875003
 30
0.0
 70
    32
  0
VERTEX
  5
1000012B
  8
VISIBLE
 10
1.477340698242192
 20
-0.8699798583984377
 30
0.0
 70
    32
  0
VERTEX
  5
1000012C
  8
VISIBLE
 10
1.476171493530278
 20
-0.8737316131591799
 30
0.0
 70
    32
  0
VERTEX
  5
1000012D
  8
VISIBLE
 10
1.475585889816288
 20
-0.8746812343597413
 30
0.0
 70
    32
  0
VERTEX
  5
1000012E
  8
VISIBLE
 10
1.475000000000004
 20
-0.8750000000000002
 30
0.0
 70
    32
  0
VERTEX
  5
1000012F
  8
VISIBLE
 10
1.47441411018372
 20
-0.8746812343597413
 30
0.0
 70
    32
  0
VERTEX
  5
10000130
  8
VISIBLE
 10
1.473828506469731
 20
-0.8737316131591799
 30
0.0
 70
    32
  0
VERTEX
  5
10000131
  8
VISIBLE
 10
1.472659301757816
 20
-0.8699798583984377
 30
0.0
 70
    32
  0
VERTEX
  5
10000132
  8
VISIBLE
 10
1.470336914062504
 20
-0.8553466796875002
 30
0.0
 70
    32
  0
VERTEX
  5
10000133
  8
VISIBLE
 10
1.466927719116215
 20
-0.816774368286133
 30
0.0
 70
    32
  0
VERTEX
  5
10000134
  8
VISIBLE
 10
1.463662719726567
 20
-0.7601776123046876
 30
0.0
 70
    32
  0
VERTEX
  5
10000135
  8
VISIBLE
 10
1.460603713989262
 20
-0.6877193450927735
 30
0.0
 70
    32
  0
VERTEX
  5
10000136
  8
VISIBLE
 10
1.457812500000004
 20
-0.6015625000000001
 30
0.0
 70
    32
  0
VERTEX
  5
10000137
  8
VISIBLE
 10
1.454614257812504
 20
-0.4691162109375001
 30
0.0
 70
    32
  0
VERTEX
  5
10000138
  8
VISIBLE
 10
1.452148437500004
 20
-0.3212890625000002
 30
0.0
 70
    32
  0
VERTEX
  5
10000139
  8
VISIBLE
 10
1.450561523437504
 20
-0.1632080078125001
 30
0.0
 70
    32
  0
VERTEX
  5
1000013A
  8
VISIBLE
 10
1.450000000000004
 20
0.0
 30
0.0
 70
    32
  0
SEQEND
  5
1000075D
  8
VISIBLE
  0
LINE
  5
F479A
  8
VISIBLE
 10
2.550000000000001
 20
1.0
 30
0.0
 11
2.400000000000001
 21
1.0
 31
0.0
  0
LINE
  5
F479B
  8
VISIBLE
 10
0.9500000000000005
 20
-1.0
 30
0.0
 11
0.8000000000000002
 21
-1.0
 31
0.0
  0
POLYLINE
  5
F479C
  8
VISIBLE
 10
0.0
 20
0.0
 30
0.0
 66
     1
 70
     8
  0
VERTEX
  5
10000141
  8
VISIBLE
 10
2.500000000000001
 20
0.0
 30
0.0
 70
    32
  0
VERTEX
  5
10000142
  8
VISIBLE
 10
2.499438476562501
 20
0.1632080078125001
 30
0.0
 70
    32
  0
VERTEX
  5
10000143
  8
VISIBLE
 10
2.497851562500001
 20
0.3212890625000002
 30
0.0
 70
    32
  0
VERTEX
  5
10000144
  8
VISIBLE
 10
2.495385742187501
 20
0.4691162109375001
 30
0.0
 70
    32
  0
VERTEX
  5
10000145
  8
VISIBLE
 10
2.492187500000001
 20
0.6015625000000001
 30
0.0
 70
    32
  0
VERTEX
  5
10000146
  8
VISIBLE
 10
2.489396286010743
 20
0.6877193450927735
 30
0.0
 70
    32
  0
VERTEX
  5
10000147
  8
VISIBLE
 10
2.486337280273438
 20
0.7601776123046876
 30
0.0
 70
    32
  0
VERTEX
  5
10000148
  8
VISIBLE
 10
2.48307228088379
 20
0.816774368286133
 30
0.0
 70
    32
  0
VERTEX
  5
10000149
  8
VISIBLE
 10
2.479663085937501
 20
0.8553466796875002
 30
0.0
 70
    32
  0
VERTEX
  5
1000014A
  8
VISIBLE
 10
2.477340698242188
 20
0.8699798583984375
 30
0.0
 70
    32
  0
VERTEX
  5
1000014B
  8
VISIBLE
 10
2.476171493530274
 20
0.8737316131591798
 30
0.0
 70
    32
  0
VERTEX
  5
1000014C
  8
VISIBLE
 10
2.475585889816285
 20
0.8746812343597413
 30
0.0
 70
    32
  0
VERTEX
  5
1000014D
  8
VISIBLE
 10
2.475000000000001
 20
0.8750000000000001
 30
0.0
 70
    32
  0
VERTEX
  5
1000014E
  8
VISIBLE
 10
2.474414110183717
 20
0.8746812343597413
 30
0.0
 70
    32
  0
VERTEX
  5
1000014F
  8
VISIBLE
 10
2.473828506469727
 20
0.8737316131591797
 30
0.0
 70
    32
  0
VERTEX
  5
10000150
  8
VISIBLE
 10
2.472659301757813
 20
0.8699798583984374
 30
0.0
 70
    32
  0
VERTEX
  5
10000151
  8
VISIBLE
 10
2.470336914062501
 20
0.8553466796875002
 30
0.0
 70
    32
  0
VERTEX
  5
10000152
  8
VISIBLE
 10
2.466927719116212
 20
0.816774368286133
 30
0.0
 70
    32
  0
VERTEX
  5
10000153
  8
VISIBLE
 10
2.463662719726563
 20
0.7601776123046876
 30
0.0
 70
    32
  0
VERTEX
  5
10000154
  8
VISIBLE
 10
2.460603713989259
 20
0.6877193450927735
 30
0.0
 70
    32
  0
VERTEX
  5
10000155
  8
VISIBLE
 10
2.457812500000001
 20
0.6015625
 30
0.0
 70
    32
  0
VERTEX
  5
10000156
  8
VISIBLE
 10
2.454614257812501
 20
0.4691162109374999
 30
0.0
 70
    32
  0
VERTEX
  5
10000157
  8
VISIBLE
 10
2.452148437500001
 20
0.3212890625
 30
0.0
 70
    32
  0
VERTEX
  5
10000158
  8
VISIBLE
 10
2.450561523437501
 20
0.1632080078124999
 30
0.0
 70
    32
  0
VERTEX
  5
10000159
  8
VISIBLE
 10
2.450000000000002
 20
-0.0000000000000001
 30
0.0
 70
    32
  0
VERTEX
  5
1000015A
  8
VISIBLE
 10
2.450561523437501
 20
-0.1632080078125002
 30
0.0
 70
    32
  0
VERTEX
  5
1000015B
  8
VISIBLE
 10
2.452148437500001
 20
-0.3212890625000002
 30
0.0
 70
    32
  0
VERTEX
  5
1000015C
  8
VISIBLE
 10
2.454614257812501
 20
-0.4691162109375002
 30
0.0
 70
    32
  0
VERTEX
  5
1000015D
  8
VISIBLE
 10
2.457812500000001
 20
-0.6015625000000002
 30
0.0
 70
    32
  0
VERTEX
  5
1000015E
  8
VISIBLE
 10
2.460603713989259
 20
-0.6877193450927737
 30
0.0
 70
    32
  0
VERTEX
  5
1000015F
  8
VISIBLE
 10
2.463662719726563
 20
-0.7601776123046878
 30
0.0
 70
    32
  0
VERTEX
  5
10000160
  8
VISIBLE
 10
2.466927719116212
 20
-0.816774368286133
 30
0.0
 70
    32
  0
VERTEX
  5
10000161
  8
VISIBLE
 10
2.470336914062501
 20
-0.8553466796875003
 30
0.0
 70
    32
  0
VERTEX
  5
10000162
  8
VISIBLE
 10
2.472659301757813
 20
-0.8699798583984377
 30
0.0
 70
    32
  0
VERTEX
  5
10000163
  8
VISIBLE
 10
2.473828506469727
 20
-0.8737316131591799
 30
0.0
 70
    32
  0
VERTEX
  5
10000164
  8
VISIBLE
 10
2.474414110183717
 20
-0.8746812343597413
 30
0.0
 70
    32
  0
VERTEX
  5
10000165
  8
VISIBLE
 10
2.475000000000001
 20
-0.8750000000000001
 30
0.0
 70
    32
  0
VERTEX
  5
10000166
  8
VISIBLE
 10
2.475585889816285
 20
-0.8746812343597413
 30
0.0
 70
    32
  0
VERTEX
  5
10000167
  8
VISIBLE
 10
2.476171493530274
 20
-0.8737316131591798
 30
0.0
 70
    32
  0
VERTEX
  5
10000168
  8
VISIBLE
 10
2.477340698242188
 20
-0.8699798583984375
 30
0.0
 70
    32
  0
VERTEX
  5
10000169
  8
VISIBLE
 10
2.479663085937501
 20
-0.8553466796875002
 30
0.0
 70
    32
  0
VERTEX
  5
1000016A
  8
VISIBLE
 10
2.48307228088379
 20
-0.816774368286133
 30
0.0
 70
    32
  0
VERTEX
  5
1000016B
  8
VISIBLE
 10
2.486337280273438
 20
-0.7601776123046876
 30
0.0
 70
    32
  0
VERTEX
  5
1000016C
  8
VISIBLE
 10
2.489396286010743
 20
-0.6877193450927735
 30
0.0
 70
    32
  0
VERTEX
  5
1000016D
  8
VISIBLE
 10
2.492187500000001
 20
-0.6015625000000001
 30
0.0
 70
    32
  0
VERTEX
  5
1000016E
  8
VISIBLE
 10
2.495385742187501
 20
-0.4691162109375001
 30
0.0
 70
    32
  0
VERTEX
  5
1000016F
  8
VISIBLE
 10
2.497851562500001
 20
-0.3212890625000002
 30
0.0
 70
    32
  0
VERTEX
  5
10000170
  8
VISIBLE
 10
2.499438476562501
 20
-0.1632080078125001
 30
0.0
 70
    32
  0
VERTEX
  5
10000171
  8
VISIBLE
 10
2.500000000000001
 20
0.0
 30
0.0
 70
    32
  0
SEQEND
  5
1000075E
  8
VISIBLE
  0
LINE
  5
F479D
  8
VISIBLE
 10
-0.4500000000000002
 20
-0.0749999999999999
 30
0.0
 11
-0.3500000000000001
 21
-0.0749999999999998
 31
0.0
  0
POLYLINE
  5
F479E
  8
VISIBLE
 10
0.0
 20
0.0
 30
0.0
 66
     1
 70
     8
  0
VERTEX
  5
10000176
  8
VISIBLE
 10
1.850000000000004
 20
0.0
 30
0.0
 70
    32
  0
VERTEX
  5
10000177
  8
VISIBLE
 10
1.850561523437504
 20
0.1632080078125001
 30
0.0
 70
    32
  0
VERTEX
  5
10000178
  8
VISIBLE
 10
1.852148437500004
 20
0.3212890625000002
 30
0.0
 70
    32
  0
VERTEX
  5
10000179
  8
VISIBLE
 10
1.854614257812504
 20
0.4691162109375001
 30
0.0
 70
    32
  0
VERTEX
  5
1000017A
  8
VISIBLE
 10
1.857812500000004
 20
0.6015625000000001
 30
0.0
 70
    32
  0
VERTEX
  5
1000017B
  8
VISIBLE
 10
1.860603713989262
 20
0.6877193450927735
 30
0.0
 70
    32
  0
VERTEX
  5
1000017C
  8
VISIBLE
 10
1.863662719726567
 20
0.7601776123046876
 30
0.0
 70
    32
  0
VERTEX
  5
1000017D
  8
VISIBLE
 10
1.866927719116215
 20
0.816774368286133
 30
0.0
 70
    32
  0
VERTEX
  5
1000017E
  8
VISIBLE
 10
1.870336914062504
 20
0.8553466796875002
 30
0.0
 70
    32
  0
VERTEX
  5
1000017F
  8
VISIBLE
 10
1.872659301757817
 20
0.8699798583984374
 30
0.0
 70
    32
  0
VERTEX
  5
10000180
  8
VISIBLE
 10
1.873828506469731
 20
0.8737316131591797
 30
0.0
 70
    32
  0
VERTEX
  5
10000181
  8
VISIBLE
 10
1.87441411018372
 20
0.8746812343597412
 30
0.0
 70
    32
  0
VERTEX
  5
10000182
  8
VISIBLE
 10
1.875000000000004
 20
0.8750000000000001
 30
0.0
 70
    32
  0
VERTEX
  5
10000183
  8
VISIBLE
 10
1.875585889816288
 20
0.8746812343597412
 30
0.0
 70
    32
  0
VERTEX
  5
10000184
  8
VISIBLE
 10
1.876171493530278
 20
0.8737316131591797
 30
0.0
 70
    32
  0
VERTEX
  5
10000185
  8
VISIBLE
 10
1.877340698242192
 20
0.8699798583984374
 30
0.0
 70
    32
  0
VERTEX
  5
10000186
  8
VISIBLE
 10
1.879663085937504
 20
0.8553466796875002
 30
0.0
 70
    32
  0
VERTEX
  5
10000187
  8
VISIBLE
 10
1.883072280883793
 20
0.816774368286133
 30
0.0
 70
    32
  0
VERTEX
  5
10000188
  8
VISIBLE
 10
1.886337280273442
 20
0.7601776123046876
 30
0.0
 70
    32
  0
VERTEX
  5
10000189
  8
VISIBLE
 10
1.889396286010746
 20
0.6877193450927734
 30
0.0
 70
    32
  0
VERTEX
  5
1000018A
  8
VISIBLE
 10
1.892187500000004
 20
0.6015625
 30
0.0
 70
    32
  0
VERTEX
  5
1000018B
  8
VISIBLE
 10
1.895385742187504
 20
0.4691162109374999
 30
0.0
 70
    32
  0
VERTEX
  5
1000018C
  8
VISIBLE
 10
1.897851562500004
 20
0.3212890625
 30
0.0
 70
    32
  0
VERTEX
  5
1000018D
  8
VISIBLE
 10
1.899438476562504
 20
0.1632080078124999
 30
0.0
 70
    32
  0
VERTEX
  5
1000018E
  8
VISIBLE
 10
1.900000000000004
 20
-0.0000000000000001
 30
0.0
 70
    32
  0
VERTEX
  5
1000018F
  8
VISIBLE
 10
1.899438476562504
 20
-0.1632080078125002
 30
0.0
 70
    32
  0
VERTEX
  5
10000190
  8
VISIBLE
 10
1.897851562500004
 20
-0.3212890625000002
 30
0.0
 70
    32
  0
VERTEX
  5
10000191
  8
VISIBLE
 10
1.895385742187504
 20
-0.4691162109375002
 30
0.0
 70
    32
  0
VERTEX
  5
10000192
  8
VISIBLE
 10
1.892187500000004
 20
-0.6015625000000002
 30
0.0
 70
    32
  0
VERTEX
  5
10000193
  8
VISIBLE
 10
1.889396286010746
 20
-0.6877193450927737
 30
0.0
 70
    32
  0
VERTEX
  5
10000194
  8
VISIBLE
 10
1.886337280273442
 20
-0.7601776123046878
 30
0.0
 70
    32
  0
VERTEX
  5
10000195
  8
VISIBLE
 10
1.883072280883793
 20
-0.816774368286133
 30
0.0
 70
    32
  0
VERTEX
  5
10000196
  8
VISIBLE
 10
1.879663085937504
 20
-0.8553466796875003
 30
0.0
 70
    32
  0
VERTEX
  5
10000197
  8
VISIBLE
 10
1.877340698242192
 20
-0.8699798583984377
 30
0.0
 70
    32
  0
VERTEX
  5
10000198
  8
VISIBLE
 10
1.876171493530278
 20
-0.8737316131591799
 30
0.0
 70
    32
  0
VERTEX
  5
10000199
  8
VISIBLE
 10
1.875585889816288
 20
-0.8746812343597413
 30
0.0
 70
    32
  0
VERTEX
  5
1000019A
  8
VISIBLE
 10
1.875000000000004
 20
-0.8750000000000002
 30
0.0
 70
    32
  0
VERTEX
  5
1000019B
  8
VISIBLE
 10
1.87441411018372
 20
-0.8746812343597413
 30
0.0
 70
    32
  0
VERTEX
  5
1000019C
  8
VISIBLE
 10
1.873828506469731
 20
-0.8737316131591799
 30
0.0
 70
    32
  0
VERTEX
  5
1000019D
  8
VISIBLE
 10
1.872659301757817
 20
-0.8699798583984377
 30
0.0
 70
    32
  0
VERTEX
  5
1000019E
  8
VISIBLE
 10
1.870336914062504
 20
-0.8553466796875002
 30
0.0
 70
    32
  0
VERTEX
  5
1000019F
  8
VISIBLE
 10
1.866927719116215
 20
-0.816774368286133
 30
0.0
 70
    32
  0
VERTEX
  5
100001A0
  8
VISIBLE
 10
1.863662719726567
 20
-0.7601776123046876
 30
0.0
 70
    32
  0
VERTEX
  5
100001A1
  8
VISIBLE
 10
1.860603713989262
 20
-0.6877193450927735
 30
0.0
 70
    32
  0
VERTEX
  5
100001A2
  8
VISIBLE
 10
1.857812500000004
 20
-0.6015625000000001
 30
0.0
 70
    32
  0
VERTEX
  5
100001A3
  8
VISIBLE
 10
1.854614257812504
 20
-0.4691162109375001
 30
0.0
 70
    32
  0
VERTEX
  5
100001A4
  8
VISIBLE
 10
1.852148437500004
 20
-0.3212890625000002
 30
0.0
 70
    32
  0
VERTEX
  5
100001A5
  8
VISIBLE
 10
1.850561523437504
 20
-0.1632080078125001
 30
0.0
 70
    32
  0
VERTEX
  5
100001A6
  8
VISIBLE
 10
1.850000000000004
 20
0.0
 30
0.0
 70
    32
  0
SEQEND
  5
1000075F
  8
VISIBLE
  0
POLYLINE
  5
F479F
  8
VISIBLE
 10
0.0
 20
0.0
 30
0.0
 66
     1
 70
     8
  0
VERTEX
  5
100001A9
  8
VISIBLE
 10
0.8999999999999969
 20
-0.0000000000000001
 30
0.0
 70
    32
  0
VERTEX
  5
100001AA
  8
VISIBLE
 10
0.8994384765624969
 20
0.1632080078125
 30
0.0
 70
    32
  0
VERTEX
  5
100001AB
  8
VISIBLE
 10
0.8978515624999968
 20
0.3212890625000001
 30
0.0
 70
    32
  0
VERTEX
  5
100001AC
  8
VISIBLE
 10
0.8953857421874969
 20
0.4691162109375001
 30
0.0
 70
    32
  0
VERTEX
  5
100001AD
  8
VISIBLE
 10
0.8921874999999966
 20
0.6015625000000001
 30
0.0
 70
    32
  0
VERTEX
  5
100001AE
  8
VISIBLE
 10
0.8893962860107387
 20
0.6877193450927735
 30
0.0
 70
    32
  0
VERTEX
  5
100001AF
  8
VISIBLE
 10
0.886337280273434
 20
0.7601776123046876
 30
0.0
 70
    32
  0
VERTEX
  5
100001B0
  8
VISIBLE
 10
0.8830722808837855
 20
0.816774368286133
 30
0.0
 70
    32
  0
VERTEX
  5
100001B1
  8
VISIBLE
 10
0.8796630859374964
 20
0.8553466796875002
 30
0.0
 70
    32
  0
VERTEX
  5
100001B2
  8
VISIBLE
 10
0.877340698242184
 20
0.8699798583984374
 30
0.0
 70
    32
  0
VERTEX
  5
100001B3
  8
VISIBLE
 10
0.8761714935302699
 20
0.8737316131591797
 30
0.0
 70
    32
  0
VERTEX
  5
100001B4
  8
VISIBLE
 10
0.8755858898162806
 20
0.8746812343597412
 30
0.0
 70
    32
  0
VERTEX
  5
100001B5
  8
VISIBLE
 10
0.8749999999999966
 20
0.8750000000000001
 30
0.0
 70
    32
  0
VERTEX
  5
100001B6
  8
VISIBLE
 10
0.8744141101837122
 20
0.8746812343597412
 30
0.0
 70
    32
  0
VERTEX
  5
100001B7
  8
VISIBLE
 10
0.8738285064697231
 20
0.8737316131591797
 30
0.0
 70
    32
  0
VERTEX
  5
100001B8
  8
VISIBLE
 10
0.8726593017578089
 20
0.8699798583984374
 30
0.0
 70
    32
  0
VERTEX
  5
100001B9
  8
VISIBLE
 10
0.8703369140624964
 20
0.8553466796875002
 30
0.0
 70
    32
  0
VERTEX
  5
100001BA
  8
VISIBLE
 10
0.8669277191162073
 20
0.816774368286133
 30
0.0
 70
    32
  0
VERTEX
  5
100001BB
  8
VISIBLE
 10
0.8636627197265592
 20
0.7601776123046876
 30
0.0
 70
    32
  0
VERTEX
  5
100001BC
  8
VISIBLE
 10
0.8606037139892546
 20
0.6877193450927734
 30
0.0
 70
    32
  0
VERTEX
  5
100001BD
  8
VISIBLE
 10
0.8578124999999968
 20
0.6015625
 30
0.0
 70
    32
  0
VERTEX
  5
100001BE
  8
VISIBLE
 10
0.854614257812497
 20
0.4691162109374999
 30
0.0
 70
    32
  0
VERTEX
  5
100001BF
  8
VISIBLE
 10
0.852148437499997
 20
0.3212890624999999
 30
0.0
 70
    32
  0
VERTEX
  5
100001C0
  8
VISIBLE
 10
0.850561523437497
 20
0.1632080078124999
 30
0.0
 70
    32
  0
VERTEX
  5
100001C1
  8
VISIBLE
 10
0.8499999999999972
 20
-0.0000000000000001
 30
0.0
 70
    32
  0
VERTEX
  5
100001C2
  8
VISIBLE
 10
0.850561523437497
 20
-0.1632080078125002
 30
0.0
 70
    32
  0
VERTEX
  5
100001C3
  8
VISIBLE
 10
0.852148437499997
 20
-0.3212890625000003
 30
0.0
 70
    32
  0
VERTEX
  5
100001C4
  8
VISIBLE
 10
0.854614257812497
 20
-0.4691162109375002
 30
0.0
 70
    32
  0
VERTEX
  5
100001C5
  8
VISIBLE
 10
0.8578124999999968
 20
-0.6015625000000002
 30
0.0
 70
    32
  0
VERTEX
  5
100001C6
  8
VISIBLE
 10
0.8606037139892546
 20
-0.6877193450927737
 30
0.0
 70
    32
  0
VERTEX
  5
100001C7
  8
VISIBLE
 10
0.8636627197265592
 20
-0.7601776123046878
 30
0.0
 70
    32
  0
VERTEX
  5
100001C8
  8
VISIBLE
 10
0.8669277191162073
 20
-0.816774368286133
 30
0.0
 70
    32
  0
VERTEX
  5
100001C9
  8
VISIBLE
 10
0.8703369140624964
 20
-0.8553466796875003
 30
0.0
 70
    32
  0
VERTEX
  5
100001CA
  8
VISIBLE
 10
0.8726593017578089
 20
-0.8699798583984377
 30
0.0
 70
    32
  0
VERTEX
  5
100001CB
  8
VISIBLE
 10
0.8738285064697231
 20
-0.8737316131591799
 30
0.0
 70
    32
  0
VERTEX
  5
100001CC
  8
VISIBLE
 10
0.8744141101837122
 20
-0.8746812343597413
 30
0.0
 70
    32
  0
VERTEX
  5
100001CD
  8
VISIBLE
 10
0.8749999999999966
 20
-0.8750000000000002
 30
0.0
 70
    32
  0
VERTEX
  5
100001CE
  8
VISIBLE
 10
0.8755858898162806
 20
-0.8746812343597413
 30
0.0
 70
    32
  0
VERTEX
  5
100001CF
  8
VISIBLE
 10
0.8761714935302699
 20
-0.8737316131591799
 30
0.0
 70
    32
  0
VERTEX
  5
100001D0
  8
VISIBLE
 10
0.877340698242184
 20
-0.8699798583984377
 30
0.0
 70
    32
  0
VERTEX
  5
100001D1
  8
VISIBLE
 10
0.8796630859374964
 20
-0.8553466796875003
 30
0.0
 70
    32
  0
VERTEX
  5
100001D2
  8
VISIBLE
 10
0.8830722808837855
 20
-0.816774368286133
 30
0.0
 70
    32
  0
VERTEX
  5
100001D3
  8
VISIBLE
 10
0.886337280273434
 20
-0.7601776123046876
 30
0.0
 70
    32
  0
VERTEX
  5
100001D4
  8
VISIBLE
 10
0.8893962860107387
 20
-0.6877193450927735
 30
0.0
 70
    32
  0
VERTEX
  5
100001D5
  8
VISIBLE
 10
0.8921874999999966
 20
-0.6015625000000001
 30
0.0
 70
    32
  0
VERTEX
  5
100001D6
  8
VISIBLE
 10
0.8953857421874969
 20
-0.4691162109375001
 30
0.0
 70
    32
  0
VERTEX
  5
100001D7
  8
VISIBLE
 10
0.8978515624999968
 20
-0.3212890625000002
 30
0.0
 70
    32
  0
VERTEX
  5
100001D8
  8
VISIBLE
 10
0.8994384765624969
 20
-0.1632080078125001
 30
0.0
 70
    32
  0
VERTEX
  5
100001D9
  8
VISIBLE
 10
0.8999999999999969
 20
0.0
 30
0.0
 70
    32
  0
SEQEND
  5
10000760
  8
VISIBLE
  0
LINE
  5
F47A0
  8
VISIBLE
 10
0.1500000000000003
 20
-1.0
 30
0.0
 11
-0.7500000000000001
 21
-1.0
 31
0.0
  0
LINE
  5
F47A1
  8
VISIBLE
 10
1.950000000000001
 20
1.0
 30
0.0
 11
1.8
 21
1.0
 31
0.0
  0
LINE
  5
F47A2
  8
VISIBLE
 10
-0.5750000000000001
 20
0.0750000000000001
 30
0.0
 11
-0.5750000000000002
 21
0.1625
 31
0.0
  0
LINE
  5
F47A3
  8
VISIBLE
 10
-0.4500000000000002
 20
-0.1625
 30
0.0
 11
-0.4500000000000002
 21
-0.0749999999999999
 31
0.0
  0
LINE
  5
F47A4
  8
VISIBLE
 10
0.5499999999999988
 20
1.0
 30
0.0
 11
0.4000000000000017
 21
1.0
 31
0.0
  0
LINE
  5
F47A5
  8
VISIBLE
 10
2.350000000000001
 20
1.0
 30
0.0
 11
2.200000000000001
 21
1.0
 31
0.0
  0
POLYLINE
  5
F47A6
  8
VISIBLE
 10
0.0
 20
0.0
 30
0.0
 66
     1
 70
     8
  0
VERTEX
  5
100001E8
  8
VISIBLE
 10
1.750000000000001
 20
-1.0
 30
0.0
 70
    32
  0
VERTEX
  5
100001E9
  8
VISIBLE
 10
1.753125000000001
 20
-0.8367919921875
 30
0.0
 70
    32
  0
VERTEX
  5
100001EA
  8
VISIBLE
 10
1.756250000000001
 20
-0.6787109374999997
 30
0.0
 70
    32
  0
VERTEX
  5
100001EB
  8
VISIBLE
 10
1.759375000000001
 20
-0.5308837890624999
 30
0.0
 70
    32
  0
VERTEX
  5
100001EC
  8
VISIBLE
 10
1.762500000000001
 20
-0.3984374999999998
 30
0.0
 70
    32
  0
VERTEX
  5
100001ED
  8
VISIBLE
 10
1.76484375
 20
-0.3122806549072264
 30
0.0
 70
    32
  0
VERTEX
  5
100001EE
  8
VISIBLE
 10
1.767187500000001
 20
-0.2398223876953123
 30
0.0
 70
    32
  0
VERTEX
  5
100001EF
  8
VISIBLE
 10
1.769531250000001
 20
-0.1832256317138671
 30
0.0
 70
    32
  0
VERTEX
  5
100001F0
  8
VISIBLE
 10
1.771875000000001
 20
-0.1446533203124999
 30
0.0
 70
    32
  0
VERTEX
  5
100001F1
  8
VISIBLE
 10
1.774218750000001
 20
-0.1262683868408202
 30
0.0
 70
    32
  0
VERTEX
  5
100001F2
  8
VISIBLE
 10
1.774609375
 20
-0.1253187656402587
 30
0.0
 70
    32
  0
VERTEX
  5
100001F3
  8
VISIBLE
 10
1.774804687500001
 20
-0.1250799000263213
 30
0.0
 70
    32
  0
VERTEX
  5
100001F4
  8
VISIBLE
 10
1.775000000000001
 20
-0.1249999999999999
 30
0.0
 70
    32
  0
VERTEX
  5
100001F5
  8
VISIBLE
 10
1.775195312500001
 20
-0.1250799000263213
 30
0.0
 70
    32
  0
VERTEX
  5
100001F6
  8
VISIBLE
 10
1.775390625000001
 20
-0.1253187656402587
 30
0.0
 70
    32
  0
VERTEX
  5
100001F7
  8
VISIBLE
 10
1.775781250000001
 20
-0.1262683868408202
 30
0.0
 70
    32
  0
VERTEX
  5
100001F8
  8
VISIBLE
 10
1.778125000000001
 20
-0.1446533203124999
 30
0.0
 70
    32
  0
VERTEX
  5
100001F9
  8
VISIBLE
 10
1.780468750000001
 20
-0.183225631713867
 30
0.0
 70
    32
  0
VERTEX
  5
100001FA
  8
VISIBLE
 10
1.782812500000001
 20
-0.2398223876953123
 30
0.0
 70
    32
  0
VERTEX
  5
100001FB
  8
VISIBLE
 10
1.78515625
 20
-0.3122806549072264
 30
0.0
 70
    32
  0
VERTEX
  5
100001FC
  8
VISIBLE
 10
1.787500000000001
 20
-0.3984374999999998
 30
0.0
 70
    32
  0
VERTEX
  5
100001FD
  8
VISIBLE
 10
1.790625000000001
 20
-0.5308837890624999
 30
0.0
 70
    32
  0
VERTEX
  5
100001FE
  8
VISIBLE
 10
1.79375
 20
-0.6787109374999998
 30
0.0
 70
    32
  0
VERTEX
  5
100001FF
  8
VISIBLE
 10
1.796875000000001
 20
-0.8367919921875
 30
0.0
 70
    32
  0
VERTEX
  5
10000200
  8
VISIBLE
 10
1.8
 20
-1.0
 30
0.0
 70
    32
  0
SEQEND
  5
10000761
  8
VISIBLE
  0
POLYLINE
  5
F47A7
  8
VISIBLE
 10
0.0
 20
0.0
 30
0.0
 66
     1
 70
     8
  0
VERTEX
  5
10000203
  8
VISIBLE
 10
0.8000000000000002
 20
-1.0
 30
0.0
 70
    32
  0
VERTEX
  5
10000204
  8
VISIBLE
 10
0.7968750000000003
 20
-0.8367919921875
 30
0.0
 70
    32
  0
VERTEX
  5
10000205
  8
VISIBLE
 10
0.7937500000000005
 20
-0.6787109374999998
 30
0.0
 70
    32
  0
VERTEX
  5
10000206
  8
VISIBLE
 10
0.7906250000000008
 20
-0.5308837890624999
 30
0.0
 70
    32
  0
VERTEX
  5
10000207
  8
VISIBLE
 10
0.7875000000000011
 20
-0.3984374999999998
 30
0.0
 70
    32
  0
VERTEX
  5
10000208
  8
VISIBLE
 10
0.7851562500000013
 20
-0.3122806549072264
 30
0.0
 70
    32
  0
VERTEX
  5
10000209
  8
VISIBLE
 10
0.7828125000000016
 20
-0.2398223876953124
 30
0.0
 70
    32
  0
VERTEX
  5
1000020A
  8
VISIBLE
 10
0.7804687500000017
 20
-0.1832256317138671
 30
0.0
 70
    32
  0
VERTEX
  5
1000020B
  8
VISIBLE
 10
0.778125000000002
 20
-0.1446533203124999
 30
0.0
 70
    32
  0
VERTEX
  5
1000020C
  8
VISIBLE
 10
0.7757812500000021
 20
-0.1262683868408202
 30
0.0
 70
    32
  0
VERTEX
  5
1000020D
  8
VISIBLE
 10
0.7753906250000019
 20
-0.1253187656402587
 30
0.0
 70
    32
  0
VERTEX
  5
1000020E
  8
VISIBLE
 10
0.7751953125000021
 20
-0.1250799000263213
 30
0.0
 70
    32
  0
VERTEX
  5
1000020F
  8
VISIBLE
 10
0.775000000000002
 20
-0.1249999999999999
 30
0.0
 70
    32
  0
VERTEX
  5
10000210
  8
VISIBLE
 10
0.7748046875000019
 20
-0.1250799000263213
 30
0.0
 70
    32
  0
VERTEX
  5
10000211
  8
VISIBLE
 10
0.7746093750000019
 20
-0.1253187656402587
 30
0.0
 70
    32
  0
VERTEX
  5
10000212
  8
VISIBLE
 10
0.7742187500000017
 20
-0.1262683868408202
 30
0.0
 70
    32
  0
VERTEX
  5
10000213
  8
VISIBLE
 10
0.771875000000002
 20
-0.1446533203124999
 30
0.0
 70
    32
  0
VERTEX
  5
10000214
  8
VISIBLE
 10
0.7695312500000018
 20
-0.1832256317138671
 30
0.0
 70
    32
  0
VERTEX
  5
10000215
  8
VISIBLE
 10
0.7671875000000015
 20
-0.2398223876953124
 30
0.0
 70
    32
  0
VERTEX
  5
10000216
  8
VISIBLE
 10
0.7648437500000014
 20
-0.3122806549072264
 30
0.0
 70
    32
  0
VERTEX
  5
10000217
  8
VISIBLE
 10
0.7625000000000012
 20
-0.3984374999999998
 30
0.0
 70
    32
  0
VERTEX
  5
10000218
  8
VISIBLE
 10
0.7593750000000008
 20
-0.5308837890625
 30
0.0
 70
    32
  0
VERTEX
  5
10000219
  8
VISIBLE
 10
0.7562500000000008
 20
-0.6787109374999998
 30
0.0
 70
    32
  0
VERTEX
  5
1000021A
  8
VISIBLE
 10
0.7531250000000005
 20
-0.8367919921875
 30
0.0
 70
    32
  0
VERTEX
  5
1000021B
  8
VISIBLE
 10
0.7500000000000004
 20
-1.0
 30
0.0
 70
    32
  0
SEQEND
  5
10000762
  8
VISIBLE
  0
POLYLINE
  5
F47A8
  8
VISIBLE
 10
0.0
 20
0.0
 30
0.0
 66
     1
 70
     8
  0
VERTEX
  5
1000021E
  8
VISIBLE
 10
2.0
 20
-1.0
 30
0.0
 70
    32
  0
VERTEX
  5
1000021F
  8
VISIBLE
 10
1.996875000000001
 20
-0.8367919921875
 30
0.0
 70
    32
  0
VERTEX
  5
10000220
  8
VISIBLE
 10
1.993750000000001
 20
-0.6787109374999997
 30
0.0
 70
    32
  0
VERTEX
  5
10000221
  8
VISIBLE
 10
1.990625000000001
 20
-0.5308837890624999
 30
0.0
 70
    32
  0
VERTEX
  5
10000222
  8
VISIBLE
 10
1.9875
 20
-0.3984374999999998
 30
0.0
 70
    32
  0
VERTEX
  5
10000223
  8
VISIBLE
 10
1.985156250000001
 20
-0.3122806549072264
 30
0.0
 70
    32
  0
VERTEX
  5
10000224
  8
VISIBLE
 10
1.982812500000001
 20
-0.2398223876953123
 30
0.0
 70
    32
  0
VERTEX
  5
10000225
  8
VISIBLE
 10
1.980468750000001
 20
-0.1832256317138671
 30
0.0
 70
    32
  0
VERTEX
  5
10000226
  8
VISIBLE
 10
1.978125000000001
 20
-0.1446533203124999
 30
0.0
 70
    32
  0
VERTEX
  5
10000227
  8
VISIBLE
 10
1.97578125
 20
-0.1262683868408202
 30
0.0
 70
    32
  0
VERTEX
  5
10000228
  8
VISIBLE
 10
1.975390625000001
 20
-0.1253187656402587
 30
0.0
 70
    32
  0
VERTEX
  5
10000229
  8
VISIBLE
 10
1.975195312500001
 20
-0.1250799000263213
 30
0.0
 70
    32
  0
VERTEX
  5
1000022A
  8
VISIBLE
 10
1.975000000000001
 20
-0.1249999999999999
 30
0.0
 70
    32
  0
VERTEX
  5
1000022B
  8
VISIBLE
 10
1.9748046875
 20
-0.1250799000263213
 30
0.0
 70
    32
  0
VERTEX
  5
1000022C
  8
VISIBLE
 10
1.974609375000001
 20
-0.1253187656402587
 30
0.0
 70
    32
  0
VERTEX
  5
1000022D
  8
VISIBLE
 10
1.974218750000001
 20
-0.1262683868408202
 30
0.0
 70
    32
  0
VERTEX
  5
1000022E
  8
VISIBLE
 10
1.971875000000001
 20
-0.1446533203124999
 30
0.0
 70
    32
  0
VERTEX
  5
1000022F
  8
VISIBLE
 10
1.96953125
 20
-0.183225631713867
 30
0.0
 70
    32
  0
VERTEX
  5
10000230
  8
VISIBLE
 10
1.967187500000001
 20
-0.2398223876953123
 30
0.0
 70
    32
  0
VERTEX
  5
10000231
  8
VISIBLE
 10
1.96484375
 20
-0.3122806549072264
 30
0.0
 70
    32
  0
VERTEX
  5
10000232
  8
VISIBLE
 10
1.962500000000001
 20
-0.3984374999999998
 30
0.0
 70
    32
  0
VERTEX
  5
10000233
  8
VISIBLE
 10
1.959375000000001
 20
-0.5308837890624999
 30
0.0
 70
    32
  0
VERTEX
  5
10000234
  8
VISIBLE
 10
1.956250000000001
 20
-0.6787109374999998
 30
0.0
 70
    32
  0
VERTEX
  5
10000235
  8
VISIBLE
 10
1.953125000000001
 20
-0.8367919921875
 30
0.0
 70
    32
  0
VERTEX
  5
10000236
  8
VISIBLE
 10
1.950000000000001
 20
-1.0
 30
0.0
 70
    32
  0
SEQEND
  5
10000763
  8
VISIBLE
  0
LINE
  5
F47A9
  8
VISIBLE
 10
0.3500000000000004
 20
1.0
 30
0.0
 11
0.2
 21
1.0
 31
0.0
  0
POLYLINE
  5
F47AA
  8
VISIBLE
 10
0.0
 20
0.0
 30
0.0
 66
     1
 70
     8
  0
VERTEX
  5
1000023B
  8
VISIBLE
 10
0.9500000000000005
 20
-1.0
 30
0.0
 70
    32
  0
VERTEX
  5
1000023C
  8
VISIBLE
 10
0.9531250000000006
 20
-0.8367919921875
 30
0.0
 70
    32
  0
VERTEX
  5
1000023D
  8
VISIBLE
 10
0.9562500000000003
 20
-0.6787109374999998
 30
0.0
 70
    32
  0
VERTEX
  5
1000023E
  8
VISIBLE
 10
0.959375
 20
-0.5308837890624999
 30
0.0
 70
    32
  0
VERTEX
  5
1000023F
  8
VISIBLE
 10
0.9624999999999997
 20
-0.3984374999999998
 30
0.0
 70
    32
  0
VERTEX
  5
10000240
  8
VISIBLE
 10
0.9648437499999993
 20
-0.3122806549072264
 30
0.0
 70
    32
  0
VERTEX
  5
10000241
  8
VISIBLE
 10
0.9671874999999991
 20
-0.2398223876953124
 30
0.0
 70
    32
  0
VERTEX
  5
10000242
  8
VISIBLE
 10
0.969531249999999
 20
-0.1832256317138671
 30
0.0
 70
    32
  0
VERTEX
  5
10000243
  8
VISIBLE
 10
0.9718749999999988
 20
-0.1446533203124999
 30
0.0
 70
    32
  0
VERTEX
  5
10000244
  8
VISIBLE
 10
0.9742187499999987
 20
-0.1262683868408202
 30
0.0
 70
    32
  0
VERTEX
  5
10000245
  8
VISIBLE
 10
0.9746093749999988
 20
-0.1253187656402587
 30
0.0
 70
    32
  0
VERTEX
  5
10000246
  8
VISIBLE
 10
0.9748046874999986
 20
-0.1250799000263213
 30
0.0
 70
    32
  0
VERTEX
  5
10000247
  8
VISIBLE
 10
0.9749999999999988
 20
-0.1249999999999999
 30
0.0
 70
    32
  0
VERTEX
  5
10000248
  8
VISIBLE
 10
0.9751953124999989
 20
-0.1250799000263213
 30
0.0
 70
    32
  0
VERTEX
  5
10000249
  8
VISIBLE
 10
0.9753906249999988
 20
-0.1253187656402587
 30
0.0
 70
    32
  0
VERTEX
  5
1000024A
  8
VISIBLE
 10
0.9757812499999988
 20
-0.1262683868408202
 30
0.0
 70
    32
  0
VERTEX
  5
1000024B
  8
VISIBLE
 10
0.9781249999999987
 20
-0.1446533203124999
 30
0.0
 70
    32
  0
VERTEX
  5
1000024C
  8
VISIBLE
 10
0.9804687499999991
 20
-0.1832256317138671
 30
0.0
 70
    32
  0
VERTEX
  5
1000024D
  8
VISIBLE
 10
0.9828124999999991
 20
-0.2398223876953124
 30
0.0
 70
    32
  0
VERTEX
  5
1000024E
  8
VISIBLE
 10
0.9851562499999992
 20
-0.3122806549072264
 30
0.0
 70
    32
  0
VERTEX
  5
1000024F
  8
VISIBLE
 10
0.9874999999999995
 20
-0.3984374999999998
 30
0.0
 70
    32
  0
VERTEX
  5
10000250
  8
VISIBLE
 10
0.9906249999999999
 20
-0.5308837890625
 30
0.0
 70
    32
  0
VERTEX
  5
10000251
  8
VISIBLE
 10
0.99375
 20
-0.6787109374999998
 30
0.0
 70
    32
  0
VERTEX
  5
10000252
  8
VISIBLE
 10
0.9968750000000002
 20
-0.8367919921875
 30
0.0
 70
    32
  0
VERTEX
  5
10000253
  8
VISIBLE
 10
1.0
 20
-1.0
 30
0.0
 70
    32
  0
SEQEND
  5
10000764
  8
VISIBLE
  0
LINE
  5
F47AB
  8
VISIBLE
 10
1.750000000000001
 20
-1.0
 30
0.0
 11
1.6
 21
-1.0
 31
0.0
  0
LINE
  5
F47AC
  8
VISIBLE
 10
-0.6320000000000001
 20
-0.0749999999999999
 30
0.0
 11
-0.5750000000000001
 21
-0.0749999999999999
 31
0.0
  0
POLYLINE
  5
F47AD
  8
VISIBLE
 10
0.0
 20
0.0
 30
0.0
 66
     1
 70
     8
  0
VERTEX
  5
1000025A
  8
VISIBLE
 10
0.6500000000000037
 20
0.0
 30
0.0
 70
    32
  0
VERTEX
  5
1000025B
  8
VISIBLE
 10
0.6505615234375037
 20
0.1632080078125001
 30
0.0
 70
    32
  0
VERTEX
  5
1000025C
  8
VISIBLE
 10
0.6521484375000036
 20
0.3212890625000002
 30
0.0
 70
    32
  0
VERTEX
  5
1000025D
  8
VISIBLE
 10
0.6546142578125039
 20
0.4691162109375001
 30
0.0
 70
    32
  0
VERTEX
  5
1000025E
  8
VISIBLE
 10
0.6578125000000039
 20
0.6015625000000001
 30
0.0
 70
    32
  0
VERTEX
  5
1000025F
  8
VISIBLE
 10
0.6606037139892618
 20
0.6877193450927735
 30
0.0
 70
    32
  0
VERTEX
  5
10000260
  8
VISIBLE
 10
0.6636627197265665
 20
0.7601776123046876
 30
0.0
 70
    32
  0
VERTEX
  5
10000261
  8
VISIBLE
 10
0.6669277191162151
 20
0.816774368286133
 30
0.0
 70
    32
  0
VERTEX
  5
10000262
  8
VISIBLE
 10
0.6703369140625042
 20
0.8553466796875002
 30
0.0
 70
    32
  0
VERTEX
  5
10000263
  8
VISIBLE
 10
0.6726593017578166
 20
0.8699798583984374
 30
0.0
 70
    32
  0
VERTEX
  5
10000264
  8
VISIBLE
 10
0.6738285064697307
 20
0.8737316131591797
 30
0.0
 70
    32
  0
VERTEX
  5
10000265
  8
VISIBLE
 10
0.67441411018372
 20
0.8746812343597412
 30
0.0
 70
    32
  0
VERTEX
  5
10000266
  8
VISIBLE
 10
0.6750000000000042
 20
0.8750000000000001
 30
0.0
 70
    32
  0
VERTEX
  5
10000267
  8
VISIBLE
 10
0.6755858898162884
 20
0.8746812343597412
 30
0.0
 70
    32
  0
VERTEX
  5
10000268
  8
VISIBLE
 10
0.6761714935302775
 20
0.8737316131591797
 30
0.0
 70
    32
  0
VERTEX
  5
10000269
  8
VISIBLE
 10
0.6773406982421916
 20
0.8699798583984374
 30
0.0
 70
    32
  0
VERTEX
  5
1000026A
  8
VISIBLE
 10
0.6796630859375041
 20
0.8553466796875002
 30
0.0
 70
    32
  0
VERTEX
  5
1000026B
  8
VISIBLE
 10
0.6830722808837931
 20
0.816774368286133
 30
0.0
 70
    32
  0
VERTEX
  5
1000026C
  8
VISIBLE
 10
0.6863372802734415
 20
0.7601776123046876
 30
0.0
 70
    32
  0
VERTEX
  5
1000026D
  8
VISIBLE
 10
0.6893962860107461
 20
0.6877193450927734
 30
0.0
 70
    32
  0
VERTEX
  5
1000026E
  8
VISIBLE
 10
0.6921875000000037
 20
0.6015625
 30
0.0
 70
    32
  0
VERTEX
  5
1000026F
  8
VISIBLE
 10
0.6953857421875036
 20
0.4691162109374999
 30
0.0
 70
    32
  0
VERTEX
  5
10000270
  8
VISIBLE
 10
0.6978515625000034
 20
0.3212890624999999
 30
0.0
 70
    32
  0
VERTEX
  5
10000271
  8
VISIBLE
 10
0.6994384765625036
 20
0.1632080078124999
 30
0.0
 70
    32
  0
VERTEX
  5
10000272
  8
VISIBLE
 10
0.7000000000000035
 20
-0.0000000000000001
 30
0.0
 70
    32
  0
VERTEX
  5
10000273
  8
VISIBLE
 10
0.6994384765625036
 20
-0.1632080078125002
 30
0.0
 70
    32
  0
VERTEX
  5
10000274
  8
VISIBLE
 10
0.6978515625000034
 20
-0.3212890625000003
 30
0.0
 70
    32
  0
VERTEX
  5
10000275
  8
VISIBLE
 10
0.6953857421875036
 20
-0.4691162109375002
 30
0.0
 70
    32
  0
VERTEX
  5
10000276
  8
VISIBLE
 10
0.6921875000000037
 20
-0.6015625000000002
 30
0.0
 70
    32
  0
VERTEX
  5
10000277
  8
VISIBLE
 10
0.6893962860107461
 20
-0.6877193450927737
 30
0.0
 70
    32
  0
VERTEX
  5
10000278
  8
VISIBLE
 10
0.6863372802734415
 20
-0.7601776123046878
 30
0.0
 70
    32
  0
VERTEX
  5
10000279
  8
VISIBLE
 10
0.6830722808837931
 20
-0.816774368286133
 30
0.0
 70
    32
  0
VERTEX
  5
1000027A
  8
VISIBLE
 10
0.6796630859375041
 20
-0.8553466796875003
 30
0.0
 70
    32
  0
VERTEX
  5
1000027B
  8
VISIBLE
 10
0.6773406982421916
 20
-0.8699798583984377
 30
0.0
 70
    32
  0
VERTEX
  5
1000027C
  8
VISIBLE
 10
0.6761714935302775
 20
-0.8737316131591799
 30
0.0
 70
    32
  0
VERTEX
  5
1000027D
  8
VISIBLE
 10
0.6755858898162884
 20
-0.8746812343597413
 30
0.0
 70
    32
  0
VERTEX
  5
1000027E
  8
VISIBLE
 10
0.6750000000000042
 20
-0.8750000000000002
 30
0.0
 70
    32
  0
VERTEX
  5
1000027F
  8
VISIBLE
 10
0.67441411018372
 20
-0.8746812343597413
 30
0.0
 70
    32
  0
VERTEX
  5
10000280
  8
VISIBLE
 10
0.6738285064697307
 20
-0.8737316131591799
 30
0.0
 70
    32
  0
VERTEX
  5
10000281
  8
VISIBLE
 10
0.6726593017578166
 20
-0.8699798583984377
 30
0.0
 70
    32
  0
VERTEX
  5
10000282
  8
VISIBLE
 10
0.6703369140625042
 20
-0.8553466796875002
 30
0.0
 70
    32
  0
VERTEX
  5
10000283
  8
VISIBLE
 10
0.6669277191162151
 20
-0.816774368286133
 30
0.0
 70
    32
  0
VERTEX
  5
10000284
  8
VISIBLE
 10
0.6636627197265665
 20
-0.7601776123046876
 30
0.0
 70
    32
  0
VERTEX
  5
10000285
  8
VISIBLE
 10
0.6606037139892618
 20
-0.6877193450927735
 30
0.0
 70
    32
  0
VERTEX
  5
10000286
  8
VISIBLE
 10
0.6578125000000039
 20
-0.6015625000000001
 30
0.0
 70
    32
  0
VERTEX
  5
10000287
  8
VISIBLE
 10
0.6546142578125039
 20
-0.4691162109375001
 30
0.0
 70
    32
  0
VERTEX
  5
10000288
  8
VISIBLE
 10
0.6521484375000036
 20
-0.3212890625000002
 30
0.0
 70
    32
  0
VERTEX
  5
10000289
  8
VISIBLE
 10
0.6505615234375037
 20
-0.1632080078125001
 30
0.0
 70
    32
  0
VERTEX
  5
1000028A
  8
VISIBLE
 10
0.6500000000000037
 20
0.0
 30
0.0
 70
    32
  0
SEQEND
  5
10000765
  8
VISIBLE
  0
POLYLINE
  5
F47AE
  8
VISIBLE
 10
0.0
 20
0.0
 30
0.0
 66
     1
 70
     8
  0
VERTEX
  5
1000028D
  8
VISIBLE
 10
1.699999999999997
 20
-0.0000000000000001
 30
0.0
 70
    32
  0
VERTEX
  5
1000028E
  8
VISIBLE
 10
1.699438476562497
 20
0.1632080078125001
 30
0.0
 70
    32
  0
VERTEX
  5
1000028F
  8
VISIBLE
 10
1.697851562499997
 20
0.3212890625
 30
0.0
 70
    32
  0
VERTEX
  5
10000290
  8
VISIBLE
 10
1.695385742187497
 20
0.4691162109375001
 30
0.0
 70
    32
  0
VERTEX
  5
10000291
  8
VISIBLE
 10
1.692187499999997
 20
0.6015625000000001
 30
0.0
 70
    32
  0
VERTEX
  5
10000292
  8
VISIBLE
 10
1.689396286010739
 20
0.6877193450927735
 30
0.0
 70
    32
  0
VERTEX
  5
10000293
  8
VISIBLE
 10
1.686337280273434
 20
0.7601776123046876
 30
0.0
 70
    32
  0
VERTEX
  5
10000294
  8
VISIBLE
 10
1.683072280883786
 20
0.816774368286133
 30
0.0
 70
    32
  0
VERTEX
  5
10000295
  8
VISIBLE
 10
1.679663085937496
 20
0.8553466796875002
 30
0.0
 70
    32
  0
VERTEX
  5
10000296
  8
VISIBLE
 10
1.677340698242184
 20
0.8699798583984374
 30
0.0
 70
    32
  0
VERTEX
  5
10000297
  8
VISIBLE
 10
1.67617149353027
 20
0.8737316131591797
 30
0.0
 70
    32
  0
VERTEX
  5
10000298
  8
VISIBLE
 10
1.675585889816281
 20
0.8746812343597412
 30
0.0
 70
    32
  0
VERTEX
  5
10000299
  8
VISIBLE
 10
1.674999999999997
 20
0.8750000000000001
 30
0.0
 70
    32
  0
VERTEX
  5
1000029A
  8
VISIBLE
 10
1.674414110183712
 20
0.8746812343597412
 30
0.0
 70
    32
  0
VERTEX
  5
1000029B
  8
VISIBLE
 10
1.673828506469723
 20
0.8737316131591797
 30
0.0
 70
    32
  0
VERTEX
  5
1000029C
  8
VISIBLE
 10
1.672659301757809
 20
0.8699798583984374
 30
0.0
 70
    32
  0
VERTEX
  5
1000029D
  8
VISIBLE
 10
1.670336914062497
 20
0.8553466796875002
 30
0.0
 70
    32
  0
VERTEX
  5
1000029E
  8
VISIBLE
 10
1.666927719116208
 20
0.816774368286133
 30
0.0
 70
    32
  0
VERTEX
  5
1000029F
  8
VISIBLE
 10
1.663662719726559
 20
0.7601776123046876
 30
0.0
 70
    32
  0
VERTEX
  5
100002A0
  8
VISIBLE
 10
1.660603713989255
 20
0.6877193450927734
 30
0.0
 70
    32
  0
VERTEX
  5
100002A1
  8
VISIBLE
 10
1.657812499999997
 20
0.6015625
 30
0.0
 70
    32
  0
VERTEX
  5
100002A2
  8
VISIBLE
 10
1.654614257812497
 20
0.4691162109374999
 30
0.0
 70
    32
  0
VERTEX
  5
100002A3
  8
VISIBLE
 10
1.652148437499998
 20
0.3212890625
 30
0.0
 70
    32
  0
VERTEX
  5
100002A4
  8
VISIBLE
 10
1.650561523437497
 20
0.1632080078124999
 30
0.0
 70
    32
  0
VERTEX
  5
100002A5
  8
VISIBLE
 10
1.649999999999997
 20
-0.0000000000000001
 30
0.0
 70
    32
  0
VERTEX
  5
100002A6
  8
VISIBLE
 10
1.650561523437498
 20
-0.1632080078125002
 30
0.0
 70
    32
  0
VERTEX
  5
100002A7
  8
VISIBLE
 10
1.652148437499998
 20
-0.3212890625000002
 30
0.0
 70
    32
  0
VERTEX
  5
100002A8
  8
VISIBLE
 10
1.654614257812497
 20
-0.4691162109375001
 30
0.0
 70
    32
  0
VERTEX
  5
100002A9
  8
VISIBLE
 10
1.657812499999997
 20
-0.6015625000000001
 30
0.0
 70
    32
  0
VERTEX
  5
100002AA
  8
VISIBLE
 10
1.660603713989255
 20
-0.6877193450927735
 30
0.0
 70
    32
  0
VERTEX
  5
100002AB
  8
VISIBLE
 10
1.663662719726559
 20
-0.7601776123046876
 30
0.0
 70
    32
  0
VERTEX
  5
100002AC
  8
VISIBLE
 10
1.666927719116208
 20
-0.8167743682861329
 30
0.0
 70
    32
  0
VERTEX
  5
100002AD
  8
VISIBLE
 10
1.670336914062497
 20
-0.8553466796875002
 30
0.0
 70
    32
  0
VERTEX
  5
100002AE
  8
VISIBLE
 10
1.672659301757809
 20
-0.8699798583984374
 30
0.0
 70
    32
  0
VERTEX
  5
100002AF
  8
VISIBLE
 10
1.673828506469723
 20
-0.8737316131591797
 30
0.0
 70
    32
  0
VERTEX
  5
100002B0
  8
VISIBLE
 10
1.674414110183712
 20
-0.8746812343597412
 30
0.0
 70
    32
  0
VERTEX
  5
100002B1
  8
VISIBLE
 10
1.674999999999997
 20
-0.8750000000000001
 30
0.0
 70
    32
  0
VERTEX
  5
100002B2
  8
VISIBLE
 10
1.675585889816281
 20
-0.8746812343597412
 30
0.0
 70
    32
  0
VERTEX
  5
100002B3
  8
VISIBLE
 10
1.67617149353027
 20
-0.8737316131591797
 30
0.0
 70
    32
  0
VERTEX
  5
100002B4
  8
VISIBLE
 10
1.677340698242184
 20
-0.8699798583984374
 30
0.0
 70
    32
  0
VERTEX
  5
100002B5
  8
VISIBLE
 10
1.679663085937496
 20
-0.8553466796875002
 30
0.0
 70
    32
  0
VERTEX
  5
100002B6
  8
VISIBLE
 10
1.683072280883785
 20
-0.8167743682861329
 30
0.0
 70
    32
  0
VERTEX
  5
100002B7
  8
VISIBLE
 10
1.686337280273434
 20
-0.7601776123046875
 30
0.0
 70
    32
  0
VERTEX
  5
100002B8
  8
VISIBLE
 10
1.689396286010739
 20
-0.6877193450927734
 30
0.0
 70
    32
  0
VERTEX
  5
100002B9
  8
VISIBLE
 10
1.692187499999997
 20
-0.6015625000000001
 30
0.0
 70
    32
  0
VERTEX
  5
100002BA
  8
VISIBLE
 10
1.695385742187497
 20
-0.4691162109374999
 30
0.0
 70
    32
  0
VERTEX
  5
100002BB
  8
VISIBLE
 10
1.697851562499997
 20
-0.3212890625
 30
0.0
 70
    32
  0
VERTEX
  5
100002BC
  8
VISIBLE
 10
1.699438476562497
 20
-0.1632080078125001
 30
0.0
 70
    32
  0
VERTEX
  5
100002BD
  8
VISIBLE
 10
1.699999999999997
 20
0.0
 30
0.0
 70
    32
  0
SEQEND
  5
10000766
  8
VISIBLE
  0
LINE
  5
F47AF
  8
VISIBLE
 10
1.950000000000001
 20
-1.0
 30
0.0
 11
1.8
 21
-1.0
 31
0.0
  0
LINE
  5
F47B0
  8
VISIBLE
 10
0.5500000000000004
 20
-1.0
 30
0.0
 11
0.4000000000000001
 21
-1.0
 31
0.0
  0
LINE
  5
F47B1
  8
VISIBLE
 10
-0.4500000000000002
 20
0.1625
 30
0.0
 11
-0.4500000000000002
 21
0.0750000000000001
 31
0.0
  0
POLYLINE
  5
F47B2
  8
VISIBLE
 10
0.0
 20
0.0
 30
0.0
 66
     1
 70
     8
  0
VERTEX
  5
100002C6
  8
VISIBLE
 10
1.550000000000001
 20
1.0
 30
0.0
 70
    32
  0
VERTEX
  5
100002C7
  8
VISIBLE
 10
1.553125000000001
 20
0.8367919921875001
 30
0.0
 70
    32
  0
VERTEX
  5
100002C8
  8
VISIBLE
 10
1.556250000000001
 20
0.6787109374999998
 30
0.0
 70
    32
  0
VERTEX
  5
100002C9
  8
VISIBLE
 10
1.559375000000001
 20
0.5308837890624998
 30
0.0
 70
    32
  0
VERTEX
  5
100002CA
  8
VISIBLE
 10
1.562500000000001
 20
0.3984374999999997
 30
0.0
 70
    32
  0
VERTEX
  5
100002CB
  8
VISIBLE
 10
1.564843750000001
 20
0.3122806549072261
 30
0.0
 70
    32
  0
VERTEX
  5
100002CC
  8
VISIBLE
 10
1.567187500000002
 20
0.2398223876953121
 30
0.0
 70
    32
  0
VERTEX
  5
100002CD
  8
VISIBLE
 10
1.569531250000002
 20
0.1832256317138667
 30
0.0
 70
    32
  0
VERTEX
  5
100002CE
  8
VISIBLE
 10
1.571875000000002
 20
0.1446533203124995
 30
0.0
 70
    32
  0
VERTEX
  5
100002CF
  8
VISIBLE
 10
1.574218750000002
 20
0.1262683868408198
 30
0.0
 70
    32
  0
VERTEX
  5
100002D0
  8
VISIBLE
 10
1.574609375000002
 20
0.1253187656402583
 30
0.0
 70
    32
  0
VERTEX
  5
100002D1
  8
VISIBLE
 10
1.574804687500003
 20
0.1250799000263209
 30
0.0
 70
    32
  0
VERTEX
  5
100002D2
  8
VISIBLE
 10
1.575000000000002
 20
0.1249999999999995
 30
0.0
 70
    32
  0
VERTEX
  5
100002D3
  8
VISIBLE
 10
1.575195312500002
 20
0.1250799000263209
 30
0.0
 70
    32
  0
VERTEX
  5
100002D4
  8
VISIBLE
 10
1.575390625000002
 20
0.1253187656402583
 30
0.0
 70
    32
  0
VERTEX
  5
100002D5
  8
VISIBLE
 10
1.575781250000002
 20
0.1262683868408198
 30
0.0
 70
    32
  0
VERTEX
  5
100002D6
  8
VISIBLE
 10
1.578125000000002
 20
0.1446533203124996
 30
0.0
 70
    32
  0
VERTEX
  5
100002D7
  8
VISIBLE
 10
1.580468750000002
 20
0.1832256317138667
 30
0.0
 70
    32
  0
VERTEX
  5
100002D8
  8
VISIBLE
 10
1.582812500000003
 20
0.2398223876953121
 30
0.0
 70
    32
  0
VERTEX
  5
100002D9
  8
VISIBLE
 10
1.585156250000002
 20
0.3122806549072262
 30
0.0
 70
    32
  0
VERTEX
  5
100002DA
  8
VISIBLE
 10
1.587500000000002
 20
0.3984374999999998
 30
0.0
 70
    32
  0
VERTEX
  5
100002DB
  8
VISIBLE
 10
1.590625000000002
 20
0.5308837890624998
 30
0.0
 70
    32
  0
VERTEX
  5
100002DC
  8
VISIBLE
 10
1.593750000000002
 20
0.6787109375
 30
0.0
 70
    32
  0
VERTEX
  5
100002DD
  8
VISIBLE
 10
1.596875000000002
 20
0.8367919921875001
 30
0.0
 70
    32
  0
VERTEX
  5
100002DE
  8
VISIBLE
 10
1.600000000000002
 20
1.0
 30
0.0
 70
    32
  0
SEQEND
  5
10000767
  8
VISIBLE
  0
POLYLINE
  5
F47B3
  8
VISIBLE
 10
0.0
 20
0.0
 30
0.0
 66
     1
 70
     8
  0
VERTEX
  5
100002E1
  8
VISIBLE
 10
0.6000000000000002
 20
1.0
 30
0.0
 70
    32
  0
VERTEX
  5
100002E2
  8
VISIBLE
 10
0.5968750000000002
 20
0.8367919921875
 30
0.0
 70
    32
  0
VERTEX
  5
100002E3
  8
VISIBLE
 10
0.59375
 20
0.6787109374999998
 30
0.0
 70
    32
  0
VERTEX
  5
100002E4
  8
VISIBLE
 10
0.5906249999999998
 20
0.5308837890624998
 30
0.0
 70
    32
  0
VERTEX
  5
100002E5
  8
VISIBLE
 10
0.5874999999999996
 20
0.3984374999999997
 30
0.0
 70
    32
  0
VERTEX
  5
100002E6
  8
VISIBLE
 10
0.5851562499999994
 20
0.3122806549072262
 30
0.0
 70
    32
  0
VERTEX
  5
100002E7
  8
VISIBLE
 10
0.5828124999999992
 20
0.2398223876953121
 30
0.0
 70
    32
  0
VERTEX
  5
100002E8
  8
VISIBLE
 10
0.580468749999999
 20
0.1832256317138667
 30
0.0
 70
    32
  0
VERTEX
  5
100002E9
  8
VISIBLE
 10
0.5781249999999989
 20
0.1446533203124996
 30
0.0
 70
    32
  0
VERTEX
  5
100002EA
  8
VISIBLE
 10
0.5757812499999988
 20
0.1262683868408198
 30
0.0
 70
    32
  0
VERTEX
  5
100002EB
  8
VISIBLE
 10
0.5753906249999987
 20
0.1253187656402583
 30
0.0
 70
    32
  0
VERTEX
  5
100002EC
  8
VISIBLE
 10
0.5751953124999987
 20
0.1250799000263209
 30
0.0
 70
    32
  0
VERTEX
  5
100002ED
  8
VISIBLE
 10
0.5749999999999986
 20
0.1249999999999995
 30
0.0
 70
    32
  0
VERTEX
  5
100002EE
  8
VISIBLE
 10
0.5748046874999987
 20
0.1250799000263209
 30
0.0
 70
    32
  0
VERTEX
  5
100002EF
  8
VISIBLE
 10
0.5746093749999988
 20
0.1253187656402583
 30
0.0
 70
    32
  0
VERTEX
  5
100002F0
  8
VISIBLE
 10
0.5742187499999987
 20
0.1262683868408198
 30
0.0
 70
    32
  0
VERTEX
  5
100002F1
  8
VISIBLE
 10
0.5718749999999986
 20
0.1446533203124996
 30
0.0
 70
    32
  0
VERTEX
  5
100002F2
  8
VISIBLE
 10
0.5695312499999986
 20
0.1832256317138668
 30
0.0
 70
    32
  0
VERTEX
  5
100002F3
  8
VISIBLE
 10
0.5671874999999985
 20
0.2398223876953121
 30
0.0
 70
    32
  0
VERTEX
  5
100002F4
  8
VISIBLE
 10
0.5648437499999985
 20
0.3122806549072263
 30
0.0
 70
    32
  0
VERTEX
  5
100002F5
  8
VISIBLE
 10
0.5624999999999986
 20
0.3984374999999998
 30
0.0
 70
    32
  0
VERTEX
  5
100002F6
  8
VISIBLE
 10
0.5593749999999986
 20
0.5308837890624998
 30
0.0
 70
    32
  0
VERTEX
  5
100002F7
  8
VISIBLE
 10
0.5562499999999987
 20
0.6787109375
 30
0.0
 70
    32
  0
VERTEX
  5
100002F8
  8
VISIBLE
 10
0.5531249999999988
 20
0.8367919921875001
 30
0.0
 70
    32
  0
VERTEX
  5
100002F9
  8
VISIBLE
 10
0.5499999999999988
 20
1.0
 30
0.0
 70
    32
  0
SEQEND
  5
10000768
  8
VISIBLE
  0
LINE
  5
F47B4
  8
VISIBLE
 10
0.7500000000000004
 20
1.0
 30
0.0
 11
0.6000000000000002
 21
1.0
 31
0.0
  0
LINE
  5
F47B5
  8
VISIBLE
 10
2.150000000000001
 20
-1.0
 30
0.0
 11
2.0
 21
-1.0
 31
0.0
  0
LINE
  5
F47B6
  8
VISIBLE
 10
-0.5750000000000002
 20
0.1625
 30
0.0
 11
-0.4500000000000002
 21
0.1625
 31
0.0
  0
LINE
  5
F47B7
  8
VISIBLE
 10
-0.5750000000000001
 20
-0.0749999999999999
 30
0.0
 11
-0.5750000000000002
 21
-0.1625
 31
0.0
  0
LINE
  5
F47B8
  8
VISIBLE
 10
2.150000000000001
 20
1.0
 30
0.0
 11
2.0
 21
1.0
 31
0.0
  0
LINE
  5
F47B9
  8
VISIBLE
 10
0.3500000000000004
 20
-1.0
 30
0.0
 11
0.2
 21
-1.0
 31
0.0
  0
POLYLINE
  5
F47BA
  8
VISIBLE
 10
0.0
 20
0.0
 30
0.0
 66
     1
 70
     8
  0
VERTEX
  5
10000308
  8
VISIBLE
 10
0.7500000000000004
 20
1.0
 30
0.0
 70
    32
  0
VERTEX
  5
10000309
  8
VISIBLE
 10
0.7531250000000005
 20
0.8367919921875001
 30
0.0
 70
    32
  0
VERTEX
  5
1000030A
  8
VISIBLE
 10
0.7562500000000005
 20
0.6787109375
 30
0.0
 70
    32
  0
VERTEX
  5
1000030B
  8
VISIBLE
 10
0.7593750000000008
 20
0.5308837890624998
 30
0.0
 70
    32
  0
VERTEX
  5
1000030C
  8
VISIBLE
 10
0.762500000000001
 20
0.3984374999999998
 30
0.0
 70
    32
  0
VERTEX
  5
1000030D
  8
VISIBLE
 10
0.7648437500000013
 20
0.3122806549072262
 30
0.0
 70
    32
  0
VERTEX
  5
1000030E
  8
VISIBLE
 10
0.7671875000000015
 20
0.2398223876953121
 30
0.0
 70
    32
  0
VERTEX
  5
1000030F
  8
VISIBLE
 10
0.7695312500000016
 20
0.1832256317138668
 30
0.0
 70
    32
  0
VERTEX
  5
10000310
  8
VISIBLE
 10
0.7718750000000018
 20
0.1446533203124996
 30
0.0
 70
    32
  0
VERTEX
  5
10000311
  8
VISIBLE
 10
0.7742187500000021
 20
0.1262683868408198
 30
0.0
 70
    32
  0
VERTEX
  5
10000312
  8
VISIBLE
 10
0.7746093750000019
 20
0.1253187656402583
 30
0.0
 70
    32
  0
VERTEX
  5
10000313
  8
VISIBLE
 10
0.7748046875000021
 20
0.1250799000263209
 30
0.0
 70
    32
  0
VERTEX
  5
10000314
  8
VISIBLE
 10
0.775000000000002
 20
0.1249999999999995
 30
0.0
 70
    32
  0
VERTEX
  5
10000315
  8
VISIBLE
 10
0.7751953125000018
 20
0.1250799000263209
 30
0.0
 70
    32
  0
VERTEX
  5
10000316
  8
VISIBLE
 10
0.7753906250000019
 20
0.1253187656402583
 30
0.0
 70
    32
  0
VERTEX
  5
10000317
  8
VISIBLE
 10
0.7757812500000018
 20
0.1262683868408198
 30
0.0
 70
    32
  0
VERTEX
  5
10000318
  8
VISIBLE
 10
0.7781250000000021
 20
0.1446533203124996
 30
0.0
 70
    32
  0
VERTEX
  5
10000319
  8
VISIBLE
 10
0.7804687500000022
 20
0.1832256317138668
 30
0.0
 70
    32
  0
VERTEX
  5
1000031A
  8
VISIBLE
 10
0.7828125000000022
 20
0.2398223876953121
 30
0.0
 70
    32
  0
VERTEX
  5
1000031B
  8
VISIBLE
 10
0.7851562500000021
 20
0.3122806549072263
 30
0.0
 70
    32
  0
VERTEX
  5
1000031C
  8
VISIBLE
 10
0.7875000000000022
 20
0.3984374999999998
 30
0.0
 70
    32
  0
VERTEX
  5
1000031D
  8
VISIBLE
 10
0.790625000000002
 20
0.5308837890624998
 30
0.0
 70
    32
  0
VERTEX
  5
1000031E
  8
VISIBLE
 10
0.7937500000000018
 20
0.6787109375
 30
0.0
 70
    32
  0
VERTEX
  5
1000031F
  8
VISIBLE
 10
0.7968750000000019
 20
0.8367919921875001
 30
0.0
 70
    32
  0
VERTEX
  5
10000320
  8
VISIBLE
 10
0.8000000000000018
 20
1.0
 30
0.0
 70
    32
  0
SEQEND
  5
10000769
  8
VISIBLE
  0
POLYLINE
  5
F47BB
  8
VISIBLE
 10
0.0
 20
0.0
 30
0.0
 66
     1
 70
     8
  0
VERTEX
  5
10000323
  8
VISIBLE
 10
1.8
 20
1.0
 30
0.0
 70
    32
  0
VERTEX
  5
10000324
  8
VISIBLE
 10
1.796875000000001
 20
0.8367919921875001
 30
0.0
 70
    32
  0
VERTEX
  5
10000325
  8
VISIBLE
 10
1.79375
 20
0.6787109375
 30
0.0
 70
    32
  0
VERTEX
  5
10000326
  8
VISIBLE
 10
1.790625000000001
 20
0.5308837890624998
 30
0.0
 70
    32
  0
VERTEX
  5
10000327
  8
VISIBLE
 10
1.787500000000001
 20
0.3984374999999998
 30
0.0
 70
    32
  0
VERTEX
  5
10000328
  8
VISIBLE
 10
1.78515625
 20
0.3122806549072262
 30
0.0
 70
    32
  0
VERTEX
  5
10000329
  8
VISIBLE
 10
1.782812500000001
 20
0.2398223876953121
 30
0.0
 70
    32
  0
VERTEX
  5
1000032A
  8
VISIBLE
 10
1.780468750000001
 20
0.1832256317138668
 30
0.0
 70
    32
  0
VERTEX
  5
1000032B
  8
VISIBLE
 10
1.778125000000001
 20
0.1446533203124996
 30
0.0
 70
    32
  0
VERTEX
  5
1000032C
  8
VISIBLE
 10
1.775781250000001
 20
0.1262683868408198
 30
0.0
 70
    32
  0
VERTEX
  5
1000032D
  8
VISIBLE
 10
1.775390625000001
 20
0.1253187656402583
 30
0.0
 70
    32
  0
VERTEX
  5
1000032E
  8
VISIBLE
 10
1.775195312500001
 20
0.1250799000263209
 30
0.0
 70
    32
  0
VERTEX
  5
1000032F
  8
VISIBLE
 10
1.775000000000001
 20
0.1249999999999995
 30
0.0
 70
    32
  0
VERTEX
  5
10000330
  8
VISIBLE
 10
1.774804687500001
 20
0.1250799000263209
 30
0.0
 70
    32
  0
VERTEX
  5
10000331
  8
VISIBLE
 10
1.774609375
 20
0.1253187656402583
 30
0.0
 70
    32
  0
VERTEX
  5
10000332
  8
VISIBLE
 10
1.774218750000001
 20
0.1262683868408198
 30
0.0
 70
    32
  0
VERTEX
  5
10000333
  8
VISIBLE
 10
1.771875000000001
 20
0.1446533203124996
 30
0.0
 70
    32
  0
VERTEX
  5
10000334
  8
VISIBLE
 10
1.769531250000001
 20
0.1832256317138668
 30
0.0
 70
    32
  0
VERTEX
  5
10000335
  8
VISIBLE
 10
1.767187500000001
 20
0.2398223876953121
 30
0.0
 70
    32
  0
VERTEX
  5
10000336
  8
VISIBLE
 10
1.76484375
 20
0.3122806549072263
 30
0.0
 70
    32
  0
VERTEX
  5
10000337
  8
VISIBLE
 10
1.762500000000001
 20
0.3984374999999998
 30
0.0
 70
    32
  0
VERTEX
  5
10000338
  8
VISIBLE
 10
1.759375000000001
 20
0.5308837890624998
 30
0.0
 70
    32
  0
VERTEX
  5
10000339
  8
VISIBLE
 10
1.756250000000001
 20
0.6787109375
 30
0.0
 70
    32
  0
VERTEX
  5
1000033A
  8
VISIBLE
 10
1.753125000000001
 20
0.8367919921875001
 30
0.0
 70
    32
  0
VERTEX
  5
1000033B
  8
VISIBLE
 10
1.750000000000001
 20
1.0
 30
0.0
 70
    32
  0
SEQEND
  5
1000076A
  8
VISIBLE
  0
LINE
  5
F47BC
  8
VISIBLE
 10
-0.7499999999999999
 20
-0.7499999999999999
 30
0.0
 11
-0.632
 21
-0.7499999999999999
 31
0.0
  0
LINE
  5
F47BD
  8
VISIBLE
 10
1.550000000000001
 20
1.0
 30
0.0
 11
1.4
 21
1.0
 31
0.0
  0
POLYLINE
  5
F47BE
  8
VISIBLE
 10
0.0
 20
0.0
 30
0.0
 66
     1
 70
     8
  0
VERTEX
  5
10000342
  8
VISIBLE
 10
2.150000000000001
 20
-1.0
 30
0.0
 70
    32
  0
VERTEX
  5
10000343
  8
VISIBLE
 10
2.153125000000001
 20
-0.8367919921875
 30
0.0
 70
    32
  0
VERTEX
  5
10000344
  8
VISIBLE
 10
2.156250000000001
 20
-0.6787109374999997
 30
0.0
 70
    32
  0
VERTEX
  5
10000345
  8
VISIBLE
 10
2.159375000000001
 20
-0.5308837890624999
 30
0.0
 70
    32
  0
VERTEX
  5
10000346
  8
VISIBLE
 10
2.162500000000001
 20
-0.3984374999999998
 30
0.0
 70
    32
  0
VERTEX
  5
10000347
  8
VISIBLE
 10
2.164843750000001
 20
-0.3122806549072264
 30
0.0
 70
    32
  0
VERTEX
  5
10000348
  8
VISIBLE
 10
2.167187500000001
 20
-0.2398223876953123
 30
0.0
 70
    32
  0
VERTEX
  5
10000349
  8
VISIBLE
 10
2.169531250000001
 20
-0.1832256317138671
 30
0.0
 70
    32
  0
VERTEX
  5
1000034A
  8
VISIBLE
 10
2.171875000000001
 20
-0.1446533203124999
 30
0.0
 70
    32
  0
VERTEX
  5
1000034B
  8
VISIBLE
 10
2.174218750000001
 20
-0.1262683868408202
 30
0.0
 70
    32
  0
VERTEX
  5
1000034C
  8
VISIBLE
 10
2.174609375000001
 20
-0.1253187656402587
 30
0.0
 70
    32
  0
VERTEX
  5
1000034D
  8
VISIBLE
 10
2.174804687500001
 20
-0.1250799000263213
 30
0.0
 70
    32
  0
VERTEX
  5
1000034E
  8
VISIBLE
 10
2.175000000000001
 20
-0.1249999999999999
 30
0.0
 70
    32
  0
VERTEX
  5
1000034F
  8
VISIBLE
 10
2.175195312500001
 20
-0.1250799000263213
 30
0.0
 70
    32
  0
VERTEX
  5
10000350
  8
VISIBLE
 10
2.175390625000001
 20
-0.1253187656402587
 30
0.0
 70
    32
  0
VERTEX
  5
10000351
  8
VISIBLE
 10
2.17578125
 20
-0.1262683868408202
 30
0.0
 70
    32
  0
VERTEX
  5
10000352
  8
VISIBLE
 10
2.178125000000001
 20
-0.1446533203124999
 30
0.0
 70
    32
  0
VERTEX
  5
10000353
  8
VISIBLE
 10
2.180468750000001
 20
-0.183225631713867
 30
0.0
 70
    32
  0
VERTEX
  5
10000354
  8
VISIBLE
 10
2.182812500000001
 20
-0.2398223876953123
 30
0.0
 70
    32
  0
VERTEX
  5
10000355
  8
VISIBLE
 10
2.185156250000001
 20
-0.3122806549072264
 30
0.0
 70
    32
  0
VERTEX
  5
10000356
  8
VISIBLE
 10
2.1875
 20
-0.3984374999999998
 30
0.0
 70
    32
  0
VERTEX
  5
10000357
  8
VISIBLE
 10
2.190625000000001
 20
-0.5308837890624999
 30
0.0
 70
    32
  0
VERTEX
  5
10000358
  8
VISIBLE
 10
2.193750000000001
 20
-0.6787109374999998
 30
0.0
 70
    32
  0
VERTEX
  5
10000359
  8
VISIBLE
 10
2.196875
 20
-0.8367919921875
 30
0.0
 70
    32
  0
VERTEX
  5
1000035A
  8
VISIBLE
 10
2.200000000000001
 20
-1.0
 30
0.0
 70
    32
  0
SEQEND
  5
1000076B
  8
VISIBLE
  0
POLYLINE
  5
F47BF
  8
VISIBLE
 10
0.0
 20
0.0
 30
0.0
 66
     1
 70
     8
  0
VERTEX
  5
1000035D
  8
VISIBLE
 10
0.0999999999999967
 20
0.0
 30
0.0
 70
    32
  0
VERTEX
  5
1000035E
  8
VISIBLE
 10
0.0994384765624967
 20
0.1632080078125001
 30
0.0
 70
    32
  0
VERTEX
  5
1000035F
  8
VISIBLE
 10
0.0978515624999966
 20
0.3212890625000002
 30
0.0
 70
    32
  0
VERTEX
  5
10000360
  8
VISIBLE
 10
0.0953857421874966
 20
0.4691162109375001
 30
0.0
 70
    32
  0
VERTEX
  5
10000361
  8
VISIBLE
 10
0.0921874999999965
 20
0.6015625000000001
 30
0.0
 70
    32
  0
VERTEX
  5
10000362
  8
VISIBLE
 10
0.0893962860107386
 20
0.6877193450927735
 30
0.0
 70
    32
  0
VERTEX
  5
10000363
  8
VISIBLE
 10
0.0863372802734339
 20
0.7601776123046876
 30
0.0
 70
    32
  0
VERTEX
  5
10000364
  8
VISIBLE
 10
0.0830722808837854
 20
0.816774368286133
 30
0.0
 70
    32
  0
VERTEX
  5
10000365
  8
VISIBLE
 10
0.0796630859374963
 20
0.8553466796875002
 30
0.0
 70
    32
  0
VERTEX
  5
10000366
  8
VISIBLE
 10
0.0773406982421838
 20
0.8699798583984374
 30
0.0
 70
    32
  0
VERTEX
  5
10000367
  8
VISIBLE
 10
0.0761714935302698
 20
0.8737316131591797
 30
0.0
 70
    32
  0
VERTEX
  5
10000368
  8
VISIBLE
 10
0.0755858898162805
 20
0.8746812343597412
 30
0.0
 70
    32
  0
VERTEX
  5
10000369
  8
VISIBLE
 10
0.0749999999999963
 20
0.8750000000000001
 30
0.0
 70
    32
  0
VERTEX
  5
1000036A
  8
VISIBLE
 10
0.0744141101837121
 20
0.8746812343597412
 30
0.0
 70
    32
  0
VERTEX
  5
1000036B
  8
VISIBLE
 10
0.0738285064697229
 20
0.8737316131591797
 30
0.0
 70
    32
  0
VERTEX
  5
1000036C
  8
VISIBLE
 10
0.0726593017578089
 20
0.8699798583984374
 30
0.0
 70
    32
  0
VERTEX
  5
1000036D
  8
VISIBLE
 10
0.0703369140624964
 20
0.8553466796875002
 30
0.0
 70
    32
  0
VERTEX
  5
1000036E
  8
VISIBLE
 10
0.0669277191162074
 20
0.816774368286133
 30
0.0
 70
    32
  0
VERTEX
  5
1000036F
  8
VISIBLE
 10
0.063662719726559
 20
0.7601776123046876
 30
0.0
 70
    32
  0
VERTEX
  5
10000370
  8
VISIBLE
 10
0.0606037139892544
 20
0.6877193450927734
 30
0.0
 70
    32
  0
VERTEX
  5
10000371
  8
VISIBLE
 10
0.0578124999999967
 20
0.6015625
 30
0.0
 70
    32
  0
VERTEX
  5
10000372
  8
VISIBLE
 10
0.0546142578124968
 20
0.4691162109374999
 30
0.0
 70
    32
  0
VERTEX
  5
10000373
  8
VISIBLE
 10
0.0521484374999969
 20
0.3212890624999999
 30
0.0
 70
    32
  0
VERTEX
  5
10000374
  8
VISIBLE
 10
0.050561523437497
 20
0.1632080078124998
 30
0.0
 70
    32
  0
VERTEX
  5
10000375
  8
VISIBLE
 10
0.049999999999997
 20
-0.0000000000000002
 30
0.0
 70
    32
  0
VERTEX
  5
10000376
  8
VISIBLE
 10
0.050561523437497
 20
-0.1632080078125002
 30
0.0
 70
    32
  0
VERTEX
  5
10000377
  8
VISIBLE
 10
0.0521484374999969
 20
-0.3212890625000003
 30
0.0
 70
    32
  0
VERTEX
  5
10000378
  8
VISIBLE
 10
0.0546142578124968
 20
-0.4691162109375002
 30
0.0
 70
    32
  0
VERTEX
  5
10000379
  8
VISIBLE
 10
0.0578124999999967
 20
-0.6015625000000003
 30
0.0
 70
    32
  0
VERTEX
  5
1000037A
  8
VISIBLE
 10
0.0606037139892544
 20
-0.6877193450927737
 30
0.0
 70
    32
  0
VERTEX
  5
1000037B
  8
VISIBLE
 10
0.063662719726559
 20
-0.7601776123046878
 30
0.0
 70
    32
  0
VERTEX
  5
1000037C
  8
VISIBLE
 10
0.0669277191162074
 20
-0.816774368286133
 30
0.0
 70
    32
  0
VERTEX
  5
1000037D
  8
VISIBLE
 10
0.0703369140624964
 20
-0.8553466796875003
 30
0.0
 70
    32
  0
VERTEX
  5
1000037E
  8
VISIBLE
 10
0.0726593017578089
 20
-0.8699798583984377
 30
0.0
 70
    32
  0
VERTEX
  5
1000037F
  8
VISIBLE
 10
0.0738285064697229
 20
-0.8737316131591799
 30
0.0
 70
    32
  0
VERTEX
  5
10000380
  8
VISIBLE
 10
0.0744141101837121
 20
-0.8746812343597413
 30
0.0
 70
    32
  0
VERTEX
  5
10000381
  8
VISIBLE
 10
0.0749999999999963
 20
-0.8750000000000002
 30
0.0
 70
    32
  0
VERTEX
  5
10000382
  8
VISIBLE
 10
0.0755858898162805
 20
-0.8746812343597413
 30
0.0
 70
    32
  0
VERTEX
  5
10000383
  8
VISIBLE
 10
0.0761714935302698
 20
-0.8737316131591799
 30
0.0
 70
    32
  0
VERTEX
  5
10000384
  8
VISIBLE
 10
0.0773406982421838
 20
-0.8699798583984377
 30
0.0
 70
    32
  0
VERTEX
  5
10000385
  8
VISIBLE
 10
0.0796630859374963
 20
-0.8553466796875003
 30
0.0
 70
    32
  0
VERTEX
  5
10000386
  8
VISIBLE
 10
0.0830722808837854
 20
-0.816774368286133
 30
0.0
 70
    32
  0
VERTEX
  5
10000387
  8
VISIBLE
 10
0.0863372802734339
 20
-0.7601776123046876
 30
0.0
 70
    32
  0
VERTEX
  5
10000388
  8
VISIBLE
 10
0.0893962860107386
 20
-0.6877193450927735
 30
0.0
 70
    32
  0
VERTEX
  5
10000389
  8
VISIBLE
 10
0.0921874999999965
 20
-0.6015625000000001
 30
0.0
 70
    32
  0
VERTEX
  5
1000038A
  8
VISIBLE
 10
0.0953857421874966
 20
-0.4691162109375001
 30
0.0
 70
    32
  0
VERTEX
  5
1000038B
  8
VISIBLE
 10
0.0978515624999966
 20
-0.3212890625000002
 30
0.0
 70
    32
  0
VERTEX
  5
1000038C
  8
VISIBLE
 10
0.0994384765624967
 20
-0.1632080078125001
 30
0.0
 70
    32
  0
VERTEX
  5
1000038D
  8
VISIBLE
 10
0.0999999999999967
 20
0.0
 30
0.0
 70
    32
  0
SEQEND
  5
1000076C
  8
VISIBLE
  0
POLYLINE
  5
F47C0
  8
VISIBLE
 10
0.0
 20
0.0
 30
0.0
 66
     1
 70
     8
  0
VERTEX
  5
10000390
  8
VISIBLE
 10
1.2
 20
-1.0
 30
0.0
 70
    32
  0
VERTEX
  5
10000391
  8
VISIBLE
 10
1.196875
 20
-0.8367919921875
 30
0.0
 70
    32
  0
VERTEX
  5
10000392
  8
VISIBLE
 10
1.193750000000001
 20
-0.6787109374999998
 30
0.0
 70
    32
  0
VERTEX
  5
10000393
  8
VISIBLE
 10
1.190625000000001
 20
-0.5308837890624999
 30
0.0
 70
    32
  0
VERTEX
  5
10000394
  8
VISIBLE
 10
1.187500000000001
 20
-0.3984374999999998
 30
0.0
 70
    32
  0
VERTEX
  5
10000395
  8
VISIBLE
 10
1.185156250000001
 20
-0.3122806549072264
 30
0.0
 70
    32
  0
VERTEX
  5
10000396
  8
VISIBLE
 10
1.182812500000002
 20
-0.2398223876953124
 30
0.0
 70
    32
  0
VERTEX
  5
10000397
  8
VISIBLE
 10
1.180468750000002
 20
-0.1832256317138671
 30
0.0
 70
    32
  0
VERTEX
  5
10000398
  8
VISIBLE
 10
1.178125000000002
 20
-0.1446533203124999
 30
0.0
 70
    32
  0
VERTEX
  5
10000399
  8
VISIBLE
 10
1.175781250000002
 20
-0.1262683868408202
 30
0.0
 70
    32
  0
VERTEX
  5
1000039A
  8
VISIBLE
 10
1.175390625000002
 20
-0.1253187656402587
 30
0.0
 70
    32
  0
VERTEX
  5
1000039B
  8
VISIBLE
 10
1.175195312500002
 20
-0.1250799000263213
 30
0.0
 70
    32
  0
VERTEX
  5
1000039C
  8
VISIBLE
 10
1.175000000000002
 20
-0.1249999999999999
 30
0.0
 70
    32
  0
VERTEX
  5
1000039D
  8
VISIBLE
 10
1.174804687500002
 20
-0.1250799000263213
 30
0.0
 70
    32
  0
VERTEX
  5
1000039E
  8
VISIBLE
 10
1.174609375000002
 20
-0.1253187656402587
 30
0.0
 70
    32
  0
VERTEX
  5
1000039F
  8
VISIBLE
 10
1.174218750000002
 20
-0.1262683868408202
 30
0.0
 70
    32
  0
VERTEX
  5
100003A0
  8
VISIBLE
 10
1.171875000000002
 20
-0.1446533203124999
 30
0.0
 70
    32
  0
VERTEX
  5
100003A1
  8
VISIBLE
 10
1.169531250000002
 20
-0.1832256317138671
 30
0.0
 70
    32
  0
VERTEX
  5
100003A2
  8
VISIBLE
 10
1.167187500000002
 20
-0.2398223876953124
 30
0.0
 70
    32
  0
VERTEX
  5
100003A3
  8
VISIBLE
 10
1.164843750000002
 20
-0.3122806549072264
 30
0.0
 70
    32
  0
VERTEX
  5
100003A4
  8
VISIBLE
 10
1.162500000000001
 20
-0.3984374999999998
 30
0.0
 70
    32
  0
VERTEX
  5
100003A5
  8
VISIBLE
 10
1.159375000000001
 20
-0.5308837890625
 30
0.0
 70
    32
  0
VERTEX
  5
100003A6
  8
VISIBLE
 10
1.156250000000001
 20
-0.6787109374999998
 30
0.0
 70
    32
  0
VERTEX
  5
100003A7
  8
VISIBLE
 10
1.153125000000001
 20
-0.8367919921875
 30
0.0
 70
    32
  0
VERTEX
  5
100003A8
  8
VISIBLE
 10
1.150000000000001
 20
-1.0
 30
0.0
 70
    32
  0
SEQEND
  5
1000076D
  8
VISIBLE
  0
LINE
  5
F47C1
  8
VISIBLE
 10
-0.6320000000000001
 20
0.0750000000000001
 30
0.0
 11
-0.5750000000000001
 21
0.0750000000000001
 31
0.0
  0
LINE
  5
F47C2
  8
VISIBLE
 10
1.750000000000001
 20
1.0
 30
0.0
 11
1.600000000000002
 21
1.0
 31
0.0
  0
LINE
  5
F47C3
  8
VISIBLE
 10
0.1499999999999987
 20
1.0
 30
0.0
 11
-0.7500000000000001
 21
1.0
 31
0.0
  0
POLYLINE
  5
F47C4
  8
VISIBLE
 10
0.0
 20
0.0
 30
0.0
 66
     1
 70
     8
  0
VERTEX
  5
100003B1
  8
VISIBLE
 10
1.0
 20
1.0
 30
0.0
 70
    32
  0
VERTEX
  5
100003B2
  8
VISIBLE
 10
0.9968750000000002
 20
0.8367919921875001
 30
0.0
 70
    32
  0
VERTEX
  5
100003B3
  8
VISIBLE
 10
0.9937500000000001
 20
0.6787109374999998
 30
0.0
 70
    32
  0
VERTEX
  5
100003B4
  8
VISIBLE
 10
0.9906249999999999
 20
0.5308837890624998
 30
0.0
 70
    32
  0
VERTEX
  5
100003B5
  8
VISIBLE
 10
0.9874999999999998
 20
0.3984374999999997
 30
0.0
 70
    32
  0
VERTEX
  5
100003B6
  8
VISIBLE
 10
0.9851562499999994
 20
0.3122806549072261
 30
0.0
 70
    32
  0
VERTEX
  5
100003B7
  8
VISIBLE
 10
0.9828124999999991
 20
0.2398223876953121
 30
0.0
 70
    32
  0
VERTEX
  5
100003B8
  8
VISIBLE
 10
0.9804687499999991
 20
0.1832256317138667
 30
0.0
 70
    32
  0
VERTEX
  5
100003B9
  8
VISIBLE
 10
0.9781249999999989
 20
0.1446533203124995
 30
0.0
 70
    32
  0
VERTEX
  5
100003BA
  8
VISIBLE
 10
0.9757812499999988
 20
0.1262683868408198
 30
0.0
 70
    32
  0
VERTEX
  5
100003BB
  8
VISIBLE
 10
0.9753906249999988
 20
0.1253187656402583
 30
0.0
 70
    32
  0
VERTEX
  5
100003BC
  8
VISIBLE
 10
0.9751953124999986
 20
0.1250799000263209
 30
0.0
 70
    32
  0
VERTEX
  5
100003BD
  8
VISIBLE
 10
0.9749999999999988
 20
0.1249999999999995
 30
0.0
 70
    32
  0
VERTEX
  5
100003BE
  8
VISIBLE
 10
0.9748046874999989
 20
0.1250799000263209
 30
0.0
 70
    32
  0
VERTEX
  5
100003BF
  8
VISIBLE
 10
0.9746093749999987
 20
0.1253187656402583
 30
0.0
 70
    32
  0
VERTEX
  5
100003C0
  8
VISIBLE
 10
0.9742187499999986
 20
0.1262683868408198
 30
0.0
 70
    32
  0
VERTEX
  5
100003C1
  8
VISIBLE
 10
0.9718749999999988
 20
0.1446533203124996
 30
0.0
 70
    32
  0
VERTEX
  5
100003C2
  8
VISIBLE
 10
0.9695312499999987
 20
0.1832256317138667
 30
0.0
 70
    32
  0
VERTEX
  5
100003C3
  8
VISIBLE
 10
0.9671874999999985
 20
0.2398223876953121
 30
0.0
 70
    32
  0
VERTEX
  5
100003C4
  8
VISIBLE
 10
0.9648437499999986
 20
0.3122806549072262
 30
0.0
 70
    32
  0
VERTEX
  5
100003C5
  8
VISIBLE
 10
0.9624999999999986
 20
0.3984374999999998
 30
0.0
 70
    32
  0
VERTEX
  5
100003C6
  8
VISIBLE
 10
0.9593749999999989
 20
0.5308837890624998
 30
0.0
 70
    32
  0
VERTEX
  5
100003C7
  8
VISIBLE
 10
0.9562499999999988
 20
0.6787109375
 30
0.0
 70
    32
  0
VERTEX
  5
100003C8
  8
VISIBLE
 10
0.9531249999999989
 20
0.8367919921875001
 30
0.0
 70
    32
  0
VERTEX
  5
100003C9
  8
VISIBLE
 10
0.9499999999999988
 20
1.0
 30
0.0
 70
    32
  0
SEQEND
  5
1000076E
  8
VISIBLE
  0
POLYLINE
  5
F47C5
  8
VISIBLE
 10
0.0
 20
0.0
 30
0.0
 66
     1
 70
     8
  0
VERTEX
  5
100003CC
  8
VISIBLE
 10
1.950000000000001
 20
1.0
 30
0.0
 70
    32
  0
VERTEX
  5
100003CD
  8
VISIBLE
 10
1.953125000000001
 20
0.8367919921875001
 30
0.0
 70
    32
  0
VERTEX
  5
100003CE
  8
VISIBLE
 10
1.956250000000001
 20
0.6787109375
 30
0.0
 70
    32
  0
VERTEX
  5
100003CF
  8
VISIBLE
 10
1.959375000000001
 20
0.5308837890624998
 30
0.0
 70
    32
  0
VERTEX
  5
100003D0
  8
VISIBLE
 10
1.962500000000001
 20
0.3984374999999998
 30
0.0
 70
    32
  0
VERTEX
  5
100003D1
  8
VISIBLE
 10
1.96484375
 20
0.3122806549072262
 30
0.0
 70
    32
  0
VERTEX
  5
100003D2
  8
VISIBLE
 10
1.967187500000001
 20
0.2398223876953121
 30
0.0
 70
    32
  0
VERTEX
  5
100003D3
  8
VISIBLE
 10
1.96953125
 20
0.1832256317138668
 30
0.0
 70
    32
  0
VERTEX
  5
100003D4
  8
VISIBLE
 10
1.971875000000001
 20
0.1446533203124996
 30
0.0
 70
    32
  0
VERTEX
  5
100003D5
  8
VISIBLE
 10
1.974218750000001
 20
0.1262683868408199
 30
0.0
 70
    32
  0
VERTEX
  5
100003D6
  8
VISIBLE
 10
1.974609375000001
 20
0.1253187656402583
 30
0.0
 70
    32
  0
VERTEX
  5
100003D7
  8
VISIBLE
 10
1.9748046875
 20
0.1250799000263209
 30
0.0
 70
    32
  0
VERTEX
  5
100003D8
  8
VISIBLE
 10
1.975000000000001
 20
0.1249999999999996
 30
0.0
 70
    32
  0
VERTEX
  5
100003D9
  8
VISIBLE
 10
1.975195312500001
 20
0.125079900026321
 30
0.0
 70
    32
  0
VERTEX
  5
100003DA
  8
VISIBLE
 10
1.975390625000001
 20
0.1253187656402583
 30
0.0
 70
    32
  0
VERTEX
  5
100003DB
  8
VISIBLE
 10
1.97578125
 20
0.1262683868408199
 30
0.0
 70
    32
  0
VERTEX
  5
100003DC
  8
VISIBLE
 10
1.978125000000001
 20
0.1446533203124996
 30
0.0
 70
    32
  0
VERTEX
  5
100003DD
  8
VISIBLE
 10
1.980468750000001
 20
0.1832256317138669
 30
0.0
 70
    32
  0
VERTEX
  5
100003DE
  8
VISIBLE
 10
1.982812500000001
 20
0.2398223876953122
 30
0.0
 70
    32
  0
VERTEX
  5
100003DF
  8
VISIBLE
 10
1.985156250000001
 20
0.3122806549072263
 30
0.0
 70
    32
  0
VERTEX
  5
100003E0
  8
VISIBLE
 10
1.9875
 20
0.3984374999999998
 30
0.0
 70
    32
  0
VERTEX
  5
100003E1
  8
VISIBLE
 10
1.990625000000001
 20
0.5308837890624998
 30
0.0
 70
    32
  0
VERTEX
  5
100003E2
  8
VISIBLE
 10
1.993750000000001
 20
0.6787109375
 30
0.0
 70
    32
  0
VERTEX
  5
100003E3
  8
VISIBLE
 10
1.996875000000001
 20
0.8367919921875001
 30
0.0
 70
    32
  0
VERTEX
  5
100003E4
  8
VISIBLE
 10
2.0
 20
1.0
 30
0.0
 70
    32
  0
SEQEND
  5
1000076F
  8
VISIBLE
  0
LINE
  5
F47C6
  8
VISIBLE
 10
3.25
 20
1.0
 30
0.0
 11
3.000000000000001
 21
1.0
 31
0.0
  0
LINE
  5
F47C7
  8
VISIBLE
 10
3.25
 20
1.0
 30
0.0
 11
3.25
 21
-1.0
 31
0.0
  0
LINE
  5
F47C8
  8
VISIBLE
 10
3.25
 20
-1.0
 30
0.0
 11
3.000000000000001
 21
-1.0
 31
0.0
  0
POLYLINE
  5
F47C9
  8
VISIBLE
 10
0.0
 20
0.0
 30
0.0
 66
     1
 70
     8
  0
VERTEX
  5
100003ED
  8
VISIBLE
 10
2.950000000000001
 20
1.0
 30
0.0
 70
    32
  0
VERTEX
  5
100003EE
  8
VISIBLE
 10
2.953125000000001
 20
0.8367919921875001
 30
0.0
 70
    32
  0
VERTEX
  5
100003EF
  8
VISIBLE
 10
2.956250000000001
 20
0.6787109375
 30
0.0
 70
    32
  0
VERTEX
  5
100003F0
  8
VISIBLE
 10
2.959375000000001
 20
0.5308837890624998
 30
0.0
 70
    32
  0
VERTEX
  5
100003F1
  8
VISIBLE
 10
2.962500000000001
 20
0.3984374999999998
 30
0.0
 70
    32
  0
VERTEX
  5
100003F2
  8
VISIBLE
 10
2.964843750000001
 20
0.3122806549072262
 30
0.0
 70
    32
  0
VERTEX
  5
100003F3
  8
VISIBLE
 10
2.967187500000001
 20
0.2398223876953121
 30
0.0
 70
    32
  0
VERTEX
  5
100003F4
  8
VISIBLE
 10
2.96953125
 20
0.1832256317138668
 30
0.0
 70
    32
  0
VERTEX
  5
100003F5
  8
VISIBLE
 10
2.971875000000001
 20
0.1446533203124996
 30
0.0
 70
    32
  0
VERTEX
  5
100003F6
  8
VISIBLE
 10
2.97421875
 20
0.1262683868408199
 30
0.0
 70
    32
  0
VERTEX
  5
100003F7
  8
VISIBLE
 10
2.974609375000001
 20
0.1253187656402583
 30
0.0
 70
    32
  0
VERTEX
  5
100003F8
  8
VISIBLE
 10
2.974804687500001
 20
0.1250799000263209
 30
0.0
 70
    32
  0
VERTEX
  5
100003F9
  8
VISIBLE
 10
2.975000000000001
 20
0.1249999999999996
 30
0.0
 70
    32
  0
VERTEX
  5
100003FA
  8
VISIBLE
 10
2.975195312500001
 20
0.125079900026321
 30
0.0
 70
    32
  0
VERTEX
  5
100003FB
  8
VISIBLE
 10
2.975390625
 20
0.1253187656402583
 30
0.0
 70
    32
  0
VERTEX
  5
100003FC
  8
VISIBLE
 10
2.975781250000001
 20
0.1262683868408199
 30
0.0
 70
    32
  0
VERTEX
  5
100003FD
  8
VISIBLE
 10
2.978125000000001
 20
0.1446533203124996
 30
0.0
 70
    32
  0
VERTEX
  5
100003FE
  8
VISIBLE
 10
2.980468750000001
 20
0.1832256317138669
 30
0.0
 70
    32
  0
VERTEX
  5
100003FF
  8
VISIBLE
 10
2.982812500000001
 20
0.2398223876953122
 30
0.0
 70
    32
  0
VERTEX
  5
10000400
  8
VISIBLE
 10
2.985156250000001
 20
0.3122806549072263
 30
0.0
 70
    32
  0
VERTEX
  5
10000401
  8
VISIBLE
 10
2.987500000000001
 20
0.3984374999999998
 30
0.0
 70
    32
  0
VERTEX
  5
10000402
  8
VISIBLE
 10
2.990625000000002
 20
0.5308837890624998
 30
0.0
 70
    32
  0
VERTEX
  5
10000403
  8
VISIBLE
 10
2.993750000000001
 20
0.6787109375
 30
0.0
 70
    32
  0
VERTEX
  5
10000404
  8
VISIBLE
 10
2.996875000000001
 20
0.8367919921875001
 30
0.0
 70
    32
  0
VERTEX
  5
10000405
  8
VISIBLE
 10
3.000000000000001
 20
1.0
 30
0.0
 70
    32
  0
SEQEND
  5
10000770
  8
VISIBLE
  0
POLYLINE
  5
F47CA
  8
VISIBLE
 10
0.0
 20
0.0
 30
0.0
 66
     1
 70
     8
  0
VERTEX
  5
10000408
  8
VISIBLE
 10
2.950000000000001
 20
-1.0
 30
0.0
 70
    32
  0
VERTEX
  5
10000409
  8
VISIBLE
 10
2.953125000000001
 20
-0.8367919921875
 30
0.0
 70
    32
  0
VERTEX
  5
1000040A
  8
VISIBLE
 10
2.956250000000001
 20
-0.6787109374999997
 30
0.0
 70
    32
  0
VERTEX
  5
1000040B
  8
VISIBLE
 10
2.959375000000001
 20
-0.5308837890624999
 30
0.0
 70
    32
  0
VERTEX
  5
1000040C
  8
VISIBLE
 10
2.962500000000001
 20
-0.3984374999999998
 30
0.0
 70
    32
  0
VERTEX
  5
1000040D
  8
VISIBLE
 10
2.964843750000001
 20
-0.3122806549072264
 30
0.0
 70
    32
  0
VERTEX
  5
1000040E
  8
VISIBLE
 10
2.967187500000001
 20
-0.2398223876953123
 30
0.0
 70
    32
  0
VERTEX
  5
1000040F
  8
VISIBLE
 10
2.96953125
 20
-0.1832256317138671
 30
0.0
 70
    32
  0
VERTEX
  5
10000410
  8
VISIBLE
 10
2.971875000000001
 20
-0.1446533203124999
 30
0.0
 70
    32
  0
VERTEX
  5
10000411
  8
VISIBLE
 10
2.97421875
 20
-0.1262683868408202
 30
0.0
 70
    32
  0
VERTEX
  5
10000412
  8
VISIBLE
 10
2.974609375000001
 20
-0.1253187656402587
 30
0.0
 70
    32
  0
VERTEX
  5
10000413
  8
VISIBLE
 10
2.974804687500001
 20
-0.1250799000263213
 30
0.0
 70
    32
  0
VERTEX
  5
10000414
  8
VISIBLE
 10
2.975000000000001
 20
-0.1249999999999999
 30
0.0
 70
    32
  0
VERTEX
  5
10000415
  8
VISIBLE
 10
2.975195312500001
 20
-0.1250799000263213
 30
0.0
 70
    32
  0
VERTEX
  5
10000416
  8
VISIBLE
 10
2.975390625
 20
-0.1253187656402587
 30
0.0
 70
    32
  0
VERTEX
  5
10000417
  8
VISIBLE
 10
2.975781250000001
 20
-0.1262683868408202
 30
0.0
 70
    32
  0
VERTEX
  5
10000418
  8
VISIBLE
 10
2.978125000000001
 20
-0.1446533203124999
 30
0.0
 70
    32
  0
VERTEX
  5
10000419
  8
VISIBLE
 10
2.980468750000001
 20
-0.183225631713867
 30
0.0
 70
    32
  0
VERTEX
  5
1000041A
  8
VISIBLE
 10
2.982812500000001
 20
-0.2398223876953123
 30
0.0
 70
    32
  0
VERTEX
  5
1000041B
  8
VISIBLE
 10
2.985156250000001
 20
-0.3122806549072264
 30
0.0
 70
    32
  0
VERTEX
  5
1000041C
  8
VISIBLE
 10
2.987500000000001
 20
-0.3984374999999998
 30
0.0
 70
    32
  0
VERTEX
  5
1000041D
  8
VISIBLE
 10
2.990625000000002
 20
-0.5308837890624999
 30
0.0
 70
    32
  0
VERTEX
  5
1000041E
  8
VISIBLE
 10
2.993750000000001
 20
-0.6787109374999998
 30
0.0
 70
    32
  0
VERTEX
  5
1000041F
  8
VISIBLE
 10
2.996875000000001
 20
-0.8367919921875
 30
0.0
 70
    32
  0
VERTEX
  5
10000420
  8
VISIBLE
 10
3.000000000000001
 20
-1.0
 30
0.0
 70
    32
  0
SEQEND
  5
10000771
  8
VISIBLE
  0
LINE
  5
F47CB
  8
VISIBLE
 10
2.950000000000001
 20
1.0
 30
0.0
 11
2.800000000000001
 21
1.0
 31
0.0
  0
POLYLINE
  5
F47CC
  8
VISIBLE
 10
0.0
 20
0.0
 30
0.0
 66
     1
 70
     8
  0
VERTEX
  5
10000425
  8
VISIBLE
 10
3.050000000000001
 20
0.0
 30
0.0
 70
    32
  0
VERTEX
  5
10000426
  8
VISIBLE
 10
3.0505615234375
 20
0.1632080078125001
 30
0.0
 70
    32
  0
VERTEX
  5
10000427
  8
VISIBLE
 10
3.052148437500001
 20
0.3212890625000002
 30
0.0
 70
    32
  0
VERTEX
  5
10000428
  8
VISIBLE
 10
3.0546142578125
 20
0.4691162109375001
 30
0.0
 70
    32
  0
VERTEX
  5
10000429
  8
VISIBLE
 10
3.0578125
 20
0.6015625000000001
 30
0.0
 70
    32
  0
VERTEX
  5
1000042A
  8
VISIBLE
 10
3.060603713989258
 20
0.6877193450927735
 30
0.0
 70
    32
  0
VERTEX
  5
1000042B
  8
VISIBLE
 10
3.063662719726563
 20
0.7601776123046876
 30
0.0
 70
    32
  0
VERTEX
  5
1000042C
  8
VISIBLE
 10
3.066927719116212
 20
0.816774368286133
 30
0.0
 70
    32
  0
VERTEX
  5
1000042D
  8
VISIBLE
 10
3.070336914062501
 20
0.8553466796875002
 30
0.0
 70
    32
  0
VERTEX
  5
1000042E
  8
VISIBLE
 10
3.072659301757813
 20
0.8699798583984375
 30
0.0
 70
    32
  0
VERTEX
  5
1000042F
  8
VISIBLE
 10
3.073828506469727
 20
0.8737316131591798
 30
0.0
 70
    32
  0
VERTEX
  5
10000430
  8
VISIBLE
 10
3.074414110183716
 20
0.8746812343597413
 30
0.0
 70
    32
  0
VERTEX
  5
10000431
  8
VISIBLE
 10
3.075
 20
0.8750000000000001
 30
0.0
 70
    32
  0
VERTEX
  5
10000432
  8
VISIBLE
 10
3.075585889816284
 20
0.8746812343597412
 30
0.0
 70
    32
  0
VERTEX
  5
10000433
  8
VISIBLE
 10
3.076171493530274
 20
0.8737316131591797
 30
0.0
 70
    32
  0
VERTEX
  5
10000434
  8
VISIBLE
 10
3.077340698242188
 20
0.8699798583984374
 30
0.0
 70
    32
  0
VERTEX
  5
10000435
  8
VISIBLE
 10
3.0796630859375
 20
0.8553466796875002
 30
0.0
 70
    32
  0
VERTEX
  5
10000436
  8
VISIBLE
 10
3.08307228088379
 20
0.816774368286133
 30
0.0
 70
    32
  0
VERTEX
  5
10000437
  8
VISIBLE
 10
3.086337280273437
 20
0.7601776123046876
 30
0.0
 70
    32
  0
VERTEX
  5
10000438
  8
VISIBLE
 10
3.089396286010743
 20
0.6877193450927735
 30
0.0
 70
    32
  0
VERTEX
  5
10000439
  8
VISIBLE
 10
3.092187500000001
 20
0.6015625
 30
0.0
 70
    32
  0
VERTEX
  5
1000043A
  8
VISIBLE
 10
3.095385742187501
 20
0.4691162109374999
 30
0.0
 70
    32
  0
VERTEX
  5
1000043B
  8
VISIBLE
 10
3.0978515625
 20
0.3212890625
 30
0.0
 70
    32
  0
VERTEX
  5
1000043C
  8
VISIBLE
 10
3.099438476562501
 20
0.1632080078124999
 30
0.0
 70
    32
  0
VERTEX
  5
1000043D
  8
VISIBLE
 10
3.1
 20
-0.0000000000000001
 30
0.0
 70
    32
  0
VERTEX
  5
1000043E
  8
VISIBLE
 10
3.099438476562501
 20
-0.1632080078125002
 30
0.0
 70
    32
  0
VERTEX
  5
1000043F
  8
VISIBLE
 10
3.0978515625
 20
-0.3212890625000002
 30
0.0
 70
    32
  0
VERTEX
  5
10000440
  8
VISIBLE
 10
3.095385742187501
 20
-0.4691162109375002
 30
0.0
 70
    32
  0
VERTEX
  5
10000441
  8
VISIBLE
 10
3.0921875
 20
-0.6015625000000002
 30
0.0
 70
    32
  0
VERTEX
  5
10000442
  8
VISIBLE
 10
3.089396286010743
 20
-0.6877193450927737
 30
0.0
 70
    32
  0
VERTEX
  5
10000443
  8
VISIBLE
 10
3.086337280273437
 20
-0.7601776123046878
 30
0.0
 70
    32
  0
VERTEX
  5
10000444
  8
VISIBLE
 10
3.08307228088379
 20
-0.816774368286133
 30
0.0
 70
    32
  0
VERTEX
  5
10000445
  8
VISIBLE
 10
3.0796630859375
 20
-0.8553466796875003
 30
0.0
 70
    32
  0
VERTEX
  5
10000446
  8
VISIBLE
 10
3.077340698242187
 20
-0.8699798583984377
 30
0.0
 70
    32
  0
VERTEX
  5
10000447
  8
VISIBLE
 10
3.076171493530274
 20
-0.8737316131591799
 30
0.0
 70
    32
  0
VERTEX
  5
10000448
  8
VISIBLE
 10
3.075585889816284
 20
-0.8746812343597413
 30
0.0
 70
    32
  0
VERTEX
  5
10000449
  8
VISIBLE
 10
3.075
 20
-0.8750000000000002
 30
0.0
 70
    32
  0
VERTEX
  5
1000044A
  8
VISIBLE
 10
3.074414110183716
 20
-0.8746812343597413
 30
0.0
 70
    32
  0
VERTEX
  5
1000044B
  8
VISIBLE
 10
3.073828506469727
 20
-0.8737316131591798
 30
0.0
 70
    32
  0
VERTEX
  5
1000044C
  8
VISIBLE
 10
3.072659301757812
 20
-0.8699798583984375
 30
0.0
 70
    32
  0
VERTEX
  5
1000044D
  8
VISIBLE
 10
3.0703369140625
 20
-0.8553466796875002
 30
0.0
 70
    32
  0
VERTEX
  5
1000044E
  8
VISIBLE
 10
3.066927719116212
 20
-0.816774368286133
 30
0.0
 70
    32
  0
VERTEX
  5
1000044F
  8
VISIBLE
 10
3.063662719726563
 20
-0.7601776123046876
 30
0.0
 70
    32
  0
VERTEX
  5
10000450
  8
VISIBLE
 10
3.060603713989258
 20
-0.6877193450927735
 30
0.0
 70
    32
  0
VERTEX
  5
10000451
  8
VISIBLE
 10
3.0578125
 20
-0.6015625000000001
 30
0.0
 70
    32
  0
VERTEX
  5
10000452
  8
VISIBLE
 10
3.0546142578125
 20
-0.4691162109375001
 30
0.0
 70
    32
  0
VERTEX
  5
10000453
  8
VISIBLE
 10
3.052148437500001
 20
-0.3212890625000002
 30
0.0
 70
    32
  0
VERTEX
  5
10000454
  8
VISIBLE
 10
3.0505615234375
 20
-0.1632080078125001
 30
0.0
 70
    32
  0
VERTEX
  5
10000455
  8
VISIBLE
 10
3.050000000000001
 20
0.0
 30
0.0
 70
    32
  0
SEQEND
  5
10000772
  8
VISIBLE
  0
POLYLINE
  5
F47CD
  8
VISIBLE
 10
0.0
 20
0.0
 30
0.0
 66
     1
 70
     8
  0
VERTEX
  5
10000458
  8
VISIBLE
 10
3.000000000000001
 20
1.0
 30
0.0
 70
    32
  0
VERTEX
  5
10000459
  8
VISIBLE
 10
2.996875000000001
 20
0.8367919921875001
 30
0.0
 70
    32
  0
VERTEX
  5
1000045A
  8
VISIBLE
 10
2.993750000000001
 20
0.6787109375
 30
0.0
 70
    32
  0
VERTEX
  5
1000045B
  8
VISIBLE
 10
2.990625000000002
 20
0.5308837890624998
 30
0.0
 70
    32
  0
VERTEX
  5
1000045C
  8
VISIBLE
 10
2.987500000000001
 20
0.3984374999999998
 30
0.0
 70
    32
  0
VERTEX
  5
1000045D
  8
VISIBLE
 10
2.985156250000001
 20
0.3122806549072262
 30
0.0
 70
    32
  0
VERTEX
  5
1000045E
  8
VISIBLE
 10
2.982812500000001
 20
0.2398223876953121
 30
0.0
 70
    32
  0
VERTEX
  5
1000045F
  8
VISIBLE
 10
2.980468750000001
 20
0.1832256317138668
 30
0.0
 70
    32
  0
VERTEX
  5
10000460
  8
VISIBLE
 10
2.978125000000001
 20
0.1446533203124996
 30
0.0
 70
    32
  0
VERTEX
  5
10000461
  8
VISIBLE
 10
2.975781250000002
 20
0.1262683868408199
 30
0.0
 70
    32
  0
VERTEX
  5
10000462
  8
VISIBLE
 10
2.975390625000001
 20
0.1253187656402583
 30
0.0
 70
    32
  0
VERTEX
  5
10000463
  8
VISIBLE
 10
2.975195312500001
 20
0.1250799000263209
 30
0.0
 70
    32
  0
VERTEX
  5
10000464
  8
VISIBLE
 10
2.975000000000001
 20
0.1249999999999996
 30
0.0
 70
    32
  0
VERTEX
  5
10000465
  8
VISIBLE
 10
2.974804687500002
 20
0.125079900026321
 30
0.0
 70
    32
  0
VERTEX
  5
10000466
  8
VISIBLE
 10
2.974609375000001
 20
0.1253187656402583
 30
0.0
 70
    32
  0
VERTEX
  5
10000467
  8
VISIBLE
 10
2.974218750000001
 20
0.1262683868408199
 30
0.0
 70
    32
  0
VERTEX
  5
10000468
  8
VISIBLE
 10
2.971875000000001
 20
0.1446533203124996
 30
0.0
 70
    32
  0
VERTEX
  5
10000469
  8
VISIBLE
 10
2.969531250000001
 20
0.1832256317138669
 30
0.0
 70
    32
  0
VERTEX
  5
1000046A
  8
VISIBLE
 10
2.967187500000001
 20
0.2398223876953122
 30
0.0
 70
    32
  0
VERTEX
  5
1000046B
  8
VISIBLE
 10
2.964843750000001
 20
0.3122806549072263
 30
0.0
 70
    32
  0
VERTEX
  5
1000046C
  8
VISIBLE
 10
2.962500000000001
 20
0.3984374999999998
 30
0.0
 70
    32
  0
VERTEX
  5
1000046D
  8
VISIBLE
 10
2.959375000000001
 20
0.5308837890624998
 30
0.0
 70
    32
  0
VERTEX
  5
1000046E
  8
VISIBLE
 10
2.956250000000001
 20
0.6787109375
 30
0.0
 70
    32
  0
VERTEX
  5
1000046F
  8
VISIBLE
 10
2.953125000000001
 20
0.8367919921875001
 30
0.0
 70
    32
  0
VERTEX
  5
10000470
  8
VISIBLE
 10
2.950000000000001
 20
1.0
 30
0.0
 70
    32
  0
SEQEND
  5
10000773
  8
VISIBLE
  0
LINE
  5
F47CE
  8
VISIBLE
 10
2.950000000000001
 20
-1.0
 30
0.0
 11
2.800000000000001
 21
-1.0
 31
0.0
  0
LINE
  5
F47CF
  8
VISIBLE
 10
2.775000000000001
 20
-0.1249999999999999
 30
0.0
 11
2.775000000000001
 21
0.1249999999999996
 31
0.0
  0
POLYLINE
  5
F47D0
  8
VISIBLE
 10
0.0
 20
0.0
 30
0.0
 66
     1
 70
     8
  0
VERTEX
  5
10000477
  8
VISIBLE
 10
2.900000000000001
 20
0.0
 30
0.0
 70
    32
  0
VERTEX
  5
10000478
  8
VISIBLE
 10
2.899438476562502
 20
0.1632080078125001
 30
0.0
 70
    32
  0
VERTEX
  5
10000479
  8
VISIBLE
 10
2.897851562500001
 20
0.3212890625000002
 30
0.0
 70
    32
  0
VERTEX
  5
1000047A
  8
VISIBLE
 10
2.895385742187501
 20
0.4691162109375001
 30
0.0
 70
    32
  0
VERTEX
  5
1000047B
  8
VISIBLE
 10
2.892187500000002
 20
0.6015625000000001
 30
0.0
 70
    32
  0
VERTEX
  5
1000047C
  8
VISIBLE
 10
2.889396286010744
 20
0.6877193450927735
 30
0.0
 70
    32
  0
VERTEX
  5
1000047D
  8
VISIBLE
 10
2.886337280273438
 20
0.7601776123046876
 30
0.0
 70
    32
  0
VERTEX
  5
1000047E
  8
VISIBLE
 10
2.883072280883791
 20
0.816774368286133
 30
0.0
 70
    32
  0
VERTEX
  5
1000047F
  8
VISIBLE
 10
2.879663085937501
 20
0.8553466796875002
 30
0.0
 70
    32
  0
VERTEX
  5
10000480
  8
VISIBLE
 10
2.877340698242189
 20
0.8699798583984374
 30
0.0
 70
    32
  0
VERTEX
  5
10000481
  8
VISIBLE
 10
2.876171493530275
 20
0.8737316131591797
 30
0.0
 70
    32
  0
VERTEX
  5
10000482
  8
VISIBLE
 10
2.875585889816285
 20
0.8746812343597412
 30
0.0
 70
    32
  0
VERTEX
  5
10000483
  8
VISIBLE
 10
2.875000000000001
 20
0.8750000000000001
 30
0.0
 70
    32
  0
VERTEX
  5
10000484
  8
VISIBLE
 10
2.874414110183717
 20
0.8746812343597412
 30
0.0
 70
    32
  0
VERTEX
  5
10000485
  8
VISIBLE
 10
2.873828506469728
 20
0.8737316131591797
 30
0.0
 70
    32
  0
VERTEX
  5
10000486
  8
VISIBLE
 10
2.872659301757814
 20
0.8699798583984374
 30
0.0
 70
    32
  0
VERTEX
  5
10000487
  8
VISIBLE
 10
2.870336914062501
 20
0.8553466796875002
 30
0.0
 70
    32
  0
VERTEX
  5
10000488
  8
VISIBLE
 10
2.866927719116212
 20
0.816774368286133
 30
0.0
 70
    32
  0
VERTEX
  5
10000489
  8
VISIBLE
 10
2.863662719726564
 20
0.7601776123046876
 30
0.0
 70
    32
  0
VERTEX
  5
1000048A
  8
VISIBLE
 10
2.860603713989259
 20
0.6877193450927734
 30
0.0
 70
    32
  0
VERTEX
  5
1000048B
  8
VISIBLE
 10
2.857812500000001
 20
0.6015625
 30
0.0
 70
    32
  0
VERTEX
  5
1000048C
  8
VISIBLE
 10
2.854614257812501
 20
0.4691162109374999
 30
0.0
 70
    32
  0
VERTEX
  5
1000048D
  8
VISIBLE
 10
2.852148437500002
 20
0.3212890624999999
 30
0.0
 70
    32
  0
VERTEX
  5
1000048E
  8
VISIBLE
 10
2.850561523437501
 20
0.1632080078124999
 30
0.0
 70
    32
  0
VERTEX
  5
1000048F
  8
VISIBLE
 10
2.850000000000001
 20
-0.0000000000000001
 30
0.0
 70
    32
  0
VERTEX
  5
10000490
  8
VISIBLE
 10
2.850561523437501
 20
-0.1632080078125002
 30
0.0
 70
    32
  0
VERTEX
  5
10000491
  8
VISIBLE
 10
2.852148437500002
 20
-0.3212890625000003
 30
0.0
 70
    32
  0
VERTEX
  5
10000492
  8
VISIBLE
 10
2.854614257812501
 20
-0.4691162109375002
 30
0.0
 70
    32
  0
VERTEX
  5
10000493
  8
VISIBLE
 10
2.857812500000001
 20
-0.6015625000000002
 30
0.0
 70
    32
  0
VERTEX
  5
10000494
  8
VISIBLE
 10
2.860603713989259
 20
-0.6877193450927737
 30
0.0
 70
    32
  0
VERTEX
  5
10000495
  8
VISIBLE
 10
2.863662719726565
 20
-0.7601776123046878
 30
0.0
 70
    32
  0
VERTEX
  5
10000496
  8
VISIBLE
 10
2.866927719116213
 20
-0.816774368286133
 30
0.0
 70
    32
  0
VERTEX
  5
10000497
  8
VISIBLE
 10
2.870336914062502
 20
-0.8553466796875003
 30
0.0
 70
    32
  0
VERTEX
  5
10000498
  8
VISIBLE
 10
2.872659301757814
 20
-0.8699798583984377
 30
0.0
 70
    32
  0
VERTEX
  5
10000499
  8
VISIBLE
 10
2.873828506469728
 20
-0.8737316131591799
 30
0.0
 70
    32
  0
VERTEX
  5
1000049A
  8
VISIBLE
 10
2.874414110183718
 20
-0.8746812343597413
 30
0.0
 70
    32
  0
VERTEX
  5
1000049B
  8
VISIBLE
 10
2.875000000000001
 20
-0.8750000000000002
 30
0.0
 70
    32
  0
VERTEX
  5
1000049C
  8
VISIBLE
 10
2.875585889816286
 20
-0.8746812343597413
 30
0.0
 70
    32
  0
VERTEX
  5
1000049D
  8
VISIBLE
 10
2.876171493530276
 20
-0.8737316131591799
 30
0.0
 70
    32
  0
VERTEX
  5
1000049E
  8
VISIBLE
 10
2.877340698242189
 20
-0.8699798583984377
 30
0.0
 70
    32
  0
VERTEX
  5
1000049F
  8
VISIBLE
 10
2.879663085937501
 20
-0.8553466796875002
 30
0.0
 70
    32
  0
VERTEX
  5
100004A0
  8
VISIBLE
 10
2.883072280883791
 20
-0.816774368286133
 30
0.0
 70
    32
  0
VERTEX
  5
100004A1
  8
VISIBLE
 10
2.886337280273439
 20
-0.7601776123046876
 30
0.0
 70
    32
  0
VERTEX
  5
100004A2
  8
VISIBLE
 10
2.889396286010744
 20
-0.6877193450927735
 30
0.0
 70
    32
  0
VERTEX
  5
100004A3
  8
VISIBLE
 10
2.892187500000002
 20
-0.6015625000000001
 30
0.0
 70
    32
  0
VERTEX
  5
100004A4
  8
VISIBLE
 10
2.895385742187501
 20
-0.4691162109375001
 30
0.0
 70
    32
  0
VERTEX
  5
100004A5
  8
VISIBLE
 10
2.897851562500001
 20
-0.3212890625000002
 30
0.0
 70
    32
  0
VERTEX
  5
100004A6
  8
VISIBLE
 10
2.899438476562502
 20
-0.1632080078125001
 30
0.0
 70
    32
  0
VERTEX
  5
100004A7
  8
VISIBLE
 10
2.900000000000001
 20
0.0
 30
0.0
 70
    32
  0
SEQEND
  5
10000774
  8
VISIBLE
  0
POLYLINE
  5
F47D1
  8
VISIBLE
 10
0.0
 20
0.0
 30
0.0
 66
     1
 70
     8
  0
VERTEX
  5
100004AA
  8
VISIBLE
 10
2.800000000000001
 20
1.0
 30
0.0
 70
    32
  0
VERTEX
  5
100004AB
  8
VISIBLE
 10
2.796875
 20
0.8367919921875001
 30
0.0
 70
    32
  0
VERTEX
  5
100004AC
  8
VISIBLE
 10
2.793750000000001
 20
0.6787109375
 30
0.0
 70
    32
  0
VERTEX
  5
100004AD
  8
VISIBLE
 10
2.790625000000002
 20
0.5308837890624998
 30
0.0
 70
    32
  0
VERTEX
  5
100004AE
  8
VISIBLE
 10
2.787500000000001
 20
0.3984374999999998
 30
0.0
 70
    32
  0
VERTEX
  5
100004AF
  8
VISIBLE
 10
2.785156250000001
 20
0.3122806549072262
 30
0.0
 70
    32
  0
VERTEX
  5
100004B0
  8
VISIBLE
 10
2.782812500000001
 20
0.2398223876953121
 30
0.0
 70
    32
  0
VERTEX
  5
100004B1
  8
VISIBLE
 10
2.780468750000001
 20
0.1832256317138668
 30
0.0
 70
    32
  0
VERTEX
  5
100004B2
  8
VISIBLE
 10
2.778125000000002
 20
0.1446533203124996
 30
0.0
 70
    32
  0
VERTEX
  5
100004B3
  8
VISIBLE
 10
2.775781250000001
 20
0.1262683868408198
 30
0.0
 70
    32
  0
VERTEX
  5
100004B4
  8
VISIBLE
 10
2.775390625000001
 20
0.1253187656402583
 30
0.0
 70
    32
  0
VERTEX
  5
100004B5
  8
VISIBLE
 10
2.775195312500001
 20
0.1250799000263209
 30
0.0
 70
    32
  0
VERTEX
  5
100004B6
  8
VISIBLE
 10
2.775000000000001
 20
0.1249999999999995
 30
0.0
 70
    32
  0
VERTEX
  5
100004B7
  8
VISIBLE
 10
2.774804687500002
 20
0.1250799000263209
 30
0.0
 70
    32
  0
VERTEX
  5
100004B8
  8
VISIBLE
 10
2.774609375
 20
0.1253187656402583
 30
0.0
 70
    32
  0
VERTEX
  5
100004B9
  8
VISIBLE
 10
2.774218750000001
 20
0.1262683868408198
 30
0.0
 70
    32
  0
VERTEX
  5
100004BA
  8
VISIBLE
 10
2.771875000000001
 20
0.1446533203124996
 30
0.0
 70
    32
  0
VERTEX
  5
100004BB
  8
VISIBLE
 10
2.769531250000001
 20
0.1832256317138668
 30
0.0
 70
    32
  0
VERTEX
  5
100004BC
  8
VISIBLE
 10
2.7671875
 20
0.2398223876953121
 30
0.0
 70
    32
  0
VERTEX
  5
100004BD
  8
VISIBLE
 10
2.764843750000001
 20
0.3122806549072263
 30
0.0
 70
    32
  0
VERTEX
  5
100004BE
  8
VISIBLE
 10
2.762500000000001
 20
0.3984374999999998
 30
0.0
 70
    32
  0
VERTEX
  5
100004BF
  8
VISIBLE
 10
2.759375000000001
 20
0.5308837890624998
 30
0.0
 70
    32
  0
VERTEX
  5
100004C0
  8
VISIBLE
 10
2.756250000000001
 20
0.6787109375
 30
0.0
 70
    32
  0
VERTEX
  5
100004C1
  8
VISIBLE
 10
2.753125000000001
 20
0.8367919921875001
 30
0.0
 70
    32
  0
VERTEX
  5
100004C2
  8
VISIBLE
 10
2.750000000000001
 20
1.0
 30
0.0
 70
    32
  0
SEQEND
  5
10000775
  8
VISIBLE
  0
POLYLINE
  5
F47D2
  8
VISIBLE
 10
0.0
 20
0.0
 30
0.0
 66
     1
 70
     8
  0
VERTEX
  5
100004C5
  8
VISIBLE
 10
1.050000000000004
 20
0.0
 30
0.0
 70
    32
  0
VERTEX
  5
100004C6
  8
VISIBLE
 10
1.050561523437504
 20
0.1632080078125001
 30
0.0
 70
    32
  0
VERTEX
  5
100004C7
  8
VISIBLE
 10
1.052148437500004
 20
0.3212890625000002
 30
0.0
 70
    32
  0
VERTEX
  5
100004C8
  8
VISIBLE
 10
1.054614257812504
 20
0.4691162109375001
 30
0.0
 70
    32
  0
VERTEX
  5
100004C9
  8
VISIBLE
 10
1.057812500000004
 20
0.6015625000000001
 30
0.0
 70
    32
  0
VERTEX
  5
100004CA
  8
VISIBLE
 10
1.060603713989262
 20
0.6877193450927735
 30
0.0
 70
    32
  0
VERTEX
  5
100004CB
  8
VISIBLE
 10
1.063662719726567
 20
0.7601776123046876
 30
0.0
 70
    32
  0
VERTEX
  5
100004CC
  8
VISIBLE
 10
1.066927719116215
 20
0.816774368286133
 30
0.0
 70
    32
  0
VERTEX
  5
100004CD
  8
VISIBLE
 10
1.070336914062504
 20
0.8553466796875002
 30
0.0
 70
    32
  0
VERTEX
  5
100004CE
  8
VISIBLE
 10
1.072659301757817
 20
0.8699798583984375
 30
0.0
 70
    32
  0
VERTEX
  5
100004CF
  8
VISIBLE
 10
1.073828506469731
 20
0.8737316131591798
 30
0.0
 70
    32
  0
VERTEX
  5
100004D0
  8
VISIBLE
 10
1.07441411018372
 20
0.8746812343597413
 30
0.0
 70
    32
  0
VERTEX
  5
100004D1
  8
VISIBLE
 10
1.075000000000004
 20
0.8750000000000001
 30
0.0
 70
    32
  0
VERTEX
  5
100004D2
  8
VISIBLE
 10
1.075585889816288
 20
0.8746812343597412
 30
0.0
 70
    32
  0
VERTEX
  5
100004D3
  8
VISIBLE
 10
1.076171493530278
 20
0.8737316131591797
 30
0.0
 70
    32
  0
VERTEX
  5
100004D4
  8
VISIBLE
 10
1.077340698242192
 20
0.8699798583984374
 30
0.0
 70
    32
  0
VERTEX
  5
100004D5
  8
VISIBLE
 10
1.079663085937504
 20
0.8553466796875002
 30
0.0
 70
    32
  0
VERTEX
  5
100004D6
  8
VISIBLE
 10
1.083072280883793
 20
0.816774368286133
 30
0.0
 70
    32
  0
VERTEX
  5
100004D7
  8
VISIBLE
 10
1.086337280273441
 20
0.7601776123046876
 30
0.0
 70
    32
  0
VERTEX
  5
100004D8
  8
VISIBLE
 10
1.089396286010746
 20
0.6877193450927735
 30
0.0
 70
    32
  0
VERTEX
  5
100004D9
  8
VISIBLE
 10
1.092187500000004
 20
0.6015625
 30
0.0
 70
    32
  0
VERTEX
  5
100004DA
  8
VISIBLE
 10
1.095385742187504
 20
0.4691162109374999
 30
0.0
 70
    32
  0
VERTEX
  5
100004DB
  8
VISIBLE
 10
1.097851562500004
 20
0.3212890625
 30
0.0
 70
    32
  0
VERTEX
  5
100004DC
  8
VISIBLE
 10
1.099438476562504
 20
0.1632080078124999
 30
0.0
 70
    32
  0
VERTEX
  5
100004DD
  8
VISIBLE
 10
1.100000000000004
 20
-0.0000000000000001
 30
0.0
 70
    32
  0
VERTEX
  5
100004DE
  8
VISIBLE
 10
1.099438476562504
 20
-0.1632080078125002
 30
0.0
 70
    32
  0
VERTEX
  5
100004DF
  8
VISIBLE
 10
1.097851562500004
 20
-0.3212890625000002
 30
0.0
 70
    32
  0
VERTEX
  5
100004E0
  8
VISIBLE
 10
1.095385742187504
 20
-0.4691162109375002
 30
0.0
 70
    32
  0
VERTEX
  5
100004E1
  8
VISIBLE
 10
1.092187500000004
 20
-0.6015625000000002
 30
0.0
 70
    32
  0
VERTEX
  5
100004E2
  8
VISIBLE
 10
1.089396286010746
 20
-0.6877193450927737
 30
0.0
 70
    32
  0
VERTEX
  5
100004E3
  8
VISIBLE
 10
1.086337280273442
 20
-0.7601776123046878
 30
0.0
 70
    32
  0
VERTEX
  5
100004E4
  8
VISIBLE
 10
1.083072280883793
 20
-0.816774368286133
 30
0.0
 70
    32
  0
VERTEX
  5
100004E5
  8
VISIBLE
 10
1.079663085937504
 20
-0.8553466796875003
 30
0.0
 70
    32
  0
VERTEX
  5
100004E6
  8
VISIBLE
 10
1.077340698242192
 20
-0.8699798583984377
 30
0.0
 70
    32
  0
VERTEX
  5
100004E7
  8
VISIBLE
 10
1.076171493530278
 20
-0.8737316131591799
 30
0.0
 70
    32
  0
VERTEX
  5
100004E8
  8
VISIBLE
 10
1.075585889816288
 20
-0.8746812343597413
 30
0.0
 70
    32
  0
VERTEX
  5
100004E9
  8
VISIBLE
 10
1.075000000000004
 20
-0.8750000000000001
 30
0.0
 70
    32
  0
VERTEX
  5
100004EA
  8
VISIBLE
 10
1.07441411018372
 20
-0.8746812343597413
 30
0.0
 70
    32
  0
VERTEX
  5
100004EB
  8
VISIBLE
 10
1.073828506469731
 20
-0.8737316131591798
 30
0.0
 70
    32
  0
VERTEX
  5
100004EC
  8
VISIBLE
 10
1.072659301757817
 20
-0.8699798583984375
 30
0.0
 70
    32
  0
VERTEX
  5
100004ED
  8
VISIBLE
 10
1.070336914062504
 20
-0.8553466796875002
 30
0.0
 70
    32
  0
VERTEX
  5
100004EE
  8
VISIBLE
 10
1.066927719116215
 20
-0.816774368286133
 30
0.0
 70
    32
  0
VERTEX
  5
100004EF
  8
VISIBLE
 10
1.063662719726567
 20
-0.7601776123046876
 30
0.0
 70
    32
  0
VERTEX
  5
100004F0
  8
VISIBLE
 10
1.060603713989262
 20
-0.6877193450927735
 30
0.0
 70
    32
  0
VERTEX
  5
100004F1
  8
VISIBLE
 10
1.057812500000004
 20
-0.6015625000000001
 30
0.0
 70
    32
  0
VERTEX
  5
100004F2
  8
VISIBLE
 10
1.054614257812504
 20
-0.4691162109375001
 30
0.0
 70
    32
  0
VERTEX
  5
100004F3
  8
VISIBLE
 10
1.052148437500004
 20
-0.3212890625000002
 30
0.0
 70
    32
  0
VERTEX
  5
100004F4
  8
VISIBLE
 10
1.050561523437504
 20
-0.1632080078125001
 30
0.0
 70
    32
  0
VERTEX
  5
100004F5
  8
VISIBLE
 10
1.050000000000004
 20
0.0
 30
0.0
 70
    32
  0
SEQEND
  5
10000776
  8
VISIBLE
  0
POLYLINE
  5
F47D3
  8
VISIBLE
 10
0.0
 20
0.0
 30
0.0
 66
     1
 70
     8
  0
VERTEX
  5
100004F8
  8
VISIBLE
 10
0.0999999999999967
 20
0.0
 30
0.0
 70
    32
  0
VERTEX
  5
100004F9
  8
VISIBLE
 10
0.0994384765624967
 20
0.1632080078125001
 30
0.0
 70
    32
  0
VERTEX
  5
100004FA
  8
VISIBLE
 10
0.0978515624999966
 20
0.3212890625000002
 30
0.0
 70
    32
  0
VERTEX
  5
100004FB
  8
VISIBLE
 10
0.0953857421874966
 20
0.4691162109375001
 30
0.0
 70
    32
  0
VERTEX
  5
100004FC
  8
VISIBLE
 10
0.0921874999999965
 20
0.6015625000000001
 30
0.0
 70
    32
  0
VERTEX
  5
100004FD
  8
VISIBLE
 10
0.0893962860107386
 20
0.6877193450927735
 30
0.0
 70
    32
  0
VERTEX
  5
100004FE
  8
VISIBLE
 10
0.0863372802734339
 20
0.7601776123046876
 30
0.0
 70
    32
  0
VERTEX
  5
100004FF
  8
VISIBLE
 10
0.0830722808837854
 20
0.816774368286133
 30
0.0
 70
    32
  0
VERTEX
  5
10000500
  8
VISIBLE
 10
0.0796630859374963
 20
0.8553466796875002
 30
0.0
 70
    32
  0
VERTEX
  5
10000501
  8
VISIBLE
 10
0.0773406982421838
 20
0.8699798583984374
 30
0.0
 70
    32
  0
VERTEX
  5
10000502
  8
VISIBLE
 10
0.0761714935302698
 20
0.8737316131591797
 30
0.0
 70
    32
  0
VERTEX
  5
10000503
  8
VISIBLE
 10
0.0755858898162805
 20
0.8746812343597412
 30
0.0
 70
    32
  0
VERTEX
  5
10000504
  8
VISIBLE
 10
0.0749999999999963
 20
0.8750000000000001
 30
0.0
 70
    32
  0
VERTEX
  5
10000505
  8
VISIBLE
 10
0.0744141101837121
 20
0.8746812343597412
 30
0.0
 70
    32
  0
VERTEX
  5
10000506
  8
VISIBLE
 10
0.0738285064697229
 20
0.8737316131591797
 30
0.0
 70
    32
  0
VERTEX
  5
10000507
  8
VISIBLE
 10
0.0726593017578089
 20
0.8699798583984374
 30
0.0
 70
    32
  0
VERTEX
  5
10000508
  8
VISIBLE
 10
0.0703369140624964
 20
0.8553466796875002
 30
0.0
 70
    32
  0
VERTEX
  5
10000509
  8
VISIBLE
 10
0.0669277191162074
 20
0.816774368286133
 30
0.0
 70
    32
  0
VERTEX
  5
1000050A
  8
VISIBLE
 10
0.063662719726559
 20
0.7601776123046876
 30
0.0
 70
    32
  0
VERTEX
  5
1000050B
  8
VISIBLE
 10
0.0606037139892544
 20
0.6877193450927734
 30
0.0
 70
    32
  0
VERTEX
  5
1000050C
  8
VISIBLE
 10
0.0578124999999967
 20
0.6015625
 30
0.0
 70
    32
  0
VERTEX
  5
1000050D
  8
VISIBLE
 10
0.0546142578124968
 20
0.4691162109374999
 30
0.0
 70
    32
  0
VERTEX
  5
1000050E
  8
VISIBLE
 10
0.0521484374999969
 20
0.3212890624999999
 30
0.0
 70
    32
  0
VERTEX
  5
1000050F
  8
VISIBLE
 10
0.050561523437497
 20
0.1632080078124998
 30
0.0
 70
    32
  0
VERTEX
  5
10000510
  8
VISIBLE
 10
0.049999999999997
 20
-0.0000000000000002
 30
0.0
 70
    32
  0
VERTEX
  5
10000511
  8
VISIBLE
 10
0.050561523437497
 20
-0.1632080078125002
 30
0.0
 70
    32
  0
VERTEX
  5
10000512
  8
VISIBLE
 10
0.0521484374999969
 20
-0.3212890625000003
 30
0.0
 70
    32
  0
VERTEX
  5
10000513
  8
VISIBLE
 10
0.0546142578124968
 20
-0.4691162109375002
 30
0.0
 70
    32
  0
VERTEX
  5
10000514
  8
VISIBLE
 10
0.0578124999999967
 20
-0.6015625000000003
 30
0.0
 70
    32
  0
VERTEX
  5
10000515
  8
VISIBLE
 10
0.0606037139892544
 20
-0.6877193450927737
 30
0.0
 70
    32
  0
VERTEX
  5
10000516
  8
VISIBLE
 10
0.063662719726559
 20
-0.7601776123046878
 30
0.0
 70
    32
  0
VERTEX
  5
10000517
  8
VISIBLE
 10
0.0669277191162074
 20
-0.816774368286133
 30
0.0
 70
    32
  0
VERTEX
  5
10000518
  8
VISIBLE
 10
0.0703369140624964
 20
-0.8553466796875003
 30
0.0
 70
    32
  0
VERTEX
  5
10000519
  8
VISIBLE
 10
0.0726593017578089
 20
-0.8699798583984377
 30
0.0
 70
    32
  0
VERTEX
  5
1000051A
  8
VISIBLE
 10
0.0738285064697229
 20
-0.8737316131591799
 30
0.0
 70
    32
  0
VERTEX
  5
1000051B
  8
VISIBLE
 10
0.0744141101837121
 20
-0.8746812343597413
 30
0.0
 70
    32
  0
VERTEX
  5
1000051C
  8
VISIBLE
 10
0.0749999999999963
 20
-0.8750000000000002
 30
0.0
 70
    32
  0
VERTEX
  5
1000051D
  8
VISIBLE
 10
0.0755858898162805
 20
-0.8746812343597413
 30
0.0
 70
    32
  0
VERTEX
  5
1000051E
  8
VISIBLE
 10
0.0761714935302698
 20
-0.8737316131591799
 30
0.0
 70
    32
  0
VERTEX
  5
1000051F
  8
VISIBLE
 10
0.0773406982421838
 20
-0.8699798583984377
 30
0.0
 70
    32
  0
VERTEX
  5
10000520
  8
VISIBLE
 10
0.0796630859374963
 20
-0.8553466796875003
 30
0.0
 70
    32
  0
VERTEX
  5
10000521
  8
VISIBLE
 10
0.0830722808837854
 20
-0.816774368286133
 30
0.0
 70
    32
  0
VERTEX
  5
10000522
  8
VISIBLE
 10
0.0863372802734339
 20
-0.7601776123046876
 30
0.0
 70
    32
  0
VERTEX
  5
10000523
  8
VISIBLE
 10
0.0893962860107386
 20
-0.6877193450927735
 30
0.0
 70
    32
  0
VERTEX
  5
10000524
  8
VISIBLE
 10
0.0921874999999965
 20
-0.6015625000000001
 30
0.0
 70
    32
  0
VERTEX
  5
10000525
  8
VISIBLE
 10
0.0953857421874966
 20
-0.4691162109375001
 30
0.0
 70
    32
  0
VERTEX
  5
10000526
  8
VISIBLE
 10
0.0978515624999966
 20
-0.3212890625000002
 30
0.0
 70
    32
  0
VERTEX
  5
10000527
  8
VISIBLE
 10
0.0994384765624967
 20
-0.1632080078125001
 30
0.0
 70
    32
  0
VERTEX
  5
10000528
  8
VISIBLE
 10
0.0999999999999967
 20
0.0
 30
0.0
 70
    32
  0
SEQEND
  5
10000777
  8
VISIBLE
  0
POLYLINE
  5
F47D4
  8
VISIBLE
 10
0.0
 20
0.0
 30
0.0
 66
     1
 70
     8
  0
VERTEX
  5
1000052B
  8
VISIBLE
 10
2.100000000000001
 20
0.0
 30
0.0
 70
    32
  0
VERTEX
  5
1000052C
  8
VISIBLE
 10
2.099438476562501
 20
0.1632080078125001
 30
0.0
 70
    32
  0
VERTEX
  5
1000052D
  8
VISIBLE
 10
2.097851562500001
 20
0.3212890625000002
 30
0.0
 70
    32
  0
VERTEX
  5
1000052E
  8
VISIBLE
 10
2.095385742187501
 20
0.4691162109375001
 30
0.0
 70
    32
  0
VERTEX
  5
1000052F
  8
VISIBLE
 10
2.092187500000001
 20
0.6015625000000001
 30
0.0
 70
    32
  0
VERTEX
  5
10000530
  8
VISIBLE
 10
2.089396286010742
 20
0.6877193450927735
 30
0.0
 70
    32
  0
VERTEX
  5
10000531
  8
VISIBLE
 10
2.086337280273438
 20
0.7601776123046876
 30
0.0
 70
    32
  0
VERTEX
  5
10000532
  8
VISIBLE
 10
2.08307228088379
 20
0.816774368286133
 30
0.0
 70
    32
  0
VERTEX
  5
10000533
  8
VISIBLE
 10
2.079663085937501
 20
0.8553466796875002
 30
0.0
 70
    32
  0
VERTEX
  5
10000534
  8
VISIBLE
 10
2.077340698242188
 20
0.8699798583984374
 30
0.0
 70
    32
  0
VERTEX
  5
10000535
  8
VISIBLE
 10
2.076171493530274
 20
0.8737316131591797
 30
0.0
 70
    32
  0
VERTEX
  5
10000536
  8
VISIBLE
 10
2.075585889816285
 20
0.8746812343597412
 30
0.0
 70
    32
  0
VERTEX
  5
10000537
  8
VISIBLE
 10
2.075000000000001
 20
0.8750000000000001
 30
0.0
 70
    32
  0
VERTEX
  5
10000538
  8
VISIBLE
 10
2.074414110183716
 20
0.8746812343597412
 30
0.0
 70
    32
  0
VERTEX
  5
10000539
  8
VISIBLE
 10
2.073828506469728
 20
0.8737316131591797
 30
0.0
 70
    32
  0
VERTEX
  5
1000053A
  8
VISIBLE
 10
2.072659301757813
 20
0.8699798583984374
 30
0.0
 70
    32
  0
VERTEX
  5
1000053B
  8
VISIBLE
 10
2.070336914062501
 20
0.8553466796875002
 30
0.0
 70
    32
  0
VERTEX
  5
1000053C
  8
VISIBLE
 10
2.066927719116212
 20
0.816774368286133
 30
0.0
 70
    32
  0
VERTEX
  5
1000053D
  8
VISIBLE
 10
2.063662719726563
 20
0.7601776123046876
 30
0.0
 70
    32
  0
VERTEX
  5
1000053E
  8
VISIBLE
 10
2.060603713989259
 20
0.6877193450927734
 30
0.0
 70
    32
  0
VERTEX
  5
1000053F
  8
VISIBLE
 10
2.057812500000001
 20
0.6015625
 30
0.0
 70
    32
  0
VERTEX
  5
10000540
  8
VISIBLE
 10
2.054614257812501
 20
0.4691162109374999
 30
0.0
 70
    32
  0
VERTEX
  5
10000541
  8
VISIBLE
 10
2.052148437500001
 20
0.3212890625
 30
0.0
 70
    32
  0
VERTEX
  5
10000542
  8
VISIBLE
 10
2.050561523437501
 20
0.1632080078124999
 30
0.0
 70
    32
  0
VERTEX
  5
10000543
  8
VISIBLE
 10
2.050000000000001
 20
-0.0000000000000001
 30
0.0
 70
    32
  0
VERTEX
  5
10000544
  8
VISIBLE
 10
2.050561523437501
 20
-0.1632080078125002
 30
0.0
 70
    32
  0
VERTEX
  5
10000545
  8
VISIBLE
 10
2.052148437500001
 20
-0.3212890625000002
 30
0.0
 70
    32
  0
VERTEX
  5
10000546
  8
VISIBLE
 10
2.054614257812501
 20
-0.4691162109375002
 30
0.0
 70
    32
  0
VERTEX
  5
10000547
  8
VISIBLE
 10
2.057812500000001
 20
-0.6015625000000002
 30
0.0
 70
    32
  0
VERTEX
  5
10000548
  8
VISIBLE
 10
2.060603713989259
 20
-0.6877193450927737
 30
0.0
 70
    32
  0
VERTEX
  5
10000549
  8
VISIBLE
 10
2.063662719726563
 20
-0.7601776123046878
 30
0.0
 70
    32
  0
VERTEX
  5
1000054A
  8
VISIBLE
 10
2.066927719116212
 20
-0.816774368286133
 30
0.0
 70
    32
  0
VERTEX
  5
1000054B
  8
VISIBLE
 10
2.070336914062501
 20
-0.8553466796875003
 30
0.0
 70
    32
  0
VERTEX
  5
1000054C
  8
VISIBLE
 10
2.072659301757813
 20
-0.8699798583984377
 30
0.0
 70
    32
  0
VERTEX
  5
1000054D
  8
VISIBLE
 10
2.073828506469728
 20
-0.8737316131591799
 30
0.0
 70
    32
  0
VERTEX
  5
1000054E
  8
VISIBLE
 10
2.074414110183716
 20
-0.8746812343597413
 30
0.0
 70
    32
  0
VERTEX
  5
1000054F
  8
VISIBLE
 10
2.075000000000001
 20
-0.8750000000000002
 30
0.0
 70
    32
  0
VERTEX
  5
10000550
  8
VISIBLE
 10
2.075585889816285
 20
-0.8746812343597413
 30
0.0
 70
    32
  0
VERTEX
  5
10000551
  8
VISIBLE
 10
2.076171493530274
 20
-0.8737316131591799
 30
0.0
 70
    32
  0
VERTEX
  5
10000552
  8
VISIBLE
 10
2.077340698242188
 20
-0.8699798583984377
 30
0.0
 70
    32
  0
VERTEX
  5
10000553
  8
VISIBLE
 10
2.079663085937501
 20
-0.8553466796875002
 30
0.0
 70
    32
  0
VERTEX
  5
10000554
  8
VISIBLE
 10
2.08307228088379
 20
-0.816774368286133
 30
0.0
 70
    32
  0
VERTEX
  5
10000555
  8
VISIBLE
 10
2.086337280273438
 20
-0.7601776123046876
 30
0.0
 70
    32
  0
VERTEX
  5
10000556
  8
VISIBLE
 10
2.089396286010742
 20
-0.6877193450927735
 30
0.0
 70
    32
  0
VERTEX
  5
10000557
  8
VISIBLE
 10
2.092187500000001
 20
-0.6015625000000001
 30
0.0
 70
    32
  0
VERTEX
  5
10000558
  8
VISIBLE
 10
2.095385742187501
 20
-0.4691162109375001
 30
0.0
 70
    32
  0
VERTEX
  5
10000559
  8
VISIBLE
 10
2.097851562500001
 20
-0.3212890625000002
 30
0.0
 70
    32
  0
VERTEX
  5
1000055A
  8
VISIBLE
 10
2.099438476562501
 20
-0.1632080078125001
 30
0.0
 70
    32
  0
VERTEX
  5
1000055B
  8
VISIBLE
 10
2.100000000000001
 20
0.0
 30
0.0
 70
    32
  0
SEQEND
  5
10000778
  8
VISIBLE
  0
LINE
  5
F47D5
  8
VISIBLE
 10
1.550000000000001
 20
-1.0
 30
0.0
 11
1.4
 21
-1.0
 31
0.0
  0
LINE
  5
F47D6
  8
VISIBLE
 10
-0.6320000000000002
 20
0.7500000000000002
 30
0.0
 11
-0.6320000000000001
 21
0.0750000000000001
 31
0.0
  0
POLYLINE
  5
F47D7
  8
VISIBLE
 10
0.0
 20
0.0
 30
0.0
 66
     1
 70
     8
  0
VERTEX
  5
10000562
  8
VISIBLE
 10
2.65
 20
0.0
 30
0.0
 70
    32
  0
VERTEX
  5
10000563
  8
VISIBLE
 10
2.6505615234375
 20
0.1632080078125001
 30
0.0
 70
    32
  0
VERTEX
  5
10000564
  8
VISIBLE
 10
2.652148437500001
 20
0.3212890625000002
 30
0.0
 70
    32
  0
VERTEX
  5
10000565
  8
VISIBLE
 10
2.6546142578125
 20
0.4691162109375001
 30
0.0
 70
    32
  0
VERTEX
  5
10000566
  8
VISIBLE
 10
2.6578125
 20
0.6015625000000001
 30
0.0
 70
    32
  0
VERTEX
  5
10000567
  8
VISIBLE
 10
2.660603713989258
 20
0.6877193450927735
 30
0.0
 70
    32
  0
VERTEX
  5
10000568
  8
VISIBLE
 10
2.663662719726564
 20
0.7601776123046876
 30
0.0
 70
    32
  0
VERTEX
  5
10000569
  8
VISIBLE
 10
2.666927719116211
 20
0.816774368286133
 30
0.0
 70
    32
  0
VERTEX
  5
1000056A
  8
VISIBLE
 10
2.6703369140625
 20
0.8553466796875002
 30
0.0
 70
    32
  0
VERTEX
  5
1000056B
  8
VISIBLE
 10
2.672659301757813
 20
0.8699798583984374
 30
0.0
 70
    32
  0
VERTEX
  5
1000056C
  8
VISIBLE
 10
2.673828506469727
 20
0.8737316131591797
 30
0.0
 70
    32
  0
VERTEX
  5
1000056D
  8
VISIBLE
 10
2.674414110183716
 20
0.8746812343597412
 30
0.0
 70
    32
  0
VERTEX
  5
1000056E
  8
VISIBLE
 10
2.675
 20
0.8750000000000001
 30
0.0
 70
    32
  0
VERTEX
  5
1000056F
  8
VISIBLE
 10
2.675585889816285
 20
0.8746812343597412
 30
0.0
 70
    32
  0
VERTEX
  5
10000570
  8
VISIBLE
 10
2.676171493530274
 20
0.8737316131591797
 30
0.0
 70
    32
  0
VERTEX
  5
10000571
  8
VISIBLE
 10
2.677340698242188
 20
0.8699798583984374
 30
0.0
 70
    32
  0
VERTEX
  5
10000572
  8
VISIBLE
 10
2.6796630859375
 20
0.8553466796875002
 30
0.0
 70
    32
  0
VERTEX
  5
10000573
  8
VISIBLE
 10
2.68307228088379
 20
0.816774368286133
 30
0.0
 70
    32
  0
VERTEX
  5
10000574
  8
VISIBLE
 10
2.686337280273438
 20
0.7601776123046876
 30
0.0
 70
    32
  0
VERTEX
  5
10000575
  8
VISIBLE
 10
2.689396286010743
 20
0.6877193450927734
 30
0.0
 70
    32
  0
VERTEX
  5
10000576
  8
VISIBLE
 10
2.6921875
 20
0.6015625
 30
0.0
 70
    32
  0
VERTEX
  5
10000577
  8
VISIBLE
 10
2.6953857421875
 20
0.4691162109374999
 30
0.0
 70
    32
  0
VERTEX
  5
10000578
  8
VISIBLE
 10
2.697851562499999
 20
0.3212890624999999
 30
0.0
 70
    32
  0
VERTEX
  5
10000579
  8
VISIBLE
 10
2.699438476562501
 20
0.1632080078124998
 30
0.0
 70
    32
  0
VERTEX
  5
1000057A
  8
VISIBLE
 10
2.7
 20
-0.0000000000000002
 30
0.0
 70
    32
  0
VERTEX
  5
1000057B
  8
VISIBLE
 10
2.699438476562501
 20
-0.1632080078125002
 30
0.0
 70
    32
  0
VERTEX
  5
1000057C
  8
VISIBLE
 10
2.697851562499999
 20
-0.3212890625000003
 30
0.0
 70
    32
  0
VERTEX
  5
1000057D
  8
VISIBLE
 10
2.6953857421875
 20
-0.4691162109375002
 30
0.0
 70
    32
  0
VERTEX
  5
1000057E
  8
VISIBLE
 10
2.6921875
 20
-0.6015625000000003
 30
0.0
 70
    32
  0
VERTEX
  5
1000057F
  8
VISIBLE
 10
2.689396286010743
 20
-0.6877193450927737
 30
0.0
 70
    32
  0
VERTEX
  5
10000580
  8
VISIBLE
 10
2.686337280273438
 20
-0.7601776123046878
 30
0.0
 70
    32
  0
VERTEX
  5
10000581
  8
VISIBLE
 10
2.68307228088379
 20
-0.816774368286133
 30
0.0
 70
    32
  0
VERTEX
  5
10000582
  8
VISIBLE
 10
2.6796630859375
 20
-0.8553466796875003
 30
0.0
 70
    32
  0
VERTEX
  5
10000583
  8
VISIBLE
 10
2.677340698242188
 20
-0.8699798583984377
 30
0.0
 70
    32
  0
VERTEX
  5
10000584
  8
VISIBLE
 10
2.676171493530274
 20
-0.8737316131591799
 30
0.0
 70
    32
  0
VERTEX
  5
10000585
  8
VISIBLE
 10
2.675585889816285
 20
-0.8746812343597413
 30
0.0
 70
    32
  0
VERTEX
  5
10000586
  8
VISIBLE
 10
2.675
 20
-0.8750000000000002
 30
0.0
 70
    32
  0
VERTEX
  5
10000587
  8
VISIBLE
 10
2.674414110183716
 20
-0.8746812343597413
 30
0.0
 70
    32
  0
VERTEX
  5
10000588
  8
VISIBLE
 10
2.673828506469727
 20
-0.8737316131591799
 30
0.0
 70
    32
  0
VERTEX
  5
10000589
  8
VISIBLE
 10
2.672659301757813
 20
-0.8699798583984377
 30
0.0
 70
    32
  0
VERTEX
  5
1000058A
  8
VISIBLE
 10
2.6703369140625
 20
-0.8553466796875003
 30
0.0
 70
    32
  0
VERTEX
  5
1000058B
  8
VISIBLE
 10
2.666927719116211
 20
-0.816774368286133
 30
0.0
 70
    32
  0
VERTEX
  5
1000058C
  8
VISIBLE
 10
2.663662719726564
 20
-0.7601776123046876
 30
0.0
 70
    32
  0
VERTEX
  5
1000058D
  8
VISIBLE
 10
2.660603713989258
 20
-0.6877193450927735
 30
0.0
 70
    32
  0
VERTEX
  5
1000058E
  8
VISIBLE
 10
2.6578125
 20
-0.6015625000000001
 30
0.0
 70
    32
  0
VERTEX
  5
1000058F
  8
VISIBLE
 10
2.6546142578125
 20
-0.4691162109375001
 30
0.0
 70
    32
  0
VERTEX
  5
10000590
  8
VISIBLE
 10
2.652148437500001
 20
-0.3212890625000002
 30
0.0
 70
    32
  0
VERTEX
  5
10000591
  8
VISIBLE
 10
2.6505615234375
 20
-0.1632080078125001
 30
0.0
 70
    32
  0
VERTEX
  5
10000592
  8
VISIBLE
 10
2.65
 20
0.0
 30
0.0
 70
    32
  0
SEQEND
  5
10000779
  8
VISIBLE
  0
POLYLINE
  5
F47D8
  8
VISIBLE
 10
0.0
 20
0.0
 30
0.0
 66
     1
 70
     8
  0
VERTEX
  5
10000595
  8
VISIBLE
 10
2.750000000000001
 20
1.0
 30
0.0
 70
    32
  0
VERTEX
  5
10000596
  8
VISIBLE
 10
2.753125000000001
 20
0.8367919921875001
 30
0.0
 70
    32
  0
VERTEX
  5
10000597
  8
VISIBLE
 10
2.756250000000001
 20
0.6787109375
 30
0.0
 70
    32
  0
VERTEX
  5
10000598
  8
VISIBLE
 10
2.759375
 20
0.5308837890624998
 30
0.0
 70
    32
  0
VERTEX
  5
10000599
  8
VISIBLE
 10
2.762500000000001
 20
0.3984374999999998
 30
0.0
 70
    32
  0
VERTEX
  5
1000059A
  8
VISIBLE
 10
2.764843750000001
 20
0.3122806549072262
 30
0.0
 70
    32
  0
VERTEX
  5
1000059B
  8
VISIBLE
 10
2.7671875
 20
0.2398223876953121
 30
0.0
 70
    32
  0
VERTEX
  5
1000059C
  8
VISIBLE
 10
2.76953125
 20
0.1832256317138668
 30
0.0
 70
    32
  0
VERTEX
  5
1000059D
  8
VISIBLE
 10
2.771875
 20
0.1446533203124996
 30
0.0
 70
    32
  0
VERTEX
  5
1000059E
  8
VISIBLE
 10
2.77421875
 20
0.1262683868408198
 30
0.0
 70
    32
  0
VERTEX
  5
1000059F
  8
VISIBLE
 10
2.774609375
 20
0.1253187656402583
 30
0.0
 70
    32
  0
VERTEX
  5
100005A0
  8
VISIBLE
 10
2.774804687500002
 20
0.1250799000263209
 30
0.0
 70
    32
  0
VERTEX
  5
100005A1
  8
VISIBLE
 10
2.775000000000001
 20
0.1249999999999995
 30
0.0
 70
    32
  0
VERTEX
  5
100005A2
  8
VISIBLE
 10
2.775195312500001
 20
0.1250799000263209
 30
0.0
 70
    32
  0
VERTEX
  5
100005A3
  8
VISIBLE
 10
2.775390625000001
 20
0.1253187656402583
 30
0.0
 70
    32
  0
VERTEX
  5
100005A4
  8
VISIBLE
 10
2.775781250000001
 20
0.1262683868408198
 30
0.0
 70
    32
  0
VERTEX
  5
100005A5
  8
VISIBLE
 10
2.778125000000002
 20
0.1446533203124996
 30
0.0
 70
    32
  0
VERTEX
  5
100005A6
  8
VISIBLE
 10
2.780468750000001
 20
0.1832256317138668
 30
0.0
 70
    32
  0
VERTEX
  5
100005A7
  8
VISIBLE
 10
2.782812500000001
 20
0.2398223876953121
 30
0.0
 70
    32
  0
VERTEX
  5
100005A8
  8
VISIBLE
 10
2.785156250000001
 20
0.3122806549072263
 30
0.0
 70
    32
  0
VERTEX
  5
100005A9
  8
VISIBLE
 10
2.787500000000001
 20
0.3984374999999998
 30
0.0
 70
    32
  0
VERTEX
  5
100005AA
  8
VISIBLE
 10
2.790625000000002
 20
0.5308837890624998
 30
0.0
 70
    32
  0
VERTEX
  5
100005AB
  8
VISIBLE
 10
2.793750000000001
 20
0.6787109375
 30
0.0
 70
    32
  0
VERTEX
  5
100005AC
  8
VISIBLE
 10
2.796875
 20
0.8367919921875001
 30
0.0
 70
    32
  0
VERTEX
  5
100005AD
  8
VISIBLE
 10
2.800000000000001
 20
1.0
 30
0.0
 70
    32
  0
SEQEND
  5
1000077A
  8
VISIBLE
  0
POLYLINE
  5
F47D9
  8
VISIBLE
 10
0.0
 20
0.0
 30
0.0
 66
     1
 70
     8
  0
VERTEX
  5
100005B0
  8
VISIBLE
 10
2.800000000000001
 20
-1.0
 30
0.0
 70
    32
  0
VERTEX
  5
100005B1
  8
VISIBLE
 10
2.796875
 20
-0.8367919921875
 30
0.0
 70
    32
  0
VERTEX
  5
100005B2
  8
VISIBLE
 10
2.793750000000001
 20
-0.6787109374999997
 30
0.0
 70
    32
  0
VERTEX
  5
100005B3
  8
VISIBLE
 10
2.790625000000002
 20
-0.5308837890624999
 30
0.0
 70
    32
  0
VERTEX
  5
100005B4
  8
VISIBLE
 10
2.787500000000001
 20
-0.3984374999999998
 30
0.0
 70
    32
  0
VERTEX
  5
100005B5
  8
VISIBLE
 10
2.785156250000001
 20
-0.3122806549072264
 30
0.0
 70
    32
  0
VERTEX
  5
100005B6
  8
VISIBLE
 10
2.782812500000001
 20
-0.2398223876953123
 30
0.0
 70
    32
  0
VERTEX
  5
100005B7
  8
VISIBLE
 10
2.780468750000001
 20
-0.1832256317138671
 30
0.0
 70
    32
  0
VERTEX
  5
100005B8
  8
VISIBLE
 10
2.778125000000002
 20
-0.1446533203124999
 30
0.0
 70
    32
  0
VERTEX
  5
100005B9
  8
VISIBLE
 10
2.775781250000001
 20
-0.1262683868408202
 30
0.0
 70
    32
  0
VERTEX
  5
100005BA
  8
VISIBLE
 10
2.775390625000001
 20
-0.1253187656402587
 30
0.0
 70
    32
  0
VERTEX
  5
100005BB
  8
VISIBLE
 10
2.775195312500001
 20
-0.1250799000263213
 30
0.0
 70
    32
  0
VERTEX
  5
100005BC
  8
VISIBLE
 10
2.775000000000001
 20
-0.1249999999999999
 30
0.0
 70
    32
  0
VERTEX
  5
100005BD
  8
VISIBLE
 10
2.774804687500002
 20
-0.1250799000263213
 30
0.0
 70
    32
  0
VERTEX
  5
100005BE
  8
VISIBLE
 10
2.774609375
 20
-0.1253187656402587
 30
0.0
 70
    32
  0
VERTEX
  5
100005BF
  8
VISIBLE
 10
2.774218750000001
 20
-0.1262683868408202
 30
0.0
 70
    32
  0
VERTEX
  5
100005C0
  8
VISIBLE
 10
2.771875000000001
 20
-0.1446533203124999
 30
0.0
 70
    32
  0
VERTEX
  5
100005C1
  8
VISIBLE
 10
2.769531250000001
 20
-0.183225631713867
 30
0.0
 70
    32
  0
VERTEX
  5
100005C2
  8
VISIBLE
 10
2.7671875
 20
-0.2398223876953123
 30
0.0
 70
    32
  0
VERTEX
  5
100005C3
  8
VISIBLE
 10
2.764843750000001
 20
-0.3122806549072264
 30
0.0
 70
    32
  0
VERTEX
  5
100005C4
  8
VISIBLE
 10
2.762500000000001
 20
-0.3984374999999998
 30
0.0
 70
    32
  0
VERTEX
  5
100005C5
  8
VISIBLE
 10
2.759375000000001
 20
-0.5308837890624999
 30
0.0
 70
    32
  0
VERTEX
  5
100005C6
  8
VISIBLE
 10
2.756250000000001
 20
-0.6787109374999998
 30
0.0
 70
    32
  0
VERTEX
  5
100005C7
  8
VISIBLE
 10
2.753125000000001
 20
-0.8367919921875
 30
0.0
 70
    32
  0
VERTEX
  5
100005C8
  8
VISIBLE
 10
2.750000000000001
 20
-1.0
 30
0.0
 70
    32
  0
SEQEND
  5
1000077B
  8
VISIBLE
  0
POLYLINE
  5
F47DA
  8
VISIBLE
 10
0.0
 20
0.0
 30
0.0
 66
     1
 70
     8
  0
VERTEX
  5
100005CB
  8
VISIBLE
 10
2.400000000000001
 20
-1.0
 30
0.0
 70
    32
  0
VERTEX
  5
100005CC
  8
VISIBLE
 10
2.396875000000001
 20
-0.8367919921875
 30
0.0
 70
    32
  0
VERTEX
  5
100005CD
  8
VISIBLE
 10
2.393750000000001
 20
-0.6787109374999997
 30
0.0
 70
    32
  0
VERTEX
  5
100005CE
  8
VISIBLE
 10
2.390625000000001
 20
-0.5308837890624999
 30
0.0
 70
    32
  0
VERTEX
  5
100005CF
  8
VISIBLE
 10
2.387500000000001
 20
-0.3984374999999998
 30
0.0
 70
    32
  0
VERTEX
  5
100005D0
  8
VISIBLE
 10
2.385156250000001
 20
-0.3122806549072264
 30
0.0
 70
    32
  0
VERTEX
  5
100005D1
  8
VISIBLE
 10
2.382812500000001
 20
-0.2398223876953123
 30
0.0
 70
    32
  0
VERTEX
  5
100005D2
  8
VISIBLE
 10
2.380468750000001
 20
-0.1832256317138671
 30
0.0
 70
    32
  0
VERTEX
  5
100005D3
  8
VISIBLE
 10
2.378125000000001
 20
-0.1446533203124999
 30
0.0
 70
    32
  0
VERTEX
  5
100005D4
  8
VISIBLE
 10
2.37578125
 20
-0.1262683868408202
 30
0.0
 70
    32
  0
VERTEX
  5
100005D5
  8
VISIBLE
 10
2.375390625000001
 20
-0.1253187656402587
 30
0.0
 70
    32
  0
VERTEX
  5
100005D6
  8
VISIBLE
 10
2.375195312500001
 20
-0.1250799000263213
 30
0.0
 70
    32
  0
VERTEX
  5
100005D7
  8
VISIBLE
 10
2.375000000000001
 20
-0.1249999999999999
 30
0.0
 70
    32
  0
VERTEX
  5
100005D8
  8
VISIBLE
 10
2.374804687500001
 20
-0.1250799000263213
 30
0.0
 70
    32
  0
VERTEX
  5
100005D9
  8
VISIBLE
 10
2.374609375
 20
-0.1253187656402587
 30
0.0
 70
    32
  0
VERTEX
  5
100005DA
  8
VISIBLE
 10
2.374218750000001
 20
-0.1262683868408202
 30
0.0
 70
    32
  0
VERTEX
  5
100005DB
  8
VISIBLE
 10
2.371875000000001
 20
-0.1446533203124999
 30
0.0
 70
    32
  0
VERTEX
  5
100005DC
  8
VISIBLE
 10
2.369531250000001
 20
-0.183225631713867
 30
0.0
 70
    32
  0
VERTEX
  5
100005DD
  8
VISIBLE
 10
2.3671875
 20
-0.2398223876953123
 30
0.0
 70
    32
  0
VERTEX
  5
100005DE
  8
VISIBLE
 10
2.364843750000001
 20
-0.3122806549072264
 30
0.0
 70
    32
  0
VERTEX
  5
100005DF
  8
VISIBLE
 10
2.362500000000001
 20
-0.3984374999999998
 30
0.0
 70
    32
  0
VERTEX
  5
100005E0
  8
VISIBLE
 10
2.359375000000001
 20
-0.5308837890624999
 30
0.0
 70
    32
  0
VERTEX
  5
100005E1
  8
VISIBLE
 10
2.356250000000001
 20
-0.6787109374999998
 30
0.0
 70
    32
  0
VERTEX
  5
100005E2
  8
VISIBLE
 10
2.353125000000001
 20
-0.8367919921875
 30
0.0
 70
    32
  0
VERTEX
  5
100005E3
  8
VISIBLE
 10
2.350000000000001
 20
-1.0
 30
0.0
 70
    32
  0
SEQEND
  5
1000077C
  8
VISIBLE
  0
LINE
  5
F47DB
  8
VISIBLE
 10
1.150000000000001
 20
-1.0
 30
0.0
 11
1.0
 21
-1.0
 31
0.0
  0
LINE
  5
F47DC
  8
VISIBLE
 10
0.0000000000000001
 20
1.0
 30
0.0
 11
0.0
 21
-1.0
 31
0.0
  0
POLYLINE
  5
F47DD
  8
VISIBLE
 10
0.0
 20
0.0
 30
0.0
 66
     1
 70
     8
  0
VERTEX
  5
100005EA
  8
VISIBLE
 10
1.350000000000001
 20
-1.0
 30
0.0
 70
    32
  0
VERTEX
  5
100005EB
  8
VISIBLE
 10
1.353125000000001
 20
-0.8367919921875
 30
0.0
 70
    32
  0
VERTEX
  5
100005EC
  8
VISIBLE
 10
1.35625
 20
-0.6787109374999998
 30
0.0
 70
    32
  0
VERTEX
  5
100005ED
  8
VISIBLE
 10
1.359375
 20
-0.5308837890624999
 30
0.0
 70
    32
  0
VERTEX
  5
100005EE
  8
VISIBLE
 10
1.3625
 20
-0.3984374999999998
 30
0.0
 70
    32
  0
VERTEX
  5
100005EF
  8
VISIBLE
 10
1.364843749999999
 20
-0.3122806549072264
 30
0.0
 70
    32
  0
VERTEX
  5
100005F0
  8
VISIBLE
 10
1.367187499999999
 20
-0.2398223876953124
 30
0.0
 70
    32
  0
VERTEX
  5
100005F1
  8
VISIBLE
 10
1.369531249999999
 20
-0.1832256317138671
 30
0.0
 70
    32
  0
VERTEX
  5
100005F2
  8
VISIBLE
 10
1.371874999999999
 20
-0.1446533203124999
 30
0.0
 70
    32
  0
VERTEX
  5
100005F3
  8
VISIBLE
 10
1.374218749999999
 20
-0.1262683868408202
 30
0.0
 70
    32
  0
VERTEX
  5
100005F4
  8
VISIBLE
 10
1.374609374999999
 20
-0.1253187656402587
 30
0.0
 70
    32
  0
VERTEX
  5
100005F5
  8
VISIBLE
 10
1.374804687499999
 20
-0.1250799000263213
 30
0.0
 70
    32
  0
VERTEX
  5
100005F6
  8
VISIBLE
 10
1.374999999999999
 20
-0.1249999999999999
 30
0.0
 70
    32
  0
VERTEX
  5
100005F7
  8
VISIBLE
 10
1.375195312499999
 20
-0.1250799000263213
 30
0.0
 70
    32
  0
VERTEX
  5
100005F8
  8
VISIBLE
 10
1.375390624999999
 20
-0.1253187656402587
 30
0.0
 70
    32
  0
VERTEX
  5
100005F9
  8
VISIBLE
 10
1.375781249999999
 20
-0.1262683868408202
 30
0.0
 70
    32
  0
VERTEX
  5
100005FA
  8
VISIBLE
 10
1.378124999999999
 20
-0.1446533203124999
 30
0.0
 70
    32
  0
VERTEX
  5
100005FB
  8
VISIBLE
 10
1.380468749999999
 20
-0.1832256317138671
 30
0.0
 70
    32
  0
VERTEX
  5
100005FC
  8
VISIBLE
 10
1.382812499999999
 20
-0.2398223876953124
 30
0.0
 70
    32
  0
VERTEX
  5
100005FD
  8
VISIBLE
 10
1.38515625
 20
-0.3122806549072264
 30
0.0
 70
    32
  0
VERTEX
  5
100005FE
  8
VISIBLE
 10
1.3875
 20
-0.3984374999999998
 30
0.0
 70
    32
  0
VERTEX
  5
100005FF
  8
VISIBLE
 10
1.390625
 20
-0.5308837890625
 30
0.0
 70
    32
  0
VERTEX
  5
10000600
  8
VISIBLE
 10
1.39375
 20
-0.6787109374999998
 30
0.0
 70
    32
  0
VERTEX
  5
10000601
  8
VISIBLE
 10
1.396875
 20
-0.8367919921875
 30
0.0
 70
    32
  0
VERTEX
  5
10000602
  8
VISIBLE
 10
1.4
 20
-1.0
 30
0.0
 70
    32
  0
SEQEND
  5
1000077D
  8
VISIBLE
  0
POLYLINE
  5
F47DE
  8
VISIBLE
 10
0.0
 20
0.0
 30
0.0
 66
     1
 70
     8
  0
VERTEX
  5
10000605
  8
VISIBLE
 10
0.4000000000000001
 20
-1.0
 30
0.0
 70
    32
  0
VERTEX
  5
10000606
  8
VISIBLE
 10
0.3968750000000003
 20
-0.8367919921875
 30
0.0
 70
    32
  0
VERTEX
  5
10000607
  8
VISIBLE
 10
0.3937500000000004
 20
-0.6787109374999998
 30
0.0
 70
    32
  0
VERTEX
  5
10000608
  8
VISIBLE
 10
0.3906250000000007
 20
-0.5308837890624999
 30
0.0
 70
    32
  0
VERTEX
  5
10000609
  8
VISIBLE
 10
0.387500000000001
 20
-0.3984374999999998
 30
0.0
 70
    32
  0
VERTEX
  5
1000060A
  8
VISIBLE
 10
0.3851562500000012
 20
-0.3122806549072264
 30
0.0
 70
    32
  0
VERTEX
  5
1000060B
  8
VISIBLE
 10
0.3828125000000014
 20
-0.2398223876953124
 30
0.0
 70
    32
  0
VERTEX
  5
1000060C
  8
VISIBLE
 10
0.3804687500000016
 20
-0.1832256317138671
 30
0.0
 70
    32
  0
VERTEX
  5
1000060D
  8
VISIBLE
 10
0.3781250000000018
 20
-0.1446533203124999
 30
0.0
 70
    32
  0
VERTEX
  5
1000060E
  8
VISIBLE
 10
0.3757812500000018
 20
-0.1262683868408202
 30
0.0
 70
    32
  0
VERTEX
  5
1000060F
  8
VISIBLE
 10
0.3753906250000018
 20
-0.1253187656402587
 30
0.0
 70
    32
  0
VERTEX
  5
10000610
  8
VISIBLE
 10
0.3751953125000019
 20
-0.1250799000263213
 30
0.0
 70
    32
  0
VERTEX
  5
10000611
  8
VISIBLE
 10
0.3750000000000019
 20
-0.1249999999999999
 30
0.0
 70
    32
  0
VERTEX
  5
10000612
  8
VISIBLE
 10
0.3748046875000018
 20
-0.1250799000263213
 30
0.0
 70
    32
  0
VERTEX
  5
10000613
  8
VISIBLE
 10
0.3746093750000019
 20
-0.1253187656402587
 30
0.0
 70
    32
  0
VERTEX
  5
10000614
  8
VISIBLE
 10
0.3742187500000019
 20
-0.1262683868408202
 30
0.0
 70
    32
  0
VERTEX
  5
10000615
  8
VISIBLE
 10
0.3718750000000018
 20
-0.1446533203124999
 30
0.0
 70
    32
  0
VERTEX
  5
10000616
  8
VISIBLE
 10
0.3695312500000017
 20
-0.1832256317138671
 30
0.0
 70
    32
  0
VERTEX
  5
10000617
  8
VISIBLE
 10
0.3671875000000016
 20
-0.2398223876953124
 30
0.0
 70
    32
  0
VERTEX
  5
10000618
  8
VISIBLE
 10
0.3648437500000013
 20
-0.3122806549072264
 30
0.0
 70
    32
  0
VERTEX
  5
10000619
  8
VISIBLE
 10
0.3625000000000011
 20
-0.3984374999999998
 30
0.0
 70
    32
  0
VERTEX
  5
1000061A
  8
VISIBLE
 10
0.3593750000000009
 20
-0.5308837890625
 30
0.0
 70
    32
  0
VERTEX
  5
1000061B
  8
VISIBLE
 10
0.3562500000000006
 20
-0.6787109374999998
 30
0.0
 70
    32
  0
VERTEX
  5
1000061C
  8
VISIBLE
 10
0.3531250000000004
 20
-0.8367919921875
 30
0.0
 70
    32
  0
VERTEX
  5
1000061D
  8
VISIBLE
 10
0.3500000000000004
 20
-1.0
 30
0.0
 70
    32
  0
SEQEND
  5
1000077E
  8
VISIBLE
  0
LINE
  5
F47DF
  8
VISIBLE
 10
-0.7500000000000001
 20
0.7500000000000002
 30
0.0
 11
-0.7500000000000001
 21
1.0
 31
0.0
  0
POLYLINE
  5
F47E0
  8
VISIBLE
 10
0.0
 20
0.0
 30
0.0
 66
     1
 70
     8
  0
VERTEX
  5
10000622
  8
VISIBLE
 10
2.350000000000001
 20
1.0
 30
0.0
 70
    32
  0
VERTEX
  5
10000623
  8
VISIBLE
 10
2.353125000000001
 20
0.8367919921875001
 30
0.0
 70
    32
  0
VERTEX
  5
10000624
  8
VISIBLE
 10
2.356250000000001
 20
0.6787109375
 30
0.0
 70
    32
  0
VERTEX
  5
10000625
  8
VISIBLE
 10
2.359375000000001
 20
0.5308837890624998
 30
0.0
 70
    32
  0
VERTEX
  5
10000626
  8
VISIBLE
 10
2.362500000000001
 20
0.3984374999999998
 30
0.0
 70
    32
  0
VERTEX
  5
10000627
  8
VISIBLE
 10
2.364843750000001
 20
0.3122806549072262
 30
0.0
 70
    32
  0
VERTEX
  5
10000628
  8
VISIBLE
 10
2.367187500000001
 20
0.2398223876953121
 30
0.0
 70
    32
  0
VERTEX
  5
10000629
  8
VISIBLE
 10
2.369531250000001
 20
0.1832256317138668
 30
0.0
 70
    32
  0
VERTEX
  5
1000062A
  8
VISIBLE
 10
2.371875000000001
 20
0.1446533203124996
 30
0.0
 70
    32
  0
VERTEX
  5
1000062B
  8
VISIBLE
 10
2.374218750000001
 20
0.1262683868408198
 30
0.0
 70
    32
  0
VERTEX
  5
1000062C
  8
VISIBLE
 10
2.374609375000001
 20
0.1253187656402583
 30
0.0
 70
    32
  0
VERTEX
  5
1000062D
  8
VISIBLE
 10
2.374804687500001
 20
0.1250799000263209
 30
0.0
 70
    32
  0
VERTEX
  5
1000062E
  8
VISIBLE
 10
2.375000000000001
 20
0.1249999999999995
 30
0.0
 70
    32
  0
VERTEX
  5
1000062F
  8
VISIBLE
 10
2.375195312500001
 20
0.1250799000263209
 30
0.0
 70
    32
  0
VERTEX
  5
10000630
  8
VISIBLE
 10
2.375390625000001
 20
0.1253187656402583
 30
0.0
 70
    32
  0
VERTEX
  5
10000631
  8
VISIBLE
 10
2.375781250000001
 20
0.1262683868408198
 30
0.0
 70
    32
  0
VERTEX
  5
10000632
  8
VISIBLE
 10
2.378125000000001
 20
0.1446533203124996
 30
0.0
 70
    32
  0
VERTEX
  5
10000633
  8
VISIBLE
 10
2.380468750000001
 20
0.1832256317138668
 30
0.0
 70
    32
  0
VERTEX
  5
10000634
  8
VISIBLE
 10
2.382812500000001
 20
0.2398223876953121
 30
0.0
 70
    32
  0
VERTEX
  5
10000635
  8
VISIBLE
 10
2.385156250000001
 20
0.3122806549072263
 30
0.0
 70
    32
  0
VERTEX
  5
10000636
  8
VISIBLE
 10
2.387500000000001
 20
0.3984374999999998
 30
0.0
 70
    32
  0
VERTEX
  5
10000637
  8
VISIBLE
 10
2.390625000000001
 20
0.5308837890624998
 30
0.0
 70
    32
  0
VERTEX
  5
10000638
  8
VISIBLE
 10
2.393750000000001
 20
0.6787109375
 30
0.0
 70
    32
  0
VERTEX
  5
10000639
  8
VISIBLE
 10
2.396875000000001
 20
0.8367919921875001
 30
0.0
 70
    32
  0
VERTEX
  5
1000063A
  8
VISIBLE
 10
2.400000000000001
 20
1.0
 30
0.0
 70
    32
  0
SEQEND
  5
1000077F
  8
VISIBLE
  0
LINE
  5
F47E1
  8
VISIBLE
 10
1.150000000000001
 20
1.0
 30
0.0
 11
1.0
 21
1.0
 31
0.0
  0
LINE
  5
F47E2
  8
VISIBLE
 10
2.750000000000001
 20
1.0
 30
0.0
 11
2.600000000000001
 21
1.0
 31
0.0
  0
POLYLINE
  5
F47E3
  8
VISIBLE
 10
0.0
 20
0.0
 30
0.0
 66
     1
 70
     8
  0
VERTEX
  5
10000641
  8
VISIBLE
 10
1.4
 20
1.0
 30
0.0
 70
    32
  0
VERTEX
  5
10000642
  8
VISIBLE
 10
1.396875
 20
0.8367919921875001
 30
0.0
 70
    32
  0
VERTEX
  5
10000643
  8
VISIBLE
 10
1.39375
 20
0.6787109374999998
 30
0.0
 70
    32
  0
VERTEX
  5
10000644
  8
VISIBLE
 10
1.390625
 20
0.5308837890624998
 30
0.0
 70
    32
  0
VERTEX
  5
10000645
  8
VISIBLE
 10
1.3875
 20
0.3984374999999997
 30
0.0
 70
    32
  0
VERTEX
  5
10000646
  8
VISIBLE
 10
1.38515625
 20
0.3122806549072261
 30
0.0
 70
    32
  0
VERTEX
  5
10000647
  8
VISIBLE
 10
1.382812499999999
 20
0.2398223876953121
 30
0.0
 70
    32
  0
VERTEX
  5
10000648
  8
VISIBLE
 10
1.380468749999999
 20
0.1832256317138667
 30
0.0
 70
    32
  0
VERTEX
  5
10000649
  8
VISIBLE
 10
1.378124999999998
 20
0.1446533203124995
 30
0.0
 70
    32
  0
VERTEX
  5
1000064A
  8
VISIBLE
 10
1.375781249999998
 20
0.1262683868408198
 30
0.0
 70
    32
  0
VERTEX
  5
1000064B
  8
VISIBLE
 10
1.375390624999999
 20
0.1253187656402583
 30
0.0
 70
    32
  0
VERTEX
  5
1000064C
  8
VISIBLE
 10
1.375195312499998
 20
0.1250799000263209
 30
0.0
 70
    32
  0
VERTEX
  5
1000064D
  8
VISIBLE
 10
1.374999999999999
 20
0.1249999999999995
 30
0.0
 70
    32
  0
VERTEX
  5
1000064E
  8
VISIBLE
 10
1.374804687499999
 20
0.1250799000263209
 30
0.0
 70
    32
  0
VERTEX
  5
1000064F
  8
VISIBLE
 10
1.374609374999998
 20
0.1253187656402583
 30
0.0
 70
    32
  0
VERTEX
  5
10000650
  8
VISIBLE
 10
1.374218749999999
 20
0.1262683868408198
 30
0.0
 70
    32
  0
VERTEX
  5
10000651
  8
VISIBLE
 10
1.371874999999999
 20
0.1446533203124996
 30
0.0
 70
    32
  0
VERTEX
  5
10000652
  8
VISIBLE
 10
1.369531249999999
 20
0.1832256317138667
 30
0.0
 70
    32
  0
VERTEX
  5
10000653
  8
VISIBLE
 10
1.367187499999998
 20
0.2398223876953121
 30
0.0
 70
    32
  0
VERTEX
  5
10000654
  8
VISIBLE
 10
1.364843749999999
 20
0.3122806549072262
 30
0.0
 70
    32
  0
VERTEX
  5
10000655
  8
VISIBLE
 10
1.362499999999999
 20
0.3984374999999998
 30
0.0
 70
    32
  0
VERTEX
  5
10000656
  8
VISIBLE
 10
1.359374999999999
 20
0.5308837890624998
 30
0.0
 70
    32
  0
VERTEX
  5
10000657
  8
VISIBLE
 10
1.356249999999999
 20
0.6787109375
 30
0.0
 70
    32
  0
VERTEX
  5
10000658
  8
VISIBLE
 10
1.353124999999999
 20
0.8367919921875001
 30
0.0
 70
    32
  0
VERTEX
  5
10000659
  8
VISIBLE
 10
1.349999999999999
 20
1.0
 30
0.0
 70
    32
  0
SEQEND
  5
10000780
  8
VISIBLE
  0
POLYLINE
  5
F47E4
  8
VISIBLE
 10
0.0
 20
0.0
 30
0.0
 66
     1
 70
     8
  0
VERTEX
  5
1000065C
  8
VISIBLE
 10
0.3500000000000004
 20
1.0
 30
0.0
 70
    32
  0
VERTEX
  5
1000065D
  8
VISIBLE
 10
0.3531250000000004
 20
0.8367919921875001
 30
0.0
 70
    32
  0
VERTEX
  5
1000065E
  8
VISIBLE
 10
0.3562500000000005
 20
0.6787109374999998
 30
0.0
 70
    32
  0
VERTEX
  5
1000065F
  8
VISIBLE
 10
0.3593750000000007
 20
0.5308837890624998
 30
0.0
 70
    32
  0
VERTEX
  5
10000660
  8
VISIBLE
 10
0.362500000000001
 20
0.3984374999999997
 30
0.0
 70
    32
  0
VERTEX
  5
10000661
  8
VISIBLE
 10
0.3648437500000012
 20
0.3122806549072261
 30
0.0
 70
    32
  0
VERTEX
  5
10000662
  8
VISIBLE
 10
0.3671875000000014
 20
0.2398223876953121
 30
0.0
 70
    32
  0
VERTEX
  5
10000663
  8
VISIBLE
 10
0.3695312500000016
 20
0.1832256317138667
 30
0.0
 70
    32
  0
VERTEX
  5
10000664
  8
VISIBLE
 10
0.3718750000000017
 20
0.1446533203124995
 30
0.0
 70
    32
  0
VERTEX
  5
10000665
  8
VISIBLE
 10
0.3742187500000018
 20
0.1262683868408198
 30
0.0
 70
    32
  0
VERTEX
  5
10000666
  8
VISIBLE
 10
0.3746093750000018
 20
0.1253187656402583
 30
0.0
 70
    32
  0
VERTEX
  5
10000667
  8
VISIBLE
 10
0.3748046875000018
 20
0.1250799000263209
 30
0.0
 70
    32
  0
VERTEX
  5
10000668
  8
VISIBLE
 10
0.3750000000000019
 20
0.1249999999999995
 30
0.0
 70
    32
  0
VERTEX
  5
10000669
  8
VISIBLE
 10
0.3751953125000019
 20
0.1250799000263209
 30
0.0
 70
    32
  0
VERTEX
  5
1000066A
  8
VISIBLE
 10
0.3753906250000018
 20
0.1253187656402583
 30
0.0
 70
    32
  0
VERTEX
  5
1000066B
  8
VISIBLE
 10
0.375781250000002
 20
0.1262683868408198
 30
0.0
 70
    32
  0
VERTEX
  5
1000066C
  8
VISIBLE
 10
0.378125000000002
 20
0.1446533203124996
 30
0.0
 70
    32
  0
VERTEX
  5
1000066D
  8
VISIBLE
 10
0.380468750000002
 20
0.1832256317138667
 30
0.0
 70
    32
  0
VERTEX
  5
1000066E
  8
VISIBLE
 10
0.3828125000000019
 20
0.2398223876953121
 30
0.0
 70
    32
  0
VERTEX
  5
1000066F
  8
VISIBLE
 10
0.385156250000002
 20
0.3122806549072262
 30
0.0
 70
    32
  0
VERTEX
  5
10000670
  8
VISIBLE
 10
0.387500000000002
 20
0.3984374999999998
 30
0.0
 70
    32
  0
VERTEX
  5
10000671
  8
VISIBLE
 10
0.3906250000000019
 20
0.5308837890624998
 30
0.0
 70
    32
  0
VERTEX
  5
10000672
  8
VISIBLE
 10
0.3937500000000018
 20
0.6787109375
 30
0.0
 70
    32
  0
VERTEX
  5
10000673
  8
VISIBLE
 10
0.3968750000000018
 20
0.8367919921875001
 30
0.0
 70
    32
  0
VERTEX
  5
10000674
  8
VISIBLE
 10
0.4000000000000017
 20
1.0
 30
0.0
 70
    32
  0
SEQEND
  5
10000781
  8
VISIBLE
  0
LINE
  5
F47E5
  8
VISIBLE
 10
-0.3500000000000001
 20
0.0750000000000002
 30
0.0
 11
-0.3500000000000001
 21
-0.0749999999999998
 31
0.0
  0
POLYLINE
  5
F47E6
  8
VISIBLE
 10
0.0
 20
0.0
 30
0.0
 66
     1
 70
     8
  0
VERTEX
  5
10000679
  8
VISIBLE
 10
2.200000000000001
 20
1.0
 30
0.0
 70
    32
  0
VERTEX
  5
1000067A
  8
VISIBLE
 10
2.196875
 20
0.8367919921875001
 30
0.0
 70
    32
  0
VERTEX
  5
1000067B
  8
VISIBLE
 10
2.193750000000001
 20
0.6787109375
 30
0.0
 70
    32
  0
VERTEX
  5
1000067C
  8
VISIBLE
 10
2.190625000000001
 20
0.5308837890624998
 30
0.0
 70
    32
  0
VERTEX
  5
1000067D
  8
VISIBLE
 10
2.1875
 20
0.3984374999999998
 30
0.0
 70
    32
  0
VERTEX
  5
1000067E
  8
VISIBLE
 10
2.185156250000001
 20
0.3122806549072262
 30
0.0
 70
    32
  0
VERTEX
  5
1000067F
  8
VISIBLE
 10
2.182812500000001
 20
0.2398223876953121
 30
0.0
 70
    32
  0
VERTEX
  5
10000680
  8
VISIBLE
 10
2.180468750000001
 20
0.1832256317138668
 30
0.0
 70
    32
  0
VERTEX
  5
10000681
  8
VISIBLE
 10
2.178125000000001
 20
0.1446533203124996
 30
0.0
 70
    32
  0
VERTEX
  5
10000682
  8
VISIBLE
 10
2.17578125
 20
0.1262683868408198
 30
0.0
 70
    32
  0
VERTEX
  5
10000683
  8
VISIBLE
 10
2.175390625000001
 20
0.1253187656402583
 30
0.0
 70
    32
  0
VERTEX
  5
10000684
  8
VISIBLE
 10
2.175195312500001
 20
0.1250799000263209
 30
0.0
 70
    32
  0
VERTEX
  5
10000685
  8
VISIBLE
 10
2.175000000000001
 20
0.1249999999999995
 30
0.0
 70
    32
  0
VERTEX
  5
10000686
  8
VISIBLE
 10
2.174804687500001
 20
0.1250799000263209
 30
0.0
 70
    32
  0
VERTEX
  5
10000687
  8
VISIBLE
 10
2.174609375000001
 20
0.1253187656402583
 30
0.0
 70
    32
  0
VERTEX
  5
10000688
  8
VISIBLE
 10
2.174218750000001
 20
0.1262683868408198
 30
0.0
 70
    32
  0
VERTEX
  5
10000689
  8
VISIBLE
 10
2.171875000000001
 20
0.1446533203124996
 30
0.0
 70
    32
  0
VERTEX
  5
1000068A
  8
VISIBLE
 10
2.169531250000001
 20
0.1832256317138668
 30
0.0
 70
    32
  0
VERTEX
  5
1000068B
  8
VISIBLE
 10
2.167187500000001
 20
0.2398223876953121
 30
0.0
 70
    32
  0
VERTEX
  5
1000068C
  8
VISIBLE
 10
2.164843750000001
 20
0.3122806549072263
 30
0.0
 70
    32
  0
VERTEX
  5
1000068D
  8
VISIBLE
 10
2.162500000000001
 20
0.3984374999999998
 30
0.0
 70
    32
  0
VERTEX
  5
1000068E
  8
VISIBLE
 10
2.159375000000001
 20
0.5308837890624998
 30
0.0
 70
    32
  0
VERTEX
  5
1000068F
  8
VISIBLE
 10
2.156250000000001
 20
0.6787109375
 30
0.0
 70
    32
  0
VERTEX
  5
10000690
  8
VISIBLE
 10
2.153125000000001
 20
0.8367919921875001
 30
0.0
 70
    32
  0
VERTEX
  5
10000691
  8
VISIBLE
 10
2.150000000000001
 20
1.0
 30
0.0
 70
    32
  0
SEQEND
  5
10000782
  8
VISIBLE
  0
POLYLINE
  5
F47E7
  8
VISIBLE
 10
0.0
 20
0.0
 30
0.0
 66
     1
 70
     8
  0
VERTEX
  5
10000694
  8
VISIBLE
 10
1.150000000000001
 20
1.0
 30
0.0
 70
    32
  0
VERTEX
  5
10000695
  8
VISIBLE
 10
1.153125000000001
 20
0.8367919921875001
 30
0.0
 70
    32
  0
VERTEX
  5
10000696
  8
VISIBLE
 10
1.156250000000001
 20
0.6787109374999998
 30
0.0
 70
    32
  0
VERTEX
  5
10000697
  8
VISIBLE
 10
1.159375000000001
 20
0.5308837890624998
 30
0.0
 70
    32
  0
VERTEX
  5
10000698
  8
VISIBLE
 10
1.162500000000001
 20
0.3984374999999997
 30
0.0
 70
    32
  0
VERTEX
  5
10000699
  8
VISIBLE
 10
1.164843750000001
 20
0.3122806549072261
 30
0.0
 70
    32
  0
VERTEX
  5
1000069A
  8
VISIBLE
 10
1.167187500000002
 20
0.2398223876953121
 30
0.0
 70
    32
  0
VERTEX
  5
1000069B
  8
VISIBLE
 10
1.169531250000002
 20
0.1832256317138667
 30
0.0
 70
    32
  0
VERTEX
  5
1000069C
  8
VISIBLE
 10
1.171875000000002
 20
0.1446533203124995
 30
0.0
 70
    32
  0
VERTEX
  5
1000069D
  8
VISIBLE
 10
1.174218750000002
 20
0.1262683868408198
 30
0.0
 70
    32
  0
VERTEX
  5
1000069E
  8
VISIBLE
 10
1.174609375000002
 20
0.1253187656402583
 30
0.0
 70
    32
  0
VERTEX
  5
1000069F
  8
VISIBLE
 10
1.174804687500002
 20
0.1250799000263209
 30
0.0
 70
    32
  0
VERTEX
  5
100006A0
  8
VISIBLE
 10
1.175000000000002
 20
0.1249999999999995
 30
0.0
 70
    32
  0
VERTEX
  5
100006A1
  8
VISIBLE
 10
1.175195312500002
 20
0.1250799000263209
 30
0.0
 70
    32
  0
VERTEX
  5
100006A2
  8
VISIBLE
 10
1.175390625000002
 20
0.1253187656402583
 30
0.0
 70
    32
  0
VERTEX
  5
100006A3
  8
VISIBLE
 10
1.175781250000002
 20
0.1262683868408198
 30
0.0
 70
    32
  0
VERTEX
  5
100006A4
  8
VISIBLE
 10
1.178125000000002
 20
0.1446533203124996
 30
0.0
 70
    32
  0
VERTEX
  5
100006A5
  8
VISIBLE
 10
1.180468750000002
 20
0.1832256317138667
 30
0.0
 70
    32
  0
VERTEX
  5
100006A6
  8
VISIBLE
 10
1.182812500000002
 20
0.2398223876953121
 30
0.0
 70
    32
  0
VERTEX
  5
100006A7
  8
VISIBLE
 10
1.185156250000002
 20
0.3122806549072262
 30
0.0
 70
    32
  0
VERTEX
  5
100006A8
  8
VISIBLE
 10
1.187500000000002
 20
0.3984374999999998
 30
0.0
 70
    32
  0
VERTEX
  5
100006A9
  8
VISIBLE
 10
1.190625000000002
 20
0.5308837890624998
 30
0.0
 70
    32
  0
VERTEX
  5
100006AA
  8
VISIBLE
 10
1.193750000000002
 20
0.6787109375
 30
0.0
 70
    32
  0
VERTEX
  5
100006AB
  8
VISIBLE
 10
1.196875000000002
 20
0.8367919921875001
 30
0.0
 70
    32
  0
VERTEX
  5
100006AC
  8
VISIBLE
 10
1.200000000000002
 20
1.0
 30
0.0
 70
    32
  0
SEQEND
  5
10000783
  8
VISIBLE
  0
POLYLINE
  5
F47E8
  8
VISIBLE
 10
0.0
 20
0.0
 30
0.0
 66
     1
 70
     8
  0
VERTEX
  5
100006AF
  8
VISIBLE
 10
0.1500000000000003
 20
-1.0
 30
0.0
 70
    32
  0
VERTEX
  5
100006B0
  8
VISIBLE
 10
0.1531250000000002
 20
-0.8367919921875
 30
0.0
 70
    32
  0
VERTEX
  5
100006B1
  8
VISIBLE
 10
0.15625
 20
-0.6787109374999998
 30
0.0
 70
    32
  0
VERTEX
  5
100006B2
  8
VISIBLE
 10
0.1593749999999997
 20
-0.5308837890624999
 30
0.0
 70
    32
  0
VERTEX
  5
100006B3
  8
VISIBLE
 10
0.1624999999999994
 20
-0.3984374999999998
 30
0.0
 70
    32
  0
VERTEX
  5
100006B4
  8
VISIBLE
 10
0.1648437499999992
 20
-0.3122806549072264
 30
0.0
 70
    32
  0
VERTEX
  5
100006B5
  8
VISIBLE
 10
0.167187499999999
 20
-0.2398223876953124
 30
0.0
 70
    32
  0
VERTEX
  5
100006B6
  8
VISIBLE
 10
0.1695312499999988
 20
-0.1832256317138671
 30
0.0
 70
    32
  0
VERTEX
  5
100006B7
  8
VISIBLE
 10
0.1718749999999986
 20
-0.1446533203124999
 30
0.0
 70
    32
  0
VERTEX
  5
100006B8
  8
VISIBLE
 10
0.1742187499999985
 20
-0.1262683868408202
 30
0.0
 70
    32
  0
VERTEX
  5
100006B9
  8
VISIBLE
 10
0.1746093749999985
 20
-0.1253187656402587
 30
0.0
 70
    32
  0
VERTEX
  5
100006BA
  8
VISIBLE
 10
0.1748046874999986
 20
-0.1250799000263213
 30
0.0
 70
    32
  0
VERTEX
  5
100006BB
  8
VISIBLE
 10
0.1749999999999985
 20
-0.1249999999999999
 30
0.0
 70
    32
  0
VERTEX
  5
100006BC
  8
VISIBLE
 10
0.1751953124999985
 20
-0.1250799000263213
 30
0.0
 70
    32
  0
VERTEX
  5
100006BD
  8
VISIBLE
 10
0.1753906249999986
 20
-0.1253187656402587
 30
0.0
 70
    32
  0
VERTEX
  5
100006BE
  8
VISIBLE
 10
0.1757812499999985
 20
-0.1262683868408202
 30
0.0
 70
    32
  0
VERTEX
  5
100006BF
  8
VISIBLE
 10
0.1781249999999986
 20
-0.1446533203124999
 30
0.0
 70
    32
  0
VERTEX
  5
100006C0
  8
VISIBLE
 10
0.1804687499999987
 20
-0.1832256317138671
 30
0.0
 70
    32
  0
VERTEX
  5
100006C1
  8
VISIBLE
 10
0.1828124999999989
 20
-0.2398223876953124
 30
0.0
 70
    32
  0
VERTEX
  5
100006C2
  8
VISIBLE
 10
0.1851562499999991
 20
-0.3122806549072264
 30
0.0
 70
    32
  0
VERTEX
  5
100006C3
  8
VISIBLE
 10
0.1874999999999993
 20
-0.3984374999999998
 30
0.0
 70
    32
  0
VERTEX
  5
100006C4
  8
VISIBLE
 10
0.1906249999999995
 20
-0.5308837890625
 30
0.0
 70
    32
  0
VERTEX
  5
100006C5
  8
VISIBLE
 10
0.1937499999999998
 20
-0.6787109374999998
 30
0.0
 70
    32
  0
VERTEX
  5
100006C6
  8
VISIBLE
 10
0.196875
 20
-0.8367919921875
 30
0.0
 70
    32
  0
VERTEX
  5
100006C7
  8
VISIBLE
 10
0.2
 20
-1.0
 30
0.0
 70
    32
  0
SEQEND
  5
10000784
  8
VISIBLE
  0
LINE
  5
F47E9
  8
VISIBLE
 10
1.350000000000001
 20
-1.0
 30
0.0
 11
1.2
 21
-1.0
 31
0.0
  0
LINE
  5
F47EA
  8
VISIBLE
 10
-0.7500000000000002
 20
0.7500000000000002
 30
0.0
 11
-0.6320000000000002
 21
0.7500000000000002
 31
0.0
  0
POLYLINE
  5
F47EB
  8
VISIBLE
 10
0.0
 20
0.0
 30
0.0
 66
     1
 70
     8
  0
VERTEX
  5
100006CE
  8
VISIBLE
 10
2.25
 20
0.0
 30
0.0
 70
    32
  0
VERTEX
  5
100006CF
  8
VISIBLE
 10
2.2505615234375
 20
0.1632080078125001
 30
0.0
 70
    32
  0
VERTEX
  5
100006D0
  8
VISIBLE
 10
2.2521484375
 20
0.3212890625000002
 30
0.0
 70
    32
  0
VERTEX
  5
100006D1
  8
VISIBLE
 10
2.2546142578125
 20
0.4691162109375001
 30
0.0
 70
    32
  0
VERTEX
  5
100006D2
  8
VISIBLE
 10
2.2578125
 20
0.6015625000000001
 30
0.0
 70
    32
  0
VERTEX
  5
100006D3
  8
VISIBLE
 10
2.260603713989258
 20
0.6877193450927735
 30
0.0
 70
    32
  0
VERTEX
  5
100006D4
  8
VISIBLE
 10
2.263662719726563
 20
0.7601776123046876
 30
0.0
 70
    32
  0
VERTEX
  5
100006D5
  8
VISIBLE
 10
2.266927719116212
 20
0.816774368286133
 30
0.0
 70
    32
  0
VERTEX
  5
100006D6
  8
VISIBLE
 10
2.270336914062501
 20
0.8553466796875002
 30
0.0
 70
    32
  0
VERTEX
  5
100006D7
  8
VISIBLE
 10
2.272659301757813
 20
0.8699798583984374
 30
0.0
 70
    32
  0
VERTEX
  5
100006D8
  8
VISIBLE
 10
2.273828506469727
 20
0.8737316131591797
 30
0.0
 70
    32
  0
VERTEX
  5
100006D9
  8
VISIBLE
 10
2.274414110183717
 20
0.8746812343597412
 30
0.0
 70
    32
  0
VERTEX
  5
100006DA
  8
VISIBLE
 10
2.275000000000001
 20
0.8750000000000001
 30
0.0
 70
    32
  0
VERTEX
  5
100006DB
  8
VISIBLE
 10
2.275585889816285
 20
0.8746812343597412
 30
0.0
 70
    32
  0
VERTEX
  5
100006DC
  8
VISIBLE
 10
2.276171493530274
 20
0.8737316131591797
 30
0.0
 70
    32
  0
VERTEX
  5
100006DD
  8
VISIBLE
 10
2.277340698242188
 20
0.8699798583984374
 30
0.0
 70
    32
  0
VERTEX
  5
100006DE
  8
VISIBLE
 10
2.2796630859375
 20
0.8553466796875002
 30
0.0
 70
    32
  0
VERTEX
  5
100006DF
  8
VISIBLE
 10
2.28307228088379
 20
0.816774368286133
 30
0.0
 70
    32
  0
VERTEX
  5
100006E0
  8
VISIBLE
 10
2.286337280273438
 20
0.7601776123046876
 30
0.0
 70
    32
  0
VERTEX
  5
100006E1
  8
VISIBLE
 10
2.289396286010743
 20
0.6877193450927734
 30
0.0
 70
    32
  0
VERTEX
  5
100006E2
  8
VISIBLE
 10
2.2921875
 20
0.6015625
 30
0.0
 70
    32
  0
VERTEX
  5
100006E3
  8
VISIBLE
 10
2.2953857421875
 20
0.4691162109374999
 30
0.0
 70
    32
  0
VERTEX
  5
100006E4
  8
VISIBLE
 10
2.2978515625
 20
0.3212890625
 30
0.0
 70
    32
  0
VERTEX
  5
100006E5
  8
VISIBLE
 10
2.2994384765625
 20
0.1632080078124999
 30
0.0
 70
    32
  0
VERTEX
  5
100006E6
  8
VISIBLE
 10
2.3
 20
-0.0000000000000001
 30
0.0
 70
    32
  0
VERTEX
  5
100006E7
  8
VISIBLE
 10
2.2994384765625
 20
-0.1632080078125002
 30
0.0
 70
    32
  0
VERTEX
  5
100006E8
  8
VISIBLE
 10
2.2978515625
 20
-0.3212890625000002
 30
0.0
 70
    32
  0
VERTEX
  5
100006E9
  8
VISIBLE
 10
2.2953857421875
 20
-0.4691162109375002
 30
0.0
 70
    32
  0
VERTEX
  5
100006EA
  8
VISIBLE
 10
2.2921875
 20
-0.6015625000000002
 30
0.0
 70
    32
  0
VERTEX
  5
100006EB
  8
VISIBLE
 10
2.289396286010743
 20
-0.6877193450927737
 30
0.0
 70
    32
  0
VERTEX
  5
100006EC
  8
VISIBLE
 10
2.286337280273438
 20
-0.7601776123046878
 30
0.0
 70
    32
  0
VERTEX
  5
100006ED
  8
VISIBLE
 10
2.283072280883789
 20
-0.816774368286133
 30
0.0
 70
    32
  0
VERTEX
  5
100006EE
  8
VISIBLE
 10
2.2796630859375
 20
-0.8553466796875003
 30
0.0
 70
    32
  0
VERTEX
  5
100006EF
  8
VISIBLE
 10
2.277340698242188
 20
-0.8699798583984377
 30
0.0
 70
    32
  0
VERTEX
  5
100006F0
  8
VISIBLE
 10
2.276171493530274
 20
-0.8737316131591799
 30
0.0
 70
    32
  0
VERTEX
  5
100006F1
  8
VISIBLE
 10
2.275585889816285
 20
-0.8746812343597413
 30
0.0
 70
    32
  0
VERTEX
  5
100006F2
  8
VISIBLE
 10
2.275000000000001
 20
-0.8750000000000002
 30
0.0
 70
    32
  0
VERTEX
  5
100006F3
  8
VISIBLE
 10
2.274414110183716
 20
-0.8746812343597413
 30
0.0
 70
    32
  0
VERTEX
  5
100006F4
  8
VISIBLE
 10
2.273828506469727
 20
-0.8737316131591799
 30
0.0
 70
    32
  0
VERTEX
  5
100006F5
  8
VISIBLE
 10
2.272659301757813
 20
-0.8699798583984377
 30
0.0
 70
    32
  0
VERTEX
  5
100006F6
  8
VISIBLE
 10
2.270336914062501
 20
-0.8553466796875002
 30
0.0
 70
    32
  0
VERTEX
  5
100006F7
  8
VISIBLE
 10
2.266927719116212
 20
-0.816774368286133
 30
0.0
 70
    32
  0
VERTEX
  5
100006F8
  8
VISIBLE
 10
2.263662719726563
 20
-0.7601776123046876
 30
0.0
 70
    32
  0
VERTEX
  5
100006F9
  8
VISIBLE
 10
2.260603713989258
 20
-0.6877193450927735
 30
0.0
 70
    32
  0
VERTEX
  5
100006FA
  8
VISIBLE
 10
2.2578125
 20
-0.6015625000000001
 30
0.0
 70
    32
  0
VERTEX
  5
100006FB
  8
VISIBLE
 10
2.2546142578125
 20
-0.4691162109375001
 30
0.0
 70
    32
  0
VERTEX
  5
100006FC
  8
VISIBLE
 10
2.2521484375
 20
-0.3212890625000002
 30
0.0
 70
    32
  0
VERTEX
  5
100006FD
  8
VISIBLE
 10
2.2505615234375
 20
-0.1632080078125001
 30
0.0
 70
    32
  0
VERTEX
  5
100006FE
  8
VISIBLE
 10
2.25
 20
0.0
 30
0.0
 70
    32
  0
SEQEND
  5
10000785
  8
VISIBLE
  0
POLYLINE
  5
F47EC
  8
VISIBLE
 10
0.0
 20
0.0
 30
0.0
 66
     1
 70
     8
  0
VERTEX
  5
10000701
  8
VISIBLE
 10
0.2
 20
1.0
 30
0.0
 70
    32
  0
VERTEX
  5
10000702
  8
VISIBLE
 10
0.196875
 20
0.8367919921875001
 30
0.0
 70
    32
  0
VERTEX
  5
10000703
  8
VISIBLE
 10
0.1937499999999999
 20
0.6787109375
 30
0.0
 70
    32
  0
VERTEX
  5
10000704
  8
VISIBLE
 10
0.1906249999999997
 20
0.5308837890624998
 30
0.0
 70
    32
  0
VERTEX
  5
10000705
  8
VISIBLE
 10
0.1874999999999994
 20
0.3984374999999998
 30
0.0
 70
    32
  0
VERTEX
  5
10000706
  8
VISIBLE
 10
0.1851562499999992
 20
0.3122806549072262
 30
0.0
 70
    32
  0
VERTEX
  5
10000707
  8
VISIBLE
 10
0.1828124999999991
 20
0.2398223876953121
 30
0.0
 70
    32
  0
VERTEX
  5
10000708
  8
VISIBLE
 10
0.1804687499999988
 20
0.1832256317138668
 30
0.0
 70
    32
  0
VERTEX
  5
10000709
  8
VISIBLE
 10
0.1781249999999987
 20
0.1446533203124996
 30
0.0
 70
    32
  0
VERTEX
  5
1000070A
  8
VISIBLE
 10
0.1757812499999985
 20
0.1262683868408198
 30
0.0
 70
    32
  0
VERTEX
  5
1000070B
  8
VISIBLE
 10
0.1753906249999986
 20
0.1253187656402583
 30
0.0
 70
    32
  0
VERTEX
  5
1000070C
  8
VISIBLE
 10
0.1751953124999986
 20
0.1250799000263209
 30
0.0
 70
    32
  0
VERTEX
  5
1000070D
  8
VISIBLE
 10
0.1749999999999985
 20
0.1249999999999995
 30
0.0
 70
    32
  0
VERTEX
  5
1000070E
  8
VISIBLE
 10
0.1748046874999985
 20
0.1250799000263209
 30
0.0
 70
    32
  0
VERTEX
  5
1000070F
  8
VISIBLE
 10
0.1746093749999985
 20
0.1253187656402583
 30
0.0
 70
    32
  0
VERTEX
  5
10000710
  8
VISIBLE
 10
0.1742187499999985
 20
0.1262683868408198
 30
0.0
 70
    32
  0
VERTEX
  5
10000711
  8
VISIBLE
 10
0.1718749999999984
 20
0.1446533203124996
 30
0.0
 70
    32
  0
VERTEX
  5
10000712
  8
VISIBLE
 10
0.1695312499999984
 20
0.1832256317138668
 30
0.0
 70
    32
  0
VERTEX
  5
10000713
  8
VISIBLE
 10
0.1671874999999984
 20
0.2398223876953121
 30
0.0
 70
    32
  0
VERTEX
  5
10000714
  8
VISIBLE
 10
0.1648437499999984
 20
0.3122806549072263
 30
0.0
 70
    32
  0
VERTEX
  5
10000715
  8
VISIBLE
 10
0.1624999999999985
 20
0.3984374999999998
 30
0.0
 70
    32
  0
VERTEX
  5
10000716
  8
VISIBLE
 10
0.1593749999999985
 20
0.5308837890624998
 30
0.0
 70
    32
  0
VERTEX
  5
10000717
  8
VISIBLE
 10
0.1562499999999986
 20
0.6787109375
 30
0.0
 70
    32
  0
VERTEX
  5
10000718
  8
VISIBLE
 10
0.1531249999999987
 20
0.8367919921875001
 30
0.0
 70
    32
  0
VERTEX
  5
10000719
  8
VISIBLE
 10
0.1499999999999987
 20
1.0
 30
0.0
 70
    32
  0
SEQEND
  5
10000786
  8
VISIBLE
  0
POLYLINE
  5
F47ED
  8
VISIBLE
 10
0.0
 20
0.0
 30
0.0
 66
     1
 70
     8
  0
VERTEX
  5
1000071C
  8
VISIBLE
 10
1.299999999999997
 20
-0.0000000000000001
 30
0.0
 70
    32
  0
VERTEX
  5
1000071D
  8
VISIBLE
 10
1.299438476562497
 20
0.1632080078125
 30
0.0
 70
    32
  0
VERTEX
  5
1000071E
  8
VISIBLE
 10
1.297851562499997
 20
0.3212890625
 30
0.0
 70
    32
  0
VERTEX
  5
1000071F
  8
VISIBLE
 10
1.295385742187497
 20
0.4691162109374999
 30
0.0
 70
    32
  0
VERTEX
  5
10000720
  8
VISIBLE
 10
1.292187499999997
 20
0.6015625000000001
 30
0.0
 70
    32
  0
VERTEX
  5
10000721
  8
VISIBLE
 10
1.289396286010739
 20
0.6877193450927734
 30
0.0
 70
    32
  0
VERTEX
  5
10000722
  8
VISIBLE
 10
1.286337280273434
 20
0.7601776123046875
 30
0.0
 70
    32
  0
VERTEX
  5
10000723
  8
VISIBLE
 10
1.283072280883786
 20
0.8167743682861329
 30
0.0
 70
    32
  0
VERTEX
  5
10000724
  8
VISIBLE
 10
1.279663085937496
 20
0.8553466796875
 30
0.0
 70
    32
  0
VERTEX
  5
10000725
  8
VISIBLE
 10
1.277340698242184
 20
0.8699798583984374
 30
0.0
 70
    32
  0
VERTEX
  5
10000726
  8
VISIBLE
 10
1.27617149353027
 20
0.8737316131591797
 30
0.0
 70
    32
  0
VERTEX
  5
10000727
  8
VISIBLE
 10
1.27558588981628
 20
0.8746812343597411
 30
0.0
 70
    32
  0
VERTEX
  5
10000728
  8
VISIBLE
 10
1.274999999999997
 20
0.8750000000000001
 30
0.0
 70
    32
  0
VERTEX
  5
10000729
  8
VISIBLE
 10
1.274414110183712
 20
0.8746812343597411
 30
0.0
 70
    32
  0
VERTEX
  5
1000072A
  8
VISIBLE
 10
1.273828506469723
 20
0.8737316131591797
 30
0.0
 70
    32
  0
VERTEX
  5
1000072B
  8
VISIBLE
 10
1.272659301757809
 20
0.8699798583984374
 30
0.0
 70
    32
  0
VERTEX
  5
1000072C
  8
VISIBLE
 10
1.270336914062497
 20
0.8553466796874999
 30
0.0
 70
    32
  0
VERTEX
  5
1000072D
  8
VISIBLE
 10
1.266927719116207
 20
0.8167743682861328
 30
0.0
 70
    32
  0
VERTEX
  5
1000072E
  8
VISIBLE
 10
1.263662719726559
 20
0.7601776123046873
 30
0.0
 70
    32
  0
VERTEX
  5
1000072F
  8
VISIBLE
 10
1.260603713989255
 20
0.6877193450927733
 30
0.0
 70
    32
  0
VERTEX
  5
10000730
  8
VISIBLE
 10
1.257812499999997
 20
0.6015624999999999
 30
0.0
 70
    32
  0
VERTEX
  5
10000731
  8
VISIBLE
 10
1.254614257812497
 20
0.4691162109374999
 30
0.0
 70
    32
  0
VERTEX
  5
10000732
  8
VISIBLE
 10
1.252148437499997
 20
0.3212890624999999
 30
0.0
 70
    32
  0
VERTEX
  5
10000733
  8
VISIBLE
 10
1.250561523437497
 20
0.1632080078124998
 30
0.0
 70
    32
  0
VERTEX
  5
10000734
  8
VISIBLE
 10
1.249999999999997
 20
-0.0000000000000001
 30
0.0
 70
    32
  0
VERTEX
  5
10000735
  8
VISIBLE
 10
1.250561523437497
 20
-0.1632080078125002
 30
0.0
 70
    32
  0
VERTEX
  5
10000736
  8
VISIBLE
 10
1.252148437499997
 20
-0.3212890625000003
 30
0.0
 70
    32
  0
VERTEX
  5
10000737
  8
VISIBLE
 10
1.254614257812497
 20
-0.4691162109375002
 30
0.0
 70
    32
  0
VERTEX
  5
10000738
  8
VISIBLE
 10
1.257812499999997
 20
-0.6015625000000002
 30
0.0
 70
    32
  0
VERTEX
  5
10000739
  8
VISIBLE
 10
1.260603713989255
 20
-0.6877193450927737
 30
0.0
 70
    32
  0
VERTEX
  5
1000073A
  8
VISIBLE
 10
1.263662719726559
 20
-0.7601776123046878
 30
0.0
 70
    32
  0
VERTEX
  5
1000073B
  8
VISIBLE
 10
1.266927719116208
 20
-0.816774368286133
 30
0.0
 70
    32
  0
VERTEX
  5
1000073C
  8
VISIBLE
 10
1.270336914062497
 20
-0.8553466796875003
 30
0.0
 70
    32
  0
VERTEX
  5
1000073D
  8
VISIBLE
 10
1.272659301757809
 20
-0.8699798583984375
 30
0.0
 70
    32
  0
VERTEX
  5
1000073E
  8
VISIBLE
 10
1.273828506469723
 20
-0.8737316131591798
 30
0.0
 70
    32
  0
VERTEX
  5
1000073F
  8
VISIBLE
 10
1.274414110183713
 20
-0.8746812343597413
 30
0.0
 70
    32
  0
VERTEX
  5
10000740
  8
VISIBLE
 10
1.274999999999997
 20
-0.8750000000000001
 30
0.0
 70
    32
  0
VERTEX
  5
10000741
  8
VISIBLE
 10
1.275585889816281
 20
-0.8746812343597413
 30
0.0
 70
    32
  0
VERTEX
  5
10000742
  8
VISIBLE
 10
1.27617149353027
 20
-0.8737316131591798
 30
0.0
 70
    32
  0
VERTEX
  5
10000743
  8
VISIBLE
 10
1.277340698242184
 20
-0.8699798583984375
 30
0.0
 70
    32
  0
VERTEX
  5
10000744
  8
VISIBLE
 10
1.279663085937496
 20
-0.8553466796875002
 30
0.0
 70
    32
  0
VERTEX
  5
10000745
  8
VISIBLE
 10
1.283072280883786
 20
-0.816774368286133
 30
0.0
 70
    32
  0
VERTEX
  5
10000746
  8
VISIBLE
 10
1.286337280273434
 20
-0.7601776123046876
 30
0.0
 70
    32
  0
VERTEX
  5
10000747
  8
VISIBLE
 10
1.289396286010739
 20
-0.6877193450927735
 30
0.0
 70
    32
  0
VERTEX
  5
10000748
  8
VISIBLE
 10
1.292187499999997
 20
-0.6015625000000001
 30
0.0
 70
    32
  0
VERTEX
  5
10000749
  8
VISIBLE
 10
1.295385742187497
 20
-0.4691162109375001
 30
0.0
 70
    32
  0
VERTEX
  5
1000074A
  8
VISIBLE
 10
1.297851562499997
 20
-0.3212890625000002
 30
0.0
 70
    32
  0
VERTEX
  5
1000074B
  8
VISIBLE
 10
1.299438476562497
 20
-0.1632080078125001
 30
0.0
 70
    32
  0
VERTEX
  5
1000074C
  8
VISIBLE
 10
1.299999999999997
 20
0.0
 30
0.0
 70
    32
  0
SEQEND
  5
10000787
  8
VISIBLE
  0
LINE
  5
F47EE
  8
VISIBLE
 10
-0.7500000000000001
 20
-1.0
 30
0.0
 11
-0.7500000000000001
 21
-0.7499999999999999
 31
0.0
  0
LINE
  5
F47EF
  8
VISIBLE
 10
1.349999999999999
 20
1.0
 30
0.0
 11
1.200000000000002
 21
1.0
 31
0.0
  0
LINE
  5
F47F0
  8
VISIBLE
 10
-0.632
 20
-0.0749999999999999
 30
0.0
 11
-0.632
 21
-0.7499999999999999
 31
0.0
  0
ENDSEC
  0
EOF
